<?xml version="1.0" encoding="utf-8" standalone="no"?>
<!DOCTYPE svg PUBLIC "-//W3C//DTD SVG 1.1//EN"
  "http://www.w3.org/Graphics/SVG/1.1/DTD/svg11.dtd">
<svg xmlns:xlink="http://www.w3.org/1999/xlink" width="396pt" height="236pt" viewBox="0 0 396 236" xmlns="http://www.w3.org/2000/svg" version="1.1">
 <metadata>
  <rdf:RDF xmlns:dc="http://purl.org/dc/elements/1.1/" xmlns:cc="http://creativecommons.org/ns#" xmlns:rdf="http://www.w3.org/1999/02/22-rdf-syntax-ns#">
   <cc:Work>
    <dc:type rdf:resource="http://purl.org/dc/dcmitype/StillImage"/>
    <dc:date>2023-01-06T12:13:19.735438</dc:date>
    <dc:format>image/svg+xml</dc:format>
    <dc:creator>
     <cc:Agent>
      <dc:title>Matplotlib v3.5.1, https://matplotlib.org/</dc:title>
     </cc:Agent>
    </dc:creator>
   </cc:Work>
  </rdf:RDF>
 </metadata>
 <defs>
  <style type="text/css">*{stroke-linejoin: round; stroke-linecap: butt}</style>
 </defs>
 <g id="figure_1">
  <g id="patch_1">
   <path d="M 0 236 
L 396 236 
L 396 0 
L 0 0 
L 0 236 
z
" style="fill: none"/>
  </g>
  <g id="axes_1">
   <g id="patch_2">
    <path d="M 50.5 224.2 
L 345.5 224.2 
L 345.5 47.2 
L 50.5 47.2 
z
" style="fill: #ffffff"/>
   </g>
   <g id="patch_3">
    <path d="M 50.5 224.2 
L 109.5 224.2 
L 109.5 165.2 
L 50.5 165.2 
z
" clip-path="url(#p6e44ac9be4)" style="fill: #ffffff; stroke: #ffffff; stroke-linejoin: miter"/>
   </g>
   <g id="patch_4">
    <path d="M 109.5 224.2 
L 168.5 224.2 
L 168.5 165.2 
L 109.5 165.2 
z
" clip-path="url(#p6e44ac9be4)" style="fill: #ffffff; stroke: #ffffff; stroke-linejoin: miter"/>
   </g>
   <g id="patch_5">
    <path d="M 168.5 224.2 
L 227.5 224.2 
L 227.5 165.2 
L 168.5 165.2 
z
" clip-path="url(#p6e44ac9be4)" style="fill: #ffffff; stroke: #ffffff; stroke-linejoin: miter"/>
   </g>
   <g id="patch_6">
    <path d="M 227.5 224.2 
L 286.5 224.2 
L 286.5 165.2 
L 227.5 165.2 
z
" clip-path="url(#p6e44ac9be4)" style="fill: #ffffff; stroke: #ffffff; stroke-linejoin: miter"/>
   </g>
   <g id="patch_7">
    <path d="M 286.5 224.2 
L 345.5 224.2 
L 345.5 165.2 
L 286.5 165.2 
z
" clip-path="url(#p6e44ac9be4)" style="fill: #ffffff; stroke: #ffffff; stroke-linejoin: miter"/>
   </g>
   <g id="patch_8">
    <path d="M 50.5 165.2 
L 109.5 165.2 
L 109.5 106.2 
L 50.5 106.2 
z
" clip-path="url(#p6e44ac9be4)" style="fill: #ffffff; stroke: #ffffff; stroke-linejoin: miter"/>
   </g>
   <g id="patch_9">
    <path d="M 109.5 165.2 
L 168.5 165.2 
L 168.5 106.2 
L 109.5 106.2 
z
" clip-path="url(#p6e44ac9be4)" style="fill: #ffffff; stroke: #ffffff; stroke-linejoin: miter"/>
   </g>
   <g id="patch_10">
    <path d="M 168.5 165.2 
L 227.5 165.2 
L 227.5 106.2 
L 168.5 106.2 
z
" clip-path="url(#p6e44ac9be4)" style="fill: #ffffff; stroke: #ffffff; stroke-linejoin: miter"/>
   </g>
   <g id="patch_11">
    <path d="M 227.5 165.2 
L 286.5 165.2 
L 286.5 106.2 
L 227.5 106.2 
z
" clip-path="url(#p6e44ac9be4)" style="fill: #008000; stroke: #008000; stroke-linejoin: miter"/>
   </g>
   <g id="patch_12">
    <path d="M 286.5 165.2 
L 345.5 165.2 
L 345.5 106.2 
L 286.5 106.2 
z
" clip-path="url(#p6e44ac9be4)" style="fill: #ffffff; stroke: #ffffff; stroke-linejoin: miter"/>
   </g>
   <g id="patch_13">
    <path d="M 50.5 106.2 
L 109.5 106.2 
L 109.5 47.2 
L 50.5 47.2 
z
" clip-path="url(#p6e44ac9be4)" style="fill: #ffffff; stroke: #ffffff; stroke-linejoin: miter"/>
   </g>
   <g id="patch_14">
    <path d="M 109.5 106.2 
L 168.5 106.2 
L 168.5 47.2 
L 109.5 47.2 
z
" clip-path="url(#p6e44ac9be4)" style="fill: #ffffff; stroke: #ffffff; stroke-linejoin: miter"/>
   </g>
   <g id="patch_15">
    <path d="M 168.5 106.2 
L 227.5 106.2 
L 227.5 47.2 
L 168.5 47.2 
z
" clip-path="url(#p6e44ac9be4)" style="fill: #ffffff; stroke: #ffffff; stroke-linejoin: miter"/>
   </g>
   <g id="patch_16">
    <path d="M 227.5 106.2 
L 286.5 106.2 
L 286.5 47.2 
L 227.5 47.2 
z
" clip-path="url(#p6e44ac9be4)" style="fill: #ffffff; stroke: #ffffff; stroke-linejoin: miter"/>
   </g>
   <g id="patch_17">
    <path d="M 286.5 106.2 
L 345.5 106.2 
L 345.5 47.2 
L 286.5 47.2 
z
" clip-path="url(#p6e44ac9be4)" style="fill: #ffffff; stroke: #ffffff; stroke-linejoin: miter"/>
   </g>
   <g id="PathCollection_1">
    <defs>
     <path id="mc9604203ed" d="M 0 -11.18034 
L -9.682458 5.59017 
L 9.682458 5.59017 
z
" style="stroke: #00ffff"/>
    </defs>
    <g clip-path="url(#p6e44ac9be4)">
     <use xlink:href="#mc9604203ed" x="257" y="135.7" style="fill: #00ffff; stroke: #00ffff"/>
    </g>
   </g>
   <g id="matplotlib.axis_1">
    <g id="text_1">
     <!--   -->
     <g transform="translate(196.093125 43.2)scale(0.12 -0.12)">
      <defs>
       <path id="DejaVuSans-20" transform="scale(0.015625)"/>
      </defs>
      <use xlink:href="#DejaVuSans-20"/>
     </g>
    </g>
   </g>
   <g id="line2d_1">
    <path d="M 50.5 224.2 
L 50.5 47.2 
" clip-path="url(#p6e44ac9be4)" style="fill: none; stroke: #808080; stroke-linecap: square"/>
   </g>
   <g id="line2d_2">
    <path d="M 109.5 224.2 
L 109.5 47.2 
" clip-path="url(#p6e44ac9be4)" style="fill: none; stroke: #808080; stroke-linecap: square"/>
   </g>
   <g id="line2d_3">
    <path d="M 168.5 224.2 
L 168.5 47.2 
" clip-path="url(#p6e44ac9be4)" style="fill: none; stroke: #808080; stroke-linecap: square"/>
   </g>
   <g id="line2d_4">
    <path d="M 227.5 224.2 
L 227.5 47.2 
" clip-path="url(#p6e44ac9be4)" style="fill: none; stroke: #808080; stroke-linecap: square"/>
   </g>
   <g id="line2d_5">
    <path d="M 286.5 224.2 
L 286.5 47.2 
" clip-path="url(#p6e44ac9be4)" style="fill: none; stroke: #808080; stroke-linecap: square"/>
   </g>
   <g id="line2d_6">
    <path d="M 50.5 224.2 
L 345.5 224.2 
" clip-path="url(#p6e44ac9be4)" style="fill: none; stroke: #808080; stroke-linecap: square"/>
   </g>
   <g id="line2d_7">
    <path d="M 50.5 165.2 
L 345.5 165.2 
" clip-path="url(#p6e44ac9be4)" style="fill: none; stroke: #808080; stroke-linecap: square"/>
   </g>
   <g id="line2d_8">
    <path d="M 50.5 106.2 
L 345.5 106.2 
" clip-path="url(#p6e44ac9be4)" style="fill: none; stroke: #808080; stroke-linecap: square"/>
   </g>
   <g id="patch_18">
    <path d="M 50.5 224.2 
L 50.5 47.2 
" style="fill: none; stroke: #000000; stroke-width: 0.8; stroke-linejoin: miter; stroke-linecap: square"/>
   </g>
   <g id="patch_19">
    <path d="M 345.5 224.2 
L 345.5 47.2 
" style="fill: none; stroke: #000000; stroke-width: 0.8; stroke-linejoin: miter; stroke-linecap: square"/>
   </g>
   <g id="patch_20">
    <path d="M 50.5 224.2 
L 345.5 224.2 
" style="fill: none; stroke: #000000; stroke-width: 0.8; stroke-linejoin: miter; stroke-linecap: square"/>
   </g>
   <g id="patch_21">
    <path d="M 50.5 47.2 
L 345.5 47.2 
" style="fill: none; stroke: #000000; stroke-width: 0.8; stroke-linejoin: miter; stroke-linecap: square"/>
   </g>
   <g id="text_2">
    <!--   -->
    <g transform="translate(196.093125 28.081875)scale(0.12 -0.12)">
     <use xlink:href="#DejaVuSans-20"/>
    </g>
   </g>
  </g>
 </g>
 <defs>
  <clipPath id="p6e44ac9be4">
   <rect x="50.5" y="47.2" width="295" height="177"/>
  </clipPath>
 </defs>
</svg>
