<?xml version="1.0" encoding="utf-8" standalone="no"?>
<!DOCTYPE svg PUBLIC "-//W3C//DTD SVG 1.1//EN"
  "http://www.w3.org/Graphics/SVG/1.1/DTD/svg11.dtd">
<svg xmlns:xlink="http://www.w3.org/1999/xlink" width="396pt" height="282.857143pt" viewBox="0 0 396 282.857143" xmlns="http://www.w3.org/2000/svg" version="1.1">
 <metadata>
  <rdf:RDF xmlns:dc="http://purl.org/dc/elements/1.1/" xmlns:cc="http://creativecommons.org/ns#" xmlns:rdf="http://www.w3.org/1999/02/22-rdf-syntax-ns#">
   <cc:Work>
    <dc:type rdf:resource="http://purl.org/dc/dcmitype/StillImage"/>
    <dc:date>2023-05-08T11:39:53.650155</dc:date>
    <dc:format>image/svg+xml</dc:format>
    <dc:creator>
     <cc:Agent>
      <dc:title>Matplotlib v3.5.0, https://matplotlib.org/</dc:title>
     </cc:Agent>
    </dc:creator>
   </cc:Work>
  </rdf:RDF>
 </metadata>
 <defs>
  <style type="text/css">*{stroke-linejoin: round; stroke-linecap: butt}</style>
 </defs>
 <g id="figure_1">
  <g id="patch_1">
   <path d="M 0 282.857143 
L 396 282.857143 
L 396 0 
L 0 0 
L 0 282.857143 
z
" style="fill: none"/>
  </g>
  <g id="axes_1">
   <g id="patch_2">
    <path d="M 49.5 268.714286 
L 346.5 268.714286 
L 346.5 56.571429 
L 49.5 56.571429 
z
" style="fill: #ffffff"/>
   </g>
   <g id="patch_3">
    <path d="M 49.5 268.714286 
L 91.928571 268.714286 
L 91.928571 226.285714 
L 49.5 226.285714 
z
" clip-path="url(#pde7892cf81)" style="fill: #ff0000; stroke: #ff0000; stroke-linejoin: miter"/>
   </g>
   <g id="patch_4">
    <path d="M 91.928571 268.714286 
L 134.357143 268.714286 
L 134.357143 226.285714 
L 91.928571 226.285714 
z
" clip-path="url(#pde7892cf81)" style="fill: #008000; stroke: #008000; stroke-linejoin: miter"/>
   </g>
   <g id="patch_5">
    <path d="M 134.357143 268.714286 
L 176.785714 268.714286 
L 176.785714 226.285714 
L 134.357143 226.285714 
z
" clip-path="url(#pde7892cf81)" style="fill: #ff0000; stroke: #ff0000; stroke-linejoin: miter"/>
   </g>
   <g id="patch_6">
    <path d="M 176.785714 268.714286 
L 219.214286 268.714286 
L 219.214286 226.285714 
L 176.785714 226.285714 
z
" clip-path="url(#pde7892cf81)" style="fill: #008000; stroke: #008000; stroke-linejoin: miter"/>
   </g>
   <g id="patch_7">
    <path d="M 219.214286 268.714286 
L 261.642857 268.714286 
L 261.642857 226.285714 
L 219.214286 226.285714 
z
" clip-path="url(#pde7892cf81)" style="fill: #0000ff; stroke: #0000ff; stroke-linejoin: miter"/>
   </g>
   <g id="patch_8">
    <path d="M 261.642857 268.714286 
L 304.071429 268.714286 
L 304.071429 226.285714 
L 261.642857 226.285714 
z
" clip-path="url(#pde7892cf81)" style="fill: #008000; stroke: #008000; stroke-linejoin: miter"/>
   </g>
   <g id="patch_9">
    <path d="M 304.071429 268.714286 
L 346.5 268.714286 
L 346.5 226.285714 
L 304.071429 226.285714 
z
" clip-path="url(#pde7892cf81)" style="fill: #0000ff; stroke: #0000ff; stroke-linejoin: miter"/>
   </g>
   <g id="patch_10">
    <path d="M 49.5 226.285714 
L 91.928571 226.285714 
L 91.928571 183.857143 
L 49.5 183.857143 
z
" clip-path="url(#pde7892cf81)" style="fill: #ffffff; stroke: #ffffff; stroke-linejoin: miter"/>
   </g>
   <g id="patch_11">
    <path d="M 91.928571 226.285714 
L 134.357143 226.285714 
L 134.357143 183.857143 
L 91.928571 183.857143 
z
" clip-path="url(#pde7892cf81)" style="fill: #ffffff; stroke: #ffffff; stroke-linejoin: miter"/>
   </g>
   <g id="patch_12">
    <path d="M 134.357143 226.285714 
L 176.785714 226.285714 
L 176.785714 183.857143 
L 134.357143 183.857143 
z
" clip-path="url(#pde7892cf81)" style="fill: #ffffff; stroke: #ffffff; stroke-linejoin: miter"/>
   </g>
   <g id="patch_13">
    <path d="M 176.785714 226.285714 
L 219.214286 226.285714 
L 219.214286 183.857143 
L 176.785714 183.857143 
z
" clip-path="url(#pde7892cf81)" style="fill: #ffffff; stroke: #ffffff; stroke-linejoin: miter"/>
   </g>
   <g id="patch_14">
    <path d="M 219.214286 226.285714 
L 261.642857 226.285714 
L 261.642857 183.857143 
L 219.214286 183.857143 
z
" clip-path="url(#pde7892cf81)" style="fill: #ffffff; stroke: #ffffff; stroke-linejoin: miter"/>
   </g>
   <g id="patch_15">
    <path d="M 261.642857 226.285714 
L 304.071429 226.285714 
L 304.071429 183.857143 
L 261.642857 183.857143 
z
" clip-path="url(#pde7892cf81)" style="fill: #ffffff; stroke: #ffffff; stroke-linejoin: miter"/>
   </g>
   <g id="patch_16">
    <path d="M 304.071429 226.285714 
L 346.5 226.285714 
L 346.5 183.857143 
L 304.071429 183.857143 
z
" clip-path="url(#pde7892cf81)" style="fill: #ffffff; stroke: #ffffff; stroke-linejoin: miter"/>
   </g>
   <g id="patch_17">
    <path d="M 49.5 183.857143 
L 91.928571 183.857143 
L 91.928571 141.428571 
L 49.5 141.428571 
z
" clip-path="url(#pde7892cf81)" style="fill: #ffffff; stroke: #ffffff; stroke-linejoin: miter"/>
   </g>
   <g id="patch_18">
    <path d="M 91.928571 183.857143 
L 134.357143 183.857143 
L 134.357143 141.428571 
L 91.928571 141.428571 
z
" clip-path="url(#pde7892cf81)" style="fill: #ffffff; stroke: #ffffff; stroke-linejoin: miter"/>
   </g>
   <g id="patch_19">
    <path d="M 134.357143 183.857143 
L 176.785714 183.857143 
L 176.785714 141.428571 
L 134.357143 141.428571 
z
" clip-path="url(#pde7892cf81)" style="fill: #ffffff; stroke: #ffffff; stroke-linejoin: miter"/>
   </g>
   <g id="patch_20">
    <path d="M 176.785714 183.857143 
L 219.214286 183.857143 
L 219.214286 141.428571 
L 176.785714 141.428571 
z
" clip-path="url(#pde7892cf81)" style="fill: #ffffff; stroke: #ffffff; stroke-linejoin: miter"/>
   </g>
   <g id="patch_21">
    <path d="M 219.214286 183.857143 
L 261.642857 183.857143 
L 261.642857 141.428571 
L 219.214286 141.428571 
z
" clip-path="url(#pde7892cf81)" style="fill: #ffffff; stroke: #ffffff; stroke-linejoin: miter"/>
   </g>
   <g id="patch_22">
    <path d="M 261.642857 183.857143 
L 304.071429 183.857143 
L 304.071429 141.428571 
L 261.642857 141.428571 
z
" clip-path="url(#pde7892cf81)" style="fill: #ffffff; stroke: #ffffff; stroke-linejoin: miter"/>
   </g>
   <g id="patch_23">
    <path d="M 304.071429 183.857143 
L 346.5 183.857143 
L 346.5 141.428571 
L 304.071429 141.428571 
z
" clip-path="url(#pde7892cf81)" style="fill: #ffffff; stroke: #ffffff; stroke-linejoin: miter"/>
   </g>
   <g id="patch_24">
    <path d="M 49.5 141.428571 
L 91.928571 141.428571 
L 91.928571 99 
L 49.5 99 
z
" clip-path="url(#pde7892cf81)" style="fill: #ffffff; stroke: #ffffff; stroke-linejoin: miter"/>
   </g>
   <g id="patch_25">
    <path d="M 91.928571 141.428571 
L 134.357143 141.428571 
L 134.357143 99 
L 91.928571 99 
z
" clip-path="url(#pde7892cf81)" style="fill: #ffffff; stroke: #ffffff; stroke-linejoin: miter"/>
   </g>
   <g id="patch_26">
    <path d="M 134.357143 141.428571 
L 176.785714 141.428571 
L 176.785714 99 
L 134.357143 99 
z
" clip-path="url(#pde7892cf81)" style="fill: #ffffff; stroke: #ffffff; stroke-linejoin: miter"/>
   </g>
   <g id="patch_27">
    <path d="M 176.785714 141.428571 
L 219.214286 141.428571 
L 219.214286 99 
L 176.785714 99 
z
" clip-path="url(#pde7892cf81)" style="fill: #ffffff; stroke: #ffffff; stroke-linejoin: miter"/>
   </g>
   <g id="patch_28">
    <path d="M 219.214286 141.428571 
L 261.642857 141.428571 
L 261.642857 99 
L 219.214286 99 
z
" clip-path="url(#pde7892cf81)" style="fill: #ffffff; stroke: #ffffff; stroke-linejoin: miter"/>
   </g>
   <g id="patch_29">
    <path d="M 261.642857 141.428571 
L 304.071429 141.428571 
L 304.071429 99 
L 261.642857 99 
z
" clip-path="url(#pde7892cf81)" style="fill: #ffffff; stroke: #ffffff; stroke-linejoin: miter"/>
   </g>
   <g id="patch_30">
    <path d="M 304.071429 141.428571 
L 346.5 141.428571 
L 346.5 99 
L 304.071429 99 
z
" clip-path="url(#pde7892cf81)" style="fill: #ffffff; stroke: #ffffff; stroke-linejoin: miter"/>
   </g>
   <g id="patch_31">
    <path d="M 49.5 99 
L 91.928571 99 
L 91.928571 56.571429 
L 49.5 56.571429 
z
" clip-path="url(#pde7892cf81)" style="fill: #ffffff; stroke: #ffffff; stroke-linejoin: miter"/>
   </g>
   <g id="patch_32">
    <path d="M 91.928571 99 
L 134.357143 99 
L 134.357143 56.571429 
L 91.928571 56.571429 
z
" clip-path="url(#pde7892cf81)" style="fill: #ffffff; stroke: #ffffff; stroke-linejoin: miter"/>
   </g>
   <g id="patch_33">
    <path d="M 134.357143 99 
L 176.785714 99 
L 176.785714 56.571429 
L 134.357143 56.571429 
z
" clip-path="url(#pde7892cf81)" style="fill: #ffffff; stroke: #ffffff; stroke-linejoin: miter"/>
   </g>
   <g id="patch_34">
    <path d="M 176.785714 99 
L 219.214286 99 
L 219.214286 56.571429 
L 176.785714 56.571429 
z
" clip-path="url(#pde7892cf81)" style="fill: #ffffff; stroke: #ffffff; stroke-linejoin: miter"/>
   </g>
   <g id="patch_35">
    <path d="M 219.214286 99 
L 261.642857 99 
L 261.642857 56.571429 
L 219.214286 56.571429 
z
" clip-path="url(#pde7892cf81)" style="fill: #ffffff; stroke: #ffffff; stroke-linejoin: miter"/>
   </g>
   <g id="patch_36">
    <path d="M 261.642857 99 
L 304.071429 99 
L 304.071429 56.571429 
L 261.642857 56.571429 
z
" clip-path="url(#pde7892cf81)" style="fill: #ffffff; stroke: #ffffff; stroke-linejoin: miter"/>
   </g>
   <g id="patch_37">
    <path d="M 304.071429 99 
L 346.5 99 
L 346.5 56.571429 
L 304.071429 56.571429 
z
" clip-path="url(#pde7892cf81)" style="fill: #ffffff; stroke: #ffffff; stroke-linejoin: miter"/>
   </g>
   <g id="PathCollection_1">
    <defs>
     <path id="m8876fa430b" d="M 11.18034 0 
L -5.59017 -9.682458 
L -5.59017 9.682458 
z
" style="stroke: #00ffff"/>
    </defs>
    <g clip-path="url(#pde7892cf81)">
     <use xlink:href="#m8876fa430b" x="70.714286" y="247.5" style="fill: #00ffff; stroke: #00ffff"/>
    </g>
   </g>
   <g id="matplotlib.axis_1"/>
   <g id="line2d_1">
    <path d="M 49.5 268.714286 
L 49.5 56.571429 
" clip-path="url(#pde7892cf81)" style="fill: none; stroke: #808080; stroke-linecap: square"/>
   </g>
   <g id="line2d_2">
    <path d="M 91.928571 268.714286 
L 91.928571 56.571429 
" clip-path="url(#pde7892cf81)" style="fill: none; stroke: #808080; stroke-linecap: square"/>
   </g>
   <g id="line2d_3">
    <path d="M 134.357143 268.714286 
L 134.357143 56.571429 
" clip-path="url(#pde7892cf81)" style="fill: none; stroke: #808080; stroke-linecap: square"/>
   </g>
   <g id="line2d_4">
    <path d="M 176.785714 268.714286 
L 176.785714 56.571429 
" clip-path="url(#pde7892cf81)" style="fill: none; stroke: #808080; stroke-linecap: square"/>
   </g>
   <g id="line2d_5">
    <path d="M 219.214286 268.714286 
L 219.214286 56.571429 
" clip-path="url(#pde7892cf81)" style="fill: none; stroke: #808080; stroke-linecap: square"/>
   </g>
   <g id="line2d_6">
    <path d="M 261.642857 268.714286 
L 261.642857 56.571429 
" clip-path="url(#pde7892cf81)" style="fill: none; stroke: #808080; stroke-linecap: square"/>
   </g>
   <g id="line2d_7">
    <path d="M 304.071429 268.714286 
L 304.071429 56.571429 
" clip-path="url(#pde7892cf81)" style="fill: none; stroke: #808080; stroke-linecap: square"/>
   </g>
   <g id="line2d_8">
    <path d="M 49.5 268.714286 
L 346.5 268.714286 
" clip-path="url(#pde7892cf81)" style="fill: none; stroke: #808080; stroke-linecap: square"/>
   </g>
   <g id="line2d_9">
    <path d="M 49.5 226.285714 
L 346.5 226.285714 
" clip-path="url(#pde7892cf81)" style="fill: none; stroke: #808080; stroke-linecap: square"/>
   </g>
   <g id="line2d_10">
    <path d="M 49.5 183.857143 
L 346.5 183.857143 
" clip-path="url(#pde7892cf81)" style="fill: none; stroke: #808080; stroke-linecap: square"/>
   </g>
   <g id="line2d_11">
    <path d="M 49.5 141.428571 
L 346.5 141.428571 
" clip-path="url(#pde7892cf81)" style="fill: none; stroke: #808080; stroke-linecap: square"/>
   </g>
   <g id="line2d_12">
    <path d="M 49.5 99 
L 346.5 99 
" clip-path="url(#pde7892cf81)" style="fill: none; stroke: #808080; stroke-linecap: square"/>
   </g>
   <g id="patch_38">
    <path d="M 49.5 268.714286 
L 49.5 56.571429 
" style="fill: none; stroke: #000000; stroke-width: 0.8; stroke-linejoin: miter; stroke-linecap: square"/>
   </g>
   <g id="patch_39">
    <path d="M 346.5 268.714286 
L 346.5 56.571429 
" style="fill: none; stroke: #000000; stroke-width: 0.8; stroke-linejoin: miter; stroke-linecap: square"/>
   </g>
   <g id="patch_40">
    <path d="M 49.5 268.714286 
L 346.5 268.714286 
" style="fill: none; stroke: #000000; stroke-width: 0.8; stroke-linejoin: miter; stroke-linecap: square"/>
   </g>
   <g id="patch_41">
    <path d="M 49.5 56.571429 
L 346.5 56.571429 
" style="fill: none; stroke: #000000; stroke-width: 0.8; stroke-linejoin: miter; stroke-linecap: square"/>
   </g>
   <g id="text_1">
    <!-- Colors -->
    <g transform="translate(179.20875 50.571429)scale(0.12 -0.12)">
     <defs>
      <path id="DejaVuSans-43" d="M 4122 4306 
L 4122 3641 
Q 3803 3938 3442 4084 
Q 3081 4231 2675 4231 
Q 1875 4231 1450 3742 
Q 1025 3253 1025 2328 
Q 1025 1406 1450 917 
Q 1875 428 2675 428 
Q 3081 428 3442 575 
Q 3803 722 4122 1019 
L 4122 359 
Q 3791 134 3420 21 
Q 3050 -91 2638 -91 
Q 1578 -91 968 557 
Q 359 1206 359 2328 
Q 359 3453 968 4101 
Q 1578 4750 2638 4750 
Q 3056 4750 3426 4639 
Q 3797 4528 4122 4306 
z
" transform="scale(0.015625)"/>
      <path id="DejaVuSans-6f" d="M 1959 3097 
Q 1497 3097 1228 2736 
Q 959 2375 959 1747 
Q 959 1119 1226 758 
Q 1494 397 1959 397 
Q 2419 397 2687 759 
Q 2956 1122 2956 1747 
Q 2956 2369 2687 2733 
Q 2419 3097 1959 3097 
z
M 1959 3584 
Q 2709 3584 3137 3096 
Q 3566 2609 3566 1747 
Q 3566 888 3137 398 
Q 2709 -91 1959 -91 
Q 1206 -91 779 398 
Q 353 888 353 1747 
Q 353 2609 779 3096 
Q 1206 3584 1959 3584 
z
" transform="scale(0.015625)"/>
      <path id="DejaVuSans-6c" d="M 603 4863 
L 1178 4863 
L 1178 0 
L 603 0 
L 603 4863 
z
" transform="scale(0.015625)"/>
      <path id="DejaVuSans-72" d="M 2631 2963 
Q 2534 3019 2420 3045 
Q 2306 3072 2169 3072 
Q 1681 3072 1420 2755 
Q 1159 2438 1159 1844 
L 1159 0 
L 581 0 
L 581 3500 
L 1159 3500 
L 1159 2956 
Q 1341 3275 1631 3429 
Q 1922 3584 2338 3584 
Q 2397 3584 2469 3576 
Q 2541 3569 2628 3553 
L 2631 2963 
z
" transform="scale(0.015625)"/>
      <path id="DejaVuSans-73" d="M 2834 3397 
L 2834 2853 
Q 2591 2978 2328 3040 
Q 2066 3103 1784 3103 
Q 1356 3103 1142 2972 
Q 928 2841 928 2578 
Q 928 2378 1081 2264 
Q 1234 2150 1697 2047 
L 1894 2003 
Q 2506 1872 2764 1633 
Q 3022 1394 3022 966 
Q 3022 478 2636 193 
Q 2250 -91 1575 -91 
Q 1294 -91 989 -36 
Q 684 19 347 128 
L 347 722 
Q 666 556 975 473 
Q 1284 391 1588 391 
Q 1994 391 2212 530 
Q 2431 669 2431 922 
Q 2431 1156 2273 1281 
Q 2116 1406 1581 1522 
L 1381 1569 
Q 847 1681 609 1914 
Q 372 2147 372 2553 
Q 372 3047 722 3315 
Q 1072 3584 1716 3584 
Q 2034 3584 2315 3537 
Q 2597 3491 2834 3397 
z
" transform="scale(0.015625)"/>
     </defs>
     <use xlink:href="#DejaVuSans-43"/>
     <use xlink:href="#DejaVuSans-6f" x="69.824219"/>
     <use xlink:href="#DejaVuSans-6c" x="131.005859"/>
     <use xlink:href="#DejaVuSans-6f" x="158.789062"/>
     <use xlink:href="#DejaVuSans-72" x="219.970703"/>
     <use xlink:href="#DejaVuSans-73" x="261.083984"/>
    </g>
   </g>
  </g>
 </g>
 <defs>
  <clipPath id="pde7892cf81">
   <rect x="49.5" y="56.571429" width="297" height="212.142857"/>
  </clipPath>
 </defs>
</svg>
