<?xml version="1.0" encoding="utf-8" standalone="no"?>
<!DOCTYPE svg PUBLIC "-//W3C//DTD SVG 1.1//EN"
  "http://www.w3.org/Graphics/SVG/1.1/DTD/svg11.dtd">
<svg xmlns:xlink="http://www.w3.org/1999/xlink" width="396pt" height="169.714286pt" viewBox="0 0 396 169.714286" xmlns="http://www.w3.org/2000/svg" version="1.1">
 <metadata>
  <rdf:RDF xmlns:dc="http://purl.org/dc/elements/1.1/" xmlns:cc="http://creativecommons.org/ns#" xmlns:rdf="http://www.w3.org/1999/02/22-rdf-syntax-ns#">
   <cc:Work>
    <dc:type rdf:resource="http://purl.org/dc/dcmitype/StillImage"/>
    <dc:date>2023-09-22T11:29:30.080452</dc:date>
    <dc:format>image/svg+xml</dc:format>
    <dc:creator>
     <cc:Agent>
      <dc:title>Matplotlib v3.5.0, https://matplotlib.org/</dc:title>
     </cc:Agent>
    </dc:creator>
   </cc:Work>
  </rdf:RDF>
 </metadata>
 <defs>
  <style type="text/css">*{stroke-linejoin: round; stroke-linecap: butt}</style>
 </defs>
 <g id="figure_1">
  <g id="patch_1">
   <path d="M 0 169.714286 
L 396 169.714286 
L 396 0 
L 0 0 
L 0 169.714286 
z
" style="fill: none"/>
  </g>
  <g id="axes_1">
   <g id="patch_2">
    <path d="M 49.5 161.228571 
L 346.5 161.228571 
L 346.5 33.942857 
L 49.5 33.942857 
z
" style="fill: #ffffff"/>
   </g>
   <g id="patch_3">
    <path d="M 49.5 161.228571 
L 91.928571 161.228571 
L 91.928571 118.8 
L 49.5 118.8 
z
" clip-path="url(#pb1a6264433)" style="stroke: #000000; stroke-linejoin: miter"/>
   </g>
   <g id="patch_4">
    <path d="M 91.928571 161.228571 
L 134.357143 161.228571 
L 134.357143 118.8 
L 91.928571 118.8 
z
" clip-path="url(#pb1a6264433)" style="stroke: #000000; stroke-linejoin: miter"/>
   </g>
   <g id="patch_5">
    <path d="M 134.357143 161.228571 
L 176.785714 161.228571 
L 176.785714 118.8 
L 134.357143 118.8 
z
" clip-path="url(#pb1a6264433)" style="stroke: #000000; stroke-linejoin: miter"/>
   </g>
   <g id="patch_6">
    <path d="M 176.785714 161.228571 
L 219.214286 161.228571 
L 219.214286 118.8 
L 176.785714 118.8 
z
" clip-path="url(#pb1a6264433)" style="fill: #ffffff; stroke: #ffffff; stroke-linejoin: miter"/>
   </g>
   <g id="patch_7">
    <path d="M 219.214286 161.228571 
L 261.642857 161.228571 
L 261.642857 118.8 
L 219.214286 118.8 
z
" clip-path="url(#pb1a6264433)" style="stroke: #000000; stroke-linejoin: miter"/>
   </g>
   <g id="patch_8">
    <path d="M 261.642857 161.228571 
L 304.071429 161.228571 
L 304.071429 118.8 
L 261.642857 118.8 
z
" clip-path="url(#pb1a6264433)" style="fill: #ffffff; stroke: #ffffff; stroke-linejoin: miter"/>
   </g>
   <g id="patch_9">
    <path d="M 304.071429 161.228571 
L 346.5 161.228571 
L 346.5 118.8 
L 304.071429 118.8 
z
" clip-path="url(#pb1a6264433)" style="fill: #ffffff; stroke: #ffffff; stroke-linejoin: miter"/>
   </g>
   <g id="patch_10">
    <path d="M 49.5 118.8 
L 91.928571 118.8 
L 91.928571 76.371429 
L 49.5 76.371429 
z
" clip-path="url(#pb1a6264433)" style="fill: #ffffff; stroke: #ffffff; stroke-linejoin: miter"/>
   </g>
   <g id="patch_11">
    <path d="M 91.928571 118.8 
L 134.357143 118.8 
L 134.357143 76.371429 
L 91.928571 76.371429 
z
" clip-path="url(#pb1a6264433)" style="fill: #ffffff; stroke: #ffffff; stroke-linejoin: miter"/>
   </g>
   <g id="patch_12">
    <path d="M 134.357143 118.8 
L 176.785714 118.8 
L 176.785714 76.371429 
L 134.357143 76.371429 
z
" clip-path="url(#pb1a6264433)" style="fill: #ffffff; stroke: #ffffff; stroke-linejoin: miter"/>
   </g>
   <g id="patch_13">
    <path d="M 176.785714 118.8 
L 219.214286 118.8 
L 219.214286 76.371429 
L 176.785714 76.371429 
z
" clip-path="url(#pb1a6264433)" style="fill: #ffffff; stroke: #ffffff; stroke-linejoin: miter"/>
   </g>
   <g id="patch_14">
    <path d="M 219.214286 118.8 
L 261.642857 118.8 
L 261.642857 76.371429 
L 219.214286 76.371429 
z
" clip-path="url(#pb1a6264433)" style="fill: #ffffff; stroke: #ffffff; stroke-linejoin: miter"/>
   </g>
   <g id="patch_15">
    <path d="M 261.642857 118.8 
L 304.071429 118.8 
L 304.071429 76.371429 
L 261.642857 76.371429 
z
" clip-path="url(#pb1a6264433)" style="fill: #ffffff; stroke: #ffffff; stroke-linejoin: miter"/>
   </g>
   <g id="patch_16">
    <path d="M 304.071429 118.8 
L 346.5 118.8 
L 346.5 76.371429 
L 304.071429 76.371429 
z
" clip-path="url(#pb1a6264433)" style="fill: #ffffff; stroke: #ffffff; stroke-linejoin: miter"/>
   </g>
   <g id="patch_17">
    <path d="M 49.5 76.371429 
L 91.928571 76.371429 
L 91.928571 33.942857 
L 49.5 33.942857 
z
" clip-path="url(#pb1a6264433)" style="stroke: #000000; stroke-linejoin: miter"/>
   </g>
   <g id="patch_18">
    <path d="M 91.928571 76.371429 
L 134.357143 76.371429 
L 134.357143 33.942857 
L 91.928571 33.942857 
z
" clip-path="url(#pb1a6264433)" style="stroke: #000000; stroke-linejoin: miter"/>
   </g>
   <g id="patch_19">
    <path d="M 134.357143 76.371429 
L 176.785714 76.371429 
L 176.785714 33.942857 
L 134.357143 33.942857 
z
" clip-path="url(#pb1a6264433)" style="fill: #ffffff; stroke: #ffffff; stroke-linejoin: miter"/>
   </g>
   <g id="patch_20">
    <path d="M 176.785714 76.371429 
L 219.214286 76.371429 
L 219.214286 33.942857 
L 176.785714 33.942857 
z
" clip-path="url(#pb1a6264433)" style="stroke: #000000; stroke-linejoin: miter"/>
   </g>
   <g id="patch_21">
    <path d="M 219.214286 76.371429 
L 261.642857 76.371429 
L 261.642857 33.942857 
L 219.214286 33.942857 
z
" clip-path="url(#pb1a6264433)" style="stroke: #000000; stroke-linejoin: miter"/>
   </g>
   <g id="patch_22">
    <path d="M 261.642857 76.371429 
L 304.071429 76.371429 
L 304.071429 33.942857 
L 261.642857 33.942857 
z
" clip-path="url(#pb1a6264433)" style="fill: #ffffff; stroke: #ffffff; stroke-linejoin: miter"/>
   </g>
   <g id="patch_23">
    <path d="M 304.071429 76.371429 
L 346.5 76.371429 
L 346.5 33.942857 
L 304.071429 33.942857 
z
" clip-path="url(#pb1a6264433)" style="fill: #ffffff; stroke: #ffffff; stroke-linejoin: miter"/>
   </g>
   <g id="PathCollection_1">
    <defs>
     <path id="m0b2b0ea65e" d="M 11.18034 0 
L -5.59017 -9.682458 
L -5.59017 9.682458 
z
" style="stroke: #00ffff"/>
    </defs>
    <g clip-path="url(#pb1a6264433)">
     <use xlink:href="#m0b2b0ea65e" x="282.857143" y="97.585714" style="fill: #00ffff; stroke: #00ffff"/>
    </g>
   </g>
   <g id="matplotlib.axis_1"/>
   <g id="line2d_1">
    <path d="M 49.5 161.228571 
L 49.5 33.942857 
" clip-path="url(#pb1a6264433)" style="fill: none; stroke: #808080; stroke-linecap: square"/>
   </g>
   <g id="line2d_2">
    <path d="M 91.928571 161.228571 
L 91.928571 33.942857 
" clip-path="url(#pb1a6264433)" style="fill: none; stroke: #808080; stroke-linecap: square"/>
   </g>
   <g id="line2d_3">
    <path d="M 134.357143 161.228571 
L 134.357143 33.942857 
" clip-path="url(#pb1a6264433)" style="fill: none; stroke: #808080; stroke-linecap: square"/>
   </g>
   <g id="line2d_4">
    <path d="M 176.785714 161.228571 
L 176.785714 33.942857 
" clip-path="url(#pb1a6264433)" style="fill: none; stroke: #808080; stroke-linecap: square"/>
   </g>
   <g id="line2d_5">
    <path d="M 219.214286 161.228571 
L 219.214286 33.942857 
" clip-path="url(#pb1a6264433)" style="fill: none; stroke: #808080; stroke-linecap: square"/>
   </g>
   <g id="line2d_6">
    <path d="M 261.642857 161.228571 
L 261.642857 33.942857 
" clip-path="url(#pb1a6264433)" style="fill: none; stroke: #808080; stroke-linecap: square"/>
   </g>
   <g id="line2d_7">
    <path d="M 304.071429 161.228571 
L 304.071429 33.942857 
" clip-path="url(#pb1a6264433)" style="fill: none; stroke: #808080; stroke-linecap: square"/>
   </g>
   <g id="line2d_8">
    <path d="M 49.5 161.228571 
L 346.5 161.228571 
" clip-path="url(#pb1a6264433)" style="fill: none; stroke: #808080; stroke-linecap: square"/>
   </g>
   <g id="line2d_9">
    <path d="M 49.5 118.8 
L 346.5 118.8 
" clip-path="url(#pb1a6264433)" style="fill: none; stroke: #808080; stroke-linecap: square"/>
   </g>
   <g id="line2d_10">
    <path d="M 49.5 76.371429 
L 346.5 76.371429 
" clip-path="url(#pb1a6264433)" style="fill: none; stroke: #808080; stroke-linecap: square"/>
   </g>
   <g id="patch_24">
    <path d="M 49.5 161.228571 
L 49.5 33.942857 
" style="fill: none; stroke: #000000; stroke-width: 0.8; stroke-linejoin: miter; stroke-linecap: square"/>
   </g>
   <g id="patch_25">
    <path d="M 346.5 161.228571 
L 346.5 33.942857 
" style="fill: none; stroke: #000000; stroke-width: 0.8; stroke-linejoin: miter; stroke-linecap: square"/>
   </g>
   <g id="patch_26">
    <path d="M 49.5 161.228571 
L 346.5 161.228571 
" style="fill: none; stroke: #000000; stroke-width: 0.8; stroke-linejoin: miter; stroke-linecap: square"/>
   </g>
   <g id="patch_27">
    <path d="M 49.5 33.942857 
L 346.5 33.942857 
" style="fill: none; stroke: #000000; stroke-width: 0.8; stroke-linejoin: miter; stroke-linecap: square"/>
   </g>
   <g id="text_1">
    <!-- Freedom -->
    <g transform="translate(171.944062 27.942857)scale(0.12 -0.12)">
     <defs>
      <path id="DejaVuSans-46" d="M 628 4666 
L 3309 4666 
L 3309 4134 
L 1259 4134 
L 1259 2759 
L 3109 2759 
L 3109 2228 
L 1259 2228 
L 1259 0 
L 628 0 
L 628 4666 
z
" transform="scale(0.015625)"/>
      <path id="DejaVuSans-72" d="M 2631 2963 
Q 2534 3019 2420 3045 
Q 2306 3072 2169 3072 
Q 1681 3072 1420 2755 
Q 1159 2438 1159 1844 
L 1159 0 
L 581 0 
L 581 3500 
L 1159 3500 
L 1159 2956 
Q 1341 3275 1631 3429 
Q 1922 3584 2338 3584 
Q 2397 3584 2469 3576 
Q 2541 3569 2628 3553 
L 2631 2963 
z
" transform="scale(0.015625)"/>
      <path id="DejaVuSans-65" d="M 3597 1894 
L 3597 1613 
L 953 1613 
Q 991 1019 1311 708 
Q 1631 397 2203 397 
Q 2534 397 2845 478 
Q 3156 559 3463 722 
L 3463 178 
Q 3153 47 2828 -22 
Q 2503 -91 2169 -91 
Q 1331 -91 842 396 
Q 353 884 353 1716 
Q 353 2575 817 3079 
Q 1281 3584 2069 3584 
Q 2775 3584 3186 3129 
Q 3597 2675 3597 1894 
z
M 3022 2063 
Q 3016 2534 2758 2815 
Q 2500 3097 2075 3097 
Q 1594 3097 1305 2825 
Q 1016 2553 972 2059 
L 3022 2063 
z
" transform="scale(0.015625)"/>
      <path id="DejaVuSans-64" d="M 2906 2969 
L 2906 4863 
L 3481 4863 
L 3481 0 
L 2906 0 
L 2906 525 
Q 2725 213 2448 61 
Q 2172 -91 1784 -91 
Q 1150 -91 751 415 
Q 353 922 353 1747 
Q 353 2572 751 3078 
Q 1150 3584 1784 3584 
Q 2172 3584 2448 3432 
Q 2725 3281 2906 2969 
z
M 947 1747 
Q 947 1113 1208 752 
Q 1469 391 1925 391 
Q 2381 391 2643 752 
Q 2906 1113 2906 1747 
Q 2906 2381 2643 2742 
Q 2381 3103 1925 3103 
Q 1469 3103 1208 2742 
Q 947 2381 947 1747 
z
" transform="scale(0.015625)"/>
      <path id="DejaVuSans-6f" d="M 1959 3097 
Q 1497 3097 1228 2736 
Q 959 2375 959 1747 
Q 959 1119 1226 758 
Q 1494 397 1959 397 
Q 2419 397 2687 759 
Q 2956 1122 2956 1747 
Q 2956 2369 2687 2733 
Q 2419 3097 1959 3097 
z
M 1959 3584 
Q 2709 3584 3137 3096 
Q 3566 2609 3566 1747 
Q 3566 888 3137 398 
Q 2709 -91 1959 -91 
Q 1206 -91 779 398 
Q 353 888 353 1747 
Q 353 2609 779 3096 
Q 1206 3584 1959 3584 
z
" transform="scale(0.015625)"/>
      <path id="DejaVuSans-6d" d="M 3328 2828 
Q 3544 3216 3844 3400 
Q 4144 3584 4550 3584 
Q 5097 3584 5394 3201 
Q 5691 2819 5691 2113 
L 5691 0 
L 5113 0 
L 5113 2094 
Q 5113 2597 4934 2840 
Q 4756 3084 4391 3084 
Q 3944 3084 3684 2787 
Q 3425 2491 3425 1978 
L 3425 0 
L 2847 0 
L 2847 2094 
Q 2847 2600 2669 2842 
Q 2491 3084 2119 3084 
Q 1678 3084 1418 2786 
Q 1159 2488 1159 1978 
L 1159 0 
L 581 0 
L 581 3500 
L 1159 3500 
L 1159 2956 
Q 1356 3278 1631 3431 
Q 1906 3584 2284 3584 
Q 2666 3584 2933 3390 
Q 3200 3197 3328 2828 
z
" transform="scale(0.015625)"/>
     </defs>
     <use xlink:href="#DejaVuSans-46"/>
     <use xlink:href="#DejaVuSans-72" x="50.269531"/>
     <use xlink:href="#DejaVuSans-65" x="89.132812"/>
     <use xlink:href="#DejaVuSans-65" x="150.65625"/>
     <use xlink:href="#DejaVuSans-64" x="212.179688"/>
     <use xlink:href="#DejaVuSans-6f" x="275.65625"/>
     <use xlink:href="#DejaVuSans-6d" x="336.837891"/>
    </g>
   </g>
  </g>
 </g>
 <defs>
  <clipPath id="pb1a6264433">
   <rect x="49.5" y="33.942857" width="297" height="127.285714"/>
  </clipPath>
 </defs>
</svg>
