<?xml version="1.0" encoding="utf-8" standalone="no"?>
<!DOCTYPE svg PUBLIC "-//W3C//DTD SVG 1.1//EN"
  "http://www.w3.org/Graphics/SVG/1.1/DTD/svg11.dtd">
<svg xmlns:xlink="http://www.w3.org/1999/xlink" width="432pt" height="324pt" viewBox="0 0 432 324" xmlns="http://www.w3.org/2000/svg" version="1.1">
 <metadata>
  <rdf:RDF xmlns:dc="http://purl.org/dc/elements/1.1/" xmlns:cc="http://creativecommons.org/ns#" xmlns:rdf="http://www.w3.org/1999/02/22-rdf-syntax-ns#">
   <cc:Work>
    <dc:type rdf:resource="http://purl.org/dc/dcmitype/StillImage"/>
    <dc:date>2023-09-22T11:29:37.093030</dc:date>
    <dc:format>image/svg+xml</dc:format>
    <dc:creator>
     <cc:Agent>
      <dc:title>Matplotlib v3.5.0, https://matplotlib.org/</dc:title>
     </cc:Agent>
    </dc:creator>
   </cc:Work>
  </rdf:RDF>
 </metadata>
 <defs>
  <style type="text/css">*{stroke-linejoin: round; stroke-linecap: butt}</style>
 </defs>
 <g id="figure_1">
  <g id="patch_1">
   <path d="M 0 324 
L 432 324 
L 432 0 
L 0 0 
z
" style="fill: #ffffff"/>
  </g>
  <g id="axes_1">
   <g id="patch_2">
    <path d="M 54 307.8 
L 378 307.8 
L 378 64.8 
L 54 64.8 
z
" style="fill: #ffffff"/>
   </g>
   <g id="patch_3">
    <path d="M 54 307.8 
L 81 307.8 
L 81 280.8 
L 54 280.8 
z
" clip-path="url(#p21bf9766c2)" style="fill: #0000ff; stroke: #0000ff; stroke-linejoin: miter"/>
   </g>
   <g id="patch_4">
    <path d="M 81 307.8 
L 108 307.8 
L 108 280.8 
L 81 280.8 
z
" clip-path="url(#p21bf9766c2)" style="fill: #0000ff; stroke: #0000ff; stroke-linejoin: miter"/>
   </g>
   <g id="patch_5">
    <path d="M 108 307.8 
L 135 307.8 
L 135 280.8 
L 108 280.8 
z
" clip-path="url(#p21bf9766c2)" style="fill: #0000ff; stroke: #0000ff; stroke-linejoin: miter"/>
   </g>
   <g id="patch_6">
    <path d="M 135 307.8 
L 162 307.8 
L 162 280.8 
L 135 280.8 
z
" clip-path="url(#p21bf9766c2)" style="fill: #0000ff; stroke: #0000ff; stroke-linejoin: miter"/>
   </g>
   <g id="patch_7">
    <path d="M 162 307.8 
L 189 307.8 
L 189 280.8 
L 162 280.8 
z
" clip-path="url(#p21bf9766c2)" style="fill: #0000ff; stroke: #0000ff; stroke-linejoin: miter"/>
   </g>
   <g id="patch_8">
    <path d="M 189 307.8 
L 216 307.8 
L 216 280.8 
L 189 280.8 
z
" clip-path="url(#p21bf9766c2)" style="fill: #0000ff; stroke: #0000ff; stroke-linejoin: miter"/>
   </g>
   <g id="patch_9">
    <path d="M 216 307.8 
L 243 307.8 
L 243 280.8 
L 216 280.8 
z
" clip-path="url(#p21bf9766c2)" style="fill: #0000ff; stroke: #0000ff; stroke-linejoin: miter"/>
   </g>
   <g id="patch_10">
    <path d="M 243 307.8 
L 270 307.8 
L 270 280.8 
L 243 280.8 
z
" clip-path="url(#p21bf9766c2)" style="fill: #0000ff; stroke: #0000ff; stroke-linejoin: miter"/>
   </g>
   <g id="patch_11">
    <path d="M 270 307.8 
L 297 307.8 
L 297 280.8 
L 270 280.8 
z
" clip-path="url(#p21bf9766c2)" style="fill: #0000ff; stroke: #0000ff; stroke-linejoin: miter"/>
   </g>
   <g id="patch_12">
    <path d="M 297 307.8 
L 324 307.8 
L 324 280.8 
L 297 280.8 
z
" clip-path="url(#p21bf9766c2)" style="fill: #0000ff; stroke: #0000ff; stroke-linejoin: miter"/>
   </g>
   <g id="patch_13">
    <path d="M 324 307.8 
L 351 307.8 
L 351 280.8 
L 324 280.8 
z
" clip-path="url(#p21bf9766c2)" style="fill: #0000ff; stroke: #0000ff; stroke-linejoin: miter"/>
   </g>
   <g id="patch_14">
    <path d="M 351 307.8 
L 378 307.8 
L 378 280.8 
L 351 280.8 
z
" clip-path="url(#p21bf9766c2)" style="fill: #0000ff; stroke: #0000ff; stroke-linejoin: miter"/>
   </g>
   <g id="patch_15">
    <path d="M 54 280.8 
L 81 280.8 
L 81 253.8 
L 54 253.8 
z
" clip-path="url(#p21bf9766c2)" style="stroke: #000000; stroke-linejoin: miter"/>
   </g>
   <g id="patch_16">
    <path d="M 81 280.8 
L 108 280.8 
L 108 253.8 
L 81 253.8 
z
" clip-path="url(#p21bf9766c2)" style="fill: #ffffff; stroke: #ffffff; stroke-linejoin: miter"/>
   </g>
   <g id="patch_17">
    <path d="M 108 280.8 
L 135 280.8 
L 135 253.8 
L 108 253.8 
z
" clip-path="url(#p21bf9766c2)" style="fill: #ffffff; stroke: #ffffff; stroke-linejoin: miter"/>
   </g>
   <g id="patch_18">
    <path d="M 135 280.8 
L 162 280.8 
L 162 253.8 
L 135 253.8 
z
" clip-path="url(#p21bf9766c2)" style="fill: #ffffff; stroke: #ffffff; stroke-linejoin: miter"/>
   </g>
   <g id="patch_19">
    <path d="M 162 280.8 
L 189 280.8 
L 189 253.8 
L 162 253.8 
z
" clip-path="url(#p21bf9766c2)" style="fill: #ffffff; stroke: #ffffff; stroke-linejoin: miter"/>
   </g>
   <g id="patch_20">
    <path d="M 189 280.8 
L 216 280.8 
L 216 253.8 
L 189 253.8 
z
" clip-path="url(#p21bf9766c2)" style="fill: #ffffff; stroke: #ffffff; stroke-linejoin: miter"/>
   </g>
   <g id="patch_21">
    <path d="M 216 280.8 
L 243 280.8 
L 243 253.8 
L 216 253.8 
z
" clip-path="url(#p21bf9766c2)" style="fill: #ffffff; stroke: #ffffff; stroke-linejoin: miter"/>
   </g>
   <g id="patch_22">
    <path d="M 243 280.8 
L 270 280.8 
L 270 253.8 
L 243 253.8 
z
" clip-path="url(#p21bf9766c2)" style="fill: #ffffff; stroke: #ffffff; stroke-linejoin: miter"/>
   </g>
   <g id="patch_23">
    <path d="M 270 280.8 
L 297 280.8 
L 297 253.8 
L 270 253.8 
z
" clip-path="url(#p21bf9766c2)" style="fill: #ffffff; stroke: #ffffff; stroke-linejoin: miter"/>
   </g>
   <g id="patch_24">
    <path d="M 297 280.8 
L 324 280.8 
L 324 253.8 
L 297 253.8 
z
" clip-path="url(#p21bf9766c2)" style="fill: #ffffff; stroke: #ffffff; stroke-linejoin: miter"/>
   </g>
   <g id="patch_25">
    <path d="M 324 280.8 
L 351 280.8 
L 351 253.8 
L 324 253.8 
z
" clip-path="url(#p21bf9766c2)" style="fill: #ffffff; stroke: #ffffff; stroke-linejoin: miter"/>
   </g>
   <g id="patch_26">
    <path d="M 351 280.8 
L 378 280.8 
L 378 253.8 
L 351 253.8 
z
" clip-path="url(#p21bf9766c2)" style="fill: #0000ff; stroke: #0000ff; stroke-linejoin: miter"/>
   </g>
   <g id="patch_27">
    <path d="M 54 253.8 
L 81 253.8 
L 81 226.8 
L 54 226.8 
z
" clip-path="url(#p21bf9766c2)" style="fill: #0000ff; stroke: #0000ff; stroke-linejoin: miter"/>
   </g>
   <g id="patch_28">
    <path d="M 81 253.8 
L 108 253.8 
L 108 226.8 
L 81 226.8 
z
" clip-path="url(#p21bf9766c2)" style="fill: #0000ff; stroke: #0000ff; stroke-linejoin: miter"/>
   </g>
   <g id="patch_29">
    <path d="M 108 253.8 
L 135 253.8 
L 135 226.8 
L 108 226.8 
z
" clip-path="url(#p21bf9766c2)" style="fill: #0000ff; stroke: #0000ff; stroke-linejoin: miter"/>
   </g>
   <g id="patch_30">
    <path d="M 135 253.8 
L 162 253.8 
L 162 226.8 
L 135 226.8 
z
" clip-path="url(#p21bf9766c2)" style="fill: #0000ff; stroke: #0000ff; stroke-linejoin: miter"/>
   </g>
   <g id="patch_31">
    <path d="M 162 253.8 
L 189 253.8 
L 189 226.8 
L 162 226.8 
z
" clip-path="url(#p21bf9766c2)" style="fill: #0000ff; stroke: #0000ff; stroke-linejoin: miter"/>
   </g>
   <g id="patch_32">
    <path d="M 189 253.8 
L 216 253.8 
L 216 226.8 
L 189 226.8 
z
" clip-path="url(#p21bf9766c2)" style="fill: #0000ff; stroke: #0000ff; stroke-linejoin: miter"/>
   </g>
   <g id="patch_33">
    <path d="M 216 253.8 
L 243 253.8 
L 243 226.8 
L 216 226.8 
z
" clip-path="url(#p21bf9766c2)" style="fill: #0000ff; stroke: #0000ff; stroke-linejoin: miter"/>
   </g>
   <g id="patch_34">
    <path d="M 243 253.8 
L 270 253.8 
L 270 226.8 
L 243 226.8 
z
" clip-path="url(#p21bf9766c2)" style="fill: #0000ff; stroke: #0000ff; stroke-linejoin: miter"/>
   </g>
   <g id="patch_35">
    <path d="M 270 253.8 
L 297 253.8 
L 297 226.8 
L 270 226.8 
z
" clip-path="url(#p21bf9766c2)" style="fill: #0000ff; stroke: #0000ff; stroke-linejoin: miter"/>
   </g>
   <g id="patch_36">
    <path d="M 297 253.8 
L 324 253.8 
L 324 226.8 
L 297 226.8 
z
" clip-path="url(#p21bf9766c2)" style="fill: #0000ff; stroke: #0000ff; stroke-linejoin: miter"/>
   </g>
   <g id="patch_37">
    <path d="M 324 253.8 
L 351 253.8 
L 351 226.8 
L 324 226.8 
z
" clip-path="url(#p21bf9766c2)" style="stroke: #000000; stroke-linejoin: miter"/>
   </g>
   <g id="patch_38">
    <path d="M 351 253.8 
L 378 253.8 
L 378 226.8 
L 351 226.8 
z
" clip-path="url(#p21bf9766c2)" style="fill: #0000ff; stroke: #0000ff; stroke-linejoin: miter"/>
   </g>
   <g id="patch_39">
    <path d="M 54 226.8 
L 81 226.8 
L 81 199.8 
L 54 199.8 
z
" clip-path="url(#p21bf9766c2)" style="fill: #0000ff; stroke: #0000ff; stroke-linejoin: miter"/>
   </g>
   <g id="patch_40">
    <path d="M 81 226.8 
L 108 226.8 
L 108 199.8 
L 81 199.8 
z
" clip-path="url(#p21bf9766c2)" style="fill: #ffffff; stroke: #ffffff; stroke-linejoin: miter"/>
   </g>
   <g id="patch_41">
    <path d="M 108 226.8 
L 135 226.8 
L 135 199.8 
L 108 199.8 
z
" clip-path="url(#p21bf9766c2)" style="stroke: #000000; stroke-linejoin: miter"/>
   </g>
   <g id="patch_42">
    <path d="M 135 226.8 
L 162 226.8 
L 162 199.8 
L 135 199.8 
z
" clip-path="url(#p21bf9766c2)" style="fill: #ffffff; stroke: #ffffff; stroke-linejoin: miter"/>
   </g>
   <g id="patch_43">
    <path d="M 162 226.8 
L 189 226.8 
L 189 199.8 
L 162 199.8 
z
" clip-path="url(#p21bf9766c2)" style="fill: #ffffff; stroke: #ffffff; stroke-linejoin: miter"/>
   </g>
   <g id="patch_44">
    <path d="M 189 226.8 
L 216 226.8 
L 216 199.8 
L 189 199.8 
z
" clip-path="url(#p21bf9766c2)" style="fill: #ffffff; stroke: #ffffff; stroke-linejoin: miter"/>
   </g>
   <g id="patch_45">
    <path d="M 216 226.8 
L 243 226.8 
L 243 199.8 
L 216 199.8 
z
" clip-path="url(#p21bf9766c2)" style="fill: #ffffff; stroke: #ffffff; stroke-linejoin: miter"/>
   </g>
   <g id="patch_46">
    <path d="M 243 226.8 
L 270 226.8 
L 270 199.8 
L 243 199.8 
z
" clip-path="url(#p21bf9766c2)" style="fill: #ffffff; stroke: #ffffff; stroke-linejoin: miter"/>
   </g>
   <g id="patch_47">
    <path d="M 270 226.8 
L 297 226.8 
L 297 199.8 
L 270 199.8 
z
" clip-path="url(#p21bf9766c2)" style="fill: #ffffff; stroke: #ffffff; stroke-linejoin: miter"/>
   </g>
   <g id="patch_48">
    <path d="M 297 226.8 
L 324 226.8 
L 324 199.8 
L 297 199.8 
z
" clip-path="url(#p21bf9766c2)" style="fill: #0000ff; stroke: #0000ff; stroke-linejoin: miter"/>
   </g>
   <g id="patch_49">
    <path d="M 324 226.8 
L 351 226.8 
L 351 199.8 
L 324 199.8 
z
" clip-path="url(#p21bf9766c2)" style="fill: #ffffff; stroke: #ffffff; stroke-linejoin: miter"/>
   </g>
   <g id="patch_50">
    <path d="M 351 226.8 
L 378 226.8 
L 378 199.8 
L 351 199.8 
z
" clip-path="url(#p21bf9766c2)" style="fill: #0000ff; stroke: #0000ff; stroke-linejoin: miter"/>
   </g>
   <g id="patch_51">
    <path d="M 54 199.8 
L 81 199.8 
L 81 172.8 
L 54 172.8 
z
" clip-path="url(#p21bf9766c2)" style="fill: #0000ff; stroke: #0000ff; stroke-linejoin: miter"/>
   </g>
   <g id="patch_52">
    <path d="M 81 199.8 
L 108 199.8 
L 108 172.8 
L 81 172.8 
z
" clip-path="url(#p21bf9766c2)" style="fill: #ffffff; stroke: #ffffff; stroke-linejoin: miter"/>
   </g>
   <g id="patch_53">
    <path d="M 108 199.8 
L 135 199.8 
L 135 172.8 
L 108 172.8 
z
" clip-path="url(#p21bf9766c2)" style="fill: #0000ff; stroke: #0000ff; stroke-linejoin: miter"/>
   </g>
   <g id="patch_54">
    <path d="M 135 199.8 
L 162 199.8 
L 162 172.8 
L 135 172.8 
z
" clip-path="url(#p21bf9766c2)" style="fill: #0000ff; stroke: #0000ff; stroke-linejoin: miter"/>
   </g>
   <g id="patch_55">
    <path d="M 162 199.8 
L 189 199.8 
L 189 172.8 
L 162 172.8 
z
" clip-path="url(#p21bf9766c2)" style="fill: #0000ff; stroke: #0000ff; stroke-linejoin: miter"/>
   </g>
   <g id="patch_56">
    <path d="M 189 199.8 
L 216 199.8 
L 216 172.8 
L 189 172.8 
z
" clip-path="url(#p21bf9766c2)" style="fill: #0000ff; stroke: #0000ff; stroke-linejoin: miter"/>
   </g>
   <g id="patch_57">
    <path d="M 216 199.8 
L 243 199.8 
L 243 172.8 
L 216 172.8 
z
" clip-path="url(#p21bf9766c2)" style="fill: #0000ff; stroke: #0000ff; stroke-linejoin: miter"/>
   </g>
   <g id="patch_58">
    <path d="M 243 199.8 
L 270 199.8 
L 270 172.8 
L 243 172.8 
z
" clip-path="url(#p21bf9766c2)" style="fill: #0000ff; stroke: #0000ff; stroke-linejoin: miter"/>
   </g>
   <g id="patch_59">
    <path d="M 270 199.8 
L 297 199.8 
L 297 172.8 
L 270 172.8 
z
" clip-path="url(#p21bf9766c2)" style="stroke: #000000; stroke-linejoin: miter"/>
   </g>
   <g id="patch_60">
    <path d="M 297 199.8 
L 324 199.8 
L 324 172.8 
L 297 172.8 
z
" clip-path="url(#p21bf9766c2)" style="fill: #0000ff; stroke: #0000ff; stroke-linejoin: miter"/>
   </g>
   <g id="patch_61">
    <path d="M 324 199.8 
L 351 199.8 
L 351 172.8 
L 324 172.8 
z
" clip-path="url(#p21bf9766c2)" style="fill: #ffffff; stroke: #ffffff; stroke-linejoin: miter"/>
   </g>
   <g id="patch_62">
    <path d="M 351 199.8 
L 378 199.8 
L 378 172.8 
L 351 172.8 
z
" clip-path="url(#p21bf9766c2)" style="fill: #0000ff; stroke: #0000ff; stroke-linejoin: miter"/>
   </g>
   <g id="patch_63">
    <path d="M 54 172.8 
L 81 172.8 
L 81 145.8 
L 54 145.8 
z
" clip-path="url(#p21bf9766c2)" style="fill: #0000ff; stroke: #0000ff; stroke-linejoin: miter"/>
   </g>
   <g id="patch_64">
    <path d="M 81 172.8 
L 108 172.8 
L 108 145.8 
L 81 145.8 
z
" clip-path="url(#p21bf9766c2)" style="fill: #ffffff; stroke: #ffffff; stroke-linejoin: miter"/>
   </g>
   <g id="patch_65">
    <path d="M 108 172.8 
L 135 172.8 
L 135 145.8 
L 108 145.8 
z
" clip-path="url(#p21bf9766c2)" style="fill: #0000ff; stroke: #0000ff; stroke-linejoin: miter"/>
   </g>
   <g id="patch_66">
    <path d="M 135 172.8 
L 162 172.8 
L 162 145.8 
L 135 145.8 
z
" clip-path="url(#p21bf9766c2)" style="fill: #ffffff; stroke: #ffffff; stroke-linejoin: miter"/>
   </g>
   <g id="patch_67">
    <path d="M 162 172.8 
L 189 172.8 
L 189 145.8 
L 162 145.8 
z
" clip-path="url(#p21bf9766c2)" style="fill: #ffffff; stroke: #ffffff; stroke-linejoin: miter"/>
   </g>
   <g id="patch_68">
    <path d="M 189 172.8 
L 216 172.8 
L 216 145.8 
L 189 145.8 
z
" clip-path="url(#p21bf9766c2)" style="fill: #ffffff; stroke: #ffffff; stroke-linejoin: miter"/>
   </g>
   <g id="patch_69">
    <path d="M 216 172.8 
L 243 172.8 
L 243 145.8 
L 216 145.8 
z
" clip-path="url(#p21bf9766c2)" style="fill: #ffffff; stroke: #ffffff; stroke-linejoin: miter"/>
   </g>
   <g id="patch_70">
    <path d="M 243 172.8 
L 270 172.8 
L 270 145.8 
L 243 145.8 
z
" clip-path="url(#p21bf9766c2)" style="stroke: #000000; stroke-linejoin: miter"/>
   </g>
   <g id="patch_71">
    <path d="M 270 172.8 
L 297 172.8 
L 297 145.8 
L 270 145.8 
z
" clip-path="url(#p21bf9766c2)" style="fill: #ffffff; stroke: #ffffff; stroke-linejoin: miter"/>
   </g>
   <g id="patch_72">
    <path d="M 297 172.8 
L 324 172.8 
L 324 145.8 
L 297 145.8 
z
" clip-path="url(#p21bf9766c2)" style="fill: #0000ff; stroke: #0000ff; stroke-linejoin: miter"/>
   </g>
   <g id="patch_73">
    <path d="M 324 172.8 
L 351 172.8 
L 351 145.8 
L 324 145.8 
z
" clip-path="url(#p21bf9766c2)" style="fill: #ffffff; stroke: #ffffff; stroke-linejoin: miter"/>
   </g>
   <g id="patch_74">
    <path d="M 351 172.8 
L 378 172.8 
L 378 145.8 
L 351 145.8 
z
" clip-path="url(#p21bf9766c2)" style="fill: #0000ff; stroke: #0000ff; stroke-linejoin: miter"/>
   </g>
   <g id="patch_75">
    <path d="M 54 145.8 
L 81 145.8 
L 81 118.8 
L 54 118.8 
z
" clip-path="url(#p21bf9766c2)" style="fill: #0000ff; stroke: #0000ff; stroke-linejoin: miter"/>
   </g>
   <g id="patch_76">
    <path d="M 81 145.8 
L 108 145.8 
L 108 118.8 
L 81 118.8 
z
" clip-path="url(#p21bf9766c2)" style="stroke: #000000; stroke-linejoin: miter"/>
   </g>
   <g id="patch_77">
    <path d="M 108 145.8 
L 135 145.8 
L 135 118.8 
L 108 118.8 
z
" clip-path="url(#p21bf9766c2)" style="fill: #0000ff; stroke: #0000ff; stroke-linejoin: miter"/>
   </g>
   <g id="patch_78">
    <path d="M 135 145.8 
L 162 145.8 
L 162 118.8 
L 135 118.8 
z
" clip-path="url(#p21bf9766c2)" style="fill: #0000ff; stroke: #0000ff; stroke-linejoin: miter"/>
   </g>
   <g id="patch_79">
    <path d="M 162 145.8 
L 189 145.8 
L 189 118.8 
L 162 118.8 
z
" clip-path="url(#p21bf9766c2)" style="fill: #0000ff; stroke: #0000ff; stroke-linejoin: miter"/>
   </g>
   <g id="patch_80">
    <path d="M 189 145.8 
L 216 145.8 
L 216 118.8 
L 189 118.8 
z
" clip-path="url(#p21bf9766c2)" style="fill: #0000ff; stroke: #0000ff; stroke-linejoin: miter"/>
   </g>
   <g id="patch_81">
    <path d="M 216 145.8 
L 243 145.8 
L 243 118.8 
L 216 118.8 
z
" clip-path="url(#p21bf9766c2)" style="fill: #0000ff; stroke: #0000ff; stroke-linejoin: miter"/>
   </g>
   <g id="patch_82">
    <path d="M 243 145.8 
L 270 145.8 
L 270 118.8 
L 243 118.8 
z
" clip-path="url(#p21bf9766c2)" style="fill: #0000ff; stroke: #0000ff; stroke-linejoin: miter"/>
   </g>
   <g id="patch_83">
    <path d="M 270 145.8 
L 297 145.8 
L 297 118.8 
L 270 118.8 
z
" clip-path="url(#p21bf9766c2)" style="fill: #0000ff; stroke: #0000ff; stroke-linejoin: miter"/>
   </g>
   <g id="patch_84">
    <path d="M 297 145.8 
L 324 145.8 
L 324 118.8 
L 297 118.8 
z
" clip-path="url(#p21bf9766c2)" style="fill: #0000ff; stroke: #0000ff; stroke-linejoin: miter"/>
   </g>
   <g id="patch_85">
    <path d="M 324 145.8 
L 351 145.8 
L 351 118.8 
L 324 118.8 
z
" clip-path="url(#p21bf9766c2)" style="fill: #ffffff; stroke: #ffffff; stroke-linejoin: miter"/>
   </g>
   <g id="patch_86">
    <path d="M 351 145.8 
L 378 145.8 
L 378 118.8 
L 351 118.8 
z
" clip-path="url(#p21bf9766c2)" style="fill: #0000ff; stroke: #0000ff; stroke-linejoin: miter"/>
   </g>
   <g id="patch_87">
    <path d="M 54 118.8 
L 81 118.8 
L 81 91.8 
L 54 91.8 
z
" clip-path="url(#p21bf9766c2)" style="fill: #0000ff; stroke: #0000ff; stroke-linejoin: miter"/>
   </g>
   <g id="patch_88">
    <path d="M 81 118.8 
L 108 118.8 
L 108 91.8 
L 81 91.8 
z
" clip-path="url(#p21bf9766c2)" style="fill: #ffffff; stroke: #ffffff; stroke-linejoin: miter"/>
   </g>
   <g id="patch_89">
    <path d="M 108 118.8 
L 135 118.8 
L 135 91.8 
L 108 91.8 
z
" clip-path="url(#p21bf9766c2)" style="fill: #ffffff; stroke: #ffffff; stroke-linejoin: miter"/>
   </g>
   <g id="patch_90">
    <path d="M 135 118.8 
L 162 118.8 
L 162 91.8 
L 135 91.8 
z
" clip-path="url(#p21bf9766c2)" style="fill: #ffffff; stroke: #ffffff; stroke-linejoin: miter"/>
   </g>
   <g id="patch_91">
    <path d="M 162 118.8 
L 189 118.8 
L 189 91.8 
L 162 91.8 
z
" clip-path="url(#p21bf9766c2)" style="fill: #ffffff; stroke: #ffffff; stroke-linejoin: miter"/>
   </g>
   <g id="patch_92">
    <path d="M 189 118.8 
L 216 118.8 
L 216 91.8 
L 189 91.8 
z
" clip-path="url(#p21bf9766c2)" style="fill: #ffffff; stroke: #ffffff; stroke-linejoin: miter"/>
   </g>
   <g id="patch_93">
    <path d="M 216 118.8 
L 243 118.8 
L 243 91.8 
L 216 91.8 
z
" clip-path="url(#p21bf9766c2)" style="fill: #ffffff; stroke: #ffffff; stroke-linejoin: miter"/>
   </g>
   <g id="patch_94">
    <path d="M 243 118.8 
L 270 118.8 
L 270 91.8 
L 243 91.8 
z
" clip-path="url(#p21bf9766c2)" style="fill: #ffffff; stroke: #ffffff; stroke-linejoin: miter"/>
   </g>
   <g id="patch_95">
    <path d="M 270 118.8 
L 297 118.8 
L 297 91.8 
L 270 91.8 
z
" clip-path="url(#p21bf9766c2)" style="fill: #ffffff; stroke: #ffffff; stroke-linejoin: miter"/>
   </g>
   <g id="patch_96">
    <path d="M 297 118.8 
L 324 118.8 
L 324 91.8 
L 297 91.8 
z
" clip-path="url(#p21bf9766c2)" style="stroke: #000000; stroke-linejoin: miter"/>
   </g>
   <g id="patch_97">
    <path d="M 324 118.8 
L 351 118.8 
L 351 91.8 
L 324 91.8 
z
" clip-path="url(#p21bf9766c2)" style="fill: #ffffff; stroke: #ffffff; stroke-linejoin: miter"/>
   </g>
   <g id="patch_98">
    <path d="M 351 118.8 
L 378 118.8 
L 378 91.8 
L 351 91.8 
z
" clip-path="url(#p21bf9766c2)" style="fill: #0000ff; stroke: #0000ff; stroke-linejoin: miter"/>
   </g>
   <g id="patch_99">
    <path d="M 54 91.8 
L 81 91.8 
L 81 64.8 
L 54 64.8 
z
" clip-path="url(#p21bf9766c2)" style="fill: #0000ff; stroke: #0000ff; stroke-linejoin: miter"/>
   </g>
   <g id="patch_100">
    <path d="M 81 91.8 
L 108 91.8 
L 108 64.8 
L 81 64.8 
z
" clip-path="url(#p21bf9766c2)" style="fill: #0000ff; stroke: #0000ff; stroke-linejoin: miter"/>
   </g>
   <g id="patch_101">
    <path d="M 108 91.8 
L 135 91.8 
L 135 64.8 
L 108 64.8 
z
" clip-path="url(#p21bf9766c2)" style="fill: #0000ff; stroke: #0000ff; stroke-linejoin: miter"/>
   </g>
   <g id="patch_102">
    <path d="M 135 91.8 
L 162 91.8 
L 162 64.8 
L 135 64.8 
z
" clip-path="url(#p21bf9766c2)" style="fill: #0000ff; stroke: #0000ff; stroke-linejoin: miter"/>
   </g>
   <g id="patch_103">
    <path d="M 162 91.8 
L 189 91.8 
L 189 64.8 
L 162 64.8 
z
" clip-path="url(#p21bf9766c2)" style="fill: #0000ff; stroke: #0000ff; stroke-linejoin: miter"/>
   </g>
   <g id="patch_104">
    <path d="M 189 91.8 
L 216 91.8 
L 216 64.8 
L 189 64.8 
z
" clip-path="url(#p21bf9766c2)" style="fill: #0000ff; stroke: #0000ff; stroke-linejoin: miter"/>
   </g>
   <g id="patch_105">
    <path d="M 216 91.8 
L 243 91.8 
L 243 64.8 
L 216 64.8 
z
" clip-path="url(#p21bf9766c2)" style="fill: #0000ff; stroke: #0000ff; stroke-linejoin: miter"/>
   </g>
   <g id="patch_106">
    <path d="M 243 91.8 
L 270 91.8 
L 270 64.8 
L 243 64.8 
z
" clip-path="url(#p21bf9766c2)" style="fill: #0000ff; stroke: #0000ff; stroke-linejoin: miter"/>
   </g>
   <g id="patch_107">
    <path d="M 270 91.8 
L 297 91.8 
L 297 64.8 
L 270 64.8 
z
" clip-path="url(#p21bf9766c2)" style="fill: #0000ff; stroke: #0000ff; stroke-linejoin: miter"/>
   </g>
   <g id="patch_108">
    <path d="M 297 91.8 
L 324 91.8 
L 324 64.8 
L 297 64.8 
z
" clip-path="url(#p21bf9766c2)" style="fill: #0000ff; stroke: #0000ff; stroke-linejoin: miter"/>
   </g>
   <g id="patch_109">
    <path d="M 324 91.8 
L 351 91.8 
L 351 64.8 
L 324 64.8 
z
" clip-path="url(#p21bf9766c2)" style="fill: #0000ff; stroke: #0000ff; stroke-linejoin: miter"/>
   </g>
   <g id="patch_110">
    <path d="M 351 91.8 
L 378 91.8 
L 378 64.8 
L 351 64.8 
z
" clip-path="url(#p21bf9766c2)" style="fill: #0000ff; stroke: #0000ff; stroke-linejoin: miter"/>
   </g>
   <g id="PathCollection_1">
    <defs>
     <path id="mce50f0986d" d="M 11.18034 0 
L -5.59017 -9.682458 
L -5.59017 9.682458 
z
" style="stroke: #00ffff"/>
    </defs>
    <g clip-path="url(#p21bf9766c2)">
     <use xlink:href="#mce50f0986d" x="256.5" y="186.3" style="fill: #00ffff; stroke: #00ffff"/>
    </g>
   </g>
   <g id="matplotlib.axis_1"/>
   <g id="line2d_1">
    <path d="M 54 307.8 
L 54 64.8 
" clip-path="url(#p21bf9766c2)" style="fill: none; stroke: #808080; stroke-linecap: square"/>
   </g>
   <g id="line2d_2">
    <path d="M 81 307.8 
L 81 64.8 
" clip-path="url(#p21bf9766c2)" style="fill: none; stroke: #808080; stroke-linecap: square"/>
   </g>
   <g id="line2d_3">
    <path d="M 108 307.8 
L 108 64.8 
" clip-path="url(#p21bf9766c2)" style="fill: none; stroke: #808080; stroke-linecap: square"/>
   </g>
   <g id="line2d_4">
    <path d="M 135 307.8 
L 135 64.8 
" clip-path="url(#p21bf9766c2)" style="fill: none; stroke: #808080; stroke-linecap: square"/>
   </g>
   <g id="line2d_5">
    <path d="M 162 307.8 
L 162 64.8 
" clip-path="url(#p21bf9766c2)" style="fill: none; stroke: #808080; stroke-linecap: square"/>
   </g>
   <g id="line2d_6">
    <path d="M 189 307.8 
L 189 64.8 
" clip-path="url(#p21bf9766c2)" style="fill: none; stroke: #808080; stroke-linecap: square"/>
   </g>
   <g id="line2d_7">
    <path d="M 216 307.8 
L 216 64.8 
" clip-path="url(#p21bf9766c2)" style="fill: none; stroke: #808080; stroke-linecap: square"/>
   </g>
   <g id="line2d_8">
    <path d="M 243 307.8 
L 243 64.8 
" clip-path="url(#p21bf9766c2)" style="fill: none; stroke: #808080; stroke-linecap: square"/>
   </g>
   <g id="line2d_9">
    <path d="M 270 307.8 
L 270 64.8 
" clip-path="url(#p21bf9766c2)" style="fill: none; stroke: #808080; stroke-linecap: square"/>
   </g>
   <g id="line2d_10">
    <path d="M 297 307.8 
L 297 64.8 
" clip-path="url(#p21bf9766c2)" style="fill: none; stroke: #808080; stroke-linecap: square"/>
   </g>
   <g id="line2d_11">
    <path d="M 324 307.8 
L 324 64.8 
" clip-path="url(#p21bf9766c2)" style="fill: none; stroke: #808080; stroke-linecap: square"/>
   </g>
   <g id="line2d_12">
    <path d="M 351 307.8 
L 351 64.8 
" clip-path="url(#p21bf9766c2)" style="fill: none; stroke: #808080; stroke-linecap: square"/>
   </g>
   <g id="line2d_13">
    <path d="M 54 307.8 
L 378 307.8 
" clip-path="url(#p21bf9766c2)" style="fill: none; stroke: #808080; stroke-linecap: square"/>
   </g>
   <g id="line2d_14">
    <path d="M 54 280.8 
L 378 280.8 
" clip-path="url(#p21bf9766c2)" style="fill: none; stroke: #808080; stroke-linecap: square"/>
   </g>
   <g id="line2d_15">
    <path d="M 54 253.8 
L 378 253.8 
" clip-path="url(#p21bf9766c2)" style="fill: none; stroke: #808080; stroke-linecap: square"/>
   </g>
   <g id="line2d_16">
    <path d="M 54 226.8 
L 378 226.8 
" clip-path="url(#p21bf9766c2)" style="fill: none; stroke: #808080; stroke-linecap: square"/>
   </g>
   <g id="line2d_17">
    <path d="M 54 199.8 
L 378 199.8 
" clip-path="url(#p21bf9766c2)" style="fill: none; stroke: #808080; stroke-linecap: square"/>
   </g>
   <g id="line2d_18">
    <path d="M 54 172.8 
L 378 172.8 
" clip-path="url(#p21bf9766c2)" style="fill: none; stroke: #808080; stroke-linecap: square"/>
   </g>
   <g id="line2d_19">
    <path d="M 54 145.8 
L 378 145.8 
" clip-path="url(#p21bf9766c2)" style="fill: none; stroke: #808080; stroke-linecap: square"/>
   </g>
   <g id="line2d_20">
    <path d="M 54 118.8 
L 378 118.8 
" clip-path="url(#p21bf9766c2)" style="fill: none; stroke: #808080; stroke-linecap: square"/>
   </g>
   <g id="line2d_21">
    <path d="M 54 91.8 
L 378 91.8 
" clip-path="url(#p21bf9766c2)" style="fill: none; stroke: #808080; stroke-linecap: square"/>
   </g>
   <g id="patch_111">
    <path d="M 54 307.8 
L 54 64.8 
" style="fill: none; stroke: #000000; stroke-width: 0.8; stroke-linejoin: miter; stroke-linecap: square"/>
   </g>
   <g id="patch_112">
    <path d="M 378 307.8 
L 378 64.8 
" style="fill: none; stroke: #000000; stroke-width: 0.8; stroke-linejoin: miter; stroke-linecap: square"/>
   </g>
   <g id="patch_113">
    <path d="M 54 307.8 
L 378 307.8 
" style="fill: none; stroke: #000000; stroke-width: 0.8; stroke-linejoin: miter; stroke-linecap: square"/>
   </g>
   <g id="patch_114">
    <path d="M 54 64.8 
L 378 64.8 
" style="fill: none; stroke: #000000; stroke-width: 0.8; stroke-linejoin: miter; stroke-linecap: square"/>
   </g>
   <g id="text_1">
    <!-- Spiral -->
    <g transform="translate(198.904687 58.8)scale(0.12 -0.12)">
     <defs>
      <path id="DejaVuSans-53" d="M 3425 4513 
L 3425 3897 
Q 3066 4069 2747 4153 
Q 2428 4238 2131 4238 
Q 1616 4238 1336 4038 
Q 1056 3838 1056 3469 
Q 1056 3159 1242 3001 
Q 1428 2844 1947 2747 
L 2328 2669 
Q 3034 2534 3370 2195 
Q 3706 1856 3706 1288 
Q 3706 609 3251 259 
Q 2797 -91 1919 -91 
Q 1588 -91 1214 -16 
Q 841 59 441 206 
L 441 856 
Q 825 641 1194 531 
Q 1563 422 1919 422 
Q 2459 422 2753 634 
Q 3047 847 3047 1241 
Q 3047 1584 2836 1778 
Q 2625 1972 2144 2069 
L 1759 2144 
Q 1053 2284 737 2584 
Q 422 2884 422 3419 
Q 422 4038 858 4394 
Q 1294 4750 2059 4750 
Q 2388 4750 2728 4690 
Q 3069 4631 3425 4513 
z
" transform="scale(0.015625)"/>
      <path id="DejaVuSans-70" d="M 1159 525 
L 1159 -1331 
L 581 -1331 
L 581 3500 
L 1159 3500 
L 1159 2969 
Q 1341 3281 1617 3432 
Q 1894 3584 2278 3584 
Q 2916 3584 3314 3078 
Q 3713 2572 3713 1747 
Q 3713 922 3314 415 
Q 2916 -91 2278 -91 
Q 1894 -91 1617 61 
Q 1341 213 1159 525 
z
M 3116 1747 
Q 3116 2381 2855 2742 
Q 2594 3103 2138 3103 
Q 1681 3103 1420 2742 
Q 1159 2381 1159 1747 
Q 1159 1113 1420 752 
Q 1681 391 2138 391 
Q 2594 391 2855 752 
Q 3116 1113 3116 1747 
z
" transform="scale(0.015625)"/>
      <path id="DejaVuSans-69" d="M 603 3500 
L 1178 3500 
L 1178 0 
L 603 0 
L 603 3500 
z
M 603 4863 
L 1178 4863 
L 1178 4134 
L 603 4134 
L 603 4863 
z
" transform="scale(0.015625)"/>
      <path id="DejaVuSans-72" d="M 2631 2963 
Q 2534 3019 2420 3045 
Q 2306 3072 2169 3072 
Q 1681 3072 1420 2755 
Q 1159 2438 1159 1844 
L 1159 0 
L 581 0 
L 581 3500 
L 1159 3500 
L 1159 2956 
Q 1341 3275 1631 3429 
Q 1922 3584 2338 3584 
Q 2397 3584 2469 3576 
Q 2541 3569 2628 3553 
L 2631 2963 
z
" transform="scale(0.015625)"/>
      <path id="DejaVuSans-61" d="M 2194 1759 
Q 1497 1759 1228 1600 
Q 959 1441 959 1056 
Q 959 750 1161 570 
Q 1363 391 1709 391 
Q 2188 391 2477 730 
Q 2766 1069 2766 1631 
L 2766 1759 
L 2194 1759 
z
M 3341 1997 
L 3341 0 
L 2766 0 
L 2766 531 
Q 2569 213 2275 61 
Q 1981 -91 1556 -91 
Q 1019 -91 701 211 
Q 384 513 384 1019 
Q 384 1609 779 1909 
Q 1175 2209 1959 2209 
L 2766 2209 
L 2766 2266 
Q 2766 2663 2505 2880 
Q 2244 3097 1772 3097 
Q 1472 3097 1187 3025 
Q 903 2953 641 2809 
L 641 3341 
Q 956 3463 1253 3523 
Q 1550 3584 1831 3584 
Q 2591 3584 2966 3190 
Q 3341 2797 3341 1997 
z
" transform="scale(0.015625)"/>
      <path id="DejaVuSans-6c" d="M 603 4863 
L 1178 4863 
L 1178 0 
L 603 0 
L 603 4863 
z
" transform="scale(0.015625)"/>
     </defs>
     <use xlink:href="#DejaVuSans-53"/>
     <use xlink:href="#DejaVuSans-70" x="63.476562"/>
     <use xlink:href="#DejaVuSans-69" x="126.953125"/>
     <use xlink:href="#DejaVuSans-72" x="154.736328"/>
     <use xlink:href="#DejaVuSans-61" x="195.849609"/>
     <use xlink:href="#DejaVuSans-6c" x="257.128906"/>
    </g>
   </g>
  </g>
 </g>
 <defs>
  <clipPath id="p21bf9766c2">
   <rect x="54" y="64.8" width="324" height="243"/>
  </clipPath>
 </defs>
</svg>
