<?xml version="1.0" encoding="utf-8" standalone="no"?>
<!DOCTYPE svg PUBLIC "-//W3C//DTD SVG 1.1//EN"
  "http://www.w3.org/Graphics/SVG/1.1/DTD/svg11.dtd">
<svg xmlns:xlink="http://www.w3.org/1999/xlink" width="396pt" height="237.6pt" viewBox="0 0 396 237.6" xmlns="http://www.w3.org/2000/svg" version="1.1">
 <metadata>
  <rdf:RDF xmlns:dc="http://purl.org/dc/elements/1.1/" xmlns:cc="http://creativecommons.org/ns#" xmlns:rdf="http://www.w3.org/1999/02/22-rdf-syntax-ns#">
   <cc:Work>
    <dc:type rdf:resource="http://purl.org/dc/dcmitype/StillImage"/>
    <dc:date>2022-12-15T15:37:11.667737</dc:date>
    <dc:format>image/svg+xml</dc:format>
    <dc:creator>
     <cc:Agent>
      <dc:title>Matplotlib v3.5.1, https://matplotlib.org/</dc:title>
     </cc:Agent>
    </dc:creator>
   </cc:Work>
  </rdf:RDF>
 </metadata>
 <defs>
  <style type="text/css">*{stroke-linejoin: round; stroke-linecap: butt}</style>
 </defs>
 <g id="figure_1">
  <g id="patch_1">
   <path d="M 0 237.6 
L 396 237.6 
L 396 0 
L 0 0 
L 0 237.6 
z
" style="fill: none"/>
  </g>
  <g id="axes_1">
   <g id="patch_2">
    <path d="M 53.46 207.9 
L 352.44 207.9 
L 352.44 28.512 
L 53.46 28.512 
z
" style="fill: #ffffff"/>
   </g>
   <g id="patch_3">
    <path d="M 53.46 207.9 
L 113.256 207.9 
L 113.256 148.104 
L 53.46 148.104 
z
" clip-path="url(#p465d43da6e)" style="fill: #ffffff; stroke: #ffffff; stroke-linejoin: miter"/>
   </g>
   <g id="patch_4">
    <path d="M 113.256 207.9 
L 173.052 207.9 
L 173.052 148.104 
L 113.256 148.104 
z
" clip-path="url(#p465d43da6e)" style="fill: #ffffff; stroke: #ffffff; stroke-linejoin: miter"/>
   </g>
   <g id="patch_5">
    <path d="M 173.052 207.9 
L 232.848 207.9 
L 232.848 148.104 
L 173.052 148.104 
z
" clip-path="url(#p465d43da6e)" style="fill: #ffffff; stroke: #ffffff; stroke-linejoin: miter"/>
   </g>
   <g id="patch_6">
    <path d="M 232.848 207.9 
L 292.644 207.9 
L 292.644 148.104 
L 232.848 148.104 
z
" clip-path="url(#p465d43da6e)" style="fill: #ffffff; stroke: #ffffff; stroke-linejoin: miter"/>
   </g>
   <g id="patch_7">
    <path d="M 292.644 207.9 
L 352.44 207.9 
L 352.44 148.104 
L 292.644 148.104 
z
" clip-path="url(#p465d43da6e)" style="fill: #ffffff; stroke: #ffffff; stroke-linejoin: miter"/>
   </g>
   <g id="patch_8">
    <path d="M 53.46 148.104 
L 113.256 148.104 
L 113.256 88.308 
L 53.46 88.308 
z
" clip-path="url(#p465d43da6e)" style="fill: #ffffff; stroke: #ffffff; stroke-linejoin: miter"/>
   </g>
   <g id="patch_9">
    <path d="M 113.256 148.104 
L 173.052 148.104 
L 173.052 88.308 
L 113.256 88.308 
z
" clip-path="url(#p465d43da6e)" style="fill: #ffffff; stroke: #ffffff; stroke-linejoin: miter"/>
   </g>
   <g id="patch_10">
    <path d="M 173.052 148.104 
L 232.848 148.104 
L 232.848 88.308 
L 173.052 88.308 
z
" clip-path="url(#p465d43da6e)" style="fill: #ffffff; stroke: #ffffff; stroke-linejoin: miter"/>
   </g>
   <g id="patch_11">
    <path d="M 232.848 148.104 
L 292.644 148.104 
L 292.644 88.308 
L 232.848 88.308 
z
" clip-path="url(#p465d43da6e)" style="fill: #0000ff; stroke: #0000ff; stroke-linejoin: miter"/>
   </g>
   <g id="patch_12">
    <path d="M 292.644 148.104 
L 352.44 148.104 
L 352.44 88.308 
L 292.644 88.308 
z
" clip-path="url(#p465d43da6e)" style="fill: #ffffff; stroke: #ffffff; stroke-linejoin: miter"/>
   </g>
   <g id="patch_13">
    <path d="M 53.46 88.308 
L 113.256 88.308 
L 113.256 28.512 
L 53.46 28.512 
z
" clip-path="url(#p465d43da6e)" style="fill: #ffffff; stroke: #ffffff; stroke-linejoin: miter"/>
   </g>
   <g id="patch_14">
    <path d="M 113.256 88.308 
L 173.052 88.308 
L 173.052 28.512 
L 113.256 28.512 
z
" clip-path="url(#p465d43da6e)" style="fill: #ffffff; stroke: #ffffff; stroke-linejoin: miter"/>
   </g>
   <g id="patch_15">
    <path d="M 173.052 88.308 
L 232.848 88.308 
L 232.848 28.512 
L 173.052 28.512 
z
" clip-path="url(#p465d43da6e)" style="fill: #ffffff; stroke: #ffffff; stroke-linejoin: miter"/>
   </g>
   <g id="patch_16">
    <path d="M 232.848 88.308 
L 292.644 88.308 
L 292.644 28.512 
L 232.848 28.512 
z
" clip-path="url(#p465d43da6e)" style="fill: #ffffff; stroke: #ffffff; stroke-linejoin: miter"/>
   </g>
   <g id="patch_17">
    <path d="M 292.644 88.308 
L 352.44 88.308 
L 352.44 28.512 
L 292.644 28.512 
z
" clip-path="url(#p465d43da6e)" style="fill: #ffffff; stroke: #ffffff; stroke-linejoin: miter"/>
   </g>
   <g id="PathCollection_1">
    <defs>
     <path id="mecdfecf56f" d="M 11.18034 0 
L -5.59017 -9.682458 
L -5.59017 9.682458 
z
" style="stroke: #00ffff"/>
    </defs>
    <g clip-path="url(#p465d43da6e)">
     <use xlink:href="#mecdfecf56f" x="262.746" y="118.206" style="fill: #00ffff; stroke: #00ffff"/>
    </g>
   </g>
   <g id="line2d_1">
    <path d="M 53.46 207.9 
L 53.46 28.512 
" clip-path="url(#p465d43da6e)" style="fill: none; stroke: #808080; stroke-linecap: square"/>
   </g>
   <g id="line2d_2">
    <path d="M 113.256 207.9 
L 113.256 28.512 
" clip-path="url(#p465d43da6e)" style="fill: none; stroke: #808080; stroke-linecap: square"/>
   </g>
   <g id="line2d_3">
    <path d="M 173.052 207.9 
L 173.052 28.512 
" clip-path="url(#p465d43da6e)" style="fill: none; stroke: #808080; stroke-linecap: square"/>
   </g>
   <g id="line2d_4">
    <path d="M 232.848 207.9 
L 232.848 28.512 
" clip-path="url(#p465d43da6e)" style="fill: none; stroke: #808080; stroke-linecap: square"/>
   </g>
   <g id="line2d_5">
    <path d="M 292.644 207.9 
L 292.644 28.512 
" clip-path="url(#p465d43da6e)" style="fill: none; stroke: #808080; stroke-linecap: square"/>
   </g>
   <g id="line2d_6">
    <path d="M 53.46 207.9 
L 352.44 207.9 
" clip-path="url(#p465d43da6e)" style="fill: none; stroke: #808080; stroke-linecap: square"/>
   </g>
   <g id="line2d_7">
    <path d="M 53.46 148.104 
L 352.44 148.104 
" clip-path="url(#p465d43da6e)" style="fill: none; stroke: #808080; stroke-linecap: square"/>
   </g>
   <g id="line2d_8">
    <path d="M 53.46 88.308 
L 352.44 88.308 
" clip-path="url(#p465d43da6e)" style="fill: none; stroke: #808080; stroke-linecap: square"/>
   </g>
   <g id="patch_18">
    <path d="M 53.46 207.9 
L 53.46 28.512 
" style="fill: none; stroke: #000000; stroke-width: 0.8; stroke-linejoin: miter; stroke-linecap: square"/>
   </g>
   <g id="patch_19">
    <path d="M 352.44 207.9 
L 352.44 28.512 
" style="fill: none; stroke: #000000; stroke-width: 0.8; stroke-linejoin: miter; stroke-linecap: square"/>
   </g>
   <g id="patch_20">
    <path d="M 53.46 207.9 
L 352.44 207.9 
" style="fill: none; stroke: #000000; stroke-width: 0.8; stroke-linejoin: miter; stroke-linecap: square"/>
   </g>
   <g id="patch_21">
    <path d="M 53.46 28.512 
L 352.44 28.512 
" style="fill: none; stroke: #000000; stroke-width: 0.8; stroke-linejoin: miter; stroke-linecap: square"/>
   </g>
   <g id="text_1">
    <!-- Finish -->
    <g transform="translate(185.869688 22.512)scale(0.12 -0.12)">
     <defs>
      <path id="DejaVuSans-46" d="M 628 4666 
L 3309 4666 
L 3309 4134 
L 1259 4134 
L 1259 2759 
L 3109 2759 
L 3109 2228 
L 1259 2228 
L 1259 0 
L 628 0 
L 628 4666 
z
" transform="scale(0.015625)"/>
      <path id="DejaVuSans-69" d="M 603 3500 
L 1178 3500 
L 1178 0 
L 603 0 
L 603 3500 
z
M 603 4863 
L 1178 4863 
L 1178 4134 
L 603 4134 
L 603 4863 
z
" transform="scale(0.015625)"/>
      <path id="DejaVuSans-6e" d="M 3513 2113 
L 3513 0 
L 2938 0 
L 2938 2094 
Q 2938 2591 2744 2837 
Q 2550 3084 2163 3084 
Q 1697 3084 1428 2787 
Q 1159 2491 1159 1978 
L 1159 0 
L 581 0 
L 581 3500 
L 1159 3500 
L 1159 2956 
Q 1366 3272 1645 3428 
Q 1925 3584 2291 3584 
Q 2894 3584 3203 3211 
Q 3513 2838 3513 2113 
z
" transform="scale(0.015625)"/>
      <path id="DejaVuSans-73" d="M 2834 3397 
L 2834 2853 
Q 2591 2978 2328 3040 
Q 2066 3103 1784 3103 
Q 1356 3103 1142 2972 
Q 928 2841 928 2578 
Q 928 2378 1081 2264 
Q 1234 2150 1697 2047 
L 1894 2003 
Q 2506 1872 2764 1633 
Q 3022 1394 3022 966 
Q 3022 478 2636 193 
Q 2250 -91 1575 -91 
Q 1294 -91 989 -36 
Q 684 19 347 128 
L 347 722 
Q 666 556 975 473 
Q 1284 391 1588 391 
Q 1994 391 2212 530 
Q 2431 669 2431 922 
Q 2431 1156 2273 1281 
Q 2116 1406 1581 1522 
L 1381 1569 
Q 847 1681 609 1914 
Q 372 2147 372 2553 
Q 372 3047 722 3315 
Q 1072 3584 1716 3584 
Q 2034 3584 2315 3537 
Q 2597 3491 2834 3397 
z
" transform="scale(0.015625)"/>
      <path id="DejaVuSans-68" d="M 3513 2113 
L 3513 0 
L 2938 0 
L 2938 2094 
Q 2938 2591 2744 2837 
Q 2550 3084 2163 3084 
Q 1697 3084 1428 2787 
Q 1159 2491 1159 1978 
L 1159 0 
L 581 0 
L 581 4863 
L 1159 4863 
L 1159 2956 
Q 1366 3272 1645 3428 
Q 1925 3584 2291 3584 
Q 2894 3584 3203 3211 
Q 3513 2838 3513 2113 
z
" transform="scale(0.015625)"/>
     </defs>
     <use xlink:href="#DejaVuSans-46"/>
     <use xlink:href="#DejaVuSans-69" x="50.269531"/>
     <use xlink:href="#DejaVuSans-6e" x="78.052734"/>
     <use xlink:href="#DejaVuSans-69" x="141.431641"/>
     <use xlink:href="#DejaVuSans-73" x="169.214844"/>
     <use xlink:href="#DejaVuSans-68" x="221.314453"/>
    </g>
   </g>
  </g>
 </g>
 <defs>
  <clipPath id="p465d43da6e">
   <rect x="53.46" y="28.512" width="298.98" height="179.388"/>
  </clipPath>
 </defs>
</svg>
