<?xml version="1.0" encoding="utf-8" standalone="no"?>
<!DOCTYPE svg PUBLIC "-//W3C//DTD SVG 1.1//EN"
  "http://www.w3.org/Graphics/SVG/1.1/DTD/svg11.dtd">
<svg xmlns:xlink="http://www.w3.org/1999/xlink" width="396pt" height="236pt" viewBox="0 0 396 236" xmlns="http://www.w3.org/2000/svg" version="1.1">
 <metadata>
  <rdf:RDF xmlns:dc="http://purl.org/dc/elements/1.1/" xmlns:cc="http://creativecommons.org/ns#" xmlns:rdf="http://www.w3.org/1999/02/22-rdf-syntax-ns#">
   <cc:Work>
    <dc:type rdf:resource="http://purl.org/dc/dcmitype/StillImage"/>
    <dc:date>2022-12-15T15:37:11.551529</dc:date>
    <dc:format>image/svg+xml</dc:format>
    <dc:creator>
     <cc:Agent>
      <dc:title>Matplotlib v3.5.1, https://matplotlib.org/</dc:title>
     </cc:Agent>
    </dc:creator>
   </cc:Work>
  </rdf:RDF>
 </metadata>
 <defs>
  <style type="text/css">*{stroke-linejoin: round; stroke-linecap: butt}</style>
 </defs>
 <g id="figure_1">
  <g id="patch_1">
   <path d="M 0 236 
L 396 236 
L 396 0 
L 0 0 
L 0 236 
z
" style="fill: none"/>
  </g>
  <g id="axes_1">
   <g id="patch_2">
    <path d="M 54.466667 206.5 
L 351.433333 206.5 
L 351.433333 28.32 
L 54.466667 28.32 
z
" style="fill: #ffffff"/>
   </g>
   <g id="patch_3">
    <path d="M 54.466667 206.5 
L 113.86 206.5 
L 113.86 147.106667 
L 54.466667 147.106667 
z
" clip-path="url(#pd98f74b446)" style="fill: #ffffff; stroke: #ffffff; stroke-linejoin: miter"/>
   </g>
   <g id="patch_4">
    <path d="M 113.86 206.5 
L 173.253333 206.5 
L 173.253333 147.106667 
L 113.86 147.106667 
z
" clip-path="url(#pd98f74b446)" style="fill: #ffffff; stroke: #ffffff; stroke-linejoin: miter"/>
   </g>
   <g id="patch_5">
    <path d="M 173.253333 206.5 
L 232.646667 206.5 
L 232.646667 147.106667 
L 173.253333 147.106667 
z
" clip-path="url(#pd98f74b446)" style="fill: #ffffff; stroke: #ffffff; stroke-linejoin: miter"/>
   </g>
   <g id="patch_6">
    <path d="M 232.646667 206.5 
L 292.04 206.5 
L 292.04 147.106667 
L 232.646667 147.106667 
z
" clip-path="url(#pd98f74b446)" style="fill: #ffffff; stroke: #ffffff; stroke-linejoin: miter"/>
   </g>
   <g id="patch_7">
    <path d="M 292.04 206.5 
L 351.433333 206.5 
L 351.433333 147.106667 
L 292.04 147.106667 
z
" clip-path="url(#pd98f74b446)" style="fill: #ffffff; stroke: #ffffff; stroke-linejoin: miter"/>
   </g>
   <g id="patch_8">
    <path d="M 54.466667 147.106667 
L 113.86 147.106667 
L 113.86 87.713333 
L 54.466667 87.713333 
z
" clip-path="url(#pd98f74b446)" style="fill: #ffffff; stroke: #ffffff; stroke-linejoin: miter"/>
   </g>
   <g id="patch_9">
    <path d="M 113.86 147.106667 
L 173.253333 147.106667 
L 173.253333 87.713333 
L 113.86 87.713333 
z
" clip-path="url(#pd98f74b446)" style="fill: #ffffff; stroke: #ffffff; stroke-linejoin: miter"/>
   </g>
   <g id="patch_10">
    <path d="M 173.253333 147.106667 
L 232.646667 147.106667 
L 232.646667 87.713333 
L 173.253333 87.713333 
z
" clip-path="url(#pd98f74b446)" style="fill: #ffffff; stroke: #ffffff; stroke-linejoin: miter"/>
   </g>
   <g id="patch_11">
    <path d="M 232.646667 147.106667 
L 292.04 147.106667 
L 292.04 87.713333 
L 232.646667 87.713333 
z
" clip-path="url(#pd98f74b446)" style="fill: #0000ff; stroke: #0000ff; stroke-linejoin: miter"/>
   </g>
   <g id="patch_12">
    <path d="M 292.04 147.106667 
L 351.433333 147.106667 
L 351.433333 87.713333 
L 292.04 87.713333 
z
" clip-path="url(#pd98f74b446)" style="fill: #ffffff; stroke: #ffffff; stroke-linejoin: miter"/>
   </g>
   <g id="patch_13">
    <path d="M 54.466667 87.713333 
L 113.86 87.713333 
L 113.86 28.32 
L 54.466667 28.32 
z
" clip-path="url(#pd98f74b446)" style="fill: #ffffff; stroke: #ffffff; stroke-linejoin: miter"/>
   </g>
   <g id="patch_14">
    <path d="M 113.86 87.713333 
L 173.253333 87.713333 
L 173.253333 28.32 
L 113.86 28.32 
z
" clip-path="url(#pd98f74b446)" style="fill: #ffffff; stroke: #ffffff; stroke-linejoin: miter"/>
   </g>
   <g id="patch_15">
    <path d="M 173.253333 87.713333 
L 232.646667 87.713333 
L 232.646667 28.32 
L 173.253333 28.32 
z
" clip-path="url(#pd98f74b446)" style="fill: #ffffff; stroke: #ffffff; stroke-linejoin: miter"/>
   </g>
   <g id="patch_16">
    <path d="M 232.646667 87.713333 
L 292.04 87.713333 
L 292.04 28.32 
L 232.646667 28.32 
z
" clip-path="url(#pd98f74b446)" style="fill: #ffffff; stroke: #ffffff; stroke-linejoin: miter"/>
   </g>
   <g id="patch_17">
    <path d="M 292.04 87.713333 
L 351.433333 87.713333 
L 351.433333 28.32 
L 292.04 28.32 
z
" clip-path="url(#pd98f74b446)" style="fill: #ffffff; stroke: #ffffff; stroke-linejoin: miter"/>
   </g>
   <g id="PathCollection_1">
    <defs>
     <path id="m5511ebba19" d="M 11.18034 0 
L -5.59017 -9.682458 
L -5.59017 9.682458 
z
" style="stroke: #00ffff"/>
    </defs>
    <g clip-path="url(#pd98f74b446)">
     <use xlink:href="#m5511ebba19" x="84.163333" y="117.41" style="fill: #00ffff; stroke: #00ffff"/>
    </g>
   </g>
   <g id="line2d_1">
    <path d="M 54.466667 206.5 
L 54.466667 28.32 
" clip-path="url(#pd98f74b446)" style="fill: none; stroke: #808080; stroke-linecap: square"/>
   </g>
   <g id="line2d_2">
    <path d="M 113.86 206.5 
L 113.86 28.32 
" clip-path="url(#pd98f74b446)" style="fill: none; stroke: #808080; stroke-linecap: square"/>
   </g>
   <g id="line2d_3">
    <path d="M 173.253333 206.5 
L 173.253333 28.32 
" clip-path="url(#pd98f74b446)" style="fill: none; stroke: #808080; stroke-linecap: square"/>
   </g>
   <g id="line2d_4">
    <path d="M 232.646667 206.5 
L 232.646667 28.32 
" clip-path="url(#pd98f74b446)" style="fill: none; stroke: #808080; stroke-linecap: square"/>
   </g>
   <g id="line2d_5">
    <path d="M 292.04 206.5 
L 292.04 28.32 
" clip-path="url(#pd98f74b446)" style="fill: none; stroke: #808080; stroke-linecap: square"/>
   </g>
   <g id="line2d_6">
    <path d="M 54.466667 206.5 
L 351.433333 206.5 
" clip-path="url(#pd98f74b446)" style="fill: none; stroke: #808080; stroke-linecap: square"/>
   </g>
   <g id="line2d_7">
    <path d="M 54.466667 147.106667 
L 351.433333 147.106667 
" clip-path="url(#pd98f74b446)" style="fill: none; stroke: #808080; stroke-linecap: square"/>
   </g>
   <g id="line2d_8">
    <path d="M 54.466667 87.713333 
L 351.433333 87.713333 
" clip-path="url(#pd98f74b446)" style="fill: none; stroke: #808080; stroke-linecap: square"/>
   </g>
   <g id="patch_18">
    <path d="M 54.466667 206.5 
L 54.466667 28.32 
" style="fill: none; stroke: #000000; stroke-width: 0.8; stroke-linejoin: miter; stroke-linecap: square"/>
   </g>
   <g id="patch_19">
    <path d="M 351.433333 206.5 
L 351.433333 28.32 
" style="fill: none; stroke: #000000; stroke-width: 0.8; stroke-linejoin: miter; stroke-linecap: square"/>
   </g>
   <g id="patch_20">
    <path d="M 54.466667 206.5 
L 351.433333 206.5 
" style="fill: none; stroke: #000000; stroke-width: 0.8; stroke-linejoin: miter; stroke-linecap: square"/>
   </g>
   <g id="patch_21">
    <path d="M 54.466667 28.32 
L 351.433333 28.32 
" style="fill: none; stroke: #000000; stroke-width: 0.8; stroke-linejoin: miter; stroke-linecap: square"/>
   </g>
   <g id="text_1">
    <!-- Start -->
    <g transform="translate(188.293125 22.32)scale(0.12 -0.12)">
     <defs>
      <path id="DejaVuSans-53" d="M 3425 4513 
L 3425 3897 
Q 3066 4069 2747 4153 
Q 2428 4238 2131 4238 
Q 1616 4238 1336 4038 
Q 1056 3838 1056 3469 
Q 1056 3159 1242 3001 
Q 1428 2844 1947 2747 
L 2328 2669 
Q 3034 2534 3370 2195 
Q 3706 1856 3706 1288 
Q 3706 609 3251 259 
Q 2797 -91 1919 -91 
Q 1588 -91 1214 -16 
Q 841 59 441 206 
L 441 856 
Q 825 641 1194 531 
Q 1563 422 1919 422 
Q 2459 422 2753 634 
Q 3047 847 3047 1241 
Q 3047 1584 2836 1778 
Q 2625 1972 2144 2069 
L 1759 2144 
Q 1053 2284 737 2584 
Q 422 2884 422 3419 
Q 422 4038 858 4394 
Q 1294 4750 2059 4750 
Q 2388 4750 2728 4690 
Q 3069 4631 3425 4513 
z
" transform="scale(0.015625)"/>
      <path id="DejaVuSans-74" d="M 1172 4494 
L 1172 3500 
L 2356 3500 
L 2356 3053 
L 1172 3053 
L 1172 1153 
Q 1172 725 1289 603 
Q 1406 481 1766 481 
L 2356 481 
L 2356 0 
L 1766 0 
Q 1100 0 847 248 
Q 594 497 594 1153 
L 594 3053 
L 172 3053 
L 172 3500 
L 594 3500 
L 594 4494 
L 1172 4494 
z
" transform="scale(0.015625)"/>
      <path id="DejaVuSans-61" d="M 2194 1759 
Q 1497 1759 1228 1600 
Q 959 1441 959 1056 
Q 959 750 1161 570 
Q 1363 391 1709 391 
Q 2188 391 2477 730 
Q 2766 1069 2766 1631 
L 2766 1759 
L 2194 1759 
z
M 3341 1997 
L 3341 0 
L 2766 0 
L 2766 531 
Q 2569 213 2275 61 
Q 1981 -91 1556 -91 
Q 1019 -91 701 211 
Q 384 513 384 1019 
Q 384 1609 779 1909 
Q 1175 2209 1959 2209 
L 2766 2209 
L 2766 2266 
Q 2766 2663 2505 2880 
Q 2244 3097 1772 3097 
Q 1472 3097 1187 3025 
Q 903 2953 641 2809 
L 641 3341 
Q 956 3463 1253 3523 
Q 1550 3584 1831 3584 
Q 2591 3584 2966 3190 
Q 3341 2797 3341 1997 
z
" transform="scale(0.015625)"/>
      <path id="DejaVuSans-72" d="M 2631 2963 
Q 2534 3019 2420 3045 
Q 2306 3072 2169 3072 
Q 1681 3072 1420 2755 
Q 1159 2438 1159 1844 
L 1159 0 
L 581 0 
L 581 3500 
L 1159 3500 
L 1159 2956 
Q 1341 3275 1631 3429 
Q 1922 3584 2338 3584 
Q 2397 3584 2469 3576 
Q 2541 3569 2628 3553 
L 2631 2963 
z
" transform="scale(0.015625)"/>
     </defs>
     <use xlink:href="#DejaVuSans-53"/>
     <use xlink:href="#DejaVuSans-74" x="63.476562"/>
     <use xlink:href="#DejaVuSans-61" x="102.685547"/>
     <use xlink:href="#DejaVuSans-72" x="163.964844"/>
     <use xlink:href="#DejaVuSans-74" x="205.078125"/>
    </g>
   </g>
  </g>
 </g>
 <defs>
  <clipPath id="pd98f74b446">
   <rect x="54.466667" y="28.32" width="296.966667" height="178.18"/>
  </clipPath>
 </defs>
</svg>
