<?xml version="1.0" encoding="utf-8" standalone="no"?>
<!DOCTYPE svg PUBLIC "-//W3C//DTD SVG 1.1//EN"
  "http://www.w3.org/Graphics/SVG/1.1/DTD/svg11.dtd">
<svg xmlns:xlink="http://www.w3.org/1999/xlink" width="468pt" height="360pt" viewBox="0 0 468 360" xmlns="http://www.w3.org/2000/svg" version="1.1">
 <metadata>
  <rdf:RDF xmlns:dc="http://purl.org/dc/elements/1.1/" xmlns:cc="http://creativecommons.org/ns#" xmlns:rdf="http://www.w3.org/1999/02/22-rdf-syntax-ns#">
   <cc:Work>
    <dc:type rdf:resource="http://purl.org/dc/dcmitype/StillImage"/>
    <dc:date>2022-12-15T15:42:09.376048</dc:date>
    <dc:format>image/svg+xml</dc:format>
    <dc:creator>
     <cc:Agent>
      <dc:title>Matplotlib v3.5.1, https://matplotlib.org/</dc:title>
     </cc:Agent>
    </dc:creator>
   </cc:Work>
  </rdf:RDF>
 </metadata>
 <defs>
  <style type="text/css">*{stroke-linejoin: round; stroke-linecap: butt}</style>
 </defs>
 <g id="figure_1">
  <g id="patch_1">
   <path d="M 0 360 
L 468 360 
L 468 0 
L 0 0 
L 0 360 
z
" style="fill: none"/>
  </g>
  <g id="axes_1">
   <g id="patch_2">
    <path d="M 63.18 315 
L 416.52 315 
L 416.52 43.2 
L 63.18 43.2 
z
" style="fill: #ffffff"/>
   </g>
   <g id="patch_3">
    <path d="M 63.18 315 
L 90.36 315 
L 90.36 287.82 
L 63.18 287.82 
z
" clip-path="url(#p93e6a06930)" style="stroke: #000000; stroke-linejoin: miter"/>
   </g>
   <g id="patch_4">
    <path d="M 90.36 315 
L 117.54 315 
L 117.54 287.82 
L 90.36 287.82 
z
" clip-path="url(#p93e6a06930)" style="stroke: #000000; stroke-linejoin: miter"/>
   </g>
   <g id="patch_5">
    <path d="M 117.54 315 
L 144.72 315 
L 144.72 287.82 
L 117.54 287.82 
z
" clip-path="url(#p93e6a06930)" style="stroke: #000000; stroke-linejoin: miter"/>
   </g>
   <g id="patch_6">
    <path d="M 144.72 315 
L 171.9 315 
L 171.9 287.82 
L 144.72 287.82 
z
" clip-path="url(#p93e6a06930)" style="stroke: #000000; stroke-linejoin: miter"/>
   </g>
   <g id="patch_7">
    <path d="M 171.9 315 
L 199.08 315 
L 199.08 287.82 
L 171.9 287.82 
z
" clip-path="url(#p93e6a06930)" style="stroke: #000000; stroke-linejoin: miter"/>
   </g>
   <g id="patch_8">
    <path d="M 199.08 315 
L 226.26 315 
L 226.26 287.82 
L 199.08 287.82 
z
" clip-path="url(#p93e6a06930)" style="stroke: #000000; stroke-linejoin: miter"/>
   </g>
   <g id="patch_9">
    <path d="M 226.26 315 
L 253.44 315 
L 253.44 287.82 
L 226.26 287.82 
z
" clip-path="url(#p93e6a06930)" style="stroke: #000000; stroke-linejoin: miter"/>
   </g>
   <g id="patch_10">
    <path d="M 253.44 315 
L 280.62 315 
L 280.62 287.82 
L 253.44 287.82 
z
" clip-path="url(#p93e6a06930)" style="stroke: #000000; stroke-linejoin: miter"/>
   </g>
   <g id="patch_11">
    <path d="M 280.62 315 
L 307.8 315 
L 307.8 287.82 
L 280.62 287.82 
z
" clip-path="url(#p93e6a06930)" style="stroke: #000000; stroke-linejoin: miter"/>
   </g>
   <g id="patch_12">
    <path d="M 307.8 315 
L 334.98 315 
L 334.98 287.82 
L 307.8 287.82 
z
" clip-path="url(#p93e6a06930)" style="stroke: #000000; stroke-linejoin: miter"/>
   </g>
   <g id="patch_13">
    <path d="M 334.98 315 
L 362.16 315 
L 362.16 287.82 
L 334.98 287.82 
z
" clip-path="url(#p93e6a06930)" style="stroke: #000000; stroke-linejoin: miter"/>
   </g>
   <g id="patch_14">
    <path d="M 362.16 315 
L 389.34 315 
L 389.34 287.82 
L 362.16 287.82 
z
" clip-path="url(#p93e6a06930)" style="stroke: #000000; stroke-linejoin: miter"/>
   </g>
   <g id="patch_15">
    <path d="M 389.34 315 
L 416.52 315 
L 416.52 287.82 
L 389.34 287.82 
z
" clip-path="url(#p93e6a06930)" style="stroke: #000000; stroke-linejoin: miter"/>
   </g>
   <g id="patch_16">
    <path d="M 63.18 287.82 
L 90.36 287.82 
L 90.36 260.64 
L 63.18 260.64 
z
" clip-path="url(#p93e6a06930)" style="fill: #ffffff; stroke: #ffffff; stroke-linejoin: miter"/>
   </g>
   <g id="patch_17">
    <path d="M 90.36 287.82 
L 117.54 287.82 
L 117.54 260.64 
L 90.36 260.64 
z
" clip-path="url(#p93e6a06930)" style="fill: #ffffff; stroke: #ffffff; stroke-linejoin: miter"/>
   </g>
   <g id="patch_18">
    <path d="M 117.54 287.82 
L 144.72 287.82 
L 144.72 260.64 
L 117.54 260.64 
z
" clip-path="url(#p93e6a06930)" style="fill: #ffffff; stroke: #ffffff; stroke-linejoin: miter"/>
   </g>
   <g id="patch_19">
    <path d="M 144.72 287.82 
L 171.9 287.82 
L 171.9 260.64 
L 144.72 260.64 
z
" clip-path="url(#p93e6a06930)" style="fill: #ffffff; stroke: #ffffff; stroke-linejoin: miter"/>
   </g>
   <g id="patch_20">
    <path d="M 171.9 287.82 
L 199.08 287.82 
L 199.08 260.64 
L 171.9 260.64 
z
" clip-path="url(#p93e6a06930)" style="fill: #ffffff; stroke: #ffffff; stroke-linejoin: miter"/>
   </g>
   <g id="patch_21">
    <path d="M 199.08 287.82 
L 226.26 287.82 
L 226.26 260.64 
L 199.08 260.64 
z
" clip-path="url(#p93e6a06930)" style="fill: #ffffff; stroke: #ffffff; stroke-linejoin: miter"/>
   </g>
   <g id="patch_22">
    <path d="M 226.26 287.82 
L 253.44 287.82 
L 253.44 260.64 
L 226.26 260.64 
z
" clip-path="url(#p93e6a06930)" style="fill: #ff0000; stroke: #ff0000; stroke-linejoin: miter"/>
   </g>
   <g id="patch_23">
    <path d="M 253.44 287.82 
L 280.62 287.82 
L 280.62 260.64 
L 253.44 260.64 
z
" clip-path="url(#p93e6a06930)" style="fill: #ffffff; stroke: #ffffff; stroke-linejoin: miter"/>
   </g>
   <g id="patch_24">
    <path d="M 280.62 287.82 
L 307.8 287.82 
L 307.8 260.64 
L 280.62 260.64 
z
" clip-path="url(#p93e6a06930)" style="fill: #ffffff; stroke: #ffffff; stroke-linejoin: miter"/>
   </g>
   <g id="patch_25">
    <path d="M 307.8 287.82 
L 334.98 287.82 
L 334.98 260.64 
L 307.8 260.64 
z
" clip-path="url(#p93e6a06930)" style="fill: #ffffff; stroke: #ffffff; stroke-linejoin: miter"/>
   </g>
   <g id="patch_26">
    <path d="M 334.98 287.82 
L 362.16 287.82 
L 362.16 260.64 
L 334.98 260.64 
z
" clip-path="url(#p93e6a06930)" style="fill: #ffffff; stroke: #ffffff; stroke-linejoin: miter"/>
   </g>
   <g id="patch_27">
    <path d="M 362.16 287.82 
L 389.34 287.82 
L 389.34 260.64 
L 362.16 260.64 
z
" clip-path="url(#p93e6a06930)" style="fill: #ffffff; stroke: #ffffff; stroke-linejoin: miter"/>
   </g>
   <g id="patch_28">
    <path d="M 389.34 287.82 
L 416.52 287.82 
L 416.52 260.64 
L 389.34 260.64 
z
" clip-path="url(#p93e6a06930)" style="fill: #ffffff; stroke: #ffffff; stroke-linejoin: miter"/>
   </g>
   <g id="patch_29">
    <path d="M 63.18 260.64 
L 90.36 260.64 
L 90.36 233.46 
L 63.18 233.46 
z
" clip-path="url(#p93e6a06930)" style="fill: #ffffff; stroke: #ffffff; stroke-linejoin: miter"/>
   </g>
   <g id="patch_30">
    <path d="M 90.36 260.64 
L 117.54 260.64 
L 117.54 233.46 
L 90.36 233.46 
z
" clip-path="url(#p93e6a06930)" style="fill: #ffffff; stroke: #ffffff; stroke-linejoin: miter"/>
   </g>
   <g id="patch_31">
    <path d="M 117.54 260.64 
L 144.72 260.64 
L 144.72 233.46 
L 117.54 233.46 
z
" clip-path="url(#p93e6a06930)" style="fill: #ffffff; stroke: #ffffff; stroke-linejoin: miter"/>
   </g>
   <g id="patch_32">
    <path d="M 144.72 260.64 
L 171.9 260.64 
L 171.9 233.46 
L 144.72 233.46 
z
" clip-path="url(#p93e6a06930)" style="fill: #ffffff; stroke: #ffffff; stroke-linejoin: miter"/>
   </g>
   <g id="patch_33">
    <path d="M 171.9 260.64 
L 199.08 260.64 
L 199.08 233.46 
L 171.9 233.46 
z
" clip-path="url(#p93e6a06930)" style="fill: #ffffff; stroke: #ffffff; stroke-linejoin: miter"/>
   </g>
   <g id="patch_34">
    <path d="M 199.08 260.64 
L 226.26 260.64 
L 226.26 233.46 
L 199.08 233.46 
z
" clip-path="url(#p93e6a06930)" style="fill: #ffffff; stroke: #ffffff; stroke-linejoin: miter"/>
   </g>
   <g id="patch_35">
    <path d="M 226.26 260.64 
L 253.44 260.64 
L 253.44 233.46 
L 226.26 233.46 
z
" clip-path="url(#p93e6a06930)" style="fill: #ffffff; stroke: #ffffff; stroke-linejoin: miter"/>
   </g>
   <g id="patch_36">
    <path d="M 253.44 260.64 
L 280.62 260.64 
L 280.62 233.46 
L 253.44 233.46 
z
" clip-path="url(#p93e6a06930)" style="fill: #ffffff; stroke: #ffffff; stroke-linejoin: miter"/>
   </g>
   <g id="patch_37">
    <path d="M 280.62 260.64 
L 307.8 260.64 
L 307.8 233.46 
L 280.62 233.46 
z
" clip-path="url(#p93e6a06930)" style="fill: #ffffff; stroke: #ffffff; stroke-linejoin: miter"/>
   </g>
   <g id="patch_38">
    <path d="M 307.8 260.64 
L 334.98 260.64 
L 334.98 233.46 
L 307.8 233.46 
z
" clip-path="url(#p93e6a06930)" style="fill: #ffffff; stroke: #ffffff; stroke-linejoin: miter"/>
   </g>
   <g id="patch_39">
    <path d="M 334.98 260.64 
L 362.16 260.64 
L 362.16 233.46 
L 334.98 233.46 
z
" clip-path="url(#p93e6a06930)" style="fill: #ffffff; stroke: #ffffff; stroke-linejoin: miter"/>
   </g>
   <g id="patch_40">
    <path d="M 362.16 260.64 
L 389.34 260.64 
L 389.34 233.46 
L 362.16 233.46 
z
" clip-path="url(#p93e6a06930)" style="fill: #ffffff; stroke: #ffffff; stroke-linejoin: miter"/>
   </g>
   <g id="patch_41">
    <path d="M 389.34 260.64 
L 416.52 260.64 
L 416.52 233.46 
L 389.34 233.46 
z
" clip-path="url(#p93e6a06930)" style="fill: #ffffff; stroke: #ffffff; stroke-linejoin: miter"/>
   </g>
   <g id="patch_42">
    <path d="M 63.18 233.46 
L 90.36 233.46 
L 90.36 206.28 
L 63.18 206.28 
z
" clip-path="url(#p93e6a06930)" style="fill: #ffffff; stroke: #ffffff; stroke-linejoin: miter"/>
   </g>
   <g id="patch_43">
    <path d="M 90.36 233.46 
L 117.54 233.46 
L 117.54 206.28 
L 90.36 206.28 
z
" clip-path="url(#p93e6a06930)" style="fill: #ffffff; stroke: #ffffff; stroke-linejoin: miter"/>
   </g>
   <g id="patch_44">
    <path d="M 117.54 233.46 
L 144.72 233.46 
L 144.72 206.28 
L 117.54 206.28 
z
" clip-path="url(#p93e6a06930)" style="fill: #ffffff; stroke: #ffffff; stroke-linejoin: miter"/>
   </g>
   <g id="patch_45">
    <path d="M 144.72 233.46 
L 171.9 233.46 
L 171.9 206.28 
L 144.72 206.28 
z
" clip-path="url(#p93e6a06930)" style="fill: #ffffff; stroke: #ffffff; stroke-linejoin: miter"/>
   </g>
   <g id="patch_46">
    <path d="M 171.9 233.46 
L 199.08 233.46 
L 199.08 206.28 
L 171.9 206.28 
z
" clip-path="url(#p93e6a06930)" style="fill: #ffffff; stroke: #ffffff; stroke-linejoin: miter"/>
   </g>
   <g id="patch_47">
    <path d="M 199.08 233.46 
L 226.26 233.46 
L 226.26 206.28 
L 199.08 206.28 
z
" clip-path="url(#p93e6a06930)" style="fill: #ffffff; stroke: #ffffff; stroke-linejoin: miter"/>
   </g>
   <g id="patch_48">
    <path d="M 226.26 233.46 
L 253.44 233.46 
L 253.44 206.28 
L 226.26 206.28 
z
" clip-path="url(#p93e6a06930)" style="fill: #ffffff; stroke: #ffffff; stroke-linejoin: miter"/>
   </g>
   <g id="patch_49">
    <path d="M 253.44 233.46 
L 280.62 233.46 
L 280.62 206.28 
L 253.44 206.28 
z
" clip-path="url(#p93e6a06930)" style="fill: #ffffff; stroke: #ffffff; stroke-linejoin: miter"/>
   </g>
   <g id="patch_50">
    <path d="M 280.62 233.46 
L 307.8 233.46 
L 307.8 206.28 
L 280.62 206.28 
z
" clip-path="url(#p93e6a06930)" style="fill: #ffffff; stroke: #ffffff; stroke-linejoin: miter"/>
   </g>
   <g id="patch_51">
    <path d="M 307.8 233.46 
L 334.98 233.46 
L 334.98 206.28 
L 307.8 206.28 
z
" clip-path="url(#p93e6a06930)" style="fill: #ffffff; stroke: #ffffff; stroke-linejoin: miter"/>
   </g>
   <g id="patch_52">
    <path d="M 334.98 233.46 
L 362.16 233.46 
L 362.16 206.28 
L 334.98 206.28 
z
" clip-path="url(#p93e6a06930)" style="fill: #ffffff; stroke: #ffffff; stroke-linejoin: miter"/>
   </g>
   <g id="patch_53">
    <path d="M 362.16 233.46 
L 389.34 233.46 
L 389.34 206.28 
L 362.16 206.28 
z
" clip-path="url(#p93e6a06930)" style="fill: #ffffff; stroke: #ffffff; stroke-linejoin: miter"/>
   </g>
   <g id="patch_54">
    <path d="M 389.34 233.46 
L 416.52 233.46 
L 416.52 206.28 
L 389.34 206.28 
z
" clip-path="url(#p93e6a06930)" style="fill: #ffffff; stroke: #ffffff; stroke-linejoin: miter"/>
   </g>
   <g id="patch_55">
    <path d="M 63.18 206.28 
L 90.36 206.28 
L 90.36 179.1 
L 63.18 179.1 
z
" clip-path="url(#p93e6a06930)" style="fill: #ffffff; stroke: #ffffff; stroke-linejoin: miter"/>
   </g>
   <g id="patch_56">
    <path d="M 90.36 206.28 
L 117.54 206.28 
L 117.54 179.1 
L 90.36 179.1 
z
" clip-path="url(#p93e6a06930)" style="fill: #ffffff; stroke: #ffffff; stroke-linejoin: miter"/>
   </g>
   <g id="patch_57">
    <path d="M 117.54 206.28 
L 144.72 206.28 
L 144.72 179.1 
L 117.54 179.1 
z
" clip-path="url(#p93e6a06930)" style="fill: #ffffff; stroke: #ffffff; stroke-linejoin: miter"/>
   </g>
   <g id="patch_58">
    <path d="M 144.72 206.28 
L 171.9 206.28 
L 171.9 179.1 
L 144.72 179.1 
z
" clip-path="url(#p93e6a06930)" style="fill: #ffffff; stroke: #ffffff; stroke-linejoin: miter"/>
   </g>
   <g id="patch_59">
    <path d="M 171.9 206.28 
L 199.08 206.28 
L 199.08 179.1 
L 171.9 179.1 
z
" clip-path="url(#p93e6a06930)" style="fill: #ffffff; stroke: #ffffff; stroke-linejoin: miter"/>
   </g>
   <g id="patch_60">
    <path d="M 199.08 206.28 
L 226.26 206.28 
L 226.26 179.1 
L 199.08 179.1 
z
" clip-path="url(#p93e6a06930)" style="fill: #ffffff; stroke: #ffffff; stroke-linejoin: miter"/>
   </g>
   <g id="patch_61">
    <path d="M 226.26 206.28 
L 253.44 206.28 
L 253.44 179.1 
L 226.26 179.1 
z
" clip-path="url(#p93e6a06930)" style="fill: #ffffff; stroke: #ffffff; stroke-linejoin: miter"/>
   </g>
   <g id="patch_62">
    <path d="M 253.44 206.28 
L 280.62 206.28 
L 280.62 179.1 
L 253.44 179.1 
z
" clip-path="url(#p93e6a06930)" style="fill: #ffffff; stroke: #ffffff; stroke-linejoin: miter"/>
   </g>
   <g id="patch_63">
    <path d="M 280.62 206.28 
L 307.8 206.28 
L 307.8 179.1 
L 280.62 179.1 
z
" clip-path="url(#p93e6a06930)" style="fill: #ffffff; stroke: #ffffff; stroke-linejoin: miter"/>
   </g>
   <g id="patch_64">
    <path d="M 307.8 206.28 
L 334.98 206.28 
L 334.98 179.1 
L 307.8 179.1 
z
" clip-path="url(#p93e6a06930)" style="fill: #ffffff; stroke: #ffffff; stroke-linejoin: miter"/>
   </g>
   <g id="patch_65">
    <path d="M 334.98 206.28 
L 362.16 206.28 
L 362.16 179.1 
L 334.98 179.1 
z
" clip-path="url(#p93e6a06930)" style="fill: #ffffff; stroke: #ffffff; stroke-linejoin: miter"/>
   </g>
   <g id="patch_66">
    <path d="M 362.16 206.28 
L 389.34 206.28 
L 389.34 179.1 
L 362.16 179.1 
z
" clip-path="url(#p93e6a06930)" style="fill: #ffffff; stroke: #ffffff; stroke-linejoin: miter"/>
   </g>
   <g id="patch_67">
    <path d="M 389.34 206.28 
L 416.52 206.28 
L 416.52 179.1 
L 389.34 179.1 
z
" clip-path="url(#p93e6a06930)" style="fill: #ffffff; stroke: #ffffff; stroke-linejoin: miter"/>
   </g>
   <g id="patch_68">
    <path d="M 63.18 179.1 
L 90.36 179.1 
L 90.36 151.92 
L 63.18 151.92 
z
" clip-path="url(#p93e6a06930)" style="fill: #ffffff; stroke: #ffffff; stroke-linejoin: miter"/>
   </g>
   <g id="patch_69">
    <path d="M 90.36 179.1 
L 117.54 179.1 
L 117.54 151.92 
L 90.36 151.92 
z
" clip-path="url(#p93e6a06930)" style="fill: #ffffff; stroke: #ffffff; stroke-linejoin: miter"/>
   </g>
   <g id="patch_70">
    <path d="M 117.54 179.1 
L 144.72 179.1 
L 144.72 151.92 
L 117.54 151.92 
z
" clip-path="url(#p93e6a06930)" style="fill: #ffffff; stroke: #ffffff; stroke-linejoin: miter"/>
   </g>
   <g id="patch_71">
    <path d="M 144.72 179.1 
L 171.9 179.1 
L 171.9 151.92 
L 144.72 151.92 
z
" clip-path="url(#p93e6a06930)" style="fill: #ffffff; stroke: #ffffff; stroke-linejoin: miter"/>
   </g>
   <g id="patch_72">
    <path d="M 171.9 179.1 
L 199.08 179.1 
L 199.08 151.92 
L 171.9 151.92 
z
" clip-path="url(#p93e6a06930)" style="fill: #ffffff; stroke: #ffffff; stroke-linejoin: miter"/>
   </g>
   <g id="patch_73">
    <path d="M 199.08 179.1 
L 226.26 179.1 
L 226.26 151.92 
L 199.08 151.92 
z
" clip-path="url(#p93e6a06930)" style="fill: #ffffff; stroke: #ffffff; stroke-linejoin: miter"/>
   </g>
   <g id="patch_74">
    <path d="M 226.26 179.1 
L 253.44 179.1 
L 253.44 151.92 
L 226.26 151.92 
z
" clip-path="url(#p93e6a06930)" style="fill: #ffffff; stroke: #ffffff; stroke-linejoin: miter"/>
   </g>
   <g id="patch_75">
    <path d="M 253.44 179.1 
L 280.62 179.1 
L 280.62 151.92 
L 253.44 151.92 
z
" clip-path="url(#p93e6a06930)" style="fill: #ffffff; stroke: #ffffff; stroke-linejoin: miter"/>
   </g>
   <g id="patch_76">
    <path d="M 280.62 179.1 
L 307.8 179.1 
L 307.8 151.92 
L 280.62 151.92 
z
" clip-path="url(#p93e6a06930)" style="fill: #ffffff; stroke: #ffffff; stroke-linejoin: miter"/>
   </g>
   <g id="patch_77">
    <path d="M 307.8 179.1 
L 334.98 179.1 
L 334.98 151.92 
L 307.8 151.92 
z
" clip-path="url(#p93e6a06930)" style="fill: #ffffff; stroke: #ffffff; stroke-linejoin: miter"/>
   </g>
   <g id="patch_78">
    <path d="M 334.98 179.1 
L 362.16 179.1 
L 362.16 151.92 
L 334.98 151.92 
z
" clip-path="url(#p93e6a06930)" style="fill: #ffffff; stroke: #ffffff; stroke-linejoin: miter"/>
   </g>
   <g id="patch_79">
    <path d="M 362.16 179.1 
L 389.34 179.1 
L 389.34 151.92 
L 362.16 151.92 
z
" clip-path="url(#p93e6a06930)" style="fill: #ffffff; stroke: #ffffff; stroke-linejoin: miter"/>
   </g>
   <g id="patch_80">
    <path d="M 389.34 179.1 
L 416.52 179.1 
L 416.52 151.92 
L 389.34 151.92 
z
" clip-path="url(#p93e6a06930)" style="fill: #ffffff; stroke: #ffffff; stroke-linejoin: miter"/>
   </g>
   <g id="patch_81">
    <path d="M 63.18 151.92 
L 90.36 151.92 
L 90.36 124.74 
L 63.18 124.74 
z
" clip-path="url(#p93e6a06930)" style="fill: #ffffff; stroke: #ffffff; stroke-linejoin: miter"/>
   </g>
   <g id="patch_82">
    <path d="M 90.36 151.92 
L 117.54 151.92 
L 117.54 124.74 
L 90.36 124.74 
z
" clip-path="url(#p93e6a06930)" style="fill: #ffffff; stroke: #ffffff; stroke-linejoin: miter"/>
   </g>
   <g id="patch_83">
    <path d="M 117.54 151.92 
L 144.72 151.92 
L 144.72 124.74 
L 117.54 124.74 
z
" clip-path="url(#p93e6a06930)" style="fill: #ffffff; stroke: #ffffff; stroke-linejoin: miter"/>
   </g>
   <g id="patch_84">
    <path d="M 144.72 151.92 
L 171.9 151.92 
L 171.9 124.74 
L 144.72 124.74 
z
" clip-path="url(#p93e6a06930)" style="fill: #ffffff; stroke: #ffffff; stroke-linejoin: miter"/>
   </g>
   <g id="patch_85">
    <path d="M 171.9 151.92 
L 199.08 151.92 
L 199.08 124.74 
L 171.9 124.74 
z
" clip-path="url(#p93e6a06930)" style="fill: #ffffff; stroke: #ffffff; stroke-linejoin: miter"/>
   </g>
   <g id="patch_86">
    <path d="M 199.08 151.92 
L 226.26 151.92 
L 226.26 124.74 
L 199.08 124.74 
z
" clip-path="url(#p93e6a06930)" style="fill: #ffffff; stroke: #ffffff; stroke-linejoin: miter"/>
   </g>
   <g id="patch_87">
    <path d="M 226.26 151.92 
L 253.44 151.92 
L 253.44 124.74 
L 226.26 124.74 
z
" clip-path="url(#p93e6a06930)" style="fill: #ffffff; stroke: #ffffff; stroke-linejoin: miter"/>
   </g>
   <g id="patch_88">
    <path d="M 253.44 151.92 
L 280.62 151.92 
L 280.62 124.74 
L 253.44 124.74 
z
" clip-path="url(#p93e6a06930)" style="fill: #ffffff; stroke: #ffffff; stroke-linejoin: miter"/>
   </g>
   <g id="patch_89">
    <path d="M 280.62 151.92 
L 307.8 151.92 
L 307.8 124.74 
L 280.62 124.74 
z
" clip-path="url(#p93e6a06930)" style="fill: #ffffff; stroke: #ffffff; stroke-linejoin: miter"/>
   </g>
   <g id="patch_90">
    <path d="M 307.8 151.92 
L 334.98 151.92 
L 334.98 124.74 
L 307.8 124.74 
z
" clip-path="url(#p93e6a06930)" style="fill: #ffffff; stroke: #ffffff; stroke-linejoin: miter"/>
   </g>
   <g id="patch_91">
    <path d="M 334.98 151.92 
L 362.16 151.92 
L 362.16 124.74 
L 334.98 124.74 
z
" clip-path="url(#p93e6a06930)" style="fill: #ffffff; stroke: #ffffff; stroke-linejoin: miter"/>
   </g>
   <g id="patch_92">
    <path d="M 362.16 151.92 
L 389.34 151.92 
L 389.34 124.74 
L 362.16 124.74 
z
" clip-path="url(#p93e6a06930)" style="fill: #ffffff; stroke: #ffffff; stroke-linejoin: miter"/>
   </g>
   <g id="patch_93">
    <path d="M 389.34 151.92 
L 416.52 151.92 
L 416.52 124.74 
L 389.34 124.74 
z
" clip-path="url(#p93e6a06930)" style="fill: #ffffff; stroke: #ffffff; stroke-linejoin: miter"/>
   </g>
   <g id="patch_94">
    <path d="M 63.18 124.74 
L 90.36 124.74 
L 90.36 97.56 
L 63.18 97.56 
z
" clip-path="url(#p93e6a06930)" style="fill: #ffffff; stroke: #ffffff; stroke-linejoin: miter"/>
   </g>
   <g id="patch_95">
    <path d="M 90.36 124.74 
L 117.54 124.74 
L 117.54 97.56 
L 90.36 97.56 
z
" clip-path="url(#p93e6a06930)" style="fill: #ffffff; stroke: #ffffff; stroke-linejoin: miter"/>
   </g>
   <g id="patch_96">
    <path d="M 117.54 124.74 
L 144.72 124.74 
L 144.72 97.56 
L 117.54 97.56 
z
" clip-path="url(#p93e6a06930)" style="fill: #ffffff; stroke: #ffffff; stroke-linejoin: miter"/>
   </g>
   <g id="patch_97">
    <path d="M 144.72 124.74 
L 171.9 124.74 
L 171.9 97.56 
L 144.72 97.56 
z
" clip-path="url(#p93e6a06930)" style="fill: #008000; stroke: #008000; stroke-linejoin: miter"/>
   </g>
   <g id="patch_98">
    <path d="M 171.9 124.74 
L 199.08 124.74 
L 199.08 97.56 
L 171.9 97.56 
z
" clip-path="url(#p93e6a06930)" style="fill: #008000; stroke: #008000; stroke-linejoin: miter"/>
   </g>
   <g id="patch_99">
    <path d="M 199.08 124.74 
L 226.26 124.74 
L 226.26 97.56 
L 199.08 97.56 
z
" clip-path="url(#p93e6a06930)" style="fill: #008000; stroke: #008000; stroke-linejoin: miter"/>
   </g>
   <g id="patch_100">
    <path d="M 226.26 124.74 
L 253.44 124.74 
L 253.44 97.56 
L 226.26 97.56 
z
" clip-path="url(#p93e6a06930)" style="fill: #008000; stroke: #008000; stroke-linejoin: miter"/>
   </g>
   <g id="patch_101">
    <path d="M 253.44 124.74 
L 280.62 124.74 
L 280.62 97.56 
L 253.44 97.56 
z
" clip-path="url(#p93e6a06930)" style="fill: #008000; stroke: #008000; stroke-linejoin: miter"/>
   </g>
   <g id="patch_102">
    <path d="M 280.62 124.74 
L 307.8 124.74 
L 307.8 97.56 
L 280.62 97.56 
z
" clip-path="url(#p93e6a06930)" style="fill: #008000; stroke: #008000; stroke-linejoin: miter"/>
   </g>
   <g id="patch_103">
    <path d="M 307.8 124.74 
L 334.98 124.74 
L 334.98 97.56 
L 307.8 97.56 
z
" clip-path="url(#p93e6a06930)" style="fill: #008000; stroke: #008000; stroke-linejoin: miter"/>
   </g>
   <g id="patch_104">
    <path d="M 334.98 124.74 
L 362.16 124.74 
L 362.16 97.56 
L 334.98 97.56 
z
" clip-path="url(#p93e6a06930)" style="fill: #ffffff; stroke: #ffffff; stroke-linejoin: miter"/>
   </g>
   <g id="patch_105">
    <path d="M 362.16 124.74 
L 389.34 124.74 
L 389.34 97.56 
L 362.16 97.56 
z
" clip-path="url(#p93e6a06930)" style="fill: #ffffff; stroke: #ffffff; stroke-linejoin: miter"/>
   </g>
   <g id="patch_106">
    <path d="M 389.34 124.74 
L 416.52 124.74 
L 416.52 97.56 
L 389.34 97.56 
z
" clip-path="url(#p93e6a06930)" style="fill: #ffffff; stroke: #ffffff; stroke-linejoin: miter"/>
   </g>
   <g id="patch_107">
    <path d="M 63.18 97.56 
L 90.36 97.56 
L 90.36 70.38 
L 63.18 70.38 
z
" clip-path="url(#p93e6a06930)" style="fill: #ffffff; stroke: #ffffff; stroke-linejoin: miter"/>
   </g>
   <g id="patch_108">
    <path d="M 90.36 97.56 
L 117.54 97.56 
L 117.54 70.38 
L 90.36 70.38 
z
" clip-path="url(#p93e6a06930)" style="fill: #008000; stroke: #008000; stroke-linejoin: miter"/>
   </g>
   <g id="patch_109">
    <path d="M 117.54 97.56 
L 144.72 97.56 
L 144.72 70.38 
L 117.54 70.38 
z
" clip-path="url(#p93e6a06930)" style="fill: #008000; stroke: #008000; stroke-linejoin: miter"/>
   </g>
   <g id="patch_110">
    <path d="M 144.72 97.56 
L 171.9 97.56 
L 171.9 70.38 
L 144.72 70.38 
z
" clip-path="url(#p93e6a06930)" style="fill: #008000; stroke: #008000; stroke-linejoin: miter"/>
   </g>
   <g id="patch_111">
    <path d="M 171.9 97.56 
L 199.08 97.56 
L 199.08 70.38 
L 171.9 70.38 
z
" clip-path="url(#p93e6a06930)" style="fill: #008000; stroke: #008000; stroke-linejoin: miter"/>
   </g>
   <g id="patch_112">
    <path d="M 199.08 97.56 
L 226.26 97.56 
L 226.26 70.38 
L 199.08 70.38 
z
" clip-path="url(#p93e6a06930)" style="fill: #008000; stroke: #008000; stroke-linejoin: miter"/>
   </g>
   <g id="patch_113">
    <path d="M 226.26 97.56 
L 253.44 97.56 
L 253.44 70.38 
L 226.26 70.38 
z
" clip-path="url(#p93e6a06930)" style="fill: #008000; stroke: #008000; stroke-linejoin: miter"/>
   </g>
   <g id="patch_114">
    <path d="M 253.44 97.56 
L 280.62 97.56 
L 280.62 70.38 
L 253.44 70.38 
z
" clip-path="url(#p93e6a06930)" style="fill: #008000; stroke: #008000; stroke-linejoin: miter"/>
   </g>
   <g id="patch_115">
    <path d="M 280.62 97.56 
L 307.8 97.56 
L 307.8 70.38 
L 280.62 70.38 
z
" clip-path="url(#p93e6a06930)" style="fill: #008000; stroke: #008000; stroke-linejoin: miter"/>
   </g>
   <g id="patch_116">
    <path d="M 307.8 97.56 
L 334.98 97.56 
L 334.98 70.38 
L 307.8 70.38 
z
" clip-path="url(#p93e6a06930)" style="fill: #008000; stroke: #008000; stroke-linejoin: miter"/>
   </g>
   <g id="patch_117">
    <path d="M 334.98 97.56 
L 362.16 97.56 
L 362.16 70.38 
L 334.98 70.38 
z
" clip-path="url(#p93e6a06930)" style="fill: #008000; stroke: #008000; stroke-linejoin: miter"/>
   </g>
   <g id="patch_118">
    <path d="M 362.16 97.56 
L 389.34 97.56 
L 389.34 70.38 
L 362.16 70.38 
z
" clip-path="url(#p93e6a06930)" style="fill: #008000; stroke: #008000; stroke-linejoin: miter"/>
   </g>
   <g id="patch_119">
    <path d="M 389.34 97.56 
L 416.52 97.56 
L 416.52 70.38 
L 389.34 70.38 
z
" clip-path="url(#p93e6a06930)" style="fill: #ffffff; stroke: #ffffff; stroke-linejoin: miter"/>
   </g>
   <g id="patch_120">
    <path d="M 63.18 70.38 
L 90.36 70.38 
L 90.36 43.2 
L 63.18 43.2 
z
" clip-path="url(#p93e6a06930)" style="fill: #ffffff; stroke: #ffffff; stroke-linejoin: miter"/>
   </g>
   <g id="patch_121">
    <path d="M 90.36 70.38 
L 117.54 70.38 
L 117.54 43.2 
L 90.36 43.2 
z
" clip-path="url(#p93e6a06930)" style="fill: #ffffff; stroke: #ffffff; stroke-linejoin: miter"/>
   </g>
   <g id="patch_122">
    <path d="M 117.54 70.38 
L 144.72 70.38 
L 144.72 43.2 
L 117.54 43.2 
z
" clip-path="url(#p93e6a06930)" style="fill: #ffffff; stroke: #ffffff; stroke-linejoin: miter"/>
   </g>
   <g id="patch_123">
    <path d="M 144.72 70.38 
L 171.9 70.38 
L 171.9 43.2 
L 144.72 43.2 
z
" clip-path="url(#p93e6a06930)" style="fill: #ffffff; stroke: #ffffff; stroke-linejoin: miter"/>
   </g>
   <g id="patch_124">
    <path d="M 171.9 70.38 
L 199.08 70.38 
L 199.08 43.2 
L 171.9 43.2 
z
" clip-path="url(#p93e6a06930)" style="fill: #ffffff; stroke: #ffffff; stroke-linejoin: miter"/>
   </g>
   <g id="patch_125">
    <path d="M 199.08 70.38 
L 226.26 70.38 
L 226.26 43.2 
L 199.08 43.2 
z
" clip-path="url(#p93e6a06930)" style="fill: #ffffff; stroke: #ffffff; stroke-linejoin: miter"/>
   </g>
   <g id="patch_126">
    <path d="M 226.26 70.38 
L 253.44 70.38 
L 253.44 43.2 
L 226.26 43.2 
z
" clip-path="url(#p93e6a06930)" style="fill: #ffffff; stroke: #ffffff; stroke-linejoin: miter"/>
   </g>
   <g id="patch_127">
    <path d="M 253.44 70.38 
L 280.62 70.38 
L 280.62 43.2 
L 253.44 43.2 
z
" clip-path="url(#p93e6a06930)" style="fill: #ffffff; stroke: #ffffff; stroke-linejoin: miter"/>
   </g>
   <g id="patch_128">
    <path d="M 280.62 70.38 
L 307.8 70.38 
L 307.8 43.2 
L 280.62 43.2 
z
" clip-path="url(#p93e6a06930)" style="fill: #ffffff; stroke: #ffffff; stroke-linejoin: miter"/>
   </g>
   <g id="patch_129">
    <path d="M 307.8 70.38 
L 334.98 70.38 
L 334.98 43.2 
L 307.8 43.2 
z
" clip-path="url(#p93e6a06930)" style="fill: #ffffff; stroke: #ffffff; stroke-linejoin: miter"/>
   </g>
   <g id="patch_130">
    <path d="M 334.98 70.38 
L 362.16 70.38 
L 362.16 43.2 
L 334.98 43.2 
z
" clip-path="url(#p93e6a06930)" style="fill: #ffffff; stroke: #ffffff; stroke-linejoin: miter"/>
   </g>
   <g id="patch_131">
    <path d="M 362.16 70.38 
L 389.34 70.38 
L 389.34 43.2 
L 362.16 43.2 
z
" clip-path="url(#p93e6a06930)" style="fill: #ffffff; stroke: #ffffff; stroke-linejoin: miter"/>
   </g>
   <g id="patch_132">
    <path d="M 389.34 70.38 
L 416.52 70.38 
L 416.52 43.2 
L 389.34 43.2 
z
" clip-path="url(#p93e6a06930)" style="fill: #ffffff; stroke: #ffffff; stroke-linejoin: miter"/>
   </g>
   <g id="PathCollection_1">
    <defs>
     <path id="m6a847031c1" d="M 11.18034 0 
L -5.59017 -9.682458 
L -5.59017 9.682458 
z
" style="stroke: #00ffff"/>
    </defs>
    <g clip-path="url(#p93e6a06930)">
     <use xlink:href="#m6a847031c1" x="76.77" y="274.23" style="fill: #00ffff; stroke: #00ffff"/>
    </g>
   </g>
   <g id="line2d_1">
    <path d="M 63.18 315 
L 63.18 43.2 
" clip-path="url(#p93e6a06930)" style="fill: none; stroke: #808080; stroke-linecap: square"/>
   </g>
   <g id="line2d_2">
    <path d="M 90.36 315 
L 90.36 43.2 
" clip-path="url(#p93e6a06930)" style="fill: none; stroke: #808080; stroke-linecap: square"/>
   </g>
   <g id="line2d_3">
    <path d="M 117.54 315 
L 117.54 43.2 
" clip-path="url(#p93e6a06930)" style="fill: none; stroke: #808080; stroke-linecap: square"/>
   </g>
   <g id="line2d_4">
    <path d="M 144.72 315 
L 144.72 43.2 
" clip-path="url(#p93e6a06930)" style="fill: none; stroke: #808080; stroke-linecap: square"/>
   </g>
   <g id="line2d_5">
    <path d="M 171.9 315 
L 171.9 43.2 
" clip-path="url(#p93e6a06930)" style="fill: none; stroke: #808080; stroke-linecap: square"/>
   </g>
   <g id="line2d_6">
    <path d="M 199.08 315 
L 199.08 43.2 
" clip-path="url(#p93e6a06930)" style="fill: none; stroke: #808080; stroke-linecap: square"/>
   </g>
   <g id="line2d_7">
    <path d="M 226.26 315 
L 226.26 43.2 
" clip-path="url(#p93e6a06930)" style="fill: none; stroke: #808080; stroke-linecap: square"/>
   </g>
   <g id="line2d_8">
    <path d="M 253.44 315 
L 253.44 43.2 
" clip-path="url(#p93e6a06930)" style="fill: none; stroke: #808080; stroke-linecap: square"/>
   </g>
   <g id="line2d_9">
    <path d="M 280.62 315 
L 280.62 43.2 
" clip-path="url(#p93e6a06930)" style="fill: none; stroke: #808080; stroke-linecap: square"/>
   </g>
   <g id="line2d_10">
    <path d="M 307.8 315 
L 307.8 43.2 
" clip-path="url(#p93e6a06930)" style="fill: none; stroke: #808080; stroke-linecap: square"/>
   </g>
   <g id="line2d_11">
    <path d="M 334.98 315 
L 334.98 43.2 
" clip-path="url(#p93e6a06930)" style="fill: none; stroke: #808080; stroke-linecap: square"/>
   </g>
   <g id="line2d_12">
    <path d="M 362.16 315 
L 362.16 43.2 
" clip-path="url(#p93e6a06930)" style="fill: none; stroke: #808080; stroke-linecap: square"/>
   </g>
   <g id="line2d_13">
    <path d="M 389.34 315 
L 389.34 43.2 
" clip-path="url(#p93e6a06930)" style="fill: none; stroke: #808080; stroke-linecap: square"/>
   </g>
   <g id="line2d_14">
    <path d="M 63.18 315 
L 416.52 315 
" clip-path="url(#p93e6a06930)" style="fill: none; stroke: #808080; stroke-linecap: square"/>
   </g>
   <g id="line2d_15">
    <path d="M 63.18 287.82 
L 416.52 287.82 
" clip-path="url(#p93e6a06930)" style="fill: none; stroke: #808080; stroke-linecap: square"/>
   </g>
   <g id="line2d_16">
    <path d="M 63.18 260.64 
L 416.52 260.64 
" clip-path="url(#p93e6a06930)" style="fill: none; stroke: #808080; stroke-linecap: square"/>
   </g>
   <g id="line2d_17">
    <path d="M 63.18 233.46 
L 416.52 233.46 
" clip-path="url(#p93e6a06930)" style="fill: none; stroke: #808080; stroke-linecap: square"/>
   </g>
   <g id="line2d_18">
    <path d="M 63.18 206.28 
L 416.52 206.28 
" clip-path="url(#p93e6a06930)" style="fill: none; stroke: #808080; stroke-linecap: square"/>
   </g>
   <g id="line2d_19">
    <path d="M 63.18 179.1 
L 416.52 179.1 
" clip-path="url(#p93e6a06930)" style="fill: none; stroke: #808080; stroke-linecap: square"/>
   </g>
   <g id="line2d_20">
    <path d="M 63.18 151.92 
L 416.52 151.92 
" clip-path="url(#p93e6a06930)" style="fill: none; stroke: #808080; stroke-linecap: square"/>
   </g>
   <g id="line2d_21">
    <path d="M 63.18 124.74 
L 416.52 124.74 
" clip-path="url(#p93e6a06930)" style="fill: none; stroke: #808080; stroke-linecap: square"/>
   </g>
   <g id="line2d_22">
    <path d="M 63.18 97.56 
L 416.52 97.56 
" clip-path="url(#p93e6a06930)" style="fill: none; stroke: #808080; stroke-linecap: square"/>
   </g>
   <g id="line2d_23">
    <path d="M 63.18 70.38 
L 416.52 70.38 
" clip-path="url(#p93e6a06930)" style="fill: none; stroke: #808080; stroke-linecap: square"/>
   </g>
   <g id="patch_133">
    <path d="M 63.18 315 
L 63.18 43.2 
" style="fill: none; stroke: #000000; stroke-width: 0.8; stroke-linejoin: miter; stroke-linecap: square"/>
   </g>
   <g id="patch_134">
    <path d="M 416.52 315 
L 416.52 43.2 
" style="fill: none; stroke: #000000; stroke-width: 0.8; stroke-linejoin: miter; stroke-linecap: square"/>
   </g>
   <g id="patch_135">
    <path d="M 63.18 315 
L 416.52 315 
" style="fill: none; stroke: #000000; stroke-width: 0.8; stroke-linejoin: miter; stroke-linecap: square"/>
   </g>
   <g id="patch_136">
    <path d="M 63.18 43.2 
L 416.52 43.2 
" style="fill: none; stroke: #000000; stroke-width: 0.8; stroke-linejoin: miter; stroke-linecap: square"/>
   </g>
   <g id="text_1">
    <!-- Broken Tree -->
    <g transform="translate(204.5775 37.2)scale(0.12 -0.12)">
     <defs>
      <path id="DejaVuSans-42" d="M 1259 2228 
L 1259 519 
L 2272 519 
Q 2781 519 3026 730 
Q 3272 941 3272 1375 
Q 3272 1813 3026 2020 
Q 2781 2228 2272 2228 
L 1259 2228 
z
M 1259 4147 
L 1259 2741 
L 2194 2741 
Q 2656 2741 2882 2914 
Q 3109 3088 3109 3444 
Q 3109 3797 2882 3972 
Q 2656 4147 2194 4147 
L 1259 4147 
z
M 628 4666 
L 2241 4666 
Q 2963 4666 3353 4366 
Q 3744 4066 3744 3513 
Q 3744 3084 3544 2831 
Q 3344 2578 2956 2516 
Q 3422 2416 3680 2098 
Q 3938 1781 3938 1306 
Q 3938 681 3513 340 
Q 3088 0 2303 0 
L 628 0 
L 628 4666 
z
" transform="scale(0.015625)"/>
      <path id="DejaVuSans-72" d="M 2631 2963 
Q 2534 3019 2420 3045 
Q 2306 3072 2169 3072 
Q 1681 3072 1420 2755 
Q 1159 2438 1159 1844 
L 1159 0 
L 581 0 
L 581 3500 
L 1159 3500 
L 1159 2956 
Q 1341 3275 1631 3429 
Q 1922 3584 2338 3584 
Q 2397 3584 2469 3576 
Q 2541 3569 2628 3553 
L 2631 2963 
z
" transform="scale(0.015625)"/>
      <path id="DejaVuSans-6f" d="M 1959 3097 
Q 1497 3097 1228 2736 
Q 959 2375 959 1747 
Q 959 1119 1226 758 
Q 1494 397 1959 397 
Q 2419 397 2687 759 
Q 2956 1122 2956 1747 
Q 2956 2369 2687 2733 
Q 2419 3097 1959 3097 
z
M 1959 3584 
Q 2709 3584 3137 3096 
Q 3566 2609 3566 1747 
Q 3566 888 3137 398 
Q 2709 -91 1959 -91 
Q 1206 -91 779 398 
Q 353 888 353 1747 
Q 353 2609 779 3096 
Q 1206 3584 1959 3584 
z
" transform="scale(0.015625)"/>
      <path id="DejaVuSans-6b" d="M 581 4863 
L 1159 4863 
L 1159 1991 
L 2875 3500 
L 3609 3500 
L 1753 1863 
L 3688 0 
L 2938 0 
L 1159 1709 
L 1159 0 
L 581 0 
L 581 4863 
z
" transform="scale(0.015625)"/>
      <path id="DejaVuSans-65" d="M 3597 1894 
L 3597 1613 
L 953 1613 
Q 991 1019 1311 708 
Q 1631 397 2203 397 
Q 2534 397 2845 478 
Q 3156 559 3463 722 
L 3463 178 
Q 3153 47 2828 -22 
Q 2503 -91 2169 -91 
Q 1331 -91 842 396 
Q 353 884 353 1716 
Q 353 2575 817 3079 
Q 1281 3584 2069 3584 
Q 2775 3584 3186 3129 
Q 3597 2675 3597 1894 
z
M 3022 2063 
Q 3016 2534 2758 2815 
Q 2500 3097 2075 3097 
Q 1594 3097 1305 2825 
Q 1016 2553 972 2059 
L 3022 2063 
z
" transform="scale(0.015625)"/>
      <path id="DejaVuSans-6e" d="M 3513 2113 
L 3513 0 
L 2938 0 
L 2938 2094 
Q 2938 2591 2744 2837 
Q 2550 3084 2163 3084 
Q 1697 3084 1428 2787 
Q 1159 2491 1159 1978 
L 1159 0 
L 581 0 
L 581 3500 
L 1159 3500 
L 1159 2956 
Q 1366 3272 1645 3428 
Q 1925 3584 2291 3584 
Q 2894 3584 3203 3211 
Q 3513 2838 3513 2113 
z
" transform="scale(0.015625)"/>
      <path id="DejaVuSans-20" transform="scale(0.015625)"/>
      <path id="DejaVuSans-54" d="M -19 4666 
L 3928 4666 
L 3928 4134 
L 2272 4134 
L 2272 0 
L 1638 0 
L 1638 4134 
L -19 4134 
L -19 4666 
z
" transform="scale(0.015625)"/>
     </defs>
     <use xlink:href="#DejaVuSans-42"/>
     <use xlink:href="#DejaVuSans-72" x="68.603516"/>
     <use xlink:href="#DejaVuSans-6f" x="107.466797"/>
     <use xlink:href="#DejaVuSans-6b" x="168.648438"/>
     <use xlink:href="#DejaVuSans-65" x="222.933594"/>
     <use xlink:href="#DejaVuSans-6e" x="284.457031"/>
     <use xlink:href="#DejaVuSans-20" x="347.835938"/>
     <use xlink:href="#DejaVuSans-54" x="379.623047"/>
     <use xlink:href="#DejaVuSans-72" x="425.957031"/>
     <use xlink:href="#DejaVuSans-65" x="464.820312"/>
     <use xlink:href="#DejaVuSans-65" x="526.34375"/>
    </g>
   </g>
  </g>
 </g>
 <defs>
  <clipPath id="p93e6a06930">
   <rect x="63.18" y="43.2" width="353.34" height="271.8"/>
  </clipPath>
 </defs>
</svg>
