<?xml version="1.0" encoding="utf-8" standalone="no"?>
<!DOCTYPE svg PUBLIC "-//W3C//DTD SVG 1.1//EN"
  "http://www.w3.org/Graphics/SVG/1.1/DTD/svg11.dtd">
<svg xmlns:xlink="http://www.w3.org/1999/xlink" width="648pt" height="288pt" viewBox="0 0 648 288" xmlns="http://www.w3.org/2000/svg" version="1.1">
 <metadata>
  <rdf:RDF xmlns:dc="http://purl.org/dc/elements/1.1/" xmlns:cc="http://creativecommons.org/ns#" xmlns:rdf="http://www.w3.org/1999/02/22-rdf-syntax-ns#">
   <cc:Work>
    <dc:type rdf:resource="http://purl.org/dc/dcmitype/StillImage"/>
    <dc:date>2023-05-08T11:39:23.170924</dc:date>
    <dc:format>image/svg+xml</dc:format>
    <dc:creator>
     <cc:Agent>
      <dc:title>Matplotlib v3.5.0, https://matplotlib.org/</dc:title>
     </cc:Agent>
    </dc:creator>
   </cc:Work>
  </rdf:RDF>
 </metadata>
 <defs>
  <style type="text/css">*{stroke-linejoin: round; stroke-linecap: butt}</style>
 </defs>
 <g id="figure_1">
  <g id="patch_1">
   <path d="M 0 288 
L 648 288 
L 648 0 
L 0 0 
z
" style="fill: #ffffff"/>
  </g>
  <g id="axes_1">
   <g id="patch_2">
    <path d="M 81 273.6 
L 567 273.6 
L 567 57.6 
L 81 57.6 
z
" style="fill: #ffffff"/>
   </g>
   <g id="patch_3">
    <path d="M 81 273.6 
L 108 273.6 
L 108 246.6 
L 81 246.6 
z
" clip-path="url(#pb868d16cbd)" style="stroke: #000000; stroke-linejoin: miter"/>
   </g>
   <g id="patch_4">
    <path d="M 108 273.6 
L 135 273.6 
L 135 246.6 
L 108 246.6 
z
" clip-path="url(#pb868d16cbd)" style="stroke: #000000; stroke-linejoin: miter"/>
   </g>
   <g id="patch_5">
    <path d="M 135 273.6 
L 162 273.6 
L 162 246.6 
L 135 246.6 
z
" clip-path="url(#pb868d16cbd)" style="stroke: #000000; stroke-linejoin: miter"/>
   </g>
   <g id="patch_6">
    <path d="M 162 273.6 
L 189 273.6 
L 189 246.6 
L 162 246.6 
z
" clip-path="url(#pb868d16cbd)" style="stroke: #000000; stroke-linejoin: miter"/>
   </g>
   <g id="patch_7">
    <path d="M 189 273.6 
L 216 273.6 
L 216 246.6 
L 189 246.6 
z
" clip-path="url(#pb868d16cbd)" style="stroke: #000000; stroke-linejoin: miter"/>
   </g>
   <g id="patch_8">
    <path d="M 216 273.6 
L 243 273.6 
L 243 246.6 
L 216 246.6 
z
" clip-path="url(#pb868d16cbd)" style="stroke: #000000; stroke-linejoin: miter"/>
   </g>
   <g id="patch_9">
    <path d="M 243 273.6 
L 270 273.6 
L 270 246.6 
L 243 246.6 
z
" clip-path="url(#pb868d16cbd)" style="stroke: #000000; stroke-linejoin: miter"/>
   </g>
   <g id="patch_10">
    <path d="M 270 273.6 
L 297 273.6 
L 297 246.6 
L 270 246.6 
z
" clip-path="url(#pb868d16cbd)" style="stroke: #000000; stroke-linejoin: miter"/>
   </g>
   <g id="patch_11">
    <path d="M 297 273.6 
L 324 273.6 
L 324 246.6 
L 297 246.6 
z
" clip-path="url(#pb868d16cbd)" style="stroke: #000000; stroke-linejoin: miter"/>
   </g>
   <g id="patch_12">
    <path d="M 324 273.6 
L 351 273.6 
L 351 246.6 
L 324 246.6 
z
" clip-path="url(#pb868d16cbd)" style="stroke: #000000; stroke-linejoin: miter"/>
   </g>
   <g id="patch_13">
    <path d="M 351 273.6 
L 378 273.6 
L 378 246.6 
L 351 246.6 
z
" clip-path="url(#pb868d16cbd)" style="stroke: #000000; stroke-linejoin: miter"/>
   </g>
   <g id="patch_14">
    <path d="M 378 273.6 
L 405 273.6 
L 405 246.6 
L 378 246.6 
z
" clip-path="url(#pb868d16cbd)" style="stroke: #000000; stroke-linejoin: miter"/>
   </g>
   <g id="patch_15">
    <path d="M 405 273.6 
L 432 273.6 
L 432 246.6 
L 405 246.6 
z
" clip-path="url(#pb868d16cbd)" style="stroke: #000000; stroke-linejoin: miter"/>
   </g>
   <g id="patch_16">
    <path d="M 432 273.6 
L 459 273.6 
L 459 246.6 
L 432 246.6 
z
" clip-path="url(#pb868d16cbd)" style="stroke: #000000; stroke-linejoin: miter"/>
   </g>
   <g id="patch_17">
    <path d="M 459 273.6 
L 486 273.6 
L 486 246.6 
L 459 246.6 
z
" clip-path="url(#pb868d16cbd)" style="stroke: #000000; stroke-linejoin: miter"/>
   </g>
   <g id="patch_18">
    <path d="M 486 273.6 
L 513 273.6 
L 513 246.6 
L 486 246.6 
z
" clip-path="url(#pb868d16cbd)" style="stroke: #000000; stroke-linejoin: miter"/>
   </g>
   <g id="patch_19">
    <path d="M 513 273.6 
L 540 273.6 
L 540 246.6 
L 513 246.6 
z
" clip-path="url(#pb868d16cbd)" style="stroke: #000000; stroke-linejoin: miter"/>
   </g>
   <g id="patch_20">
    <path d="M 540 273.6 
L 567 273.6 
L 567 246.6 
L 540 246.6 
z
" clip-path="url(#pb868d16cbd)" style="stroke: #000000; stroke-linejoin: miter"/>
   </g>
   <g id="patch_21">
    <path d="M 81 246.6 
L 108 246.6 
L 108 219.6 
L 81 219.6 
z
" clip-path="url(#pb868d16cbd)" style="fill: #008000; stroke: #008000; stroke-linejoin: miter"/>
   </g>
   <g id="patch_22">
    <path d="M 108 246.6 
L 135 246.6 
L 135 219.6 
L 108 219.6 
z
" clip-path="url(#pb868d16cbd)" style="fill: #008000; stroke: #008000; stroke-linejoin: miter"/>
   </g>
   <g id="patch_23">
    <path d="M 135 246.6 
L 162 246.6 
L 162 219.6 
L 135 219.6 
z
" clip-path="url(#pb868d16cbd)" style="fill: #008000; stroke: #008000; stroke-linejoin: miter"/>
   </g>
   <g id="patch_24">
    <path d="M 162 246.6 
L 189 246.6 
L 189 219.6 
L 162 219.6 
z
" clip-path="url(#pb868d16cbd)" style="stroke: #000000; stroke-linejoin: miter"/>
   </g>
   <g id="patch_25">
    <path d="M 189 246.6 
L 216 246.6 
L 216 219.6 
L 189 219.6 
z
" clip-path="url(#pb868d16cbd)" style="stroke: #000000; stroke-linejoin: miter"/>
   </g>
   <g id="patch_26">
    <path d="M 216 246.6 
L 243 246.6 
L 243 219.6 
L 216 219.6 
z
" clip-path="url(#pb868d16cbd)" style="stroke: #000000; stroke-linejoin: miter"/>
   </g>
   <g id="patch_27">
    <path d="M 243 246.6 
L 270 246.6 
L 270 219.6 
L 243 219.6 
z
" clip-path="url(#pb868d16cbd)" style="stroke: #000000; stroke-linejoin: miter"/>
   </g>
   <g id="patch_28">
    <path d="M 270 246.6 
L 297 246.6 
L 297 219.6 
L 270 219.6 
z
" clip-path="url(#pb868d16cbd)" style="stroke: #000000; stroke-linejoin: miter"/>
   </g>
   <g id="patch_29">
    <path d="M 297 246.6 
L 324 246.6 
L 324 219.6 
L 297 219.6 
z
" clip-path="url(#pb868d16cbd)" style="stroke: #000000; stroke-linejoin: miter"/>
   </g>
   <g id="patch_30">
    <path d="M 324 246.6 
L 351 246.6 
L 351 219.6 
L 324 219.6 
z
" clip-path="url(#pb868d16cbd)" style="stroke: #000000; stroke-linejoin: miter"/>
   </g>
   <g id="patch_31">
    <path d="M 351 246.6 
L 378 246.6 
L 378 219.6 
L 351 219.6 
z
" clip-path="url(#pb868d16cbd)" style="stroke: #000000; stroke-linejoin: miter"/>
   </g>
   <g id="patch_32">
    <path d="M 378 246.6 
L 405 246.6 
L 405 219.6 
L 378 219.6 
z
" clip-path="url(#pb868d16cbd)" style="stroke: #000000; stroke-linejoin: miter"/>
   </g>
   <g id="patch_33">
    <path d="M 405 246.6 
L 432 246.6 
L 432 219.6 
L 405 219.6 
z
" clip-path="url(#pb868d16cbd)" style="stroke: #000000; stroke-linejoin: miter"/>
   </g>
   <g id="patch_34">
    <path d="M 432 246.6 
L 459 246.6 
L 459 219.6 
L 432 219.6 
z
" clip-path="url(#pb868d16cbd)" style="stroke: #000000; stroke-linejoin: miter"/>
   </g>
   <g id="patch_35">
    <path d="M 459 246.6 
L 486 246.6 
L 486 219.6 
L 459 219.6 
z
" clip-path="url(#pb868d16cbd)" style="stroke: #000000; stroke-linejoin: miter"/>
   </g>
   <g id="patch_36">
    <path d="M 486 246.6 
L 513 246.6 
L 513 219.6 
L 486 219.6 
z
" clip-path="url(#pb868d16cbd)" style="fill: #008000; stroke: #008000; stroke-linejoin: miter"/>
   </g>
   <g id="patch_37">
    <path d="M 513 246.6 
L 540 246.6 
L 540 219.6 
L 513 219.6 
z
" clip-path="url(#pb868d16cbd)" style="fill: #008000; stroke: #008000; stroke-linejoin: miter"/>
   </g>
   <g id="patch_38">
    <path d="M 540 246.6 
L 567 246.6 
L 567 219.6 
L 540 219.6 
z
" clip-path="url(#pb868d16cbd)" style="fill: #008000; stroke: #008000; stroke-linejoin: miter"/>
   </g>
   <g id="patch_39">
    <path d="M 81 219.6 
L 108 219.6 
L 108 192.6 
L 81 192.6 
z
" clip-path="url(#pb868d16cbd)" style="fill: #ffffff; stroke: #ffffff; stroke-linejoin: miter"/>
   </g>
   <g id="patch_40">
    <path d="M 108 219.6 
L 135 219.6 
L 135 192.6 
L 108 192.6 
z
" clip-path="url(#pb868d16cbd)" style="fill: #ffffff; stroke: #ffffff; stroke-linejoin: miter"/>
   </g>
   <g id="patch_41">
    <path d="M 135 219.6 
L 162 219.6 
L 162 192.6 
L 135 192.6 
z
" clip-path="url(#pb868d16cbd)" style="fill: #ffffff; stroke: #ffffff; stroke-linejoin: miter"/>
   </g>
   <g id="patch_42">
    <path d="M 162 219.6 
L 189 219.6 
L 189 192.6 
L 162 192.6 
z
" clip-path="url(#pb868d16cbd)" style="fill: #008000; stroke: #008000; stroke-linejoin: miter"/>
   </g>
   <g id="patch_43">
    <path d="M 189 219.6 
L 216 219.6 
L 216 192.6 
L 189 192.6 
z
" clip-path="url(#pb868d16cbd)" style="fill: #008000; stroke: #008000; stroke-linejoin: miter"/>
   </g>
   <g id="patch_44">
    <path d="M 216 219.6 
L 243 219.6 
L 243 192.6 
L 216 192.6 
z
" clip-path="url(#pb868d16cbd)" style="fill: #008000; stroke: #008000; stroke-linejoin: miter"/>
   </g>
   <g id="patch_45">
    <path d="M 243 219.6 
L 270 219.6 
L 270 192.6 
L 243 192.6 
z
" clip-path="url(#pb868d16cbd)" style="stroke: #000000; stroke-linejoin: miter"/>
   </g>
   <g id="patch_46">
    <path d="M 270 219.6 
L 297 219.6 
L 297 192.6 
L 270 192.6 
z
" clip-path="url(#pb868d16cbd)" style="stroke: #000000; stroke-linejoin: miter"/>
   </g>
   <g id="patch_47">
    <path d="M 297 219.6 
L 324 219.6 
L 324 192.6 
L 297 192.6 
z
" clip-path="url(#pb868d16cbd)" style="stroke: #000000; stroke-linejoin: miter"/>
   </g>
   <g id="patch_48">
    <path d="M 324 219.6 
L 351 219.6 
L 351 192.6 
L 324 192.6 
z
" clip-path="url(#pb868d16cbd)" style="stroke: #000000; stroke-linejoin: miter"/>
   </g>
   <g id="patch_49">
    <path d="M 351 219.6 
L 378 219.6 
L 378 192.6 
L 351 192.6 
z
" clip-path="url(#pb868d16cbd)" style="stroke: #000000; stroke-linejoin: miter"/>
   </g>
   <g id="patch_50">
    <path d="M 378 219.6 
L 405 219.6 
L 405 192.6 
L 378 192.6 
z
" clip-path="url(#pb868d16cbd)" style="stroke: #000000; stroke-linejoin: miter"/>
   </g>
   <g id="patch_51">
    <path d="M 405 219.6 
L 432 219.6 
L 432 192.6 
L 405 192.6 
z
" clip-path="url(#pb868d16cbd)" style="fill: #008000; stroke: #008000; stroke-linejoin: miter"/>
   </g>
   <g id="patch_52">
    <path d="M 432 219.6 
L 459 219.6 
L 459 192.6 
L 432 192.6 
z
" clip-path="url(#pb868d16cbd)" style="fill: #008000; stroke: #008000; stroke-linejoin: miter"/>
   </g>
   <g id="patch_53">
    <path d="M 459 219.6 
L 486 219.6 
L 486 192.6 
L 459 192.6 
z
" clip-path="url(#pb868d16cbd)" style="fill: #008000; stroke: #008000; stroke-linejoin: miter"/>
   </g>
   <g id="patch_54">
    <path d="M 486 219.6 
L 513 219.6 
L 513 192.6 
L 486 192.6 
z
" clip-path="url(#pb868d16cbd)" style="fill: #ffffff; stroke: #ffffff; stroke-linejoin: miter"/>
   </g>
   <g id="patch_55">
    <path d="M 513 219.6 
L 540 219.6 
L 540 192.6 
L 513 192.6 
z
" clip-path="url(#pb868d16cbd)" style="fill: #ffffff; stroke: #ffffff; stroke-linejoin: miter"/>
   </g>
   <g id="patch_56">
    <path d="M 540 219.6 
L 567 219.6 
L 567 192.6 
L 540 192.6 
z
" clip-path="url(#pb868d16cbd)" style="fill: #ffffff; stroke: #ffffff; stroke-linejoin: miter"/>
   </g>
   <g id="patch_57">
    <path d="M 81 192.6 
L 108 192.6 
L 108 165.6 
L 81 165.6 
z
" clip-path="url(#pb868d16cbd)" style="fill: #ffffff; stroke: #ffffff; stroke-linejoin: miter"/>
   </g>
   <g id="patch_58">
    <path d="M 108 192.6 
L 135 192.6 
L 135 165.6 
L 108 165.6 
z
" clip-path="url(#pb868d16cbd)" style="fill: #ffffff; stroke: #ffffff; stroke-linejoin: miter"/>
   </g>
   <g id="patch_59">
    <path d="M 135 192.6 
L 162 192.6 
L 162 165.6 
L 135 165.6 
z
" clip-path="url(#pb868d16cbd)" style="fill: #ffffff; stroke: #ffffff; stroke-linejoin: miter"/>
   </g>
   <g id="patch_60">
    <path d="M 162 192.6 
L 189 192.6 
L 189 165.6 
L 162 165.6 
z
" clip-path="url(#pb868d16cbd)" style="fill: #ffffff; stroke: #ffffff; stroke-linejoin: miter"/>
   </g>
   <g id="patch_61">
    <path d="M 189 192.6 
L 216 192.6 
L 216 165.6 
L 189 165.6 
z
" clip-path="url(#pb868d16cbd)" style="fill: #ffffff; stroke: #ffffff; stroke-linejoin: miter"/>
   </g>
   <g id="patch_62">
    <path d="M 216 192.6 
L 243 192.6 
L 243 165.6 
L 216 165.6 
z
" clip-path="url(#pb868d16cbd)" style="fill: #ffffff; stroke: #ffffff; stroke-linejoin: miter"/>
   </g>
   <g id="patch_63">
    <path d="M 243 192.6 
L 270 192.6 
L 270 165.6 
L 243 165.6 
z
" clip-path="url(#pb868d16cbd)" style="stroke: #000000; stroke-linejoin: miter"/>
   </g>
   <g id="patch_64">
    <path d="M 270 192.6 
L 297 192.6 
L 297 165.6 
L 270 165.6 
z
" clip-path="url(#pb868d16cbd)" style="stroke: #000000; stroke-linejoin: miter"/>
   </g>
   <g id="patch_65">
    <path d="M 297 192.6 
L 324 192.6 
L 324 165.6 
L 297 165.6 
z
" clip-path="url(#pb868d16cbd)" style="stroke: #000000; stroke-linejoin: miter"/>
   </g>
   <g id="patch_66">
    <path d="M 324 192.6 
L 351 192.6 
L 351 165.6 
L 324 165.6 
z
" clip-path="url(#pb868d16cbd)" style="stroke: #000000; stroke-linejoin: miter"/>
   </g>
   <g id="patch_67">
    <path d="M 351 192.6 
L 378 192.6 
L 378 165.6 
L 351 165.6 
z
" clip-path="url(#pb868d16cbd)" style="stroke: #000000; stroke-linejoin: miter"/>
   </g>
   <g id="patch_68">
    <path d="M 378 192.6 
L 405 192.6 
L 405 165.6 
L 378 165.6 
z
" clip-path="url(#pb868d16cbd)" style="stroke: #000000; stroke-linejoin: miter"/>
   </g>
   <g id="patch_69">
    <path d="M 405 192.6 
L 432 192.6 
L 432 165.6 
L 405 165.6 
z
" clip-path="url(#pb868d16cbd)" style="fill: #ffffff; stroke: #ffffff; stroke-linejoin: miter"/>
   </g>
   <g id="patch_70">
    <path d="M 432 192.6 
L 459 192.6 
L 459 165.6 
L 432 165.6 
z
" clip-path="url(#pb868d16cbd)" style="fill: #ffffff; stroke: #ffffff; stroke-linejoin: miter"/>
   </g>
   <g id="patch_71">
    <path d="M 459 192.6 
L 486 192.6 
L 486 165.6 
L 459 165.6 
z
" clip-path="url(#pb868d16cbd)" style="fill: #ffffff; stroke: #ffffff; stroke-linejoin: miter"/>
   </g>
   <g id="patch_72">
    <path d="M 486 192.6 
L 513 192.6 
L 513 165.6 
L 486 165.6 
z
" clip-path="url(#pb868d16cbd)" style="fill: #ffffff; stroke: #ffffff; stroke-linejoin: miter"/>
   </g>
   <g id="patch_73">
    <path d="M 513 192.6 
L 540 192.6 
L 540 165.6 
L 513 165.6 
z
" clip-path="url(#pb868d16cbd)" style="fill: #ffffff; stroke: #ffffff; stroke-linejoin: miter"/>
   </g>
   <g id="patch_74">
    <path d="M 540 192.6 
L 567 192.6 
L 567 165.6 
L 540 165.6 
z
" clip-path="url(#pb868d16cbd)" style="fill: #ffffff; stroke: #ffffff; stroke-linejoin: miter"/>
   </g>
   <g id="patch_75">
    <path d="M 81 165.6 
L 108 165.6 
L 108 138.6 
L 81 138.6 
z
" clip-path="url(#pb868d16cbd)" style="fill: #ffffff; stroke: #ffffff; stroke-linejoin: miter"/>
   </g>
   <g id="patch_76">
    <path d="M 108 165.6 
L 135 165.6 
L 135 138.6 
L 108 138.6 
z
" clip-path="url(#pb868d16cbd)" style="fill: #ffffff; stroke: #ffffff; stroke-linejoin: miter"/>
   </g>
   <g id="patch_77">
    <path d="M 135 165.6 
L 162 165.6 
L 162 138.6 
L 135 138.6 
z
" clip-path="url(#pb868d16cbd)" style="fill: #ffffff; stroke: #ffffff; stroke-linejoin: miter"/>
   </g>
   <g id="patch_78">
    <path d="M 162 165.6 
L 189 165.6 
L 189 138.6 
L 162 138.6 
z
" clip-path="url(#pb868d16cbd)" style="fill: #ffffff; stroke: #ffffff; stroke-linejoin: miter"/>
   </g>
   <g id="patch_79">
    <path d="M 189 165.6 
L 216 165.6 
L 216 138.6 
L 189 138.6 
z
" clip-path="url(#pb868d16cbd)" style="fill: #ffffff; stroke: #ffffff; stroke-linejoin: miter"/>
   </g>
   <g id="patch_80">
    <path d="M 216 165.6 
L 243 165.6 
L 243 138.6 
L 216 138.6 
z
" clip-path="url(#pb868d16cbd)" style="fill: #ffffff; stroke: #ffffff; stroke-linejoin: miter"/>
   </g>
   <g id="patch_81">
    <path d="M 243 165.6 
L 270 165.6 
L 270 138.6 
L 243 138.6 
z
" clip-path="url(#pb868d16cbd)" style="fill: #008000; stroke: #008000; stroke-linejoin: miter"/>
   </g>
   <g id="patch_82">
    <path d="M 270 165.6 
L 297 165.6 
L 297 138.6 
L 270 138.6 
z
" clip-path="url(#pb868d16cbd)" style="stroke: #000000; stroke-linejoin: miter"/>
   </g>
   <g id="patch_83">
    <path d="M 297 165.6 
L 324 165.6 
L 324 138.6 
L 297 138.6 
z
" clip-path="url(#pb868d16cbd)" style="stroke: #000000; stroke-linejoin: miter"/>
   </g>
   <g id="patch_84">
    <path d="M 324 165.6 
L 351 165.6 
L 351 138.6 
L 324 138.6 
z
" clip-path="url(#pb868d16cbd)" style="stroke: #000000; stroke-linejoin: miter"/>
   </g>
   <g id="patch_85">
    <path d="M 351 165.6 
L 378 165.6 
L 378 138.6 
L 351 138.6 
z
" clip-path="url(#pb868d16cbd)" style="stroke: #000000; stroke-linejoin: miter"/>
   </g>
   <g id="patch_86">
    <path d="M 378 165.6 
L 405 165.6 
L 405 138.6 
L 378 138.6 
z
" clip-path="url(#pb868d16cbd)" style="fill: #008000; stroke: #008000; stroke-linejoin: miter"/>
   </g>
   <g id="patch_87">
    <path d="M 405 165.6 
L 432 165.6 
L 432 138.6 
L 405 138.6 
z
" clip-path="url(#pb868d16cbd)" style="fill: #ffffff; stroke: #ffffff; stroke-linejoin: miter"/>
   </g>
   <g id="patch_88">
    <path d="M 432 165.6 
L 459 165.6 
L 459 138.6 
L 432 138.6 
z
" clip-path="url(#pb868d16cbd)" style="fill: #ffffff; stroke: #ffffff; stroke-linejoin: miter"/>
   </g>
   <g id="patch_89">
    <path d="M 459 165.6 
L 486 165.6 
L 486 138.6 
L 459 138.6 
z
" clip-path="url(#pb868d16cbd)" style="fill: #ffffff; stroke: #ffffff; stroke-linejoin: miter"/>
   </g>
   <g id="patch_90">
    <path d="M 486 165.6 
L 513 165.6 
L 513 138.6 
L 486 138.6 
z
" clip-path="url(#pb868d16cbd)" style="fill: #ffffff; stroke: #ffffff; stroke-linejoin: miter"/>
   </g>
   <g id="patch_91">
    <path d="M 513 165.6 
L 540 165.6 
L 540 138.6 
L 513 138.6 
z
" clip-path="url(#pb868d16cbd)" style="fill: #ffffff; stroke: #ffffff; stroke-linejoin: miter"/>
   </g>
   <g id="patch_92">
    <path d="M 540 165.6 
L 567 165.6 
L 567 138.6 
L 540 138.6 
z
" clip-path="url(#pb868d16cbd)" style="fill: #ffffff; stroke: #ffffff; stroke-linejoin: miter"/>
   </g>
   <g id="patch_93">
    <path d="M 81 138.6 
L 108 138.6 
L 108 111.6 
L 81 111.6 
z
" clip-path="url(#pb868d16cbd)" style="fill: #ffffff; stroke: #ffffff; stroke-linejoin: miter"/>
   </g>
   <g id="patch_94">
    <path d="M 108 138.6 
L 135 138.6 
L 135 111.6 
L 108 111.6 
z
" clip-path="url(#pb868d16cbd)" style="fill: #ffffff; stroke: #ffffff; stroke-linejoin: miter"/>
   </g>
   <g id="patch_95">
    <path d="M 135 138.6 
L 162 138.6 
L 162 111.6 
L 135 111.6 
z
" clip-path="url(#pb868d16cbd)" style="fill: #ffffff; stroke: #ffffff; stroke-linejoin: miter"/>
   </g>
   <g id="patch_96">
    <path d="M 162 138.6 
L 189 138.6 
L 189 111.6 
L 162 111.6 
z
" clip-path="url(#pb868d16cbd)" style="fill: #ffffff; stroke: #ffffff; stroke-linejoin: miter"/>
   </g>
   <g id="patch_97">
    <path d="M 189 138.6 
L 216 138.6 
L 216 111.6 
L 189 111.6 
z
" clip-path="url(#pb868d16cbd)" style="fill: #ffffff; stroke: #ffffff; stroke-linejoin: miter"/>
   </g>
   <g id="patch_98">
    <path d="M 216 138.6 
L 243 138.6 
L 243 111.6 
L 216 111.6 
z
" clip-path="url(#pb868d16cbd)" style="fill: #ffffff; stroke: #ffffff; stroke-linejoin: miter"/>
   </g>
   <g id="patch_99">
    <path d="M 243 138.6 
L 270 138.6 
L 270 111.6 
L 243 111.6 
z
" clip-path="url(#pb868d16cbd)" style="fill: #ffffff; stroke: #ffffff; stroke-linejoin: miter"/>
   </g>
   <g id="patch_100">
    <path d="M 270 138.6 
L 297 138.6 
L 297 111.6 
L 270 111.6 
z
" clip-path="url(#pb868d16cbd)" style="fill: #008000; stroke: #008000; stroke-linejoin: miter"/>
   </g>
   <g id="patch_101">
    <path d="M 297 138.6 
L 324 138.6 
L 324 111.6 
L 297 111.6 
z
" clip-path="url(#pb868d16cbd)" style="stroke: #000000; stroke-linejoin: miter"/>
   </g>
   <g id="patch_102">
    <path d="M 324 138.6 
L 351 138.6 
L 351 111.6 
L 324 111.6 
z
" clip-path="url(#pb868d16cbd)" style="stroke: #000000; stroke-linejoin: miter"/>
   </g>
   <g id="patch_103">
    <path d="M 351 138.6 
L 378 138.6 
L 378 111.6 
L 351 111.6 
z
" clip-path="url(#pb868d16cbd)" style="fill: #008000; stroke: #008000; stroke-linejoin: miter"/>
   </g>
   <g id="patch_104">
    <path d="M 378 138.6 
L 405 138.6 
L 405 111.6 
L 378 111.6 
z
" clip-path="url(#pb868d16cbd)" style="fill: #ffffff; stroke: #ffffff; stroke-linejoin: miter"/>
   </g>
   <g id="patch_105">
    <path d="M 405 138.6 
L 432 138.6 
L 432 111.6 
L 405 111.6 
z
" clip-path="url(#pb868d16cbd)" style="fill: #ffffff; stroke: #ffffff; stroke-linejoin: miter"/>
   </g>
   <g id="patch_106">
    <path d="M 432 138.6 
L 459 138.6 
L 459 111.6 
L 432 111.6 
z
" clip-path="url(#pb868d16cbd)" style="fill: #ffffff; stroke: #ffffff; stroke-linejoin: miter"/>
   </g>
   <g id="patch_107">
    <path d="M 459 138.6 
L 486 138.6 
L 486 111.6 
L 459 111.6 
z
" clip-path="url(#pb868d16cbd)" style="fill: #ffffff; stroke: #ffffff; stroke-linejoin: miter"/>
   </g>
   <g id="patch_108">
    <path d="M 486 138.6 
L 513 138.6 
L 513 111.6 
L 486 111.6 
z
" clip-path="url(#pb868d16cbd)" style="fill: #ffffff; stroke: #ffffff; stroke-linejoin: miter"/>
   </g>
   <g id="patch_109">
    <path d="M 513 138.6 
L 540 138.6 
L 540 111.6 
L 513 111.6 
z
" clip-path="url(#pb868d16cbd)" style="fill: #ffffff; stroke: #ffffff; stroke-linejoin: miter"/>
   </g>
   <g id="patch_110">
    <path d="M 540 138.6 
L 567 138.6 
L 567 111.6 
L 540 111.6 
z
" clip-path="url(#pb868d16cbd)" style="fill: #ffffff; stroke: #ffffff; stroke-linejoin: miter"/>
   </g>
   <g id="patch_111">
    <path d="M 81 111.6 
L 108 111.6 
L 108 84.6 
L 81 84.6 
z
" clip-path="url(#pb868d16cbd)" style="fill: #ffffff; stroke: #ffffff; stroke-linejoin: miter"/>
   </g>
   <g id="patch_112">
    <path d="M 108 111.6 
L 135 111.6 
L 135 84.6 
L 108 84.6 
z
" clip-path="url(#pb868d16cbd)" style="fill: #ffffff; stroke: #ffffff; stroke-linejoin: miter"/>
   </g>
   <g id="patch_113">
    <path d="M 135 111.6 
L 162 111.6 
L 162 84.6 
L 135 84.6 
z
" clip-path="url(#pb868d16cbd)" style="fill: #ffffff; stroke: #ffffff; stroke-linejoin: miter"/>
   </g>
   <g id="patch_114">
    <path d="M 162 111.6 
L 189 111.6 
L 189 84.6 
L 162 84.6 
z
" clip-path="url(#pb868d16cbd)" style="fill: #ffffff; stroke: #ffffff; stroke-linejoin: miter"/>
   </g>
   <g id="patch_115">
    <path d="M 189 111.6 
L 216 111.6 
L 216 84.6 
L 189 84.6 
z
" clip-path="url(#pb868d16cbd)" style="fill: #ffffff; stroke: #ffffff; stroke-linejoin: miter"/>
   </g>
   <g id="patch_116">
    <path d="M 216 111.6 
L 243 111.6 
L 243 84.6 
L 216 84.6 
z
" clip-path="url(#pb868d16cbd)" style="fill: #ffffff; stroke: #ffffff; stroke-linejoin: miter"/>
   </g>
   <g id="patch_117">
    <path d="M 243 111.6 
L 270 111.6 
L 270 84.6 
L 243 84.6 
z
" clip-path="url(#pb868d16cbd)" style="fill: #ffffff; stroke: #ffffff; stroke-linejoin: miter"/>
   </g>
   <g id="patch_118">
    <path d="M 270 111.6 
L 297 111.6 
L 297 84.6 
L 270 84.6 
z
" clip-path="url(#pb868d16cbd)" style="fill: #ffffff; stroke: #ffffff; stroke-linejoin: miter"/>
   </g>
   <g id="patch_119">
    <path d="M 297 111.6 
L 324 111.6 
L 324 84.6 
L 297 84.6 
z
" clip-path="url(#pb868d16cbd)" style="stroke: #000000; stroke-linejoin: miter"/>
   </g>
   <g id="patch_120">
    <path d="M 324 111.6 
L 351 111.6 
L 351 84.6 
L 324 84.6 
z
" clip-path="url(#pb868d16cbd)" style="fill: #008000; stroke: #008000; stroke-linejoin: miter"/>
   </g>
   <g id="patch_121">
    <path d="M 351 111.6 
L 378 111.6 
L 378 84.6 
L 351 84.6 
z
" clip-path="url(#pb868d16cbd)" style="fill: #ffffff; stroke: #ffffff; stroke-linejoin: miter"/>
   </g>
   <g id="patch_122">
    <path d="M 378 111.6 
L 405 111.6 
L 405 84.6 
L 378 84.6 
z
" clip-path="url(#pb868d16cbd)" style="fill: #ffffff; stroke: #ffffff; stroke-linejoin: miter"/>
   </g>
   <g id="patch_123">
    <path d="M 405 111.6 
L 432 111.6 
L 432 84.6 
L 405 84.6 
z
" clip-path="url(#pb868d16cbd)" style="fill: #ffffff; stroke: #ffffff; stroke-linejoin: miter"/>
   </g>
   <g id="patch_124">
    <path d="M 432 111.6 
L 459 111.6 
L 459 84.6 
L 432 84.6 
z
" clip-path="url(#pb868d16cbd)" style="fill: #ffffff; stroke: #ffffff; stroke-linejoin: miter"/>
   </g>
   <g id="patch_125">
    <path d="M 459 111.6 
L 486 111.6 
L 486 84.6 
L 459 84.6 
z
" clip-path="url(#pb868d16cbd)" style="fill: #ffffff; stroke: #ffffff; stroke-linejoin: miter"/>
   </g>
   <g id="patch_126">
    <path d="M 486 111.6 
L 513 111.6 
L 513 84.6 
L 486 84.6 
z
" clip-path="url(#pb868d16cbd)" style="fill: #ffffff; stroke: #ffffff; stroke-linejoin: miter"/>
   </g>
   <g id="patch_127">
    <path d="M 513 111.6 
L 540 111.6 
L 540 84.6 
L 513 84.6 
z
" clip-path="url(#pb868d16cbd)" style="fill: #ffffff; stroke: #ffffff; stroke-linejoin: miter"/>
   </g>
   <g id="patch_128">
    <path d="M 540 111.6 
L 567 111.6 
L 567 84.6 
L 540 84.6 
z
" clip-path="url(#pb868d16cbd)" style="fill: #ffffff; stroke: #ffffff; stroke-linejoin: miter"/>
   </g>
   <g id="patch_129">
    <path d="M 81 84.6 
L 108 84.6 
L 108 57.6 
L 81 57.6 
z
" clip-path="url(#pb868d16cbd)" style="fill: #ffffff; stroke: #ffffff; stroke-linejoin: miter"/>
   </g>
   <g id="patch_130">
    <path d="M 108 84.6 
L 135 84.6 
L 135 57.6 
L 108 57.6 
z
" clip-path="url(#pb868d16cbd)" style="fill: #ffffff; stroke: #ffffff; stroke-linejoin: miter"/>
   </g>
   <g id="patch_131">
    <path d="M 135 84.6 
L 162 84.6 
L 162 57.6 
L 135 57.6 
z
" clip-path="url(#pb868d16cbd)" style="fill: #ffffff; stroke: #ffffff; stroke-linejoin: miter"/>
   </g>
   <g id="patch_132">
    <path d="M 162 84.6 
L 189 84.6 
L 189 57.6 
L 162 57.6 
z
" clip-path="url(#pb868d16cbd)" style="fill: #ffffff; stroke: #ffffff; stroke-linejoin: miter"/>
   </g>
   <g id="patch_133">
    <path d="M 189 84.6 
L 216 84.6 
L 216 57.6 
L 189 57.6 
z
" clip-path="url(#pb868d16cbd)" style="fill: #ffffff; stroke: #ffffff; stroke-linejoin: miter"/>
   </g>
   <g id="patch_134">
    <path d="M 216 84.6 
L 243 84.6 
L 243 57.6 
L 216 57.6 
z
" clip-path="url(#pb868d16cbd)" style="fill: #ffffff; stroke: #ffffff; stroke-linejoin: miter"/>
   </g>
   <g id="patch_135">
    <path d="M 243 84.6 
L 270 84.6 
L 270 57.6 
L 243 57.6 
z
" clip-path="url(#pb868d16cbd)" style="fill: #ffffff; stroke: #ffffff; stroke-linejoin: miter"/>
   </g>
   <g id="patch_136">
    <path d="M 270 84.6 
L 297 84.6 
L 297 57.6 
L 270 57.6 
z
" clip-path="url(#pb868d16cbd)" style="fill: #ffffff; stroke: #ffffff; stroke-linejoin: miter"/>
   </g>
   <g id="patch_137">
    <path d="M 297 84.6 
L 324 84.6 
L 324 57.6 
L 297 57.6 
z
" clip-path="url(#pb868d16cbd)" style="fill: #008000; stroke: #008000; stroke-linejoin: miter"/>
   </g>
   <g id="patch_138">
    <path d="M 324 84.6 
L 351 84.6 
L 351 57.6 
L 324 57.6 
z
" clip-path="url(#pb868d16cbd)" style="fill: #ffffff; stroke: #ffffff; stroke-linejoin: miter"/>
   </g>
   <g id="patch_139">
    <path d="M 351 84.6 
L 378 84.6 
L 378 57.6 
L 351 57.6 
z
" clip-path="url(#pb868d16cbd)" style="fill: #ffffff; stroke: #ffffff; stroke-linejoin: miter"/>
   </g>
   <g id="patch_140">
    <path d="M 378 84.6 
L 405 84.6 
L 405 57.6 
L 378 57.6 
z
" clip-path="url(#pb868d16cbd)" style="fill: #ffffff; stroke: #ffffff; stroke-linejoin: miter"/>
   </g>
   <g id="patch_141">
    <path d="M 405 84.6 
L 432 84.6 
L 432 57.6 
L 405 57.6 
z
" clip-path="url(#pb868d16cbd)" style="fill: #ffffff; stroke: #ffffff; stroke-linejoin: miter"/>
   </g>
   <g id="patch_142">
    <path d="M 432 84.6 
L 459 84.6 
L 459 57.6 
L 432 57.6 
z
" clip-path="url(#pb868d16cbd)" style="fill: #ffffff; stroke: #ffffff; stroke-linejoin: miter"/>
   </g>
   <g id="patch_143">
    <path d="M 459 84.6 
L 486 84.6 
L 486 57.6 
L 459 57.6 
z
" clip-path="url(#pb868d16cbd)" style="fill: #ffffff; stroke: #ffffff; stroke-linejoin: miter"/>
   </g>
   <g id="patch_144">
    <path d="M 486 84.6 
L 513 84.6 
L 513 57.6 
L 486 57.6 
z
" clip-path="url(#pb868d16cbd)" style="fill: #ffffff; stroke: #ffffff; stroke-linejoin: miter"/>
   </g>
   <g id="patch_145">
    <path d="M 513 84.6 
L 540 84.6 
L 540 57.6 
L 513 57.6 
z
" clip-path="url(#pb868d16cbd)" style="fill: #ffffff; stroke: #ffffff; stroke-linejoin: miter"/>
   </g>
   <g id="patch_146">
    <path d="M 540 84.6 
L 567 84.6 
L 567 57.6 
L 540 57.6 
z
" clip-path="url(#pb868d16cbd)" style="fill: #ffffff; stroke: #ffffff; stroke-linejoin: miter"/>
   </g>
   <g id="PathCollection_1">
    <defs>
     <path id="md0dfb6c679" d="M 11.18034 0 
L -5.59017 -9.682458 
L -5.59017 9.682458 
z
" style="stroke: #00ffff"/>
    </defs>
    <g clip-path="url(#pb868d16cbd)">
     <use xlink:href="#md0dfb6c679" x="553.5" y="233.1" style="fill: #00ffff; stroke: #00ffff"/>
    </g>
   </g>
   <g id="matplotlib.axis_1"/>
   <g id="line2d_1">
    <path d="M 81 273.6 
L 81 57.6 
" clip-path="url(#pb868d16cbd)" style="fill: none; stroke: #808080; stroke-linecap: square"/>
   </g>
   <g id="line2d_2">
    <path d="M 108 273.6 
L 108 57.6 
" clip-path="url(#pb868d16cbd)" style="fill: none; stroke: #808080; stroke-linecap: square"/>
   </g>
   <g id="line2d_3">
    <path d="M 135 273.6 
L 135 57.6 
" clip-path="url(#pb868d16cbd)" style="fill: none; stroke: #808080; stroke-linecap: square"/>
   </g>
   <g id="line2d_4">
    <path d="M 162 273.6 
L 162 57.6 
" clip-path="url(#pb868d16cbd)" style="fill: none; stroke: #808080; stroke-linecap: square"/>
   </g>
   <g id="line2d_5">
    <path d="M 189 273.6 
L 189 57.6 
" clip-path="url(#pb868d16cbd)" style="fill: none; stroke: #808080; stroke-linecap: square"/>
   </g>
   <g id="line2d_6">
    <path d="M 216 273.6 
L 216 57.6 
" clip-path="url(#pb868d16cbd)" style="fill: none; stroke: #808080; stroke-linecap: square"/>
   </g>
   <g id="line2d_7">
    <path d="M 243 273.6 
L 243 57.6 
" clip-path="url(#pb868d16cbd)" style="fill: none; stroke: #808080; stroke-linecap: square"/>
   </g>
   <g id="line2d_8">
    <path d="M 270 273.6 
L 270 57.6 
" clip-path="url(#pb868d16cbd)" style="fill: none; stroke: #808080; stroke-linecap: square"/>
   </g>
   <g id="line2d_9">
    <path d="M 297 273.6 
L 297 57.6 
" clip-path="url(#pb868d16cbd)" style="fill: none; stroke: #808080; stroke-linecap: square"/>
   </g>
   <g id="line2d_10">
    <path d="M 324 273.6 
L 324 57.6 
" clip-path="url(#pb868d16cbd)" style="fill: none; stroke: #808080; stroke-linecap: square"/>
   </g>
   <g id="line2d_11">
    <path d="M 351 273.6 
L 351 57.6 
" clip-path="url(#pb868d16cbd)" style="fill: none; stroke: #808080; stroke-linecap: square"/>
   </g>
   <g id="line2d_12">
    <path d="M 378 273.6 
L 378 57.6 
" clip-path="url(#pb868d16cbd)" style="fill: none; stroke: #808080; stroke-linecap: square"/>
   </g>
   <g id="line2d_13">
    <path d="M 405 273.6 
L 405 57.6 
" clip-path="url(#pb868d16cbd)" style="fill: none; stroke: #808080; stroke-linecap: square"/>
   </g>
   <g id="line2d_14">
    <path d="M 432 273.6 
L 432 57.6 
" clip-path="url(#pb868d16cbd)" style="fill: none; stroke: #808080; stroke-linecap: square"/>
   </g>
   <g id="line2d_15">
    <path d="M 459 273.6 
L 459 57.6 
" clip-path="url(#pb868d16cbd)" style="fill: none; stroke: #808080; stroke-linecap: square"/>
   </g>
   <g id="line2d_16">
    <path d="M 486 273.6 
L 486 57.6 
" clip-path="url(#pb868d16cbd)" style="fill: none; stroke: #808080; stroke-linecap: square"/>
   </g>
   <g id="line2d_17">
    <path d="M 513 273.6 
L 513 57.6 
" clip-path="url(#pb868d16cbd)" style="fill: none; stroke: #808080; stroke-linecap: square"/>
   </g>
   <g id="line2d_18">
    <path d="M 540 273.6 
L 540 57.6 
" clip-path="url(#pb868d16cbd)" style="fill: none; stroke: #808080; stroke-linecap: square"/>
   </g>
   <g id="line2d_19">
    <path d="M 81 273.6 
L 567 273.6 
" clip-path="url(#pb868d16cbd)" style="fill: none; stroke: #808080; stroke-linecap: square"/>
   </g>
   <g id="line2d_20">
    <path d="M 81 246.6 
L 567 246.6 
" clip-path="url(#pb868d16cbd)" style="fill: none; stroke: #808080; stroke-linecap: square"/>
   </g>
   <g id="line2d_21">
    <path d="M 81 219.6 
L 567 219.6 
" clip-path="url(#pb868d16cbd)" style="fill: none; stroke: #808080; stroke-linecap: square"/>
   </g>
   <g id="line2d_22">
    <path d="M 81 192.6 
L 567 192.6 
" clip-path="url(#pb868d16cbd)" style="fill: none; stroke: #808080; stroke-linecap: square"/>
   </g>
   <g id="line2d_23">
    <path d="M 81 165.6 
L 567 165.6 
" clip-path="url(#pb868d16cbd)" style="fill: none; stroke: #808080; stroke-linecap: square"/>
   </g>
   <g id="line2d_24">
    <path d="M 81 138.6 
L 567 138.6 
" clip-path="url(#pb868d16cbd)" style="fill: none; stroke: #808080; stroke-linecap: square"/>
   </g>
   <g id="line2d_25">
    <path d="M 81 111.6 
L 567 111.6 
" clip-path="url(#pb868d16cbd)" style="fill: none; stroke: #808080; stroke-linecap: square"/>
   </g>
   <g id="line2d_26">
    <path d="M 81 84.6 
L 567 84.6 
" clip-path="url(#pb868d16cbd)" style="fill: none; stroke: #808080; stroke-linecap: square"/>
   </g>
   <g id="patch_147">
    <path d="M 81 273.6 
L 81 57.6 
" style="fill: none; stroke: #000000; stroke-width: 0.8; stroke-linejoin: miter; stroke-linecap: square"/>
   </g>
   <g id="patch_148">
    <path d="M 567 273.6 
L 567 57.6 
" style="fill: none; stroke: #000000; stroke-width: 0.8; stroke-linejoin: miter; stroke-linecap: square"/>
   </g>
   <g id="patch_149">
    <path d="M 81 273.6 
L 567 273.6 
" style="fill: none; stroke: #000000; stroke-width: 0.8; stroke-linejoin: miter; stroke-linecap: square"/>
   </g>
   <g id="patch_150">
    <path d="M 81 57.6 
L 567 57.6 
" style="fill: none; stroke: #000000; stroke-width: 0.8; stroke-linejoin: miter; stroke-linecap: square"/>
   </g>
   <g id="text_1">
    <!-- Mountain -->
    <g transform="translate(296.048437 51.6)scale(0.12 -0.12)">
     <defs>
      <path id="DejaVuSans-4d" d="M 628 4666 
L 1569 4666 
L 2759 1491 
L 3956 4666 
L 4897 4666 
L 4897 0 
L 4281 0 
L 4281 4097 
L 3078 897 
L 2444 897 
L 1241 4097 
L 1241 0 
L 628 0 
L 628 4666 
z
" transform="scale(0.015625)"/>
      <path id="DejaVuSans-6f" d="M 1959 3097 
Q 1497 3097 1228 2736 
Q 959 2375 959 1747 
Q 959 1119 1226 758 
Q 1494 397 1959 397 
Q 2419 397 2687 759 
Q 2956 1122 2956 1747 
Q 2956 2369 2687 2733 
Q 2419 3097 1959 3097 
z
M 1959 3584 
Q 2709 3584 3137 3096 
Q 3566 2609 3566 1747 
Q 3566 888 3137 398 
Q 2709 -91 1959 -91 
Q 1206 -91 779 398 
Q 353 888 353 1747 
Q 353 2609 779 3096 
Q 1206 3584 1959 3584 
z
" transform="scale(0.015625)"/>
      <path id="DejaVuSans-75" d="M 544 1381 
L 544 3500 
L 1119 3500 
L 1119 1403 
Q 1119 906 1312 657 
Q 1506 409 1894 409 
Q 2359 409 2629 706 
Q 2900 1003 2900 1516 
L 2900 3500 
L 3475 3500 
L 3475 0 
L 2900 0 
L 2900 538 
Q 2691 219 2414 64 
Q 2138 -91 1772 -91 
Q 1169 -91 856 284 
Q 544 659 544 1381 
z
M 1991 3584 
L 1991 3584 
z
" transform="scale(0.015625)"/>
      <path id="DejaVuSans-6e" d="M 3513 2113 
L 3513 0 
L 2938 0 
L 2938 2094 
Q 2938 2591 2744 2837 
Q 2550 3084 2163 3084 
Q 1697 3084 1428 2787 
Q 1159 2491 1159 1978 
L 1159 0 
L 581 0 
L 581 3500 
L 1159 3500 
L 1159 2956 
Q 1366 3272 1645 3428 
Q 1925 3584 2291 3584 
Q 2894 3584 3203 3211 
Q 3513 2838 3513 2113 
z
" transform="scale(0.015625)"/>
      <path id="DejaVuSans-74" d="M 1172 4494 
L 1172 3500 
L 2356 3500 
L 2356 3053 
L 1172 3053 
L 1172 1153 
Q 1172 725 1289 603 
Q 1406 481 1766 481 
L 2356 481 
L 2356 0 
L 1766 0 
Q 1100 0 847 248 
Q 594 497 594 1153 
L 594 3053 
L 172 3053 
L 172 3500 
L 594 3500 
L 594 4494 
L 1172 4494 
z
" transform="scale(0.015625)"/>
      <path id="DejaVuSans-61" d="M 2194 1759 
Q 1497 1759 1228 1600 
Q 959 1441 959 1056 
Q 959 750 1161 570 
Q 1363 391 1709 391 
Q 2188 391 2477 730 
Q 2766 1069 2766 1631 
L 2766 1759 
L 2194 1759 
z
M 3341 1997 
L 3341 0 
L 2766 0 
L 2766 531 
Q 2569 213 2275 61 
Q 1981 -91 1556 -91 
Q 1019 -91 701 211 
Q 384 513 384 1019 
Q 384 1609 779 1909 
Q 1175 2209 1959 2209 
L 2766 2209 
L 2766 2266 
Q 2766 2663 2505 2880 
Q 2244 3097 1772 3097 
Q 1472 3097 1187 3025 
Q 903 2953 641 2809 
L 641 3341 
Q 956 3463 1253 3523 
Q 1550 3584 1831 3584 
Q 2591 3584 2966 3190 
Q 3341 2797 3341 1997 
z
" transform="scale(0.015625)"/>
      <path id="DejaVuSans-69" d="M 603 3500 
L 1178 3500 
L 1178 0 
L 603 0 
L 603 3500 
z
M 603 4863 
L 1178 4863 
L 1178 4134 
L 603 4134 
L 603 4863 
z
" transform="scale(0.015625)"/>
     </defs>
     <use xlink:href="#DejaVuSans-4d"/>
     <use xlink:href="#DejaVuSans-6f" x="86.279297"/>
     <use xlink:href="#DejaVuSans-75" x="147.460938"/>
     <use xlink:href="#DejaVuSans-6e" x="210.839844"/>
     <use xlink:href="#DejaVuSans-74" x="274.21875"/>
     <use xlink:href="#DejaVuSans-61" x="313.427734"/>
     <use xlink:href="#DejaVuSans-69" x="374.707031"/>
     <use xlink:href="#DejaVuSans-6e" x="402.490234"/>
    </g>
   </g>
  </g>
 </g>
 <defs>
  <clipPath id="pb868d16cbd">
   <rect x="81" y="57.6" width="486" height="216"/>
  </clipPath>
 </defs>
</svg>
