<?xml version="1.0" encoding="utf-8" standalone="no"?>
<!DOCTYPE svg PUBLIC "-//W3C//DTD SVG 1.1//EN"
  "http://www.w3.org/Graphics/SVG/1.1/DTD/svg11.dtd">
<svg xmlns:xlink="http://www.w3.org/1999/xlink" width="432pt" height="180pt" viewBox="0 0 432 180" xmlns="http://www.w3.org/2000/svg" version="1.1">
 <metadata>
  <rdf:RDF xmlns:dc="http://purl.org/dc/elements/1.1/" xmlns:cc="http://creativecommons.org/ns#" xmlns:rdf="http://www.w3.org/1999/02/22-rdf-syntax-ns#">
   <cc:Work>
    <dc:type rdf:resource="http://purl.org/dc/dcmitype/StillImage"/>
    <dc:date>2023-05-08T11:39:18.129365</dc:date>
    <dc:format>image/svg+xml</dc:format>
    <dc:creator>
     <cc:Agent>
      <dc:title>Matplotlib v3.5.0, https://matplotlib.org/</dc:title>
     </cc:Agent>
    </dc:creator>
   </cc:Work>
  </rdf:RDF>
 </metadata>
 <defs>
  <style type="text/css">*{stroke-linejoin: round; stroke-linecap: butt}</style>
 </defs>
 <g id="figure_1">
  <g id="patch_1">
   <path d="M 0 180 
L 432 180 
L 432 0 
L 0 0 
z
" style="fill: #ffffff"/>
  </g>
  <g id="axes_1">
   <g id="patch_2">
    <path d="M 54 171 
L 378 171 
L 378 36 
L 54 36 
z
" style="fill: #ffffff"/>
   </g>
   <g id="patch_3">
    <path d="M 54 171 
L 81 171 
L 81 144 
L 54 144 
z
" clip-path="url(#p92f815fcc4)" style="fill: #ffffff; stroke: #ffffff; stroke-linejoin: miter"/>
   </g>
   <g id="patch_4">
    <path d="M 81 171 
L 108 171 
L 108 144 
L 81 144 
z
" clip-path="url(#p92f815fcc4)" style="fill: #ffffff; stroke: #ffffff; stroke-linejoin: miter"/>
   </g>
   <g id="patch_5">
    <path d="M 108 171 
L 135 171 
L 135 144 
L 108 144 
z
" clip-path="url(#p92f815fcc4)" style="fill: #ffffff; stroke: #ffffff; stroke-linejoin: miter"/>
   </g>
   <g id="patch_6">
    <path d="M 135 171 
L 162 171 
L 162 144 
L 135 144 
z
" clip-path="url(#p92f815fcc4)" style="fill: #ffffff; stroke: #ffffff; stroke-linejoin: miter"/>
   </g>
   <g id="patch_7">
    <path d="M 162 171 
L 189 171 
L 189 144 
L 162 144 
z
" clip-path="url(#p92f815fcc4)" style="fill: #ff0000; stroke: #ff0000; stroke-linejoin: miter"/>
   </g>
   <g id="patch_8">
    <path d="M 189 171 
L 216 171 
L 216 144 
L 189 144 
z
" clip-path="url(#p92f815fcc4)" style="fill: #ffffff; stroke: #ffffff; stroke-linejoin: miter"/>
   </g>
   <g id="patch_9">
    <path d="M 216 171 
L 243 171 
L 243 144 
L 216 144 
z
" clip-path="url(#p92f815fcc4)" style="fill: #ffffff; stroke: #ffffff; stroke-linejoin: miter"/>
   </g>
   <g id="patch_10">
    <path d="M 243 171 
L 270 171 
L 270 144 
L 243 144 
z
" clip-path="url(#p92f815fcc4)" style="stroke: #000000; stroke-linejoin: miter"/>
   </g>
   <g id="patch_11">
    <path d="M 270 171 
L 297 171 
L 297 144 
L 270 144 
z
" clip-path="url(#p92f815fcc4)" style="fill: #ff0000; stroke: #ff0000; stroke-linejoin: miter"/>
   </g>
   <g id="patch_12">
    <path d="M 297 171 
L 324 171 
L 324 144 
L 297 144 
z
" clip-path="url(#p92f815fcc4)" style="stroke: #000000; stroke-linejoin: miter"/>
   </g>
   <g id="patch_13">
    <path d="M 324 171 
L 351 171 
L 351 144 
L 324 144 
z
" clip-path="url(#p92f815fcc4)" style="stroke: #000000; stroke-linejoin: miter"/>
   </g>
   <g id="patch_14">
    <path d="M 351 171 
L 378 171 
L 378 144 
L 351 144 
z
" clip-path="url(#p92f815fcc4)" style="stroke: #000000; stroke-linejoin: miter"/>
   </g>
   <g id="patch_15">
    <path d="M 54 144 
L 81 144 
L 81 117 
L 54 117 
z
" clip-path="url(#p92f815fcc4)" style="fill: #0000ff; stroke: #0000ff; stroke-linejoin: miter"/>
   </g>
   <g id="patch_16">
    <path d="M 81 144 
L 108 144 
L 108 117 
L 81 117 
z
" clip-path="url(#p92f815fcc4)" style="fill: #ffffff; stroke: #ffffff; stroke-linejoin: miter"/>
   </g>
   <g id="patch_17">
    <path d="M 108 144 
L 135 144 
L 135 117 
L 108 117 
z
" clip-path="url(#p92f815fcc4)" style="fill: #0000ff; stroke: #0000ff; stroke-linejoin: miter"/>
   </g>
   <g id="patch_18">
    <path d="M 135 144 
L 162 144 
L 162 117 
L 135 117 
z
" clip-path="url(#p92f815fcc4)" style="fill: #ffffff; stroke: #ffffff; stroke-linejoin: miter"/>
   </g>
   <g id="patch_19">
    <path d="M 162 144 
L 189 144 
L 189 117 
L 162 117 
z
" clip-path="url(#p92f815fcc4)" style="fill: #ffffff; stroke: #ffffff; stroke-linejoin: miter"/>
   </g>
   <g id="patch_20">
    <path d="M 189 144 
L 216 144 
L 216 117 
L 189 117 
z
" clip-path="url(#p92f815fcc4)" style="fill: #ffffff; stroke: #ffffff; stroke-linejoin: miter"/>
   </g>
   <g id="patch_21">
    <path d="M 216 144 
L 243 144 
L 243 117 
L 216 117 
z
" clip-path="url(#p92f815fcc4)" style="fill: #ffffff; stroke: #ffffff; stroke-linejoin: miter"/>
   </g>
   <g id="patch_22">
    <path d="M 243 144 
L 270 144 
L 270 117 
L 243 117 
z
" clip-path="url(#p92f815fcc4)" style="stroke: #000000; stroke-linejoin: miter"/>
   </g>
   <g id="patch_23">
    <path d="M 270 144 
L 297 144 
L 297 117 
L 270 117 
z
" clip-path="url(#p92f815fcc4)" style="fill: #ffffff; stroke: #ffffff; stroke-linejoin: miter"/>
   </g>
   <g id="patch_24">
    <path d="M 297 144 
L 324 144 
L 324 117 
L 297 117 
z
" clip-path="url(#p92f815fcc4)" style="fill: #ffffff; stroke: #ffffff; stroke-linejoin: miter"/>
   </g>
   <g id="patch_25">
    <path d="M 324 144 
L 351 144 
L 351 117 
L 324 117 
z
" clip-path="url(#p92f815fcc4)" style="fill: #ffffff; stroke: #ffffff; stroke-linejoin: miter"/>
   </g>
   <g id="patch_26">
    <path d="M 351 144 
L 378 144 
L 378 117 
L 351 117 
z
" clip-path="url(#p92f815fcc4)" style="stroke: #000000; stroke-linejoin: miter"/>
   </g>
   <g id="patch_27">
    <path d="M 54 117 
L 81 117 
L 81 90 
L 54 90 
z
" clip-path="url(#p92f815fcc4)" style="fill: #ffffff; stroke: #ffffff; stroke-linejoin: miter"/>
   </g>
   <g id="patch_28">
    <path d="M 81 117 
L 108 117 
L 108 90 
L 81 90 
z
" clip-path="url(#p92f815fcc4)" style="fill: #ffffff; stroke: #ffffff; stroke-linejoin: miter"/>
   </g>
   <g id="patch_29">
    <path d="M 108 117 
L 135 117 
L 135 90 
L 108 90 
z
" clip-path="url(#p92f815fcc4)" style="fill: #ffffff; stroke: #ffffff; stroke-linejoin: miter"/>
   </g>
   <g id="patch_30">
    <path d="M 135 117 
L 162 117 
L 162 90 
L 135 90 
z
" clip-path="url(#p92f815fcc4)" style="stroke: #000000; stroke-linejoin: miter"/>
   </g>
   <g id="patch_31">
    <path d="M 162 117 
L 189 117 
L 189 90 
L 162 90 
z
" clip-path="url(#p92f815fcc4)" style="fill: #ffffff; stroke: #ffffff; stroke-linejoin: miter"/>
   </g>
   <g id="patch_32">
    <path d="M 189 117 
L 216 117 
L 216 90 
L 189 90 
z
" clip-path="url(#p92f815fcc4)" style="fill: #ffffff; stroke: #ffffff; stroke-linejoin: miter"/>
   </g>
   <g id="patch_33">
    <path d="M 216 117 
L 243 117 
L 243 90 
L 216 90 
z
" clip-path="url(#p92f815fcc4)" style="fill: #ffffff; stroke: #ffffff; stroke-linejoin: miter"/>
   </g>
   <g id="patch_34">
    <path d="M 243 117 
L 270 117 
L 270 90 
L 243 90 
z
" clip-path="url(#p92f815fcc4)" style="stroke: #000000; stroke-linejoin: miter"/>
   </g>
   <g id="patch_35">
    <path d="M 270 117 
L 297 117 
L 297 90 
L 270 90 
z
" clip-path="url(#p92f815fcc4)" style="stroke: #000000; stroke-linejoin: miter"/>
   </g>
   <g id="patch_36">
    <path d="M 297 117 
L 324 117 
L 324 90 
L 297 90 
z
" clip-path="url(#p92f815fcc4)" style="stroke: #000000; stroke-linejoin: miter"/>
   </g>
   <g id="patch_37">
    <path d="M 324 117 
L 351 117 
L 351 90 
L 324 90 
z
" clip-path="url(#p92f815fcc4)" style="fill: #ffffff; stroke: #ffffff; stroke-linejoin: miter"/>
   </g>
   <g id="patch_38">
    <path d="M 351 117 
L 378 117 
L 378 90 
L 351 90 
z
" clip-path="url(#p92f815fcc4)" style="stroke: #000000; stroke-linejoin: miter"/>
   </g>
   <g id="patch_39">
    <path d="M 54 90 
L 81 90 
L 81 63 
L 54 63 
z
" clip-path="url(#p92f815fcc4)" style="fill: #0000ff; stroke: #0000ff; stroke-linejoin: miter"/>
   </g>
   <g id="patch_40">
    <path d="M 81 90 
L 108 90 
L 108 63 
L 81 63 
z
" clip-path="url(#p92f815fcc4)" style="fill: #ffffff; stroke: #ffffff; stroke-linejoin: miter"/>
   </g>
   <g id="patch_41">
    <path d="M 108 90 
L 135 90 
L 135 63 
L 108 63 
z
" clip-path="url(#p92f815fcc4)" style="fill: #ffffff; stroke: #ffffff; stroke-linejoin: miter"/>
   </g>
   <g id="patch_42">
    <path d="M 135 90 
L 162 90 
L 162 63 
L 135 63 
z
" clip-path="url(#p92f815fcc4)" style="fill: #ffffff; stroke: #ffffff; stroke-linejoin: miter"/>
   </g>
   <g id="patch_43">
    <path d="M 162 90 
L 189 90 
L 189 63 
L 162 63 
z
" clip-path="url(#p92f815fcc4)" style="fill: #ffffff; stroke: #ffffff; stroke-linejoin: miter"/>
   </g>
   <g id="patch_44">
    <path d="M 189 90 
L 216 90 
L 216 63 
L 189 63 
z
" clip-path="url(#p92f815fcc4)" style="fill: #ffffff; stroke: #ffffff; stroke-linejoin: miter"/>
   </g>
   <g id="patch_45">
    <path d="M 216 90 
L 243 90 
L 243 63 
L 216 63 
z
" clip-path="url(#p92f815fcc4)" style="fill: #ffffff; stroke: #ffffff; stroke-linejoin: miter"/>
   </g>
   <g id="patch_46">
    <path d="M 243 90 
L 270 90 
L 270 63 
L 243 63 
z
" clip-path="url(#p92f815fcc4)" style="fill: #ffffff; stroke: #ffffff; stroke-linejoin: miter"/>
   </g>
   <g id="patch_47">
    <path d="M 270 90 
L 297 90 
L 297 63 
L 270 63 
z
" clip-path="url(#p92f815fcc4)" style="fill: #ffffff; stroke: #ffffff; stroke-linejoin: miter"/>
   </g>
   <g id="patch_48">
    <path d="M 297 90 
L 324 90 
L 324 63 
L 297 63 
z
" clip-path="url(#p92f815fcc4)" style="fill: #ffffff; stroke: #ffffff; stroke-linejoin: miter"/>
   </g>
   <g id="patch_49">
    <path d="M 324 90 
L 351 90 
L 351 63 
L 324 63 
z
" clip-path="url(#p92f815fcc4)" style="fill: #ffffff; stroke: #ffffff; stroke-linejoin: miter"/>
   </g>
   <g id="patch_50">
    <path d="M 351 90 
L 378 90 
L 378 63 
L 351 63 
z
" clip-path="url(#p92f815fcc4)" style="stroke: #000000; stroke-linejoin: miter"/>
   </g>
   <g id="patch_51">
    <path d="M 54 63 
L 81 63 
L 81 36 
L 54 36 
z
" clip-path="url(#p92f815fcc4)" style="stroke: #000000; stroke-linejoin: miter"/>
   </g>
   <g id="patch_52">
    <path d="M 81 63 
L 108 63 
L 108 36 
L 81 36 
z
" clip-path="url(#p92f815fcc4)" style="fill: #ffffff; stroke: #ffffff; stroke-linejoin: miter"/>
   </g>
   <g id="patch_53">
    <path d="M 108 63 
L 135 63 
L 135 36 
L 108 36 
z
" clip-path="url(#p92f815fcc4)" style="fill: #ff0000; stroke: #ff0000; stroke-linejoin: miter"/>
   </g>
   <g id="patch_54">
    <path d="M 135 63 
L 162 63 
L 162 36 
L 135 36 
z
" clip-path="url(#p92f815fcc4)" style="fill: #ffffff; stroke: #ffffff; stroke-linejoin: miter"/>
   </g>
   <g id="patch_55">
    <path d="M 162 63 
L 189 63 
L 189 36 
L 162 36 
z
" clip-path="url(#p92f815fcc4)" style="fill: #ff0000; stroke: #ff0000; stroke-linejoin: miter"/>
   </g>
   <g id="patch_56">
    <path d="M 189 63 
L 216 63 
L 216 36 
L 189 36 
z
" clip-path="url(#p92f815fcc4)" style="fill: #ffffff; stroke: #ffffff; stroke-linejoin: miter"/>
   </g>
   <g id="patch_57">
    <path d="M 216 63 
L 243 63 
L 243 36 
L 216 36 
z
" clip-path="url(#p92f815fcc4)" style="fill: #ffffff; stroke: #ffffff; stroke-linejoin: miter"/>
   </g>
   <g id="patch_58">
    <path d="M 243 63 
L 270 63 
L 270 36 
L 243 36 
z
" clip-path="url(#p92f815fcc4)" style="stroke: #000000; stroke-linejoin: miter"/>
   </g>
   <g id="patch_59">
    <path d="M 270 63 
L 297 63 
L 297 36 
L 270 36 
z
" clip-path="url(#p92f815fcc4)" style="stroke: #000000; stroke-linejoin: miter"/>
   </g>
   <g id="patch_60">
    <path d="M 297 63 
L 324 63 
L 324 36 
L 297 36 
z
" clip-path="url(#p92f815fcc4)" style="stroke: #000000; stroke-linejoin: miter"/>
   </g>
   <g id="patch_61">
    <path d="M 324 63 
L 351 63 
L 351 36 
L 324 36 
z
" clip-path="url(#p92f815fcc4)" style="stroke: #000000; stroke-linejoin: miter"/>
   </g>
   <g id="patch_62">
    <path d="M 351 63 
L 378 63 
L 378 36 
L 351 36 
z
" clip-path="url(#p92f815fcc4)" style="stroke: #000000; stroke-linejoin: miter"/>
   </g>
   <g id="PathCollection_1">
    <defs>
     <path id="m4efd047b55" d="M 11.18034 0 
L -5.59017 -9.682458 
L -5.59017 9.682458 
z
" style="stroke: #00ffff"/>
    </defs>
    <g clip-path="url(#p92f815fcc4)">
     <use xlink:href="#m4efd047b55" x="67.5" y="157.5" style="fill: #00ffff; stroke: #00ffff"/>
    </g>
   </g>
   <g id="matplotlib.axis_1"/>
   <g id="line2d_1">
    <path d="M 54 171 
L 54 36 
" clip-path="url(#p92f815fcc4)" style="fill: none; stroke: #808080; stroke-linecap: square"/>
   </g>
   <g id="line2d_2">
    <path d="M 81 171 
L 81 36 
" clip-path="url(#p92f815fcc4)" style="fill: none; stroke: #808080; stroke-linecap: square"/>
   </g>
   <g id="line2d_3">
    <path d="M 108 171 
L 108 36 
" clip-path="url(#p92f815fcc4)" style="fill: none; stroke: #808080; stroke-linecap: square"/>
   </g>
   <g id="line2d_4">
    <path d="M 135 171 
L 135 36 
" clip-path="url(#p92f815fcc4)" style="fill: none; stroke: #808080; stroke-linecap: square"/>
   </g>
   <g id="line2d_5">
    <path d="M 162 171 
L 162 36 
" clip-path="url(#p92f815fcc4)" style="fill: none; stroke: #808080; stroke-linecap: square"/>
   </g>
   <g id="line2d_6">
    <path d="M 189 171 
L 189 36 
" clip-path="url(#p92f815fcc4)" style="fill: none; stroke: #808080; stroke-linecap: square"/>
   </g>
   <g id="line2d_7">
    <path d="M 216 171 
L 216 36 
" clip-path="url(#p92f815fcc4)" style="fill: none; stroke: #808080; stroke-linecap: square"/>
   </g>
   <g id="line2d_8">
    <path d="M 243 171 
L 243 36 
" clip-path="url(#p92f815fcc4)" style="fill: none; stroke: #808080; stroke-linecap: square"/>
   </g>
   <g id="line2d_9">
    <path d="M 270 171 
L 270 36 
" clip-path="url(#p92f815fcc4)" style="fill: none; stroke: #808080; stroke-linecap: square"/>
   </g>
   <g id="line2d_10">
    <path d="M 297 171 
L 297 36 
" clip-path="url(#p92f815fcc4)" style="fill: none; stroke: #808080; stroke-linecap: square"/>
   </g>
   <g id="line2d_11">
    <path d="M 324 171 
L 324 36 
" clip-path="url(#p92f815fcc4)" style="fill: none; stroke: #808080; stroke-linecap: square"/>
   </g>
   <g id="line2d_12">
    <path d="M 351 171 
L 351 36 
" clip-path="url(#p92f815fcc4)" style="fill: none; stroke: #808080; stroke-linecap: square"/>
   </g>
   <g id="line2d_13">
    <path d="M 54 171 
L 378 171 
" clip-path="url(#p92f815fcc4)" style="fill: none; stroke: #808080; stroke-linecap: square"/>
   </g>
   <g id="line2d_14">
    <path d="M 54 144 
L 378 144 
" clip-path="url(#p92f815fcc4)" style="fill: none; stroke: #808080; stroke-linecap: square"/>
   </g>
   <g id="line2d_15">
    <path d="M 54 117 
L 378 117 
" clip-path="url(#p92f815fcc4)" style="fill: none; stroke: #808080; stroke-linecap: square"/>
   </g>
   <g id="line2d_16">
    <path d="M 54 90 
L 378 90 
" clip-path="url(#p92f815fcc4)" style="fill: none; stroke: #808080; stroke-linecap: square"/>
   </g>
   <g id="line2d_17">
    <path d="M 54 63 
L 378 63 
" clip-path="url(#p92f815fcc4)" style="fill: none; stroke: #808080; stroke-linecap: square"/>
   </g>
   <g id="patch_63">
    <path d="M 54 171 
L 54 36 
" style="fill: none; stroke: #000000; stroke-width: 0.8; stroke-linejoin: miter; stroke-linecap: square"/>
   </g>
   <g id="patch_64">
    <path d="M 378 171 
L 378 36 
" style="fill: none; stroke: #000000; stroke-width: 0.8; stroke-linejoin: miter; stroke-linecap: square"/>
   </g>
   <g id="patch_65">
    <path d="M 54 171 
L 378 171 
" style="fill: none; stroke: #000000; stroke-width: 0.8; stroke-linejoin: miter; stroke-linecap: square"/>
   </g>
   <g id="patch_66">
    <path d="M 54 36 
L 378 36 
" style="fill: none; stroke: #000000; stroke-width: 0.8; stroke-linejoin: miter; stroke-linecap: square"/>
   </g>
   <g id="text_1">
    <!-- Treasure -->
    <g transform="translate(190.568438 30)scale(0.12 -0.12)">
     <defs>
      <path id="DejaVuSans-54" d="M -19 4666 
L 3928 4666 
L 3928 4134 
L 2272 4134 
L 2272 0 
L 1638 0 
L 1638 4134 
L -19 4134 
L -19 4666 
z
" transform="scale(0.015625)"/>
      <path id="DejaVuSans-72" d="M 2631 2963 
Q 2534 3019 2420 3045 
Q 2306 3072 2169 3072 
Q 1681 3072 1420 2755 
Q 1159 2438 1159 1844 
L 1159 0 
L 581 0 
L 581 3500 
L 1159 3500 
L 1159 2956 
Q 1341 3275 1631 3429 
Q 1922 3584 2338 3584 
Q 2397 3584 2469 3576 
Q 2541 3569 2628 3553 
L 2631 2963 
z
" transform="scale(0.015625)"/>
      <path id="DejaVuSans-65" d="M 3597 1894 
L 3597 1613 
L 953 1613 
Q 991 1019 1311 708 
Q 1631 397 2203 397 
Q 2534 397 2845 478 
Q 3156 559 3463 722 
L 3463 178 
Q 3153 47 2828 -22 
Q 2503 -91 2169 -91 
Q 1331 -91 842 396 
Q 353 884 353 1716 
Q 353 2575 817 3079 
Q 1281 3584 2069 3584 
Q 2775 3584 3186 3129 
Q 3597 2675 3597 1894 
z
M 3022 2063 
Q 3016 2534 2758 2815 
Q 2500 3097 2075 3097 
Q 1594 3097 1305 2825 
Q 1016 2553 972 2059 
L 3022 2063 
z
" transform="scale(0.015625)"/>
      <path id="DejaVuSans-61" d="M 2194 1759 
Q 1497 1759 1228 1600 
Q 959 1441 959 1056 
Q 959 750 1161 570 
Q 1363 391 1709 391 
Q 2188 391 2477 730 
Q 2766 1069 2766 1631 
L 2766 1759 
L 2194 1759 
z
M 3341 1997 
L 3341 0 
L 2766 0 
L 2766 531 
Q 2569 213 2275 61 
Q 1981 -91 1556 -91 
Q 1019 -91 701 211 
Q 384 513 384 1019 
Q 384 1609 779 1909 
Q 1175 2209 1959 2209 
L 2766 2209 
L 2766 2266 
Q 2766 2663 2505 2880 
Q 2244 3097 1772 3097 
Q 1472 3097 1187 3025 
Q 903 2953 641 2809 
L 641 3341 
Q 956 3463 1253 3523 
Q 1550 3584 1831 3584 
Q 2591 3584 2966 3190 
Q 3341 2797 3341 1997 
z
" transform="scale(0.015625)"/>
      <path id="DejaVuSans-73" d="M 2834 3397 
L 2834 2853 
Q 2591 2978 2328 3040 
Q 2066 3103 1784 3103 
Q 1356 3103 1142 2972 
Q 928 2841 928 2578 
Q 928 2378 1081 2264 
Q 1234 2150 1697 2047 
L 1894 2003 
Q 2506 1872 2764 1633 
Q 3022 1394 3022 966 
Q 3022 478 2636 193 
Q 2250 -91 1575 -91 
Q 1294 -91 989 -36 
Q 684 19 347 128 
L 347 722 
Q 666 556 975 473 
Q 1284 391 1588 391 
Q 1994 391 2212 530 
Q 2431 669 2431 922 
Q 2431 1156 2273 1281 
Q 2116 1406 1581 1522 
L 1381 1569 
Q 847 1681 609 1914 
Q 372 2147 372 2553 
Q 372 3047 722 3315 
Q 1072 3584 1716 3584 
Q 2034 3584 2315 3537 
Q 2597 3491 2834 3397 
z
" transform="scale(0.015625)"/>
      <path id="DejaVuSans-75" d="M 544 1381 
L 544 3500 
L 1119 3500 
L 1119 1403 
Q 1119 906 1312 657 
Q 1506 409 1894 409 
Q 2359 409 2629 706 
Q 2900 1003 2900 1516 
L 2900 3500 
L 3475 3500 
L 3475 0 
L 2900 0 
L 2900 538 
Q 2691 219 2414 64 
Q 2138 -91 1772 -91 
Q 1169 -91 856 284 
Q 544 659 544 1381 
z
M 1991 3584 
L 1991 3584 
z
" transform="scale(0.015625)"/>
     </defs>
     <use xlink:href="#DejaVuSans-54"/>
     <use xlink:href="#DejaVuSans-72" x="46.333984"/>
     <use xlink:href="#DejaVuSans-65" x="85.197266"/>
     <use xlink:href="#DejaVuSans-61" x="146.720703"/>
     <use xlink:href="#DejaVuSans-73" x="208"/>
     <use xlink:href="#DejaVuSans-75" x="260.099609"/>
     <use xlink:href="#DejaVuSans-72" x="323.478516"/>
     <use xlink:href="#DejaVuSans-65" x="362.341797"/>
    </g>
   </g>
  </g>
 </g>
 <defs>
  <clipPath id="p92f815fcc4">
   <rect x="54" y="36" width="324" height="135"/>
  </clipPath>
 </defs>
</svg>
