<?xml version="1.0" encoding="utf-8" standalone="no"?>
<!DOCTYPE svg PUBLIC "-//W3C//DTD SVG 1.1//EN"
  "http://www.w3.org/Graphics/SVG/1.1/DTD/svg11.dtd">
<svg xmlns:xlink="http://www.w3.org/1999/xlink" width="648pt" height="324pt" viewBox="0 0 648 324" xmlns="http://www.w3.org/2000/svg" version="1.1">
 <metadata>
  <rdf:RDF xmlns:dc="http://purl.org/dc/elements/1.1/" xmlns:cc="http://creativecommons.org/ns#" xmlns:rdf="http://www.w3.org/1999/02/22-rdf-syntax-ns#">
   <cc:Work>
    <dc:type rdf:resource="http://purl.org/dc/dcmitype/StillImage"/>
    <dc:date>2023-05-08T11:39:23.010896</dc:date>
    <dc:format>image/svg+xml</dc:format>
    <dc:creator>
     <cc:Agent>
      <dc:title>Matplotlib v3.5.0, https://matplotlib.org/</dc:title>
     </cc:Agent>
    </dc:creator>
   </cc:Work>
  </rdf:RDF>
 </metadata>
 <defs>
  <style type="text/css">*{stroke-linejoin: round; stroke-linecap: butt}</style>
 </defs>
 <g id="figure_1">
  <g id="patch_1">
   <path d="M 0 324 
L 648 324 
L 648 0 
L 0 0 
z
" style="fill: #ffffff"/>
  </g>
  <g id="axes_1">
   <g id="patch_2">
    <path d="M 81 307.8 
L 567 307.8 
L 567 64.8 
L 81 64.8 
z
" style="fill: #ffffff"/>
   </g>
   <g id="patch_3">
    <path d="M 81 307.8 
L 108 307.8 
L 108 280.8 
L 81 280.8 
z
" clip-path="url(#p4f8c733a14)" style="stroke: #000000; stroke-linejoin: miter"/>
   </g>
   <g id="patch_4">
    <path d="M 108 307.8 
L 135 307.8 
L 135 280.8 
L 108 280.8 
z
" clip-path="url(#p4f8c733a14)" style="stroke: #000000; stroke-linejoin: miter"/>
   </g>
   <g id="patch_5">
    <path d="M 135 307.8 
L 162 307.8 
L 162 280.8 
L 135 280.8 
z
" clip-path="url(#p4f8c733a14)" style="stroke: #000000; stroke-linejoin: miter"/>
   </g>
   <g id="patch_6">
    <path d="M 162 307.8 
L 189 307.8 
L 189 280.8 
L 162 280.8 
z
" clip-path="url(#p4f8c733a14)" style="stroke: #000000; stroke-linejoin: miter"/>
   </g>
   <g id="patch_7">
    <path d="M 189 307.8 
L 216 307.8 
L 216 280.8 
L 189 280.8 
z
" clip-path="url(#p4f8c733a14)" style="stroke: #000000; stroke-linejoin: miter"/>
   </g>
   <g id="patch_8">
    <path d="M 216 307.8 
L 243 307.8 
L 243 280.8 
L 216 280.8 
z
" clip-path="url(#p4f8c733a14)" style="stroke: #000000; stroke-linejoin: miter"/>
   </g>
   <g id="patch_9">
    <path d="M 243 307.8 
L 270 307.8 
L 270 280.8 
L 243 280.8 
z
" clip-path="url(#p4f8c733a14)" style="stroke: #000000; stroke-linejoin: miter"/>
   </g>
   <g id="patch_10">
    <path d="M 270 307.8 
L 297 307.8 
L 297 280.8 
L 270 280.8 
z
" clip-path="url(#p4f8c733a14)" style="stroke: #000000; stroke-linejoin: miter"/>
   </g>
   <g id="patch_11">
    <path d="M 297 307.8 
L 324 307.8 
L 324 280.8 
L 297 280.8 
z
" clip-path="url(#p4f8c733a14)" style="stroke: #000000; stroke-linejoin: miter"/>
   </g>
   <g id="patch_12">
    <path d="M 324 307.8 
L 351 307.8 
L 351 280.8 
L 324 280.8 
z
" clip-path="url(#p4f8c733a14)" style="stroke: #000000; stroke-linejoin: miter"/>
   </g>
   <g id="patch_13">
    <path d="M 351 307.8 
L 378 307.8 
L 378 280.8 
L 351 280.8 
z
" clip-path="url(#p4f8c733a14)" style="stroke: #000000; stroke-linejoin: miter"/>
   </g>
   <g id="patch_14">
    <path d="M 378 307.8 
L 405 307.8 
L 405 280.8 
L 378 280.8 
z
" clip-path="url(#p4f8c733a14)" style="stroke: #000000; stroke-linejoin: miter"/>
   </g>
   <g id="patch_15">
    <path d="M 405 307.8 
L 432 307.8 
L 432 280.8 
L 405 280.8 
z
" clip-path="url(#p4f8c733a14)" style="stroke: #000000; stroke-linejoin: miter"/>
   </g>
   <g id="patch_16">
    <path d="M 432 307.8 
L 459 307.8 
L 459 280.8 
L 432 280.8 
z
" clip-path="url(#p4f8c733a14)" style="stroke: #000000; stroke-linejoin: miter"/>
   </g>
   <g id="patch_17">
    <path d="M 459 307.8 
L 486 307.8 
L 486 280.8 
L 459 280.8 
z
" clip-path="url(#p4f8c733a14)" style="stroke: #000000; stroke-linejoin: miter"/>
   </g>
   <g id="patch_18">
    <path d="M 486 307.8 
L 513 307.8 
L 513 280.8 
L 486 280.8 
z
" clip-path="url(#p4f8c733a14)" style="stroke: #000000; stroke-linejoin: miter"/>
   </g>
   <g id="patch_19">
    <path d="M 513 307.8 
L 540 307.8 
L 540 280.8 
L 513 280.8 
z
" clip-path="url(#p4f8c733a14)" style="stroke: #000000; stroke-linejoin: miter"/>
   </g>
   <g id="patch_20">
    <path d="M 540 307.8 
L 567 307.8 
L 567 280.8 
L 540 280.8 
z
" clip-path="url(#p4f8c733a14)" style="stroke: #000000; stroke-linejoin: miter"/>
   </g>
   <g id="patch_21">
    <path d="M 81 280.8 
L 108 280.8 
L 108 253.8 
L 81 253.8 
z
" clip-path="url(#p4f8c733a14)" style="fill: #008000; stroke: #008000; stroke-linejoin: miter"/>
   </g>
   <g id="patch_22">
    <path d="M 108 280.8 
L 135 280.8 
L 135 253.8 
L 108 253.8 
z
" clip-path="url(#p4f8c733a14)" style="fill: #008000; stroke: #008000; stroke-linejoin: miter"/>
   </g>
   <g id="patch_23">
    <path d="M 135 280.8 
L 162 280.8 
L 162 253.8 
L 135 253.8 
z
" clip-path="url(#p4f8c733a14)" style="stroke: #000000; stroke-linejoin: miter"/>
   </g>
   <g id="patch_24">
    <path d="M 162 280.8 
L 189 280.8 
L 189 253.8 
L 162 253.8 
z
" clip-path="url(#p4f8c733a14)" style="stroke: #000000; stroke-linejoin: miter"/>
   </g>
   <g id="patch_25">
    <path d="M 189 280.8 
L 216 280.8 
L 216 253.8 
L 189 253.8 
z
" clip-path="url(#p4f8c733a14)" style="stroke: #000000; stroke-linejoin: miter"/>
   </g>
   <g id="patch_26">
    <path d="M 216 280.8 
L 243 280.8 
L 243 253.8 
L 216 253.8 
z
" clip-path="url(#p4f8c733a14)" style="stroke: #000000; stroke-linejoin: miter"/>
   </g>
   <g id="patch_27">
    <path d="M 243 280.8 
L 270 280.8 
L 270 253.8 
L 243 253.8 
z
" clip-path="url(#p4f8c733a14)" style="stroke: #000000; stroke-linejoin: miter"/>
   </g>
   <g id="patch_28">
    <path d="M 270 280.8 
L 297 280.8 
L 297 253.8 
L 270 253.8 
z
" clip-path="url(#p4f8c733a14)" style="stroke: #000000; stroke-linejoin: miter"/>
   </g>
   <g id="patch_29">
    <path d="M 297 280.8 
L 324 280.8 
L 324 253.8 
L 297 253.8 
z
" clip-path="url(#p4f8c733a14)" style="stroke: #000000; stroke-linejoin: miter"/>
   </g>
   <g id="patch_30">
    <path d="M 324 280.8 
L 351 280.8 
L 351 253.8 
L 324 253.8 
z
" clip-path="url(#p4f8c733a14)" style="stroke: #000000; stroke-linejoin: miter"/>
   </g>
   <g id="patch_31">
    <path d="M 351 280.8 
L 378 280.8 
L 378 253.8 
L 351 253.8 
z
" clip-path="url(#p4f8c733a14)" style="stroke: #000000; stroke-linejoin: miter"/>
   </g>
   <g id="patch_32">
    <path d="M 378 280.8 
L 405 280.8 
L 405 253.8 
L 378 253.8 
z
" clip-path="url(#p4f8c733a14)" style="stroke: #000000; stroke-linejoin: miter"/>
   </g>
   <g id="patch_33">
    <path d="M 405 280.8 
L 432 280.8 
L 432 253.8 
L 405 253.8 
z
" clip-path="url(#p4f8c733a14)" style="stroke: #000000; stroke-linejoin: miter"/>
   </g>
   <g id="patch_34">
    <path d="M 432 280.8 
L 459 280.8 
L 459 253.8 
L 432 253.8 
z
" clip-path="url(#p4f8c733a14)" style="stroke: #000000; stroke-linejoin: miter"/>
   </g>
   <g id="patch_35">
    <path d="M 459 280.8 
L 486 280.8 
L 486 253.8 
L 459 253.8 
z
" clip-path="url(#p4f8c733a14)" style="stroke: #000000; stroke-linejoin: miter"/>
   </g>
   <g id="patch_36">
    <path d="M 486 280.8 
L 513 280.8 
L 513 253.8 
L 486 253.8 
z
" clip-path="url(#p4f8c733a14)" style="stroke: #000000; stroke-linejoin: miter"/>
   </g>
   <g id="patch_37">
    <path d="M 513 280.8 
L 540 280.8 
L 540 253.8 
L 513 253.8 
z
" clip-path="url(#p4f8c733a14)" style="fill: #008000; stroke: #008000; stroke-linejoin: miter"/>
   </g>
   <g id="patch_38">
    <path d="M 540 280.8 
L 567 280.8 
L 567 253.8 
L 540 253.8 
z
" clip-path="url(#p4f8c733a14)" style="fill: #008000; stroke: #008000; stroke-linejoin: miter"/>
   </g>
   <g id="patch_39">
    <path d="M 81 253.8 
L 108 253.8 
L 108 226.8 
L 81 226.8 
z
" clip-path="url(#p4f8c733a14)" style="fill: #ffffff; stroke: #ffffff; stroke-linejoin: miter"/>
   </g>
   <g id="patch_40">
    <path d="M 108 253.8 
L 135 253.8 
L 135 226.8 
L 108 226.8 
z
" clip-path="url(#p4f8c733a14)" style="fill: #ffffff; stroke: #ffffff; stroke-linejoin: miter"/>
   </g>
   <g id="patch_41">
    <path d="M 135 253.8 
L 162 253.8 
L 162 226.8 
L 135 226.8 
z
" clip-path="url(#p4f8c733a14)" style="stroke: #000000; stroke-linejoin: miter"/>
   </g>
   <g id="patch_42">
    <path d="M 162 253.8 
L 189 253.8 
L 189 226.8 
L 162 226.8 
z
" clip-path="url(#p4f8c733a14)" style="stroke: #000000; stroke-linejoin: miter"/>
   </g>
   <g id="patch_43">
    <path d="M 189 253.8 
L 216 253.8 
L 216 226.8 
L 189 226.8 
z
" clip-path="url(#p4f8c733a14)" style="stroke: #000000; stroke-linejoin: miter"/>
   </g>
   <g id="patch_44">
    <path d="M 216 253.8 
L 243 253.8 
L 243 226.8 
L 216 226.8 
z
" clip-path="url(#p4f8c733a14)" style="stroke: #000000; stroke-linejoin: miter"/>
   </g>
   <g id="patch_45">
    <path d="M 243 253.8 
L 270 253.8 
L 270 226.8 
L 243 226.8 
z
" clip-path="url(#p4f8c733a14)" style="stroke: #000000; stroke-linejoin: miter"/>
   </g>
   <g id="patch_46">
    <path d="M 270 253.8 
L 297 253.8 
L 297 226.8 
L 270 226.8 
z
" clip-path="url(#p4f8c733a14)" style="stroke: #000000; stroke-linejoin: miter"/>
   </g>
   <g id="patch_47">
    <path d="M 297 253.8 
L 324 253.8 
L 324 226.8 
L 297 226.8 
z
" clip-path="url(#p4f8c733a14)" style="fill: #ffffff; stroke: #ffffff; stroke-linejoin: miter"/>
   </g>
   <g id="patch_48">
    <path d="M 324 253.8 
L 351 253.8 
L 351 226.8 
L 324 226.8 
z
" clip-path="url(#p4f8c733a14)" style="stroke: #000000; stroke-linejoin: miter"/>
   </g>
   <g id="patch_49">
    <path d="M 351 253.8 
L 378 253.8 
L 378 226.8 
L 351 226.8 
z
" clip-path="url(#p4f8c733a14)" style="stroke: #000000; stroke-linejoin: miter"/>
   </g>
   <g id="patch_50">
    <path d="M 378 253.8 
L 405 253.8 
L 405 226.8 
L 378 226.8 
z
" clip-path="url(#p4f8c733a14)" style="stroke: #000000; stroke-linejoin: miter"/>
   </g>
   <g id="patch_51">
    <path d="M 405 253.8 
L 432 253.8 
L 432 226.8 
L 405 226.8 
z
" clip-path="url(#p4f8c733a14)" style="stroke: #000000; stroke-linejoin: miter"/>
   </g>
   <g id="patch_52">
    <path d="M 432 253.8 
L 459 253.8 
L 459 226.8 
L 432 226.8 
z
" clip-path="url(#p4f8c733a14)" style="stroke: #000000; stroke-linejoin: miter"/>
   </g>
   <g id="patch_53">
    <path d="M 459 253.8 
L 486 253.8 
L 486 226.8 
L 459 226.8 
z
" clip-path="url(#p4f8c733a14)" style="stroke: #000000; stroke-linejoin: miter"/>
   </g>
   <g id="patch_54">
    <path d="M 486 253.8 
L 513 253.8 
L 513 226.8 
L 486 226.8 
z
" clip-path="url(#p4f8c733a14)" style="stroke: #000000; stroke-linejoin: miter"/>
   </g>
   <g id="patch_55">
    <path d="M 513 253.8 
L 540 253.8 
L 540 226.8 
L 513 226.8 
z
" clip-path="url(#p4f8c733a14)" style="fill: #ffffff; stroke: #ffffff; stroke-linejoin: miter"/>
   </g>
   <g id="patch_56">
    <path d="M 540 253.8 
L 567 253.8 
L 567 226.8 
L 540 226.8 
z
" clip-path="url(#p4f8c733a14)" style="fill: #ffffff; stroke: #ffffff; stroke-linejoin: miter"/>
   </g>
   <g id="patch_57">
    <path d="M 81 226.8 
L 108 226.8 
L 108 199.8 
L 81 199.8 
z
" clip-path="url(#p4f8c733a14)" style="fill: #ffffff; stroke: #ffffff; stroke-linejoin: miter"/>
   </g>
   <g id="patch_58">
    <path d="M 108 226.8 
L 135 226.8 
L 135 199.8 
L 108 199.8 
z
" clip-path="url(#p4f8c733a14)" style="fill: #ffffff; stroke: #ffffff; stroke-linejoin: miter"/>
   </g>
   <g id="patch_59">
    <path d="M 135 226.8 
L 162 226.8 
L 162 199.8 
L 135 199.8 
z
" clip-path="url(#p4f8c733a14)" style="fill: #008000; stroke: #008000; stroke-linejoin: miter"/>
   </g>
   <g id="patch_60">
    <path d="M 162 226.8 
L 189 226.8 
L 189 199.8 
L 162 199.8 
z
" clip-path="url(#p4f8c733a14)" style="stroke: #000000; stroke-linejoin: miter"/>
   </g>
   <g id="patch_61">
    <path d="M 189 226.8 
L 216 226.8 
L 216 199.8 
L 189 199.8 
z
" clip-path="url(#p4f8c733a14)" style="stroke: #000000; stroke-linejoin: miter"/>
   </g>
   <g id="patch_62">
    <path d="M 216 226.8 
L 243 226.8 
L 243 199.8 
L 216 199.8 
z
" clip-path="url(#p4f8c733a14)" style="stroke: #000000; stroke-linejoin: miter"/>
   </g>
   <g id="patch_63">
    <path d="M 243 226.8 
L 270 226.8 
L 270 199.8 
L 243 199.8 
z
" clip-path="url(#p4f8c733a14)" style="stroke: #000000; stroke-linejoin: miter"/>
   </g>
   <g id="patch_64">
    <path d="M 270 226.8 
L 297 226.8 
L 297 199.8 
L 270 199.8 
z
" clip-path="url(#p4f8c733a14)" style="stroke: #000000; stroke-linejoin: miter"/>
   </g>
   <g id="patch_65">
    <path d="M 297 226.8 
L 324 226.8 
L 324 199.8 
L 297 199.8 
z
" clip-path="url(#p4f8c733a14)" style="fill: #ffffff; stroke: #ffffff; stroke-linejoin: miter"/>
   </g>
   <g id="patch_66">
    <path d="M 324 226.8 
L 351 226.8 
L 351 199.8 
L 324 199.8 
z
" clip-path="url(#p4f8c733a14)" style="stroke: #000000; stroke-linejoin: miter"/>
   </g>
   <g id="patch_67">
    <path d="M 351 226.8 
L 378 226.8 
L 378 199.8 
L 351 199.8 
z
" clip-path="url(#p4f8c733a14)" style="stroke: #000000; stroke-linejoin: miter"/>
   </g>
   <g id="patch_68">
    <path d="M 378 226.8 
L 405 226.8 
L 405 199.8 
L 378 199.8 
z
" clip-path="url(#p4f8c733a14)" style="stroke: #000000; stroke-linejoin: miter"/>
   </g>
   <g id="patch_69">
    <path d="M 405 226.8 
L 432 226.8 
L 432 199.8 
L 405 199.8 
z
" clip-path="url(#p4f8c733a14)" style="stroke: #000000; stroke-linejoin: miter"/>
   </g>
   <g id="patch_70">
    <path d="M 432 226.8 
L 459 226.8 
L 459 199.8 
L 432 199.8 
z
" clip-path="url(#p4f8c733a14)" style="stroke: #000000; stroke-linejoin: miter"/>
   </g>
   <g id="patch_71">
    <path d="M 459 226.8 
L 486 226.8 
L 486 199.8 
L 459 199.8 
z
" clip-path="url(#p4f8c733a14)" style="stroke: #000000; stroke-linejoin: miter"/>
   </g>
   <g id="patch_72">
    <path d="M 486 226.8 
L 513 226.8 
L 513 199.8 
L 486 199.8 
z
" clip-path="url(#p4f8c733a14)" style="fill: #008000; stroke: #008000; stroke-linejoin: miter"/>
   </g>
   <g id="patch_73">
    <path d="M 513 226.8 
L 540 226.8 
L 540 199.8 
L 513 199.8 
z
" clip-path="url(#p4f8c733a14)" style="fill: #ffffff; stroke: #ffffff; stroke-linejoin: miter"/>
   </g>
   <g id="patch_74">
    <path d="M 540 226.8 
L 567 226.8 
L 567 199.8 
L 540 199.8 
z
" clip-path="url(#p4f8c733a14)" style="fill: #ffffff; stroke: #ffffff; stroke-linejoin: miter"/>
   </g>
   <g id="patch_75">
    <path d="M 81 199.8 
L 108 199.8 
L 108 172.8 
L 81 172.8 
z
" clip-path="url(#p4f8c733a14)" style="fill: #ffffff; stroke: #ffffff; stroke-linejoin: miter"/>
   </g>
   <g id="patch_76">
    <path d="M 108 199.8 
L 135 199.8 
L 135 172.8 
L 108 172.8 
z
" clip-path="url(#p4f8c733a14)" style="fill: #ffffff; stroke: #ffffff; stroke-linejoin: miter"/>
   </g>
   <g id="patch_77">
    <path d="M 135 199.8 
L 162 199.8 
L 162 172.8 
L 135 172.8 
z
" clip-path="url(#p4f8c733a14)" style="fill: #ffffff; stroke: #ffffff; stroke-linejoin: miter"/>
   </g>
   <g id="patch_78">
    <path d="M 162 199.8 
L 189 199.8 
L 189 172.8 
L 162 172.8 
z
" clip-path="url(#p4f8c733a14)" style="fill: #008000; stroke: #008000; stroke-linejoin: miter"/>
   </g>
   <g id="patch_79">
    <path d="M 189 199.8 
L 216 199.8 
L 216 172.8 
L 189 172.8 
z
" clip-path="url(#p4f8c733a14)" style="stroke: #000000; stroke-linejoin: miter"/>
   </g>
   <g id="patch_80">
    <path d="M 216 199.8 
L 243 199.8 
L 243 172.8 
L 216 172.8 
z
" clip-path="url(#p4f8c733a14)" style="stroke: #000000; stroke-linejoin: miter"/>
   </g>
   <g id="patch_81">
    <path d="M 243 199.8 
L 270 199.8 
L 270 172.8 
L 243 172.8 
z
" clip-path="url(#p4f8c733a14)" style="stroke: #000000; stroke-linejoin: miter"/>
   </g>
   <g id="patch_82">
    <path d="M 270 199.8 
L 297 199.8 
L 297 172.8 
L 270 172.8 
z
" clip-path="url(#p4f8c733a14)" style="fill: #ffffff; stroke: #ffffff; stroke-linejoin: miter"/>
   </g>
   <g id="patch_83">
    <path d="M 297 199.8 
L 324 199.8 
L 324 172.8 
L 297 172.8 
z
" clip-path="url(#p4f8c733a14)" style="stroke: #000000; stroke-linejoin: miter"/>
   </g>
   <g id="patch_84">
    <path d="M 324 199.8 
L 351 199.8 
L 351 172.8 
L 324 172.8 
z
" clip-path="url(#p4f8c733a14)" style="fill: #ffffff; stroke: #ffffff; stroke-linejoin: miter"/>
   </g>
   <g id="patch_85">
    <path d="M 351 199.8 
L 378 199.8 
L 378 172.8 
L 351 172.8 
z
" clip-path="url(#p4f8c733a14)" style="stroke: #000000; stroke-linejoin: miter"/>
   </g>
   <g id="patch_86">
    <path d="M 378 199.8 
L 405 199.8 
L 405 172.8 
L 378 172.8 
z
" clip-path="url(#p4f8c733a14)" style="stroke: #000000; stroke-linejoin: miter"/>
   </g>
   <g id="patch_87">
    <path d="M 405 199.8 
L 432 199.8 
L 432 172.8 
L 405 172.8 
z
" clip-path="url(#p4f8c733a14)" style="stroke: #000000; stroke-linejoin: miter"/>
   </g>
   <g id="patch_88">
    <path d="M 432 199.8 
L 459 199.8 
L 459 172.8 
L 432 172.8 
z
" clip-path="url(#p4f8c733a14)" style="stroke: #000000; stroke-linejoin: miter"/>
   </g>
   <g id="patch_89">
    <path d="M 459 199.8 
L 486 199.8 
L 486 172.8 
L 459 172.8 
z
" clip-path="url(#p4f8c733a14)" style="fill: #008000; stroke: #008000; stroke-linejoin: miter"/>
   </g>
   <g id="patch_90">
    <path d="M 486 199.8 
L 513 199.8 
L 513 172.8 
L 486 172.8 
z
" clip-path="url(#p4f8c733a14)" style="fill: #ffffff; stroke: #ffffff; stroke-linejoin: miter"/>
   </g>
   <g id="patch_91">
    <path d="M 513 199.8 
L 540 199.8 
L 540 172.8 
L 513 172.8 
z
" clip-path="url(#p4f8c733a14)" style="fill: #ffffff; stroke: #ffffff; stroke-linejoin: miter"/>
   </g>
   <g id="patch_92">
    <path d="M 540 199.8 
L 567 199.8 
L 567 172.8 
L 540 172.8 
z
" clip-path="url(#p4f8c733a14)" style="fill: #ffffff; stroke: #ffffff; stroke-linejoin: miter"/>
   </g>
   <g id="patch_93">
    <path d="M 81 172.8 
L 108 172.8 
L 108 145.8 
L 81 145.8 
z
" clip-path="url(#p4f8c733a14)" style="fill: #ffffff; stroke: #ffffff; stroke-linejoin: miter"/>
   </g>
   <g id="patch_94">
    <path d="M 108 172.8 
L 135 172.8 
L 135 145.8 
L 108 145.8 
z
" clip-path="url(#p4f8c733a14)" style="fill: #ffffff; stroke: #ffffff; stroke-linejoin: miter"/>
   </g>
   <g id="patch_95">
    <path d="M 135 172.8 
L 162 172.8 
L 162 145.8 
L 135 145.8 
z
" clip-path="url(#p4f8c733a14)" style="fill: #ffffff; stroke: #ffffff; stroke-linejoin: miter"/>
   </g>
   <g id="patch_96">
    <path d="M 162 172.8 
L 189 172.8 
L 189 145.8 
L 162 145.8 
z
" clip-path="url(#p4f8c733a14)" style="fill: #ffffff; stroke: #ffffff; stroke-linejoin: miter"/>
   </g>
   <g id="patch_97">
    <path d="M 189 172.8 
L 216 172.8 
L 216 145.8 
L 189 145.8 
z
" clip-path="url(#p4f8c733a14)" style="fill: #008000; stroke: #008000; stroke-linejoin: miter"/>
   </g>
   <g id="patch_98">
    <path d="M 216 172.8 
L 243 172.8 
L 243 145.8 
L 216 145.8 
z
" clip-path="url(#p4f8c733a14)" style="fill: #008000; stroke: #008000; stroke-linejoin: miter"/>
   </g>
   <g id="patch_99">
    <path d="M 243 172.8 
L 270 172.8 
L 270 145.8 
L 243 145.8 
z
" clip-path="url(#p4f8c733a14)" style="stroke: #000000; stroke-linejoin: miter"/>
   </g>
   <g id="patch_100">
    <path d="M 270 172.8 
L 297 172.8 
L 297 145.8 
L 270 145.8 
z
" clip-path="url(#p4f8c733a14)" style="stroke: #000000; stroke-linejoin: miter"/>
   </g>
   <g id="patch_101">
    <path d="M 297 172.8 
L 324 172.8 
L 324 145.8 
L 297 145.8 
z
" clip-path="url(#p4f8c733a14)" style="stroke: #000000; stroke-linejoin: miter"/>
   </g>
   <g id="patch_102">
    <path d="M 324 172.8 
L 351 172.8 
L 351 145.8 
L 324 145.8 
z
" clip-path="url(#p4f8c733a14)" style="stroke: #000000; stroke-linejoin: miter"/>
   </g>
   <g id="patch_103">
    <path d="M 351 172.8 
L 378 172.8 
L 378 145.8 
L 351 145.8 
z
" clip-path="url(#p4f8c733a14)" style="stroke: #000000; stroke-linejoin: miter"/>
   </g>
   <g id="patch_104">
    <path d="M 378 172.8 
L 405 172.8 
L 405 145.8 
L 378 145.8 
z
" clip-path="url(#p4f8c733a14)" style="stroke: #000000; stroke-linejoin: miter"/>
   </g>
   <g id="patch_105">
    <path d="M 405 172.8 
L 432 172.8 
L 432 145.8 
L 405 145.8 
z
" clip-path="url(#p4f8c733a14)" style="fill: #008000; stroke: #008000; stroke-linejoin: miter"/>
   </g>
   <g id="patch_106">
    <path d="M 432 172.8 
L 459 172.8 
L 459 145.8 
L 432 145.8 
z
" clip-path="url(#p4f8c733a14)" style="fill: #008000; stroke: #008000; stroke-linejoin: miter"/>
   </g>
   <g id="patch_107">
    <path d="M 459 172.8 
L 486 172.8 
L 486 145.8 
L 459 145.8 
z
" clip-path="url(#p4f8c733a14)" style="fill: #ffffff; stroke: #ffffff; stroke-linejoin: miter"/>
   </g>
   <g id="patch_108">
    <path d="M 486 172.8 
L 513 172.8 
L 513 145.8 
L 486 145.8 
z
" clip-path="url(#p4f8c733a14)" style="fill: #ffffff; stroke: #ffffff; stroke-linejoin: miter"/>
   </g>
   <g id="patch_109">
    <path d="M 513 172.8 
L 540 172.8 
L 540 145.8 
L 513 145.8 
z
" clip-path="url(#p4f8c733a14)" style="fill: #ffffff; stroke: #ffffff; stroke-linejoin: miter"/>
   </g>
   <g id="patch_110">
    <path d="M 540 172.8 
L 567 172.8 
L 567 145.8 
L 540 145.8 
z
" clip-path="url(#p4f8c733a14)" style="fill: #ffffff; stroke: #ffffff; stroke-linejoin: miter"/>
   </g>
   <g id="patch_111">
    <path d="M 81 145.8 
L 108 145.8 
L 108 118.8 
L 81 118.8 
z
" clip-path="url(#p4f8c733a14)" style="fill: #ffffff; stroke: #ffffff; stroke-linejoin: miter"/>
   </g>
   <g id="patch_112">
    <path d="M 108 145.8 
L 135 145.8 
L 135 118.8 
L 108 118.8 
z
" clip-path="url(#p4f8c733a14)" style="fill: #ffffff; stroke: #ffffff; stroke-linejoin: miter"/>
   </g>
   <g id="patch_113">
    <path d="M 135 145.8 
L 162 145.8 
L 162 118.8 
L 135 118.8 
z
" clip-path="url(#p4f8c733a14)" style="fill: #ffffff; stroke: #ffffff; stroke-linejoin: miter"/>
   </g>
   <g id="patch_114">
    <path d="M 162 145.8 
L 189 145.8 
L 189 118.8 
L 162 118.8 
z
" clip-path="url(#p4f8c733a14)" style="fill: #ffffff; stroke: #ffffff; stroke-linejoin: miter"/>
   </g>
   <g id="patch_115">
    <path d="M 189 145.8 
L 216 145.8 
L 216 118.8 
L 189 118.8 
z
" clip-path="url(#p4f8c733a14)" style="fill: #ffffff; stroke: #ffffff; stroke-linejoin: miter"/>
   </g>
   <g id="patch_116">
    <path d="M 216 145.8 
L 243 145.8 
L 243 118.8 
L 216 118.8 
z
" clip-path="url(#p4f8c733a14)" style="fill: #ffffff; stroke: #ffffff; stroke-linejoin: miter"/>
   </g>
   <g id="patch_117">
    <path d="M 243 145.8 
L 270 145.8 
L 270 118.8 
L 243 118.8 
z
" clip-path="url(#p4f8c733a14)" style="fill: #008000; stroke: #008000; stroke-linejoin: miter"/>
   </g>
   <g id="patch_118">
    <path d="M 270 145.8 
L 297 145.8 
L 297 118.8 
L 270 118.8 
z
" clip-path="url(#p4f8c733a14)" style="fill: #008000; stroke: #008000; stroke-linejoin: miter"/>
   </g>
   <g id="patch_119">
    <path d="M 297 145.8 
L 324 145.8 
L 324 118.8 
L 297 118.8 
z
" clip-path="url(#p4f8c733a14)" style="stroke: #000000; stroke-linejoin: miter"/>
   </g>
   <g id="patch_120">
    <path d="M 324 145.8 
L 351 145.8 
L 351 118.8 
L 324 118.8 
z
" clip-path="url(#p4f8c733a14)" style="stroke: #000000; stroke-linejoin: miter"/>
   </g>
   <g id="patch_121">
    <path d="M 351 145.8 
L 378 145.8 
L 378 118.8 
L 351 118.8 
z
" clip-path="url(#p4f8c733a14)" style="fill: #008000; stroke: #008000; stroke-linejoin: miter"/>
   </g>
   <g id="patch_122">
    <path d="M 378 145.8 
L 405 145.8 
L 405 118.8 
L 378 118.8 
z
" clip-path="url(#p4f8c733a14)" style="fill: #008000; stroke: #008000; stroke-linejoin: miter"/>
   </g>
   <g id="patch_123">
    <path d="M 405 145.8 
L 432 145.8 
L 432 118.8 
L 405 118.8 
z
" clip-path="url(#p4f8c733a14)" style="fill: #ffffff; stroke: #ffffff; stroke-linejoin: miter"/>
   </g>
   <g id="patch_124">
    <path d="M 432 145.8 
L 459 145.8 
L 459 118.8 
L 432 118.8 
z
" clip-path="url(#p4f8c733a14)" style="fill: #ffffff; stroke: #ffffff; stroke-linejoin: miter"/>
   </g>
   <g id="patch_125">
    <path d="M 459 145.8 
L 486 145.8 
L 486 118.8 
L 459 118.8 
z
" clip-path="url(#p4f8c733a14)" style="fill: #ffffff; stroke: #ffffff; stroke-linejoin: miter"/>
   </g>
   <g id="patch_126">
    <path d="M 486 145.8 
L 513 145.8 
L 513 118.8 
L 486 118.8 
z
" clip-path="url(#p4f8c733a14)" style="fill: #ffffff; stroke: #ffffff; stroke-linejoin: miter"/>
   </g>
   <g id="patch_127">
    <path d="M 513 145.8 
L 540 145.8 
L 540 118.8 
L 513 118.8 
z
" clip-path="url(#p4f8c733a14)" style="fill: #ffffff; stroke: #ffffff; stroke-linejoin: miter"/>
   </g>
   <g id="patch_128">
    <path d="M 540 145.8 
L 567 145.8 
L 567 118.8 
L 540 118.8 
z
" clip-path="url(#p4f8c733a14)" style="fill: #ffffff; stroke: #ffffff; stroke-linejoin: miter"/>
   </g>
   <g id="patch_129">
    <path d="M 81 118.8 
L 108 118.8 
L 108 91.8 
L 81 91.8 
z
" clip-path="url(#p4f8c733a14)" style="fill: #ffffff; stroke: #ffffff; stroke-linejoin: miter"/>
   </g>
   <g id="patch_130">
    <path d="M 108 118.8 
L 135 118.8 
L 135 91.8 
L 108 91.8 
z
" clip-path="url(#p4f8c733a14)" style="fill: #ffffff; stroke: #ffffff; stroke-linejoin: miter"/>
   </g>
   <g id="patch_131">
    <path d="M 135 118.8 
L 162 118.8 
L 162 91.8 
L 135 91.8 
z
" clip-path="url(#p4f8c733a14)" style="fill: #ffffff; stroke: #ffffff; stroke-linejoin: miter"/>
   </g>
   <g id="patch_132">
    <path d="M 162 118.8 
L 189 118.8 
L 189 91.8 
L 162 91.8 
z
" clip-path="url(#p4f8c733a14)" style="fill: #ffffff; stroke: #ffffff; stroke-linejoin: miter"/>
   </g>
   <g id="patch_133">
    <path d="M 189 118.8 
L 216 118.8 
L 216 91.8 
L 189 91.8 
z
" clip-path="url(#p4f8c733a14)" style="fill: #ffffff; stroke: #ffffff; stroke-linejoin: miter"/>
   </g>
   <g id="patch_134">
    <path d="M 216 118.8 
L 243 118.8 
L 243 91.8 
L 216 91.8 
z
" clip-path="url(#p4f8c733a14)" style="fill: #ffffff; stroke: #ffffff; stroke-linejoin: miter"/>
   </g>
   <g id="patch_135">
    <path d="M 243 118.8 
L 270 118.8 
L 270 91.8 
L 243 91.8 
z
" clip-path="url(#p4f8c733a14)" style="fill: #ffffff; stroke: #ffffff; stroke-linejoin: miter"/>
   </g>
   <g id="patch_136">
    <path d="M 270 118.8 
L 297 118.8 
L 297 91.8 
L 270 91.8 
z
" clip-path="url(#p4f8c733a14)" style="fill: #ffffff; stroke: #ffffff; stroke-linejoin: miter"/>
   </g>
   <g id="patch_137">
    <path d="M 297 118.8 
L 324 118.8 
L 324 91.8 
L 297 91.8 
z
" clip-path="url(#p4f8c733a14)" style="fill: #008000; stroke: #008000; stroke-linejoin: miter"/>
   </g>
   <g id="patch_138">
    <path d="M 324 118.8 
L 351 118.8 
L 351 91.8 
L 324 91.8 
z
" clip-path="url(#p4f8c733a14)" style="fill: #008000; stroke: #008000; stroke-linejoin: miter"/>
   </g>
   <g id="patch_139">
    <path d="M 351 118.8 
L 378 118.8 
L 378 91.8 
L 351 91.8 
z
" clip-path="url(#p4f8c733a14)" style="fill: #ffffff; stroke: #ffffff; stroke-linejoin: miter"/>
   </g>
   <g id="patch_140">
    <path d="M 378 118.8 
L 405 118.8 
L 405 91.8 
L 378 91.8 
z
" clip-path="url(#p4f8c733a14)" style="fill: #ffffff; stroke: #ffffff; stroke-linejoin: miter"/>
   </g>
   <g id="patch_141">
    <path d="M 405 118.8 
L 432 118.8 
L 432 91.8 
L 405 91.8 
z
" clip-path="url(#p4f8c733a14)" style="fill: #ffffff; stroke: #ffffff; stroke-linejoin: miter"/>
   </g>
   <g id="patch_142">
    <path d="M 432 118.8 
L 459 118.8 
L 459 91.8 
L 432 91.8 
z
" clip-path="url(#p4f8c733a14)" style="fill: #ffffff; stroke: #ffffff; stroke-linejoin: miter"/>
   </g>
   <g id="patch_143">
    <path d="M 459 118.8 
L 486 118.8 
L 486 91.8 
L 459 91.8 
z
" clip-path="url(#p4f8c733a14)" style="fill: #ffffff; stroke: #ffffff; stroke-linejoin: miter"/>
   </g>
   <g id="patch_144">
    <path d="M 486 118.8 
L 513 118.8 
L 513 91.8 
L 486 91.8 
z
" clip-path="url(#p4f8c733a14)" style="fill: #ffffff; stroke: #ffffff; stroke-linejoin: miter"/>
   </g>
   <g id="patch_145">
    <path d="M 513 118.8 
L 540 118.8 
L 540 91.8 
L 513 91.8 
z
" clip-path="url(#p4f8c733a14)" style="fill: #ffffff; stroke: #ffffff; stroke-linejoin: miter"/>
   </g>
   <g id="patch_146">
    <path d="M 540 118.8 
L 567 118.8 
L 567 91.8 
L 540 91.8 
z
" clip-path="url(#p4f8c733a14)" style="fill: #ffffff; stroke: #ffffff; stroke-linejoin: miter"/>
   </g>
   <g id="patch_147">
    <path d="M 81 91.8 
L 108 91.8 
L 108 64.8 
L 81 64.8 
z
" clip-path="url(#p4f8c733a14)" style="fill: #ffffff; stroke: #ffffff; stroke-linejoin: miter"/>
   </g>
   <g id="patch_148">
    <path d="M 108 91.8 
L 135 91.8 
L 135 64.8 
L 108 64.8 
z
" clip-path="url(#p4f8c733a14)" style="fill: #ffffff; stroke: #ffffff; stroke-linejoin: miter"/>
   </g>
   <g id="patch_149">
    <path d="M 135 91.8 
L 162 91.8 
L 162 64.8 
L 135 64.8 
z
" clip-path="url(#p4f8c733a14)" style="fill: #ffffff; stroke: #ffffff; stroke-linejoin: miter"/>
   </g>
   <g id="patch_150">
    <path d="M 162 91.8 
L 189 91.8 
L 189 64.8 
L 162 64.8 
z
" clip-path="url(#p4f8c733a14)" style="fill: #ffffff; stroke: #ffffff; stroke-linejoin: miter"/>
   </g>
   <g id="patch_151">
    <path d="M 189 91.8 
L 216 91.8 
L 216 64.8 
L 189 64.8 
z
" clip-path="url(#p4f8c733a14)" style="fill: #ffffff; stroke: #ffffff; stroke-linejoin: miter"/>
   </g>
   <g id="patch_152">
    <path d="M 216 91.8 
L 243 91.8 
L 243 64.8 
L 216 64.8 
z
" clip-path="url(#p4f8c733a14)" style="fill: #ffffff; stroke: #ffffff; stroke-linejoin: miter"/>
   </g>
   <g id="patch_153">
    <path d="M 243 91.8 
L 270 91.8 
L 270 64.8 
L 243 64.8 
z
" clip-path="url(#p4f8c733a14)" style="fill: #ffffff; stroke: #ffffff; stroke-linejoin: miter"/>
   </g>
   <g id="patch_154">
    <path d="M 270 91.8 
L 297 91.8 
L 297 64.8 
L 270 64.8 
z
" clip-path="url(#p4f8c733a14)" style="fill: #ffffff; stroke: #ffffff; stroke-linejoin: miter"/>
   </g>
   <g id="patch_155">
    <path d="M 297 91.8 
L 324 91.8 
L 324 64.8 
L 297 64.8 
z
" clip-path="url(#p4f8c733a14)" style="fill: #ffffff; stroke: #ffffff; stroke-linejoin: miter"/>
   </g>
   <g id="patch_156">
    <path d="M 324 91.8 
L 351 91.8 
L 351 64.8 
L 324 64.8 
z
" clip-path="url(#p4f8c733a14)" style="fill: #ffffff; stroke: #ffffff; stroke-linejoin: miter"/>
   </g>
   <g id="patch_157">
    <path d="M 351 91.8 
L 378 91.8 
L 378 64.8 
L 351 64.8 
z
" clip-path="url(#p4f8c733a14)" style="fill: #ffffff; stroke: #ffffff; stroke-linejoin: miter"/>
   </g>
   <g id="patch_158">
    <path d="M 378 91.8 
L 405 91.8 
L 405 64.8 
L 378 64.8 
z
" clip-path="url(#p4f8c733a14)" style="fill: #ffffff; stroke: #ffffff; stroke-linejoin: miter"/>
   </g>
   <g id="patch_159">
    <path d="M 405 91.8 
L 432 91.8 
L 432 64.8 
L 405 64.8 
z
" clip-path="url(#p4f8c733a14)" style="fill: #ffffff; stroke: #ffffff; stroke-linejoin: miter"/>
   </g>
   <g id="patch_160">
    <path d="M 432 91.8 
L 459 91.8 
L 459 64.8 
L 432 64.8 
z
" clip-path="url(#p4f8c733a14)" style="fill: #ffffff; stroke: #ffffff; stroke-linejoin: miter"/>
   </g>
   <g id="patch_161">
    <path d="M 459 91.8 
L 486 91.8 
L 486 64.8 
L 459 64.8 
z
" clip-path="url(#p4f8c733a14)" style="fill: #ffffff; stroke: #ffffff; stroke-linejoin: miter"/>
   </g>
   <g id="patch_162">
    <path d="M 486 91.8 
L 513 91.8 
L 513 64.8 
L 486 64.8 
z
" clip-path="url(#p4f8c733a14)" style="fill: #ffffff; stroke: #ffffff; stroke-linejoin: miter"/>
   </g>
   <g id="patch_163">
    <path d="M 513 91.8 
L 540 91.8 
L 540 64.8 
L 513 64.8 
z
" clip-path="url(#p4f8c733a14)" style="fill: #ffffff; stroke: #ffffff; stroke-linejoin: miter"/>
   </g>
   <g id="patch_164">
    <path d="M 540 91.8 
L 567 91.8 
L 567 64.8 
L 540 64.8 
z
" clip-path="url(#p4f8c733a14)" style="fill: #ffffff; stroke: #ffffff; stroke-linejoin: miter"/>
   </g>
   <g id="PathCollection_1">
    <defs>
     <path id="mda74071b59" d="M 11.18034 0 
L -5.59017 -9.682458 
L -5.59017 9.682458 
z
" style="stroke: #00ffff"/>
    </defs>
    <g clip-path="url(#p4f8c733a14)">
     <use xlink:href="#mda74071b59" x="553.5" y="267.3" style="fill: #00ffff; stroke: #00ffff"/>
    </g>
   </g>
   <g id="matplotlib.axis_1"/>
   <g id="line2d_1">
    <path d="M 81 307.8 
L 81 64.8 
" clip-path="url(#p4f8c733a14)" style="fill: none; stroke: #808080; stroke-linecap: square"/>
   </g>
   <g id="line2d_2">
    <path d="M 108 307.8 
L 108 64.8 
" clip-path="url(#p4f8c733a14)" style="fill: none; stroke: #808080; stroke-linecap: square"/>
   </g>
   <g id="line2d_3">
    <path d="M 135 307.8 
L 135 64.8 
" clip-path="url(#p4f8c733a14)" style="fill: none; stroke: #808080; stroke-linecap: square"/>
   </g>
   <g id="line2d_4">
    <path d="M 162 307.8 
L 162 64.8 
" clip-path="url(#p4f8c733a14)" style="fill: none; stroke: #808080; stroke-linecap: square"/>
   </g>
   <g id="line2d_5">
    <path d="M 189 307.8 
L 189 64.8 
" clip-path="url(#p4f8c733a14)" style="fill: none; stroke: #808080; stroke-linecap: square"/>
   </g>
   <g id="line2d_6">
    <path d="M 216 307.8 
L 216 64.8 
" clip-path="url(#p4f8c733a14)" style="fill: none; stroke: #808080; stroke-linecap: square"/>
   </g>
   <g id="line2d_7">
    <path d="M 243 307.8 
L 243 64.8 
" clip-path="url(#p4f8c733a14)" style="fill: none; stroke: #808080; stroke-linecap: square"/>
   </g>
   <g id="line2d_8">
    <path d="M 270 307.8 
L 270 64.8 
" clip-path="url(#p4f8c733a14)" style="fill: none; stroke: #808080; stroke-linecap: square"/>
   </g>
   <g id="line2d_9">
    <path d="M 297 307.8 
L 297 64.8 
" clip-path="url(#p4f8c733a14)" style="fill: none; stroke: #808080; stroke-linecap: square"/>
   </g>
   <g id="line2d_10">
    <path d="M 324 307.8 
L 324 64.8 
" clip-path="url(#p4f8c733a14)" style="fill: none; stroke: #808080; stroke-linecap: square"/>
   </g>
   <g id="line2d_11">
    <path d="M 351 307.8 
L 351 64.8 
" clip-path="url(#p4f8c733a14)" style="fill: none; stroke: #808080; stroke-linecap: square"/>
   </g>
   <g id="line2d_12">
    <path d="M 378 307.8 
L 378 64.8 
" clip-path="url(#p4f8c733a14)" style="fill: none; stroke: #808080; stroke-linecap: square"/>
   </g>
   <g id="line2d_13">
    <path d="M 405 307.8 
L 405 64.8 
" clip-path="url(#p4f8c733a14)" style="fill: none; stroke: #808080; stroke-linecap: square"/>
   </g>
   <g id="line2d_14">
    <path d="M 432 307.8 
L 432 64.8 
" clip-path="url(#p4f8c733a14)" style="fill: none; stroke: #808080; stroke-linecap: square"/>
   </g>
   <g id="line2d_15">
    <path d="M 459 307.8 
L 459 64.8 
" clip-path="url(#p4f8c733a14)" style="fill: none; stroke: #808080; stroke-linecap: square"/>
   </g>
   <g id="line2d_16">
    <path d="M 486 307.8 
L 486 64.8 
" clip-path="url(#p4f8c733a14)" style="fill: none; stroke: #808080; stroke-linecap: square"/>
   </g>
   <g id="line2d_17">
    <path d="M 513 307.8 
L 513 64.8 
" clip-path="url(#p4f8c733a14)" style="fill: none; stroke: #808080; stroke-linecap: square"/>
   </g>
   <g id="line2d_18">
    <path d="M 540 307.8 
L 540 64.8 
" clip-path="url(#p4f8c733a14)" style="fill: none; stroke: #808080; stroke-linecap: square"/>
   </g>
   <g id="line2d_19">
    <path d="M 81 307.8 
L 567 307.8 
" clip-path="url(#p4f8c733a14)" style="fill: none; stroke: #808080; stroke-linecap: square"/>
   </g>
   <g id="line2d_20">
    <path d="M 81 280.8 
L 567 280.8 
" clip-path="url(#p4f8c733a14)" style="fill: none; stroke: #808080; stroke-linecap: square"/>
   </g>
   <g id="line2d_21">
    <path d="M 81 253.8 
L 567 253.8 
" clip-path="url(#p4f8c733a14)" style="fill: none; stroke: #808080; stroke-linecap: square"/>
   </g>
   <g id="line2d_22">
    <path d="M 81 226.8 
L 567 226.8 
" clip-path="url(#p4f8c733a14)" style="fill: none; stroke: #808080; stroke-linecap: square"/>
   </g>
   <g id="line2d_23">
    <path d="M 81 199.8 
L 567 199.8 
" clip-path="url(#p4f8c733a14)" style="fill: none; stroke: #808080; stroke-linecap: square"/>
   </g>
   <g id="line2d_24">
    <path d="M 81 172.8 
L 567 172.8 
" clip-path="url(#p4f8c733a14)" style="fill: none; stroke: #808080; stroke-linecap: square"/>
   </g>
   <g id="line2d_25">
    <path d="M 81 145.8 
L 567 145.8 
" clip-path="url(#p4f8c733a14)" style="fill: none; stroke: #808080; stroke-linecap: square"/>
   </g>
   <g id="line2d_26">
    <path d="M 81 118.8 
L 567 118.8 
" clip-path="url(#p4f8c733a14)" style="fill: none; stroke: #808080; stroke-linecap: square"/>
   </g>
   <g id="line2d_27">
    <path d="M 81 91.8 
L 567 91.8 
" clip-path="url(#p4f8c733a14)" style="fill: none; stroke: #808080; stroke-linecap: square"/>
   </g>
   <g id="patch_165">
    <path d="M 81 307.8 
L 81 64.8 
" style="fill: none; stroke: #000000; stroke-width: 0.8; stroke-linejoin: miter; stroke-linecap: square"/>
   </g>
   <g id="patch_166">
    <path d="M 567 307.8 
L 567 64.8 
" style="fill: none; stroke: #000000; stroke-width: 0.8; stroke-linejoin: miter; stroke-linecap: square"/>
   </g>
   <g id="patch_167">
    <path d="M 81 307.8 
L 567 307.8 
" style="fill: none; stroke: #000000; stroke-width: 0.8; stroke-linejoin: miter; stroke-linecap: square"/>
   </g>
   <g id="patch_168">
    <path d="M 81 64.8 
L 567 64.8 
" style="fill: none; stroke: #000000; stroke-width: 0.8; stroke-linejoin: miter; stroke-linecap: square"/>
   </g>
   <g id="text_1">
    <!-- Mountain -->
    <g transform="translate(296.048437 58.8)scale(0.12 -0.12)">
     <defs>
      <path id="DejaVuSans-4d" d="M 628 4666 
L 1569 4666 
L 2759 1491 
L 3956 4666 
L 4897 4666 
L 4897 0 
L 4281 0 
L 4281 4097 
L 3078 897 
L 2444 897 
L 1241 4097 
L 1241 0 
L 628 0 
L 628 4666 
z
" transform="scale(0.015625)"/>
      <path id="DejaVuSans-6f" d="M 1959 3097 
Q 1497 3097 1228 2736 
Q 959 2375 959 1747 
Q 959 1119 1226 758 
Q 1494 397 1959 397 
Q 2419 397 2687 759 
Q 2956 1122 2956 1747 
Q 2956 2369 2687 2733 
Q 2419 3097 1959 3097 
z
M 1959 3584 
Q 2709 3584 3137 3096 
Q 3566 2609 3566 1747 
Q 3566 888 3137 398 
Q 2709 -91 1959 -91 
Q 1206 -91 779 398 
Q 353 888 353 1747 
Q 353 2609 779 3096 
Q 1206 3584 1959 3584 
z
" transform="scale(0.015625)"/>
      <path id="DejaVuSans-75" d="M 544 1381 
L 544 3500 
L 1119 3500 
L 1119 1403 
Q 1119 906 1312 657 
Q 1506 409 1894 409 
Q 2359 409 2629 706 
Q 2900 1003 2900 1516 
L 2900 3500 
L 3475 3500 
L 3475 0 
L 2900 0 
L 2900 538 
Q 2691 219 2414 64 
Q 2138 -91 1772 -91 
Q 1169 -91 856 284 
Q 544 659 544 1381 
z
M 1991 3584 
L 1991 3584 
z
" transform="scale(0.015625)"/>
      <path id="DejaVuSans-6e" d="M 3513 2113 
L 3513 0 
L 2938 0 
L 2938 2094 
Q 2938 2591 2744 2837 
Q 2550 3084 2163 3084 
Q 1697 3084 1428 2787 
Q 1159 2491 1159 1978 
L 1159 0 
L 581 0 
L 581 3500 
L 1159 3500 
L 1159 2956 
Q 1366 3272 1645 3428 
Q 1925 3584 2291 3584 
Q 2894 3584 3203 3211 
Q 3513 2838 3513 2113 
z
" transform="scale(0.015625)"/>
      <path id="DejaVuSans-74" d="M 1172 4494 
L 1172 3500 
L 2356 3500 
L 2356 3053 
L 1172 3053 
L 1172 1153 
Q 1172 725 1289 603 
Q 1406 481 1766 481 
L 2356 481 
L 2356 0 
L 1766 0 
Q 1100 0 847 248 
Q 594 497 594 1153 
L 594 3053 
L 172 3053 
L 172 3500 
L 594 3500 
L 594 4494 
L 1172 4494 
z
" transform="scale(0.015625)"/>
      <path id="DejaVuSans-61" d="M 2194 1759 
Q 1497 1759 1228 1600 
Q 959 1441 959 1056 
Q 959 750 1161 570 
Q 1363 391 1709 391 
Q 2188 391 2477 730 
Q 2766 1069 2766 1631 
L 2766 1759 
L 2194 1759 
z
M 3341 1997 
L 3341 0 
L 2766 0 
L 2766 531 
Q 2569 213 2275 61 
Q 1981 -91 1556 -91 
Q 1019 -91 701 211 
Q 384 513 384 1019 
Q 384 1609 779 1909 
Q 1175 2209 1959 2209 
L 2766 2209 
L 2766 2266 
Q 2766 2663 2505 2880 
Q 2244 3097 1772 3097 
Q 1472 3097 1187 3025 
Q 903 2953 641 2809 
L 641 3341 
Q 956 3463 1253 3523 
Q 1550 3584 1831 3584 
Q 2591 3584 2966 3190 
Q 3341 2797 3341 1997 
z
" transform="scale(0.015625)"/>
      <path id="DejaVuSans-69" d="M 603 3500 
L 1178 3500 
L 1178 0 
L 603 0 
L 603 3500 
z
M 603 4863 
L 1178 4863 
L 1178 4134 
L 603 4134 
L 603 4863 
z
" transform="scale(0.015625)"/>
     </defs>
     <use xlink:href="#DejaVuSans-4d"/>
     <use xlink:href="#DejaVuSans-6f" x="86.279297"/>
     <use xlink:href="#DejaVuSans-75" x="147.460938"/>
     <use xlink:href="#DejaVuSans-6e" x="210.839844"/>
     <use xlink:href="#DejaVuSans-74" x="274.21875"/>
     <use xlink:href="#DejaVuSans-61" x="313.427734"/>
     <use xlink:href="#DejaVuSans-69" x="374.707031"/>
     <use xlink:href="#DejaVuSans-6e" x="402.490234"/>
    </g>
   </g>
  </g>
 </g>
 <defs>
  <clipPath id="p4f8c733a14">
   <rect x="81" y="64.8" width="486" height="243"/>
  </clipPath>
 </defs>
</svg>
