<?xml version="1.0" encoding="utf-8" standalone="no"?>
<!DOCTYPE svg PUBLIC "-//W3C//DTD SVG 1.1//EN"
  "http://www.w3.org/Graphics/SVG/1.1/DTD/svg11.dtd">
<svg xmlns:xlink="http://www.w3.org/1999/xlink" width="468pt" height="360pt" viewBox="0 0 468 360" xmlns="http://www.w3.org/2000/svg" version="1.1">
 <metadata>
  <rdf:RDF xmlns:dc="http://purl.org/dc/elements/1.1/" xmlns:cc="http://creativecommons.org/ns#" xmlns:rdf="http://www.w3.org/1999/02/22-rdf-syntax-ns#">
   <cc:Work>
    <dc:type rdf:resource="http://purl.org/dc/dcmitype/StillImage"/>
    <dc:date>2023-09-22T11:28:00.950990</dc:date>
    <dc:format>image/svg+xml</dc:format>
    <dc:creator>
     <cc:Agent>
      <dc:title>Matplotlib v3.5.0, https://matplotlib.org/</dc:title>
     </cc:Agent>
    </dc:creator>
   </cc:Work>
  </rdf:RDF>
 </metadata>
 <defs>
  <style type="text/css">*{stroke-linejoin: round; stroke-linecap: butt}</style>
 </defs>
 <g id="figure_1">
  <g id="patch_1">
   <path d="M 0 360 
L 468 360 
L 468 0 
L 0 0 
z
" style="fill: #ffffff"/>
  </g>
  <g id="axes_1">
   <g id="patch_2">
    <path d="M 58.5 342 
L 409.5 342 
L 409.5 72 
L 58.5 72 
z
" style="fill: #ffffff"/>
   </g>
   <g id="patch_3">
    <path d="M 58.5 342 
L 85.5 342 
L 85.5 315 
L 58.5 315 
z
" clip-path="url(#p3ab4a06521)" style="fill: #ffffff; stroke: #ffffff; stroke-linejoin: miter"/>
   </g>
   <g id="patch_4">
    <path d="M 85.5 342 
L 112.5 342 
L 112.5 315 
L 85.5 315 
z
" clip-path="url(#p3ab4a06521)" style="fill: #ffffff; stroke: #ffffff; stroke-linejoin: miter"/>
   </g>
   <g id="patch_5">
    <path d="M 112.5 342 
L 139.5 342 
L 139.5 315 
L 112.5 315 
z
" clip-path="url(#p3ab4a06521)" style="fill: #ffffff; stroke: #ffffff; stroke-linejoin: miter"/>
   </g>
   <g id="patch_6">
    <path d="M 139.5 342 
L 166.5 342 
L 166.5 315 
L 139.5 315 
z
" clip-path="url(#p3ab4a06521)" style="fill: #ffffff; stroke: #ffffff; stroke-linejoin: miter"/>
   </g>
   <g id="patch_7">
    <path d="M 166.5 342 
L 193.5 342 
L 193.5 315 
L 166.5 315 
z
" clip-path="url(#p3ab4a06521)" style="fill: #ffffff; stroke: #ffffff; stroke-linejoin: miter"/>
   </g>
   <g id="patch_8">
    <path d="M 193.5 342 
L 220.5 342 
L 220.5 315 
L 193.5 315 
z
" clip-path="url(#p3ab4a06521)" style="stroke: #000000; stroke-linejoin: miter"/>
   </g>
   <g id="patch_9">
    <path d="M 220.5 342 
L 247.5 342 
L 247.5 315 
L 220.5 315 
z
" clip-path="url(#p3ab4a06521)" style="stroke: #000000; stroke-linejoin: miter"/>
   </g>
   <g id="patch_10">
    <path d="M 247.5 342 
L 274.5 342 
L 274.5 315 
L 247.5 315 
z
" clip-path="url(#p3ab4a06521)" style="stroke: #000000; stroke-linejoin: miter"/>
   </g>
   <g id="patch_11">
    <path d="M 274.5 342 
L 301.5 342 
L 301.5 315 
L 274.5 315 
z
" clip-path="url(#p3ab4a06521)" style="stroke: #000000; stroke-linejoin: miter"/>
   </g>
   <g id="patch_12">
    <path d="M 301.5 342 
L 328.5 342 
L 328.5 315 
L 301.5 315 
z
" clip-path="url(#p3ab4a06521)" style="stroke: #000000; stroke-linejoin: miter"/>
   </g>
   <g id="patch_13">
    <path d="M 328.5 342 
L 355.5 342 
L 355.5 315 
L 328.5 315 
z
" clip-path="url(#p3ab4a06521)" style="stroke: #000000; stroke-linejoin: miter"/>
   </g>
   <g id="patch_14">
    <path d="M 355.5 342 
L 382.5 342 
L 382.5 315 
L 355.5 315 
z
" clip-path="url(#p3ab4a06521)" style="stroke: #000000; stroke-linejoin: miter"/>
   </g>
   <g id="patch_15">
    <path d="M 382.5 342 
L 409.5 342 
L 409.5 315 
L 382.5 315 
z
" clip-path="url(#p3ab4a06521)" style="stroke: #000000; stroke-linejoin: miter"/>
   </g>
   <g id="patch_16">
    <path d="M 58.5 315 
L 85.5 315 
L 85.5 288 
L 58.5 288 
z
" clip-path="url(#p3ab4a06521)" style="fill: #ffffff; stroke: #ffffff; stroke-linejoin: miter"/>
   </g>
   <g id="patch_17">
    <path d="M 85.5 315 
L 112.5 315 
L 112.5 288 
L 85.5 288 
z
" clip-path="url(#p3ab4a06521)" style="fill: #ffffff; stroke: #ffffff; stroke-linejoin: miter"/>
   </g>
   <g id="patch_18">
    <path d="M 112.5 315 
L 139.5 315 
L 139.5 288 
L 112.5 288 
z
" clip-path="url(#p3ab4a06521)" style="fill: #ffffff; stroke: #ffffff; stroke-linejoin: miter"/>
   </g>
   <g id="patch_19">
    <path d="M 139.5 315 
L 166.5 315 
L 166.5 288 
L 139.5 288 
z
" clip-path="url(#p3ab4a06521)" style="fill: #ffffff; stroke: #ffffff; stroke-linejoin: miter"/>
   </g>
   <g id="patch_20">
    <path d="M 166.5 315 
L 193.5 315 
L 193.5 288 
L 166.5 288 
z
" clip-path="url(#p3ab4a06521)" style="fill: #ffffff; stroke: #ffffff; stroke-linejoin: miter"/>
   </g>
   <g id="patch_21">
    <path d="M 193.5 315 
L 220.5 315 
L 220.5 288 
L 193.5 288 
z
" clip-path="url(#p3ab4a06521)" style="fill: #ffffff; stroke: #ffffff; stroke-linejoin: miter"/>
   </g>
   <g id="patch_22">
    <path d="M 220.5 315 
L 247.5 315 
L 247.5 288 
L 220.5 288 
z
" clip-path="url(#p3ab4a06521)" style="fill: #ffffff; stroke: #ffffff; stroke-linejoin: miter"/>
   </g>
   <g id="patch_23">
    <path d="M 247.5 315 
L 274.5 315 
L 274.5 288 
L 247.5 288 
z
" clip-path="url(#p3ab4a06521)" style="fill: #ffffff; stroke: #ffffff; stroke-linejoin: miter"/>
   </g>
   <g id="patch_24">
    <path d="M 274.5 315 
L 301.5 315 
L 301.5 288 
L 274.5 288 
z
" clip-path="url(#p3ab4a06521)" style="fill: #008000; stroke: #008000; stroke-linejoin: miter"/>
   </g>
   <g id="patch_25">
    <path d="M 301.5 315 
L 328.5 315 
L 328.5 288 
L 301.5 288 
z
" clip-path="url(#p3ab4a06521)" style="fill: #ffffff; stroke: #ffffff; stroke-linejoin: miter"/>
   </g>
   <g id="patch_26">
    <path d="M 328.5 315 
L 355.5 315 
L 355.5 288 
L 328.5 288 
z
" clip-path="url(#p3ab4a06521)" style="fill: #ffffff; stroke: #ffffff; stroke-linejoin: miter"/>
   </g>
   <g id="patch_27">
    <path d="M 355.5 315 
L 382.5 315 
L 382.5 288 
L 355.5 288 
z
" clip-path="url(#p3ab4a06521)" style="fill: #ffffff; stroke: #ffffff; stroke-linejoin: miter"/>
   </g>
   <g id="patch_28">
    <path d="M 382.5 315 
L 409.5 315 
L 409.5 288 
L 382.5 288 
z
" clip-path="url(#p3ab4a06521)" style="fill: #ffffff; stroke: #ffffff; stroke-linejoin: miter"/>
   </g>
   <g id="patch_29">
    <path d="M 58.5 288 
L 85.5 288 
L 85.5 261 
L 58.5 261 
z
" clip-path="url(#p3ab4a06521)" style="fill: #ffffff; stroke: #ffffff; stroke-linejoin: miter"/>
   </g>
   <g id="patch_30">
    <path d="M 85.5 288 
L 112.5 288 
L 112.5 261 
L 85.5 261 
z
" clip-path="url(#p3ab4a06521)" style="fill: #ffffff; stroke: #ffffff; stroke-linejoin: miter"/>
   </g>
   <g id="patch_31">
    <path d="M 112.5 288 
L 139.5 288 
L 139.5 261 
L 112.5 261 
z
" clip-path="url(#p3ab4a06521)" style="fill: #ffffff; stroke: #ffffff; stroke-linejoin: miter"/>
   </g>
   <g id="patch_32">
    <path d="M 139.5 288 
L 166.5 288 
L 166.5 261 
L 139.5 261 
z
" clip-path="url(#p3ab4a06521)" style="fill: #ffffff; stroke: #ffffff; stroke-linejoin: miter"/>
   </g>
   <g id="patch_33">
    <path d="M 166.5 288 
L 193.5 288 
L 193.5 261 
L 166.5 261 
z
" clip-path="url(#p3ab4a06521)" style="fill: #ffffff; stroke: #ffffff; stroke-linejoin: miter"/>
   </g>
   <g id="patch_34">
    <path d="M 193.5 288 
L 220.5 288 
L 220.5 261 
L 193.5 261 
z
" clip-path="url(#p3ab4a06521)" style="fill: #ffffff; stroke: #ffffff; stroke-linejoin: miter"/>
   </g>
   <g id="patch_35">
    <path d="M 220.5 288 
L 247.5 288 
L 247.5 261 
L 220.5 261 
z
" clip-path="url(#p3ab4a06521)" style="fill: #ffffff; stroke: #ffffff; stroke-linejoin: miter"/>
   </g>
   <g id="patch_36">
    <path d="M 247.5 288 
L 274.5 288 
L 274.5 261 
L 247.5 261 
z
" clip-path="url(#p3ab4a06521)" style="fill: #ffffff; stroke: #ffffff; stroke-linejoin: miter"/>
   </g>
   <g id="patch_37">
    <path d="M 274.5 288 
L 301.5 288 
L 301.5 261 
L 274.5 261 
z
" clip-path="url(#p3ab4a06521)" style="fill: #ffffff; stroke: #ffffff; stroke-linejoin: miter"/>
   </g>
   <g id="patch_38">
    <path d="M 301.5 288 
L 328.5 288 
L 328.5 261 
L 301.5 261 
z
" clip-path="url(#p3ab4a06521)" style="fill: #ffffff; stroke: #ffffff; stroke-linejoin: miter"/>
   </g>
   <g id="patch_39">
    <path d="M 328.5 288 
L 355.5 288 
L 355.5 261 
L 328.5 261 
z
" clip-path="url(#p3ab4a06521)" style="fill: #ffffff; stroke: #ffffff; stroke-linejoin: miter"/>
   </g>
   <g id="patch_40">
    <path d="M 355.5 288 
L 382.5 288 
L 382.5 261 
L 355.5 261 
z
" clip-path="url(#p3ab4a06521)" style="fill: #ffffff; stroke: #ffffff; stroke-linejoin: miter"/>
   </g>
   <g id="patch_41">
    <path d="M 382.5 288 
L 409.5 288 
L 409.5 261 
L 382.5 261 
z
" clip-path="url(#p3ab4a06521)" style="fill: #ffffff; stroke: #ffffff; stroke-linejoin: miter"/>
   </g>
   <g id="patch_42">
    <path d="M 58.5 261 
L 85.5 261 
L 85.5 234 
L 58.5 234 
z
" clip-path="url(#p3ab4a06521)" style="fill: #ffffff; stroke: #ffffff; stroke-linejoin: miter"/>
   </g>
   <g id="patch_43">
    <path d="M 85.5 261 
L 112.5 261 
L 112.5 234 
L 85.5 234 
z
" clip-path="url(#p3ab4a06521)" style="fill: #ffffff; stroke: #ffffff; stroke-linejoin: miter"/>
   </g>
   <g id="patch_44">
    <path d="M 112.5 261 
L 139.5 261 
L 139.5 234 
L 112.5 234 
z
" clip-path="url(#p3ab4a06521)" style="fill: #ffffff; stroke: #ffffff; stroke-linejoin: miter"/>
   </g>
   <g id="patch_45">
    <path d="M 139.5 261 
L 166.5 261 
L 166.5 234 
L 139.5 234 
z
" clip-path="url(#p3ab4a06521)" style="fill: #ffffff; stroke: #ffffff; stroke-linejoin: miter"/>
   </g>
   <g id="patch_46">
    <path d="M 166.5 261 
L 193.5 261 
L 193.5 234 
L 166.5 234 
z
" clip-path="url(#p3ab4a06521)" style="fill: #ffffff; stroke: #ffffff; stroke-linejoin: miter"/>
   </g>
   <g id="patch_47">
    <path d="M 193.5 261 
L 220.5 261 
L 220.5 234 
L 193.5 234 
z
" clip-path="url(#p3ab4a06521)" style="fill: #ffffff; stroke: #ffffff; stroke-linejoin: miter"/>
   </g>
   <g id="patch_48">
    <path d="M 220.5 261 
L 247.5 261 
L 247.5 234 
L 220.5 234 
z
" clip-path="url(#p3ab4a06521)" style="fill: #ffffff; stroke: #ffffff; stroke-linejoin: miter"/>
   </g>
   <g id="patch_49">
    <path d="M 247.5 261 
L 274.5 261 
L 274.5 234 
L 247.5 234 
z
" clip-path="url(#p3ab4a06521)" style="fill: #ffffff; stroke: #ffffff; stroke-linejoin: miter"/>
   </g>
   <g id="patch_50">
    <path d="M 274.5 261 
L 301.5 261 
L 301.5 234 
L 274.5 234 
z
" clip-path="url(#p3ab4a06521)" style="fill: #ffffff; stroke: #ffffff; stroke-linejoin: miter"/>
   </g>
   <g id="patch_51">
    <path d="M 301.5 261 
L 328.5 261 
L 328.5 234 
L 301.5 234 
z
" clip-path="url(#p3ab4a06521)" style="fill: #ffffff; stroke: #ffffff; stroke-linejoin: miter"/>
   </g>
   <g id="patch_52">
    <path d="M 328.5 261 
L 355.5 261 
L 355.5 234 
L 328.5 234 
z
" clip-path="url(#p3ab4a06521)" style="fill: #ffffff; stroke: #ffffff; stroke-linejoin: miter"/>
   </g>
   <g id="patch_53">
    <path d="M 355.5 261 
L 382.5 261 
L 382.5 234 
L 355.5 234 
z
" clip-path="url(#p3ab4a06521)" style="fill: #ffffff; stroke: #ffffff; stroke-linejoin: miter"/>
   </g>
   <g id="patch_54">
    <path d="M 382.5 261 
L 409.5 261 
L 409.5 234 
L 382.5 234 
z
" clip-path="url(#p3ab4a06521)" style="fill: #ffffff; stroke: #ffffff; stroke-linejoin: miter"/>
   </g>
   <g id="patch_55">
    <path d="M 58.5 234 
L 85.5 234 
L 85.5 207 
L 58.5 207 
z
" clip-path="url(#p3ab4a06521)" style="fill: #ffffff; stroke: #ffffff; stroke-linejoin: miter"/>
   </g>
   <g id="patch_56">
    <path d="M 85.5 234 
L 112.5 234 
L 112.5 207 
L 85.5 207 
z
" clip-path="url(#p3ab4a06521)" style="fill: #ffffff; stroke: #ffffff; stroke-linejoin: miter"/>
   </g>
   <g id="patch_57">
    <path d="M 112.5 234 
L 139.5 234 
L 139.5 207 
L 112.5 207 
z
" clip-path="url(#p3ab4a06521)" style="fill: #ffffff; stroke: #ffffff; stroke-linejoin: miter"/>
   </g>
   <g id="patch_58">
    <path d="M 139.5 234 
L 166.5 234 
L 166.5 207 
L 139.5 207 
z
" clip-path="url(#p3ab4a06521)" style="stroke: #000000; stroke-linejoin: miter"/>
   </g>
   <g id="patch_59">
    <path d="M 166.5 234 
L 193.5 234 
L 193.5 207 
L 166.5 207 
z
" clip-path="url(#p3ab4a06521)" style="stroke: #000000; stroke-linejoin: miter"/>
   </g>
   <g id="patch_60">
    <path d="M 193.5 234 
L 220.5 234 
L 220.5 207 
L 193.5 207 
z
" clip-path="url(#p3ab4a06521)" style="stroke: #000000; stroke-linejoin: miter"/>
   </g>
   <g id="patch_61">
    <path d="M 220.5 234 
L 247.5 234 
L 247.5 207 
L 220.5 207 
z
" clip-path="url(#p3ab4a06521)" style="stroke: #000000; stroke-linejoin: miter"/>
   </g>
   <g id="patch_62">
    <path d="M 247.5 234 
L 274.5 234 
L 274.5 207 
L 247.5 207 
z
" clip-path="url(#p3ab4a06521)" style="stroke: #000000; stroke-linejoin: miter"/>
   </g>
   <g id="patch_63">
    <path d="M 274.5 234 
L 301.5 234 
L 301.5 207 
L 274.5 207 
z
" clip-path="url(#p3ab4a06521)" style="fill: #ffffff; stroke: #ffffff; stroke-linejoin: miter"/>
   </g>
   <g id="patch_64">
    <path d="M 301.5 234 
L 328.5 234 
L 328.5 207 
L 301.5 207 
z
" clip-path="url(#p3ab4a06521)" style="fill: #ffffff; stroke: #ffffff; stroke-linejoin: miter"/>
   </g>
   <g id="patch_65">
    <path d="M 328.5 234 
L 355.5 234 
L 355.5 207 
L 328.5 207 
z
" clip-path="url(#p3ab4a06521)" style="fill: #ffffff; stroke: #ffffff; stroke-linejoin: miter"/>
   </g>
   <g id="patch_66">
    <path d="M 355.5 234 
L 382.5 234 
L 382.5 207 
L 355.5 207 
z
" clip-path="url(#p3ab4a06521)" style="fill: #ffffff; stroke: #ffffff; stroke-linejoin: miter"/>
   </g>
   <g id="patch_67">
    <path d="M 382.5 234 
L 409.5 234 
L 409.5 207 
L 382.5 207 
z
" clip-path="url(#p3ab4a06521)" style="fill: #ffffff; stroke: #ffffff; stroke-linejoin: miter"/>
   </g>
   <g id="patch_68">
    <path d="M 58.5 207 
L 85.5 207 
L 85.5 180 
L 58.5 180 
z
" clip-path="url(#p3ab4a06521)" style="fill: #ffffff; stroke: #ffffff; stroke-linejoin: miter"/>
   </g>
   <g id="patch_69">
    <path d="M 85.5 207 
L 112.5 207 
L 112.5 180 
L 85.5 180 
z
" clip-path="url(#p3ab4a06521)" style="fill: #ffffff; stroke: #ffffff; stroke-linejoin: miter"/>
   </g>
   <g id="patch_70">
    <path d="M 112.5 207 
L 139.5 207 
L 139.5 180 
L 112.5 180 
z
" clip-path="url(#p3ab4a06521)" style="fill: #ffffff; stroke: #ffffff; stroke-linejoin: miter"/>
   </g>
   <g id="patch_71">
    <path d="M 139.5 207 
L 166.5 207 
L 166.5 180 
L 139.5 180 
z
" clip-path="url(#p3ab4a06521)" style="fill: #ffffff; stroke: #ffffff; stroke-linejoin: miter"/>
   </g>
   <g id="patch_72">
    <path d="M 166.5 207 
L 193.5 207 
L 193.5 180 
L 166.5 180 
z
" clip-path="url(#p3ab4a06521)" style="fill: #008000; stroke: #008000; stroke-linejoin: miter"/>
   </g>
   <g id="patch_73">
    <path d="M 193.5 207 
L 220.5 207 
L 220.5 180 
L 193.5 180 
z
" clip-path="url(#p3ab4a06521)" style="fill: #ffffff; stroke: #ffffff; stroke-linejoin: miter"/>
   </g>
   <g id="patch_74">
    <path d="M 220.5 207 
L 247.5 207 
L 247.5 180 
L 220.5 180 
z
" clip-path="url(#p3ab4a06521)" style="fill: #ffffff; stroke: #ffffff; stroke-linejoin: miter"/>
   </g>
   <g id="patch_75">
    <path d="M 247.5 207 
L 274.5 207 
L 274.5 180 
L 247.5 180 
z
" clip-path="url(#p3ab4a06521)" style="fill: #ffffff; stroke: #ffffff; stroke-linejoin: miter"/>
   </g>
   <g id="patch_76">
    <path d="M 274.5 207 
L 301.5 207 
L 301.5 180 
L 274.5 180 
z
" clip-path="url(#p3ab4a06521)" style="fill: #ffffff; stroke: #ffffff; stroke-linejoin: miter"/>
   </g>
   <g id="patch_77">
    <path d="M 301.5 207 
L 328.5 207 
L 328.5 180 
L 301.5 180 
z
" clip-path="url(#p3ab4a06521)" style="fill: #ffffff; stroke: #ffffff; stroke-linejoin: miter"/>
   </g>
   <g id="patch_78">
    <path d="M 328.5 207 
L 355.5 207 
L 355.5 180 
L 328.5 180 
z
" clip-path="url(#p3ab4a06521)" style="fill: #ffffff; stroke: #ffffff; stroke-linejoin: miter"/>
   </g>
   <g id="patch_79">
    <path d="M 355.5 207 
L 382.5 207 
L 382.5 180 
L 355.5 180 
z
" clip-path="url(#p3ab4a06521)" style="fill: #ffffff; stroke: #ffffff; stroke-linejoin: miter"/>
   </g>
   <g id="patch_80">
    <path d="M 382.5 207 
L 409.5 207 
L 409.5 180 
L 382.5 180 
z
" clip-path="url(#p3ab4a06521)" style="fill: #ffffff; stroke: #ffffff; stroke-linejoin: miter"/>
   </g>
   <g id="patch_81">
    <path d="M 58.5 180 
L 85.5 180 
L 85.5 153 
L 58.5 153 
z
" clip-path="url(#p3ab4a06521)" style="fill: #ffffff; stroke: #ffffff; stroke-linejoin: miter"/>
   </g>
   <g id="patch_82">
    <path d="M 85.5 180 
L 112.5 180 
L 112.5 153 
L 85.5 153 
z
" clip-path="url(#p3ab4a06521)" style="fill: #ffffff; stroke: #ffffff; stroke-linejoin: miter"/>
   </g>
   <g id="patch_83">
    <path d="M 112.5 180 
L 139.5 180 
L 139.5 153 
L 112.5 153 
z
" clip-path="url(#p3ab4a06521)" style="fill: #ffffff; stroke: #ffffff; stroke-linejoin: miter"/>
   </g>
   <g id="patch_84">
    <path d="M 139.5 180 
L 166.5 180 
L 166.5 153 
L 139.5 153 
z
" clip-path="url(#p3ab4a06521)" style="fill: #ffffff; stroke: #ffffff; stroke-linejoin: miter"/>
   </g>
   <g id="patch_85">
    <path d="M 166.5 180 
L 193.5 180 
L 193.5 153 
L 166.5 153 
z
" clip-path="url(#p3ab4a06521)" style="fill: #ffffff; stroke: #ffffff; stroke-linejoin: miter"/>
   </g>
   <g id="patch_86">
    <path d="M 193.5 180 
L 220.5 180 
L 220.5 153 
L 193.5 153 
z
" clip-path="url(#p3ab4a06521)" style="fill: #ffffff; stroke: #ffffff; stroke-linejoin: miter"/>
   </g>
   <g id="patch_87">
    <path d="M 220.5 180 
L 247.5 180 
L 247.5 153 
L 220.5 153 
z
" clip-path="url(#p3ab4a06521)" style="fill: #ffffff; stroke: #ffffff; stroke-linejoin: miter"/>
   </g>
   <g id="patch_88">
    <path d="M 247.5 180 
L 274.5 180 
L 274.5 153 
L 247.5 153 
z
" clip-path="url(#p3ab4a06521)" style="fill: #ffffff; stroke: #ffffff; stroke-linejoin: miter"/>
   </g>
   <g id="patch_89">
    <path d="M 274.5 180 
L 301.5 180 
L 301.5 153 
L 274.5 153 
z
" clip-path="url(#p3ab4a06521)" style="fill: #ffffff; stroke: #ffffff; stroke-linejoin: miter"/>
   </g>
   <g id="patch_90">
    <path d="M 301.5 180 
L 328.5 180 
L 328.5 153 
L 301.5 153 
z
" clip-path="url(#p3ab4a06521)" style="fill: #ffffff; stroke: #ffffff; stroke-linejoin: miter"/>
   </g>
   <g id="patch_91">
    <path d="M 328.5 180 
L 355.5 180 
L 355.5 153 
L 328.5 153 
z
" clip-path="url(#p3ab4a06521)" style="fill: #ffffff; stroke: #ffffff; stroke-linejoin: miter"/>
   </g>
   <g id="patch_92">
    <path d="M 355.5 180 
L 382.5 180 
L 382.5 153 
L 355.5 153 
z
" clip-path="url(#p3ab4a06521)" style="fill: #ffffff; stroke: #ffffff; stroke-linejoin: miter"/>
   </g>
   <g id="patch_93">
    <path d="M 382.5 180 
L 409.5 180 
L 409.5 153 
L 382.5 153 
z
" clip-path="url(#p3ab4a06521)" style="fill: #ffffff; stroke: #ffffff; stroke-linejoin: miter"/>
   </g>
   <g id="patch_94">
    <path d="M 58.5 153 
L 85.5 153 
L 85.5 126 
L 58.5 126 
z
" clip-path="url(#p3ab4a06521)" style="stroke: #000000; stroke-linejoin: miter"/>
   </g>
   <g id="patch_95">
    <path d="M 85.5 153 
L 112.5 153 
L 112.5 126 
L 85.5 126 
z
" clip-path="url(#p3ab4a06521)" style="stroke: #000000; stroke-linejoin: miter"/>
   </g>
   <g id="patch_96">
    <path d="M 112.5 153 
L 139.5 153 
L 139.5 126 
L 112.5 126 
z
" clip-path="url(#p3ab4a06521)" style="stroke: #000000; stroke-linejoin: miter"/>
   </g>
   <g id="patch_97">
    <path d="M 139.5 153 
L 166.5 153 
L 166.5 126 
L 139.5 126 
z
" clip-path="url(#p3ab4a06521)" style="stroke: #000000; stroke-linejoin: miter"/>
   </g>
   <g id="patch_98">
    <path d="M 166.5 153 
L 193.5 153 
L 193.5 126 
L 166.5 126 
z
" clip-path="url(#p3ab4a06521)" style="fill: #ffffff; stroke: #ffffff; stroke-linejoin: miter"/>
   </g>
   <g id="patch_99">
    <path d="M 193.5 153 
L 220.5 153 
L 220.5 126 
L 193.5 126 
z
" clip-path="url(#p3ab4a06521)" style="fill: #ffffff; stroke: #ffffff; stroke-linejoin: miter"/>
   </g>
   <g id="patch_100">
    <path d="M 220.5 153 
L 247.5 153 
L 247.5 126 
L 220.5 126 
z
" clip-path="url(#p3ab4a06521)" style="fill: #ffffff; stroke: #ffffff; stroke-linejoin: miter"/>
   </g>
   <g id="patch_101">
    <path d="M 247.5 153 
L 274.5 153 
L 274.5 126 
L 247.5 126 
z
" clip-path="url(#p3ab4a06521)" style="fill: #ffffff; stroke: #ffffff; stroke-linejoin: miter"/>
   </g>
   <g id="patch_102">
    <path d="M 274.5 153 
L 301.5 153 
L 301.5 126 
L 274.5 126 
z
" clip-path="url(#p3ab4a06521)" style="fill: #ffffff; stroke: #ffffff; stroke-linejoin: miter"/>
   </g>
   <g id="patch_103">
    <path d="M 301.5 153 
L 328.5 153 
L 328.5 126 
L 301.5 126 
z
" clip-path="url(#p3ab4a06521)" style="fill: #ffffff; stroke: #ffffff; stroke-linejoin: miter"/>
   </g>
   <g id="patch_104">
    <path d="M 328.5 153 
L 355.5 153 
L 355.5 126 
L 328.5 126 
z
" clip-path="url(#p3ab4a06521)" style="fill: #ffffff; stroke: #ffffff; stroke-linejoin: miter"/>
   </g>
   <g id="patch_105">
    <path d="M 355.5 153 
L 382.5 153 
L 382.5 126 
L 355.5 126 
z
" clip-path="url(#p3ab4a06521)" style="fill: #ffffff; stroke: #ffffff; stroke-linejoin: miter"/>
   </g>
   <g id="patch_106">
    <path d="M 382.5 153 
L 409.5 153 
L 409.5 126 
L 382.5 126 
z
" clip-path="url(#p3ab4a06521)" style="fill: #ffffff; stroke: #ffffff; stroke-linejoin: miter"/>
   </g>
   <g id="patch_107">
    <path d="M 58.5 126 
L 85.5 126 
L 85.5 99 
L 58.5 99 
z
" clip-path="url(#p3ab4a06521)" style="fill: #ffffff; stroke: #ffffff; stroke-linejoin: miter"/>
   </g>
   <g id="patch_108">
    <path d="M 85.5 126 
L 112.5 126 
L 112.5 99 
L 85.5 99 
z
" clip-path="url(#p3ab4a06521)" style="fill: #ffffff; stroke: #ffffff; stroke-linejoin: miter"/>
   </g>
   <g id="patch_109">
    <path d="M 112.5 126 
L 139.5 126 
L 139.5 99 
L 112.5 99 
z
" clip-path="url(#p3ab4a06521)" style="fill: #ffffff; stroke: #ffffff; stroke-linejoin: miter"/>
   </g>
   <g id="patch_110">
    <path d="M 139.5 126 
L 166.5 126 
L 166.5 99 
L 139.5 99 
z
" clip-path="url(#p3ab4a06521)" style="fill: #ffffff; stroke: #ffffff; stroke-linejoin: miter"/>
   </g>
   <g id="patch_111">
    <path d="M 166.5 126 
L 193.5 126 
L 193.5 99 
L 166.5 99 
z
" clip-path="url(#p3ab4a06521)" style="fill: #ffffff; stroke: #ffffff; stroke-linejoin: miter"/>
   </g>
   <g id="patch_112">
    <path d="M 193.5 126 
L 220.5 126 
L 220.5 99 
L 193.5 99 
z
" clip-path="url(#p3ab4a06521)" style="fill: #ffffff; stroke: #ffffff; stroke-linejoin: miter"/>
   </g>
   <g id="patch_113">
    <path d="M 220.5 126 
L 247.5 126 
L 247.5 99 
L 220.5 99 
z
" clip-path="url(#p3ab4a06521)" style="fill: #ffffff; stroke: #ffffff; stroke-linejoin: miter"/>
   </g>
   <g id="patch_114">
    <path d="M 247.5 126 
L 274.5 126 
L 274.5 99 
L 247.5 99 
z
" clip-path="url(#p3ab4a06521)" style="fill: #ffffff; stroke: #ffffff; stroke-linejoin: miter"/>
   </g>
   <g id="patch_115">
    <path d="M 274.5 126 
L 301.5 126 
L 301.5 99 
L 274.5 99 
z
" clip-path="url(#p3ab4a06521)" style="fill: #ffffff; stroke: #ffffff; stroke-linejoin: miter"/>
   </g>
   <g id="patch_116">
    <path d="M 301.5 126 
L 328.5 126 
L 328.5 99 
L 301.5 99 
z
" clip-path="url(#p3ab4a06521)" style="fill: #ffffff; stroke: #ffffff; stroke-linejoin: miter"/>
   </g>
   <g id="patch_117">
    <path d="M 328.5 126 
L 355.5 126 
L 355.5 99 
L 328.5 99 
z
" clip-path="url(#p3ab4a06521)" style="fill: #ffffff; stroke: #ffffff; stroke-linejoin: miter"/>
   </g>
   <g id="patch_118">
    <path d="M 355.5 126 
L 382.5 126 
L 382.5 99 
L 355.5 99 
z
" clip-path="url(#p3ab4a06521)" style="fill: #ffffff; stroke: #ffffff; stroke-linejoin: miter"/>
   </g>
   <g id="patch_119">
    <path d="M 382.5 126 
L 409.5 126 
L 409.5 99 
L 382.5 99 
z
" clip-path="url(#p3ab4a06521)" style="fill: #ffffff; stroke: #ffffff; stroke-linejoin: miter"/>
   </g>
   <g id="patch_120">
    <path d="M 58.5 99 
L 85.5 99 
L 85.5 72 
L 58.5 72 
z
" clip-path="url(#p3ab4a06521)" style="fill: #ffffff; stroke: #ffffff; stroke-linejoin: miter"/>
   </g>
   <g id="patch_121">
    <path d="M 85.5 99 
L 112.5 99 
L 112.5 72 
L 85.5 72 
z
" clip-path="url(#p3ab4a06521)" style="fill: #ffffff; stroke: #ffffff; stroke-linejoin: miter"/>
   </g>
   <g id="patch_122">
    <path d="M 112.5 99 
L 139.5 99 
L 139.5 72 
L 112.5 72 
z
" clip-path="url(#p3ab4a06521)" style="fill: #ffffff; stroke: #ffffff; stroke-linejoin: miter"/>
   </g>
   <g id="patch_123">
    <path d="M 139.5 99 
L 166.5 99 
L 166.5 72 
L 139.5 72 
z
" clip-path="url(#p3ab4a06521)" style="fill: #ffffff; stroke: #ffffff; stroke-linejoin: miter"/>
   </g>
   <g id="patch_124">
    <path d="M 166.5 99 
L 193.5 99 
L 193.5 72 
L 166.5 72 
z
" clip-path="url(#p3ab4a06521)" style="fill: #ffffff; stroke: #ffffff; stroke-linejoin: miter"/>
   </g>
   <g id="patch_125">
    <path d="M 193.5 99 
L 220.5 99 
L 220.5 72 
L 193.5 72 
z
" clip-path="url(#p3ab4a06521)" style="fill: #ffffff; stroke: #ffffff; stroke-linejoin: miter"/>
   </g>
   <g id="patch_126">
    <path d="M 220.5 99 
L 247.5 99 
L 247.5 72 
L 220.5 72 
z
" clip-path="url(#p3ab4a06521)" style="fill: #ffffff; stroke: #ffffff; stroke-linejoin: miter"/>
   </g>
   <g id="patch_127">
    <path d="M 247.5 99 
L 274.5 99 
L 274.5 72 
L 247.5 72 
z
" clip-path="url(#p3ab4a06521)" style="fill: #ffffff; stroke: #ffffff; stroke-linejoin: miter"/>
   </g>
   <g id="patch_128">
    <path d="M 274.5 99 
L 301.5 99 
L 301.5 72 
L 274.5 72 
z
" clip-path="url(#p3ab4a06521)" style="fill: #ffffff; stroke: #ffffff; stroke-linejoin: miter"/>
   </g>
   <g id="patch_129">
    <path d="M 301.5 99 
L 328.5 99 
L 328.5 72 
L 301.5 72 
z
" clip-path="url(#p3ab4a06521)" style="fill: #ffffff; stroke: #ffffff; stroke-linejoin: miter"/>
   </g>
   <g id="patch_130">
    <path d="M 328.5 99 
L 355.5 99 
L 355.5 72 
L 328.5 72 
z
" clip-path="url(#p3ab4a06521)" style="fill: #ffffff; stroke: #ffffff; stroke-linejoin: miter"/>
   </g>
   <g id="patch_131">
    <path d="M 355.5 99 
L 382.5 99 
L 382.5 72 
L 355.5 72 
z
" clip-path="url(#p3ab4a06521)" style="fill: #ffffff; stroke: #ffffff; stroke-linejoin: miter"/>
   </g>
   <g id="patch_132">
    <path d="M 382.5 99 
L 409.5 99 
L 409.5 72 
L 382.5 72 
z
" clip-path="url(#p3ab4a06521)" style="fill: #ffffff; stroke: #ffffff; stroke-linejoin: miter"/>
   </g>
   <g id="PathCollection_1">
    <defs>
     <path id="m754e564fee" d="M -11.18034 -0 
L 5.59017 9.682458 
L 5.59017 -9.682458 
z
" style="stroke: #00ffff"/>
    </defs>
    <g clip-path="url(#p3ab4a06521)">
     <use xlink:href="#m754e564fee" x="396" y="301.5" style="fill: #00ffff; stroke: #00ffff"/>
    </g>
   </g>
   <g id="matplotlib.axis_1"/>
   <g id="line2d_1">
    <path d="M 58.5 342 
L 58.5 72 
" clip-path="url(#p3ab4a06521)" style="fill: none; stroke: #808080; stroke-linecap: square"/>
   </g>
   <g id="line2d_2">
    <path d="M 85.5 342 
L 85.5 72 
" clip-path="url(#p3ab4a06521)" style="fill: none; stroke: #808080; stroke-linecap: square"/>
   </g>
   <g id="line2d_3">
    <path d="M 112.5 342 
L 112.5 72 
" clip-path="url(#p3ab4a06521)" style="fill: none; stroke: #808080; stroke-linecap: square"/>
   </g>
   <g id="line2d_4">
    <path d="M 139.5 342 
L 139.5 72 
" clip-path="url(#p3ab4a06521)" style="fill: none; stroke: #808080; stroke-linecap: square"/>
   </g>
   <g id="line2d_5">
    <path d="M 166.5 342 
L 166.5 72 
" clip-path="url(#p3ab4a06521)" style="fill: none; stroke: #808080; stroke-linecap: square"/>
   </g>
   <g id="line2d_6">
    <path d="M 193.5 342 
L 193.5 72 
" clip-path="url(#p3ab4a06521)" style="fill: none; stroke: #808080; stroke-linecap: square"/>
   </g>
   <g id="line2d_7">
    <path d="M 220.5 342 
L 220.5 72 
" clip-path="url(#p3ab4a06521)" style="fill: none; stroke: #808080; stroke-linecap: square"/>
   </g>
   <g id="line2d_8">
    <path d="M 247.5 342 
L 247.5 72 
" clip-path="url(#p3ab4a06521)" style="fill: none; stroke: #808080; stroke-linecap: square"/>
   </g>
   <g id="line2d_9">
    <path d="M 274.5 342 
L 274.5 72 
" clip-path="url(#p3ab4a06521)" style="fill: none; stroke: #808080; stroke-linecap: square"/>
   </g>
   <g id="line2d_10">
    <path d="M 301.5 342 
L 301.5 72 
" clip-path="url(#p3ab4a06521)" style="fill: none; stroke: #808080; stroke-linecap: square"/>
   </g>
   <g id="line2d_11">
    <path d="M 328.5 342 
L 328.5 72 
" clip-path="url(#p3ab4a06521)" style="fill: none; stroke: #808080; stroke-linecap: square"/>
   </g>
   <g id="line2d_12">
    <path d="M 355.5 342 
L 355.5 72 
" clip-path="url(#p3ab4a06521)" style="fill: none; stroke: #808080; stroke-linecap: square"/>
   </g>
   <g id="line2d_13">
    <path d="M 382.5 342 
L 382.5 72 
" clip-path="url(#p3ab4a06521)" style="fill: none; stroke: #808080; stroke-linecap: square"/>
   </g>
   <g id="line2d_14">
    <path d="M 58.5 342 
L 409.5 342 
" clip-path="url(#p3ab4a06521)" style="fill: none; stroke: #808080; stroke-linecap: square"/>
   </g>
   <g id="line2d_15">
    <path d="M 58.5 315 
L 409.5 315 
" clip-path="url(#p3ab4a06521)" style="fill: none; stroke: #808080; stroke-linecap: square"/>
   </g>
   <g id="line2d_16">
    <path d="M 58.5 288 
L 409.5 288 
" clip-path="url(#p3ab4a06521)" style="fill: none; stroke: #808080; stroke-linecap: square"/>
   </g>
   <g id="line2d_17">
    <path d="M 58.5 261 
L 409.5 261 
" clip-path="url(#p3ab4a06521)" style="fill: none; stroke: #808080; stroke-linecap: square"/>
   </g>
   <g id="line2d_18">
    <path d="M 58.5 234 
L 409.5 234 
" clip-path="url(#p3ab4a06521)" style="fill: none; stroke: #808080; stroke-linecap: square"/>
   </g>
   <g id="line2d_19">
    <path d="M 58.5 207 
L 409.5 207 
" clip-path="url(#p3ab4a06521)" style="fill: none; stroke: #808080; stroke-linecap: square"/>
   </g>
   <g id="line2d_20">
    <path d="M 58.5 180 
L 409.5 180 
" clip-path="url(#p3ab4a06521)" style="fill: none; stroke: #808080; stroke-linecap: square"/>
   </g>
   <g id="line2d_21">
    <path d="M 58.5 153 
L 409.5 153 
" clip-path="url(#p3ab4a06521)" style="fill: none; stroke: #808080; stroke-linecap: square"/>
   </g>
   <g id="line2d_22">
    <path d="M 58.5 126 
L 409.5 126 
" clip-path="url(#p3ab4a06521)" style="fill: none; stroke: #808080; stroke-linecap: square"/>
   </g>
   <g id="line2d_23">
    <path d="M 58.5 99 
L 409.5 99 
" clip-path="url(#p3ab4a06521)" style="fill: none; stroke: #808080; stroke-linecap: square"/>
   </g>
   <g id="patch_133">
    <path d="M 58.5 342 
L 58.5 72 
" style="fill: none; stroke: #000000; stroke-width: 0.8; stroke-linejoin: miter; stroke-linecap: square"/>
   </g>
   <g id="patch_134">
    <path d="M 409.5 342 
L 409.5 72 
" style="fill: none; stroke: #000000; stroke-width: 0.8; stroke-linejoin: miter; stroke-linecap: square"/>
   </g>
   <g id="patch_135">
    <path d="M 58.5 342 
L 409.5 342 
" style="fill: none; stroke: #000000; stroke-width: 0.8; stroke-linejoin: miter; stroke-linecap: square"/>
   </g>
   <g id="patch_136">
    <path d="M 58.5 72 
L 409.5 72 
" style="fill: none; stroke: #000000; stroke-width: 0.8; stroke-linejoin: miter; stroke-linecap: square"/>
   </g>
   <g id="text_1">
    <!-- More Elevators -->
    <g transform="translate(189.227812 66)scale(0.12 -0.12)">
     <defs>
      <path id="DejaVuSans-4d" d="M 628 4666 
L 1569 4666 
L 2759 1491 
L 3956 4666 
L 4897 4666 
L 4897 0 
L 4281 0 
L 4281 4097 
L 3078 897 
L 2444 897 
L 1241 4097 
L 1241 0 
L 628 0 
L 628 4666 
z
" transform="scale(0.015625)"/>
      <path id="DejaVuSans-6f" d="M 1959 3097 
Q 1497 3097 1228 2736 
Q 959 2375 959 1747 
Q 959 1119 1226 758 
Q 1494 397 1959 397 
Q 2419 397 2687 759 
Q 2956 1122 2956 1747 
Q 2956 2369 2687 2733 
Q 2419 3097 1959 3097 
z
M 1959 3584 
Q 2709 3584 3137 3096 
Q 3566 2609 3566 1747 
Q 3566 888 3137 398 
Q 2709 -91 1959 -91 
Q 1206 -91 779 398 
Q 353 888 353 1747 
Q 353 2609 779 3096 
Q 1206 3584 1959 3584 
z
" transform="scale(0.015625)"/>
      <path id="DejaVuSans-72" d="M 2631 2963 
Q 2534 3019 2420 3045 
Q 2306 3072 2169 3072 
Q 1681 3072 1420 2755 
Q 1159 2438 1159 1844 
L 1159 0 
L 581 0 
L 581 3500 
L 1159 3500 
L 1159 2956 
Q 1341 3275 1631 3429 
Q 1922 3584 2338 3584 
Q 2397 3584 2469 3576 
Q 2541 3569 2628 3553 
L 2631 2963 
z
" transform="scale(0.015625)"/>
      <path id="DejaVuSans-65" d="M 3597 1894 
L 3597 1613 
L 953 1613 
Q 991 1019 1311 708 
Q 1631 397 2203 397 
Q 2534 397 2845 478 
Q 3156 559 3463 722 
L 3463 178 
Q 3153 47 2828 -22 
Q 2503 -91 2169 -91 
Q 1331 -91 842 396 
Q 353 884 353 1716 
Q 353 2575 817 3079 
Q 1281 3584 2069 3584 
Q 2775 3584 3186 3129 
Q 3597 2675 3597 1894 
z
M 3022 2063 
Q 3016 2534 2758 2815 
Q 2500 3097 2075 3097 
Q 1594 3097 1305 2825 
Q 1016 2553 972 2059 
L 3022 2063 
z
" transform="scale(0.015625)"/>
      <path id="DejaVuSans-20" transform="scale(0.015625)"/>
      <path id="DejaVuSans-45" d="M 628 4666 
L 3578 4666 
L 3578 4134 
L 1259 4134 
L 1259 2753 
L 3481 2753 
L 3481 2222 
L 1259 2222 
L 1259 531 
L 3634 531 
L 3634 0 
L 628 0 
L 628 4666 
z
" transform="scale(0.015625)"/>
      <path id="DejaVuSans-6c" d="M 603 4863 
L 1178 4863 
L 1178 0 
L 603 0 
L 603 4863 
z
" transform="scale(0.015625)"/>
      <path id="DejaVuSans-76" d="M 191 3500 
L 800 3500 
L 1894 563 
L 2988 3500 
L 3597 3500 
L 2284 0 
L 1503 0 
L 191 3500 
z
" transform="scale(0.015625)"/>
      <path id="DejaVuSans-61" d="M 2194 1759 
Q 1497 1759 1228 1600 
Q 959 1441 959 1056 
Q 959 750 1161 570 
Q 1363 391 1709 391 
Q 2188 391 2477 730 
Q 2766 1069 2766 1631 
L 2766 1759 
L 2194 1759 
z
M 3341 1997 
L 3341 0 
L 2766 0 
L 2766 531 
Q 2569 213 2275 61 
Q 1981 -91 1556 -91 
Q 1019 -91 701 211 
Q 384 513 384 1019 
Q 384 1609 779 1909 
Q 1175 2209 1959 2209 
L 2766 2209 
L 2766 2266 
Q 2766 2663 2505 2880 
Q 2244 3097 1772 3097 
Q 1472 3097 1187 3025 
Q 903 2953 641 2809 
L 641 3341 
Q 956 3463 1253 3523 
Q 1550 3584 1831 3584 
Q 2591 3584 2966 3190 
Q 3341 2797 3341 1997 
z
" transform="scale(0.015625)"/>
      <path id="DejaVuSans-74" d="M 1172 4494 
L 1172 3500 
L 2356 3500 
L 2356 3053 
L 1172 3053 
L 1172 1153 
Q 1172 725 1289 603 
Q 1406 481 1766 481 
L 2356 481 
L 2356 0 
L 1766 0 
Q 1100 0 847 248 
Q 594 497 594 1153 
L 594 3053 
L 172 3053 
L 172 3500 
L 594 3500 
L 594 4494 
L 1172 4494 
z
" transform="scale(0.015625)"/>
      <path id="DejaVuSans-73" d="M 2834 3397 
L 2834 2853 
Q 2591 2978 2328 3040 
Q 2066 3103 1784 3103 
Q 1356 3103 1142 2972 
Q 928 2841 928 2578 
Q 928 2378 1081 2264 
Q 1234 2150 1697 2047 
L 1894 2003 
Q 2506 1872 2764 1633 
Q 3022 1394 3022 966 
Q 3022 478 2636 193 
Q 2250 -91 1575 -91 
Q 1294 -91 989 -36 
Q 684 19 347 128 
L 347 722 
Q 666 556 975 473 
Q 1284 391 1588 391 
Q 1994 391 2212 530 
Q 2431 669 2431 922 
Q 2431 1156 2273 1281 
Q 2116 1406 1581 1522 
L 1381 1569 
Q 847 1681 609 1914 
Q 372 2147 372 2553 
Q 372 3047 722 3315 
Q 1072 3584 1716 3584 
Q 2034 3584 2315 3537 
Q 2597 3491 2834 3397 
z
" transform="scale(0.015625)"/>
     </defs>
     <use xlink:href="#DejaVuSans-4d"/>
     <use xlink:href="#DejaVuSans-6f" x="86.279297"/>
     <use xlink:href="#DejaVuSans-72" x="147.460938"/>
     <use xlink:href="#DejaVuSans-65" x="186.324219"/>
     <use xlink:href="#DejaVuSans-20" x="247.847656"/>
     <use xlink:href="#DejaVuSans-45" x="279.634766"/>
     <use xlink:href="#DejaVuSans-6c" x="342.818359"/>
     <use xlink:href="#DejaVuSans-65" x="370.601562"/>
     <use xlink:href="#DejaVuSans-76" x="432.125"/>
     <use xlink:href="#DejaVuSans-61" x="491.304688"/>
     <use xlink:href="#DejaVuSans-74" x="552.583984"/>
     <use xlink:href="#DejaVuSans-6f" x="591.792969"/>
     <use xlink:href="#DejaVuSans-72" x="652.974609"/>
     <use xlink:href="#DejaVuSans-73" x="694.087891"/>
    </g>
   </g>
  </g>
 </g>
 <defs>
  <clipPath id="p3ab4a06521">
   <rect x="58.5" y="72" width="351" height="270"/>
  </clipPath>
 </defs>
</svg>
