<?xml version="1.0" encoding="utf-8" standalone="no"?>
<!DOCTYPE svg PUBLIC "-//W3C//DTD SVG 1.1//EN"
  "http://www.w3.org/Graphics/SVG/1.1/DTD/svg11.dtd">
<svg xmlns:xlink="http://www.w3.org/1999/xlink" width="432pt" height="216pt" viewBox="0 0 432 216" xmlns="http://www.w3.org/2000/svg" version="1.1">
 <metadata>
  <rdf:RDF xmlns:dc="http://purl.org/dc/elements/1.1/" xmlns:cc="http://creativecommons.org/ns#" xmlns:rdf="http://www.w3.org/1999/02/22-rdf-syntax-ns#">
   <cc:Work>
    <dc:type rdf:resource="http://purl.org/dc/dcmitype/StillImage"/>
    <dc:date>2023-09-22T11:27:55.681178</dc:date>
    <dc:format>image/svg+xml</dc:format>
    <dc:creator>
     <cc:Agent>
      <dc:title>Matplotlib v3.5.0, https://matplotlib.org/</dc:title>
     </cc:Agent>
    </dc:creator>
   </cc:Work>
  </rdf:RDF>
 </metadata>
 <defs>
  <style type="text/css">*{stroke-linejoin: round; stroke-linecap: butt}</style>
 </defs>
 <g id="figure_1">
  <g id="patch_1">
   <path d="M 0 216 
L 432 216 
L 432 0 
L 0 0 
z
" style="fill: #ffffff"/>
  </g>
  <g id="axes_1">
   <g id="patch_2">
    <path d="M 54 205.2 
L 378 205.2 
L 378 43.2 
L 54 43.2 
z
" style="fill: #ffffff"/>
   </g>
   <g id="patch_3">
    <path d="M 54 205.2 
L 81 205.2 
L 81 178.2 
L 54 178.2 
z
" clip-path="url(#p1f7711cc13)" style="fill: #ffffff; stroke: #ffffff; stroke-linejoin: miter"/>
   </g>
   <g id="patch_4">
    <path d="M 81 205.2 
L 108 205.2 
L 108 178.2 
L 81 178.2 
z
" clip-path="url(#p1f7711cc13)" style="fill: #0000ff; stroke: #0000ff; stroke-linejoin: miter"/>
   </g>
   <g id="patch_5">
    <path d="M 108 205.2 
L 135 205.2 
L 135 178.2 
L 108 178.2 
z
" clip-path="url(#p1f7711cc13)" style="fill: #0000ff; stroke: #0000ff; stroke-linejoin: miter"/>
   </g>
   <g id="patch_6">
    <path d="M 135 205.2 
L 162 205.2 
L 162 178.2 
L 135 178.2 
z
" clip-path="url(#p1f7711cc13)" style="fill: #ffffff; stroke: #ffffff; stroke-linejoin: miter"/>
   </g>
   <g id="patch_7">
    <path d="M 162 205.2 
L 189 205.2 
L 189 178.2 
L 162 178.2 
z
" clip-path="url(#p1f7711cc13)" style="fill: #ffffff; stroke: #ffffff; stroke-linejoin: miter"/>
   </g>
   <g id="patch_8">
    <path d="M 189 205.2 
L 216 205.2 
L 216 178.2 
L 189 178.2 
z
" clip-path="url(#p1f7711cc13)" style="fill: #0000ff; stroke: #0000ff; stroke-linejoin: miter"/>
   </g>
   <g id="patch_9">
    <path d="M 216 205.2 
L 243 205.2 
L 243 178.2 
L 216 178.2 
z
" clip-path="url(#p1f7711cc13)" style="fill: #ffffff; stroke: #ffffff; stroke-linejoin: miter"/>
   </g>
   <g id="patch_10">
    <path d="M 243 205.2 
L 270 205.2 
L 270 178.2 
L 243 178.2 
z
" clip-path="url(#p1f7711cc13)" style="fill: #ffffff; stroke: #ffffff; stroke-linejoin: miter"/>
   </g>
   <g id="patch_11">
    <path d="M 270 205.2 
L 297 205.2 
L 297 178.2 
L 270 178.2 
z
" clip-path="url(#p1f7711cc13)" style="fill: #0000ff; stroke: #0000ff; stroke-linejoin: miter"/>
   </g>
   <g id="patch_12">
    <path d="M 297 205.2 
L 324 205.2 
L 324 178.2 
L 297 178.2 
z
" clip-path="url(#p1f7711cc13)" style="fill: #ffffff; stroke: #ffffff; stroke-linejoin: miter"/>
   </g>
   <g id="patch_13">
    <path d="M 324 205.2 
L 351 205.2 
L 351 178.2 
L 324 178.2 
z
" clip-path="url(#p1f7711cc13)" style="fill: #ffffff; stroke: #ffffff; stroke-linejoin: miter"/>
   </g>
   <g id="patch_14">
    <path d="M 351 205.2 
L 378 205.2 
L 378 178.2 
L 351 178.2 
z
" clip-path="url(#p1f7711cc13)" style="fill: #ffffff; stroke: #ffffff; stroke-linejoin: miter"/>
   </g>
   <g id="patch_15">
    <path d="M 54 178.2 
L 81 178.2 
L 81 151.2 
L 54 151.2 
z
" clip-path="url(#p1f7711cc13)" style="fill: #ffffff; stroke: #ffffff; stroke-linejoin: miter"/>
   </g>
   <g id="patch_16">
    <path d="M 81 178.2 
L 108 178.2 
L 108 151.2 
L 81 151.2 
z
" clip-path="url(#p1f7711cc13)" style="fill: #008000; stroke: #008000; stroke-linejoin: miter"/>
   </g>
   <g id="patch_17">
    <path d="M 108 178.2 
L 135 178.2 
L 135 151.2 
L 108 151.2 
z
" clip-path="url(#p1f7711cc13)" style="fill: #ffffff; stroke: #ffffff; stroke-linejoin: miter"/>
   </g>
   <g id="patch_18">
    <path d="M 135 178.2 
L 162 178.2 
L 162 151.2 
L 135 151.2 
z
" clip-path="url(#p1f7711cc13)" style="fill: #ffffff; stroke: #ffffff; stroke-linejoin: miter"/>
   </g>
   <g id="patch_19">
    <path d="M 162 178.2 
L 189 178.2 
L 189 151.2 
L 162 151.2 
z
" clip-path="url(#p1f7711cc13)" style="fill: #ffffff; stroke: #ffffff; stroke-linejoin: miter"/>
   </g>
   <g id="patch_20">
    <path d="M 189 178.2 
L 216 178.2 
L 216 151.2 
L 189 151.2 
z
" clip-path="url(#p1f7711cc13)" style="fill: #ffffff; stroke: #ffffff; stroke-linejoin: miter"/>
   </g>
   <g id="patch_21">
    <path d="M 216 178.2 
L 243 178.2 
L 243 151.2 
L 216 151.2 
z
" clip-path="url(#p1f7711cc13)" style="fill: #ffffff; stroke: #ffffff; stroke-linejoin: miter"/>
   </g>
   <g id="patch_22">
    <path d="M 243 178.2 
L 270 178.2 
L 270 151.2 
L 243 151.2 
z
" clip-path="url(#p1f7711cc13)" style="fill: #ffffff; stroke: #ffffff; stroke-linejoin: miter"/>
   </g>
   <g id="patch_23">
    <path d="M 270 178.2 
L 297 178.2 
L 297 151.2 
L 270 151.2 
z
" clip-path="url(#p1f7711cc13)" style="fill: #ffffff; stroke: #ffffff; stroke-linejoin: miter"/>
   </g>
   <g id="patch_24">
    <path d="M 297 178.2 
L 324 178.2 
L 324 151.2 
L 297 151.2 
z
" clip-path="url(#p1f7711cc13)" style="fill: #ffffff; stroke: #ffffff; stroke-linejoin: miter"/>
   </g>
   <g id="patch_25">
    <path d="M 324 178.2 
L 351 178.2 
L 351 151.2 
L 324 151.2 
z
" clip-path="url(#p1f7711cc13)" style="fill: #ffffff; stroke: #ffffff; stroke-linejoin: miter"/>
   </g>
   <g id="patch_26">
    <path d="M 351 178.2 
L 378 178.2 
L 378 151.2 
L 351 151.2 
z
" clip-path="url(#p1f7711cc13)" style="fill: #ffffff; stroke: #ffffff; stroke-linejoin: miter"/>
   </g>
   <g id="patch_27">
    <path d="M 54 151.2 
L 81 151.2 
L 81 124.2 
L 54 124.2 
z
" clip-path="url(#p1f7711cc13)" style="fill: #ffffff; stroke: #ffffff; stroke-linejoin: miter"/>
   </g>
   <g id="patch_28">
    <path d="M 81 151.2 
L 108 151.2 
L 108 124.2 
L 81 124.2 
z
" clip-path="url(#p1f7711cc13)" style="fill: #ffffff; stroke: #ffffff; stroke-linejoin: miter"/>
   </g>
   <g id="patch_29">
    <path d="M 108 151.2 
L 135 151.2 
L 135 124.2 
L 108 124.2 
z
" clip-path="url(#p1f7711cc13)" style="fill: #008000; stroke: #008000; stroke-linejoin: miter"/>
   </g>
   <g id="patch_30">
    <path d="M 135 151.2 
L 162 151.2 
L 162 124.2 
L 135 124.2 
z
" clip-path="url(#p1f7711cc13)" style="fill: #ffffff; stroke: #ffffff; stroke-linejoin: miter"/>
   </g>
   <g id="patch_31">
    <path d="M 162 151.2 
L 189 151.2 
L 189 124.2 
L 162 124.2 
z
" clip-path="url(#p1f7711cc13)" style="fill: #ffffff; stroke: #ffffff; stroke-linejoin: miter"/>
   </g>
   <g id="patch_32">
    <path d="M 189 151.2 
L 216 151.2 
L 216 124.2 
L 189 124.2 
z
" clip-path="url(#p1f7711cc13)" style="fill: #0000ff; stroke: #0000ff; stroke-linejoin: miter"/>
   </g>
   <g id="patch_33">
    <path d="M 216 151.2 
L 243 151.2 
L 243 124.2 
L 216 124.2 
z
" clip-path="url(#p1f7711cc13)" style="fill: #ffffff; stroke: #ffffff; stroke-linejoin: miter"/>
   </g>
   <g id="patch_34">
    <path d="M 243 151.2 
L 270 151.2 
L 270 124.2 
L 243 124.2 
z
" clip-path="url(#p1f7711cc13)" style="fill: #ffffff; stroke: #ffffff; stroke-linejoin: miter"/>
   </g>
   <g id="patch_35">
    <path d="M 270 151.2 
L 297 151.2 
L 297 124.2 
L 270 124.2 
z
" clip-path="url(#p1f7711cc13)" style="fill: #008000; stroke: #008000; stroke-linejoin: miter"/>
   </g>
   <g id="patch_36">
    <path d="M 297 151.2 
L 324 151.2 
L 324 124.2 
L 297 124.2 
z
" clip-path="url(#p1f7711cc13)" style="fill: #ffffff; stroke: #ffffff; stroke-linejoin: miter"/>
   </g>
   <g id="patch_37">
    <path d="M 324 151.2 
L 351 151.2 
L 351 124.2 
L 324 124.2 
z
" clip-path="url(#p1f7711cc13)" style="fill: #0000ff; stroke: #0000ff; stroke-linejoin: miter"/>
   </g>
   <g id="patch_38">
    <path d="M 351 151.2 
L 378 151.2 
L 378 124.2 
L 351 124.2 
z
" clip-path="url(#p1f7711cc13)" style="fill: #ffffff; stroke: #ffffff; stroke-linejoin: miter"/>
   </g>
   <g id="patch_39">
    <path d="M 54 124.2 
L 81 124.2 
L 81 97.2 
L 54 97.2 
z
" clip-path="url(#p1f7711cc13)" style="fill: #ffffff; stroke: #ffffff; stroke-linejoin: miter"/>
   </g>
   <g id="patch_40">
    <path d="M 81 124.2 
L 108 124.2 
L 108 97.2 
L 81 97.2 
z
" clip-path="url(#p1f7711cc13)" style="fill: #0000ff; stroke: #0000ff; stroke-linejoin: miter"/>
   </g>
   <g id="patch_41">
    <path d="M 108 124.2 
L 135 124.2 
L 135 97.2 
L 108 97.2 
z
" clip-path="url(#p1f7711cc13)" style="fill: #ffffff; stroke: #ffffff; stroke-linejoin: miter"/>
   </g>
   <g id="patch_42">
    <path d="M 135 124.2 
L 162 124.2 
L 162 97.2 
L 135 97.2 
z
" clip-path="url(#p1f7711cc13)" style="fill: #ffffff; stroke: #ffffff; stroke-linejoin: miter"/>
   </g>
   <g id="patch_43">
    <path d="M 162 124.2 
L 189 124.2 
L 189 97.2 
L 162 97.2 
z
" clip-path="url(#p1f7711cc13)" style="fill: #0000ff; stroke: #0000ff; stroke-linejoin: miter"/>
   </g>
   <g id="patch_44">
    <path d="M 189 124.2 
L 216 124.2 
L 216 97.2 
L 189 97.2 
z
" clip-path="url(#p1f7711cc13)" style="fill: #ffffff; stroke: #ffffff; stroke-linejoin: miter"/>
   </g>
   <g id="patch_45">
    <path d="M 216 124.2 
L 243 124.2 
L 243 97.2 
L 216 97.2 
z
" clip-path="url(#p1f7711cc13)" style="fill: #ffffff; stroke: #ffffff; stroke-linejoin: miter"/>
   </g>
   <g id="patch_46">
    <path d="M 243 124.2 
L 270 124.2 
L 270 97.2 
L 243 97.2 
z
" clip-path="url(#p1f7711cc13)" style="fill: #ffffff; stroke: #ffffff; stroke-linejoin: miter"/>
   </g>
   <g id="patch_47">
    <path d="M 270 124.2 
L 297 124.2 
L 297 97.2 
L 270 97.2 
z
" clip-path="url(#p1f7711cc13)" style="fill: #ffffff; stroke: #ffffff; stroke-linejoin: miter"/>
   </g>
   <g id="patch_48">
    <path d="M 297 124.2 
L 324 124.2 
L 324 97.2 
L 297 97.2 
z
" clip-path="url(#p1f7711cc13)" style="fill: #ffffff; stroke: #ffffff; stroke-linejoin: miter"/>
   </g>
   <g id="patch_49">
    <path d="M 324 124.2 
L 351 124.2 
L 351 97.2 
L 324 97.2 
z
" clip-path="url(#p1f7711cc13)" style="fill: #ffffff; stroke: #ffffff; stroke-linejoin: miter"/>
   </g>
   <g id="patch_50">
    <path d="M 351 124.2 
L 378 124.2 
L 378 97.2 
L 351 97.2 
z
" clip-path="url(#p1f7711cc13)" style="fill: #ffffff; stroke: #ffffff; stroke-linejoin: miter"/>
   </g>
   <g id="patch_51">
    <path d="M 54 97.2 
L 81 97.2 
L 81 70.2 
L 54 70.2 
z
" clip-path="url(#p1f7711cc13)" style="fill: #ffffff; stroke: #ffffff; stroke-linejoin: miter"/>
   </g>
   <g id="patch_52">
    <path d="M 81 97.2 
L 108 97.2 
L 108 70.2 
L 81 70.2 
z
" clip-path="url(#p1f7711cc13)" style="fill: #0000ff; stroke: #0000ff; stroke-linejoin: miter"/>
   </g>
   <g id="patch_53">
    <path d="M 108 97.2 
L 135 97.2 
L 135 70.2 
L 108 70.2 
z
" clip-path="url(#p1f7711cc13)" style="fill: #ffffff; stroke: #ffffff; stroke-linejoin: miter"/>
   </g>
   <g id="patch_54">
    <path d="M 135 97.2 
L 162 97.2 
L 162 70.2 
L 135 70.2 
z
" clip-path="url(#p1f7711cc13)" style="fill: #ffffff; stroke: #ffffff; stroke-linejoin: miter"/>
   </g>
   <g id="patch_55">
    <path d="M 162 97.2 
L 189 97.2 
L 189 70.2 
L 162 70.2 
z
" clip-path="url(#p1f7711cc13)" style="fill: #ffffff; stroke: #ffffff; stroke-linejoin: miter"/>
   </g>
   <g id="patch_56">
    <path d="M 189 97.2 
L 216 97.2 
L 216 70.2 
L 189 70.2 
z
" clip-path="url(#p1f7711cc13)" style="fill: #0000ff; stroke: #0000ff; stroke-linejoin: miter"/>
   </g>
   <g id="patch_57">
    <path d="M 216 97.2 
L 243 97.2 
L 243 70.2 
L 216 70.2 
z
" clip-path="url(#p1f7711cc13)" style="fill: #ffffff; stroke: #ffffff; stroke-linejoin: miter"/>
   </g>
   <g id="patch_58">
    <path d="M 243 97.2 
L 270 97.2 
L 270 70.2 
L 243 70.2 
z
" clip-path="url(#p1f7711cc13)" style="fill: #ffffff; stroke: #ffffff; stroke-linejoin: miter"/>
   </g>
   <g id="patch_59">
    <path d="M 270 97.2 
L 297 97.2 
L 297 70.2 
L 270 70.2 
z
" clip-path="url(#p1f7711cc13)" style="fill: #ffffff; stroke: #ffffff; stroke-linejoin: miter"/>
   </g>
   <g id="patch_60">
    <path d="M 297 97.2 
L 324 97.2 
L 324 70.2 
L 297 70.2 
z
" clip-path="url(#p1f7711cc13)" style="fill: #ffffff; stroke: #ffffff; stroke-linejoin: miter"/>
   </g>
   <g id="patch_61">
    <path d="M 324 97.2 
L 351 97.2 
L 351 70.2 
L 324 70.2 
z
" clip-path="url(#p1f7711cc13)" style="fill: #ff0000; stroke: #ff0000; stroke-linejoin: miter"/>
   </g>
   <g id="patch_62">
    <path d="M 351 97.2 
L 378 97.2 
L 378 70.2 
L 351 70.2 
z
" clip-path="url(#p1f7711cc13)" style="fill: #ffffff; stroke: #ffffff; stroke-linejoin: miter"/>
   </g>
   <g id="patch_63">
    <path d="M 54 70.2 
L 81 70.2 
L 81 43.2 
L 54 43.2 
z
" clip-path="url(#p1f7711cc13)" style="fill: #ffffff; stroke: #ffffff; stroke-linejoin: miter"/>
   </g>
   <g id="patch_64">
    <path d="M 81 70.2 
L 108 70.2 
L 108 43.2 
L 81 43.2 
z
" clip-path="url(#p1f7711cc13)" style="fill: #ffffff; stroke: #ffffff; stroke-linejoin: miter"/>
   </g>
   <g id="patch_65">
    <path d="M 108 70.2 
L 135 70.2 
L 135 43.2 
L 108 43.2 
z
" clip-path="url(#p1f7711cc13)" style="fill: #ffffff; stroke: #ffffff; stroke-linejoin: miter"/>
   </g>
   <g id="patch_66">
    <path d="M 135 70.2 
L 162 70.2 
L 162 43.2 
L 135 43.2 
z
" clip-path="url(#p1f7711cc13)" style="fill: #ffffff; stroke: #ffffff; stroke-linejoin: miter"/>
   </g>
   <g id="patch_67">
    <path d="M 162 70.2 
L 189 70.2 
L 189 43.2 
L 162 43.2 
z
" clip-path="url(#p1f7711cc13)" style="fill: #008000; stroke: #008000; stroke-linejoin: miter"/>
   </g>
   <g id="patch_68">
    <path d="M 189 70.2 
L 216 70.2 
L 216 43.2 
L 189 43.2 
z
" clip-path="url(#p1f7711cc13)" style="fill: #ffffff; stroke: #ffffff; stroke-linejoin: miter"/>
   </g>
   <g id="patch_69">
    <path d="M 216 70.2 
L 243 70.2 
L 243 43.2 
L 216 43.2 
z
" clip-path="url(#p1f7711cc13)" style="fill: #ffffff; stroke: #ffffff; stroke-linejoin: miter"/>
   </g>
   <g id="patch_70">
    <path d="M 243 70.2 
L 270 70.2 
L 270 43.2 
L 243 43.2 
z
" clip-path="url(#p1f7711cc13)" style="fill: #ffffff; stroke: #ffffff; stroke-linejoin: miter"/>
   </g>
   <g id="patch_71">
    <path d="M 270 70.2 
L 297 70.2 
L 297 43.2 
L 270 43.2 
z
" clip-path="url(#p1f7711cc13)" style="fill: #008000; stroke: #008000; stroke-linejoin: miter"/>
   </g>
   <g id="patch_72">
    <path d="M 297 70.2 
L 324 70.2 
L 324 43.2 
L 297 43.2 
z
" clip-path="url(#p1f7711cc13)" style="fill: #ffffff; stroke: #ffffff; stroke-linejoin: miter"/>
   </g>
   <g id="patch_73">
    <path d="M 324 70.2 
L 351 70.2 
L 351 43.2 
L 324 43.2 
z
" clip-path="url(#p1f7711cc13)" style="fill: #ffffff; stroke: #ffffff; stroke-linejoin: miter"/>
   </g>
   <g id="patch_74">
    <path d="M 351 70.2 
L 378 70.2 
L 378 43.2 
L 351 43.2 
z
" clip-path="url(#p1f7711cc13)" style="fill: #ffffff; stroke: #ffffff; stroke-linejoin: miter"/>
   </g>
   <g id="PathCollection_1">
    <defs>
     <path id="m7ebadd0382" d="M 11.18034 0 
L -5.59017 -9.682458 
L -5.59017 9.682458 
z
" style="stroke: #00ffff"/>
    </defs>
    <g clip-path="url(#p1f7711cc13)">
     <use xlink:href="#m7ebadd0382" x="67.5" y="164.7" style="fill: #00ffff; stroke: #00ffff"/>
    </g>
   </g>
   <g id="matplotlib.axis_1"/>
   <g id="line2d_1">
    <path d="M 54 205.2 
L 54 43.2 
" clip-path="url(#p1f7711cc13)" style="fill: none; stroke: #808080; stroke-linecap: square"/>
   </g>
   <g id="line2d_2">
    <path d="M 81 205.2 
L 81 43.2 
" clip-path="url(#p1f7711cc13)" style="fill: none; stroke: #808080; stroke-linecap: square"/>
   </g>
   <g id="line2d_3">
    <path d="M 108 205.2 
L 108 43.2 
" clip-path="url(#p1f7711cc13)" style="fill: none; stroke: #808080; stroke-linecap: square"/>
   </g>
   <g id="line2d_4">
    <path d="M 135 205.2 
L 135 43.2 
" clip-path="url(#p1f7711cc13)" style="fill: none; stroke: #808080; stroke-linecap: square"/>
   </g>
   <g id="line2d_5">
    <path d="M 162 205.2 
L 162 43.2 
" clip-path="url(#p1f7711cc13)" style="fill: none; stroke: #808080; stroke-linecap: square"/>
   </g>
   <g id="line2d_6">
    <path d="M 189 205.2 
L 189 43.2 
" clip-path="url(#p1f7711cc13)" style="fill: none; stroke: #808080; stroke-linecap: square"/>
   </g>
   <g id="line2d_7">
    <path d="M 216 205.2 
L 216 43.2 
" clip-path="url(#p1f7711cc13)" style="fill: none; stroke: #808080; stroke-linecap: square"/>
   </g>
   <g id="line2d_8">
    <path d="M 243 205.2 
L 243 43.2 
" clip-path="url(#p1f7711cc13)" style="fill: none; stroke: #808080; stroke-linecap: square"/>
   </g>
   <g id="line2d_9">
    <path d="M 270 205.2 
L 270 43.2 
" clip-path="url(#p1f7711cc13)" style="fill: none; stroke: #808080; stroke-linecap: square"/>
   </g>
   <g id="line2d_10">
    <path d="M 297 205.2 
L 297 43.2 
" clip-path="url(#p1f7711cc13)" style="fill: none; stroke: #808080; stroke-linecap: square"/>
   </g>
   <g id="line2d_11">
    <path d="M 324 205.2 
L 324 43.2 
" clip-path="url(#p1f7711cc13)" style="fill: none; stroke: #808080; stroke-linecap: square"/>
   </g>
   <g id="line2d_12">
    <path d="M 351 205.2 
L 351 43.2 
" clip-path="url(#p1f7711cc13)" style="fill: none; stroke: #808080; stroke-linecap: square"/>
   </g>
   <g id="line2d_13">
    <path d="M 54 205.2 
L 378 205.2 
" clip-path="url(#p1f7711cc13)" style="fill: none; stroke: #808080; stroke-linecap: square"/>
   </g>
   <g id="line2d_14">
    <path d="M 54 178.2 
L 378 178.2 
" clip-path="url(#p1f7711cc13)" style="fill: none; stroke: #808080; stroke-linecap: square"/>
   </g>
   <g id="line2d_15">
    <path d="M 54 151.2 
L 378 151.2 
" clip-path="url(#p1f7711cc13)" style="fill: none; stroke: #808080; stroke-linecap: square"/>
   </g>
   <g id="line2d_16">
    <path d="M 54 124.2 
L 378 124.2 
" clip-path="url(#p1f7711cc13)" style="fill: none; stroke: #808080; stroke-linecap: square"/>
   </g>
   <g id="line2d_17">
    <path d="M 54 97.2 
L 378 97.2 
" clip-path="url(#p1f7711cc13)" style="fill: none; stroke: #808080; stroke-linecap: square"/>
   </g>
   <g id="line2d_18">
    <path d="M 54 70.2 
L 378 70.2 
" clip-path="url(#p1f7711cc13)" style="fill: none; stroke: #808080; stroke-linecap: square"/>
   </g>
   <g id="patch_75">
    <path d="M 54 205.2 
L 54 43.2 
" style="fill: none; stroke: #000000; stroke-width: 0.8; stroke-linejoin: miter; stroke-linecap: square"/>
   </g>
   <g id="patch_76">
    <path d="M 378 205.2 
L 378 43.2 
" style="fill: none; stroke: #000000; stroke-width: 0.8; stroke-linejoin: miter; stroke-linecap: square"/>
   </g>
   <g id="patch_77">
    <path d="M 54 205.2 
L 378 205.2 
" style="fill: none; stroke: #000000; stroke-width: 0.8; stroke-linejoin: miter; stroke-linecap: square"/>
   </g>
   <g id="patch_78">
    <path d="M 54 43.2 
L 378 43.2 
" style="fill: none; stroke: #000000; stroke-width: 0.8; stroke-linejoin: miter; stroke-linecap: square"/>
   </g>
   <g id="text_1">
    <!-- Fly! -->
    <g transform="translate(204.925312 37.2)scale(0.12 -0.12)">
     <defs>
      <path id="DejaVuSans-46" d="M 628 4666 
L 3309 4666 
L 3309 4134 
L 1259 4134 
L 1259 2759 
L 3109 2759 
L 3109 2228 
L 1259 2228 
L 1259 0 
L 628 0 
L 628 4666 
z
" transform="scale(0.015625)"/>
      <path id="DejaVuSans-6c" d="M 603 4863 
L 1178 4863 
L 1178 0 
L 603 0 
L 603 4863 
z
" transform="scale(0.015625)"/>
      <path id="DejaVuSans-79" d="M 2059 -325 
Q 1816 -950 1584 -1140 
Q 1353 -1331 966 -1331 
L 506 -1331 
L 506 -850 
L 844 -850 
Q 1081 -850 1212 -737 
Q 1344 -625 1503 -206 
L 1606 56 
L 191 3500 
L 800 3500 
L 1894 763 
L 2988 3500 
L 3597 3500 
L 2059 -325 
z
" transform="scale(0.015625)"/>
      <path id="DejaVuSans-21" d="M 966 794 
L 1600 794 
L 1600 0 
L 966 0 
L 966 794 
z
M 966 4666 
L 1600 4666 
L 1600 2619 
L 1538 1503 
L 1031 1503 
L 966 2619 
L 966 4666 
z
" transform="scale(0.015625)"/>
     </defs>
     <use xlink:href="#DejaVuSans-46"/>
     <use xlink:href="#DejaVuSans-6c" x="57.519531"/>
     <use xlink:href="#DejaVuSans-79" x="85.302734"/>
     <use xlink:href="#DejaVuSans-21" x="144.482422"/>
    </g>
   </g>
  </g>
 </g>
 <defs>
  <clipPath id="p1f7711cc13">
   <rect x="54" y="43.2" width="324" height="162"/>
  </clipPath>
 </defs>
</svg>
