<?xml version="1.0" encoding="utf-8" standalone="no"?>
<!DOCTYPE svg PUBLIC "-//W3C//DTD SVG 1.1//EN"
  "http://www.w3.org/Graphics/SVG/1.1/DTD/svg11.dtd">
<svg xmlns:xlink="http://www.w3.org/1999/xlink" width="672pt" height="144pt" viewBox="0 0 672 144" xmlns="http://www.w3.org/2000/svg" version="1.1">
 <metadata>
  <rdf:RDF xmlns:dc="http://purl.org/dc/elements/1.1/" xmlns:cc="http://creativecommons.org/ns#" xmlns:rdf="http://www.w3.org/1999/02/22-rdf-syntax-ns#">
   <cc:Work>
    <dc:type rdf:resource="http://purl.org/dc/dcmitype/StillImage"/>
    <dc:date>2023-09-22T11:27:53.609213</dc:date>
    <dc:format>image/svg+xml</dc:format>
    <dc:creator>
     <cc:Agent>
      <dc:title>Matplotlib v3.5.0, https://matplotlib.org/</dc:title>
     </cc:Agent>
    </dc:creator>
   </cc:Work>
  </rdf:RDF>
 </metadata>
 <defs>
  <style type="text/css">*{stroke-linejoin: round; stroke-linecap: butt}</style>
 </defs>
 <g id="figure_1">
  <g id="patch_1">
   <path d="M 0 144 
L 672 144 
L 672 0 
L 0 0 
z
" style="fill: #ffffff"/>
  </g>
  <g id="axes_1">
   <g id="patch_2">
    <path d="M 84 136.8 
L 588 136.8 
L 588 28.8 
L 84 28.8 
z
" style="fill: #ffffff"/>
   </g>
   <g id="patch_3">
    <path d="M 84 136.8 
L 120 136.8 
L 120 100.8 
L 84 100.8 
z
" clip-path="url(#p143d0b8d7d)" style="stroke: #000000; stroke-linejoin: miter"/>
   </g>
   <g id="patch_4">
    <path d="M 120 136.8 
L 156 136.8 
L 156 100.8 
L 120 100.8 
z
" clip-path="url(#p143d0b8d7d)" style="stroke: #000000; stroke-linejoin: miter"/>
   </g>
   <g id="patch_5">
    <path d="M 156 136.8 
L 192 136.8 
L 192 100.8 
L 156 100.8 
z
" clip-path="url(#p143d0b8d7d)" style="stroke: #000000; stroke-linejoin: miter"/>
   </g>
   <g id="patch_6">
    <path d="M 192 136.8 
L 228 136.8 
L 228 100.8 
L 192 100.8 
z
" clip-path="url(#p143d0b8d7d)" style="fill: #ffffff; stroke: #ffffff; stroke-linejoin: miter"/>
   </g>
   <g id="patch_7">
    <path d="M 228 136.8 
L 264 136.8 
L 264 100.8 
L 228 100.8 
z
" clip-path="url(#p143d0b8d7d)" style="stroke: #000000; stroke-linejoin: miter"/>
   </g>
   <g id="patch_8">
    <path d="M 264 136.8 
L 300 136.8 
L 300 100.8 
L 264 100.8 
z
" clip-path="url(#p143d0b8d7d)" style="stroke: #000000; stroke-linejoin: miter"/>
   </g>
   <g id="patch_9">
    <path d="M 300 136.8 
L 336 136.8 
L 336 100.8 
L 300 100.8 
z
" clip-path="url(#p143d0b8d7d)" style="fill: #ffffff; stroke: #ffffff; stroke-linejoin: miter"/>
   </g>
   <g id="patch_10">
    <path d="M 336 136.8 
L 372 136.8 
L 372 100.8 
L 336 100.8 
z
" clip-path="url(#p143d0b8d7d)" style="stroke: #000000; stroke-linejoin: miter"/>
   </g>
   <g id="patch_11">
    <path d="M 372 136.8 
L 408 136.8 
L 408 100.8 
L 372 100.8 
z
" clip-path="url(#p143d0b8d7d)" style="stroke: #000000; stroke-linejoin: miter"/>
   </g>
   <g id="patch_12">
    <path d="M 408 136.8 
L 444 136.8 
L 444 100.8 
L 408 100.8 
z
" clip-path="url(#p143d0b8d7d)" style="stroke: #000000; stroke-linejoin: miter"/>
   </g>
   <g id="patch_13">
    <path d="M 444 136.8 
L 480 136.8 
L 480 100.8 
L 444 100.8 
z
" clip-path="url(#p143d0b8d7d)" style="stroke: #000000; stroke-linejoin: miter"/>
   </g>
   <g id="patch_14">
    <path d="M 480 136.8 
L 516 136.8 
L 516 100.8 
L 480 100.8 
z
" clip-path="url(#p143d0b8d7d)" style="stroke: #000000; stroke-linejoin: miter"/>
   </g>
   <g id="patch_15">
    <path d="M 516 136.8 
L 552 136.8 
L 552 100.8 
L 516 100.8 
z
" clip-path="url(#p143d0b8d7d)" style="stroke: #000000; stroke-linejoin: miter"/>
   </g>
   <g id="patch_16">
    <path d="M 552 136.8 
L 588 136.8 
L 588 100.8 
L 552 100.8 
z
" clip-path="url(#p143d0b8d7d)" style="stroke: #000000; stroke-linejoin: miter"/>
   </g>
   <g id="patch_17">
    <path d="M 84 100.8 
L 120 100.8 
L 120 64.8 
L 84 64.8 
z
" clip-path="url(#p143d0b8d7d)" style="fill: #0000ff; stroke: #0000ff; stroke-linejoin: miter"/>
   </g>
   <g id="patch_18">
    <path d="M 120 100.8 
L 156 100.8 
L 156 64.8 
L 120 64.8 
z
" clip-path="url(#p143d0b8d7d)" style="fill: #0000ff; stroke: #0000ff; stroke-linejoin: miter"/>
   </g>
   <g id="patch_19">
    <path d="M 156 100.8 
L 192 100.8 
L 192 64.8 
L 156 64.8 
z
" clip-path="url(#p143d0b8d7d)" style="fill: #0000ff; stroke: #0000ff; stroke-linejoin: miter"/>
   </g>
   <g id="patch_20">
    <path d="M 192 100.8 
L 228 100.8 
L 228 64.8 
L 192 64.8 
z
" clip-path="url(#p143d0b8d7d)" style="fill: #ff0000; stroke: #ff0000; stroke-linejoin: miter"/>
   </g>
   <g id="patch_21">
    <path d="M 228 100.8 
L 264 100.8 
L 264 64.8 
L 228 64.8 
z
" clip-path="url(#p143d0b8d7d)" style="fill: #0000ff; stroke: #0000ff; stroke-linejoin: miter"/>
   </g>
   <g id="patch_22">
    <path d="M 264 100.8 
L 300 100.8 
L 300 64.8 
L 264 64.8 
z
" clip-path="url(#p143d0b8d7d)" style="fill: #0000ff; stroke: #0000ff; stroke-linejoin: miter"/>
   </g>
   <g id="patch_23">
    <path d="M 300 100.8 
L 336 100.8 
L 336 64.8 
L 300 64.8 
z
" clip-path="url(#p143d0b8d7d)" style="fill: #ff0000; stroke: #ff0000; stroke-linejoin: miter"/>
   </g>
   <g id="patch_24">
    <path d="M 336 100.8 
L 372 100.8 
L 372 64.8 
L 336 64.8 
z
" clip-path="url(#p143d0b8d7d)" style="fill: #0000ff; stroke: #0000ff; stroke-linejoin: miter"/>
   </g>
   <g id="patch_25">
    <path d="M 372 100.8 
L 408 100.8 
L 408 64.8 
L 372 64.8 
z
" clip-path="url(#p143d0b8d7d)" style="fill: #008000; stroke: #008000; stroke-linejoin: miter"/>
   </g>
   <g id="patch_26">
    <path d="M 408 100.8 
L 444 100.8 
L 444 64.8 
L 408 64.8 
z
" clip-path="url(#p143d0b8d7d)" style="fill: #0000ff; stroke: #0000ff; stroke-linejoin: miter"/>
   </g>
   <g id="patch_27">
    <path d="M 444 100.8 
L 480 100.8 
L 480 64.8 
L 444 64.8 
z
" clip-path="url(#p143d0b8d7d)" style="fill: #008000; stroke: #008000; stroke-linejoin: miter"/>
   </g>
   <g id="patch_28">
    <path d="M 480 100.8 
L 516 100.8 
L 516 64.8 
L 480 64.8 
z
" clip-path="url(#p143d0b8d7d)" style="fill: #0000ff; stroke: #0000ff; stroke-linejoin: miter"/>
   </g>
   <g id="patch_29">
    <path d="M 516 100.8 
L 552 100.8 
L 552 64.8 
L 516 64.8 
z
" clip-path="url(#p143d0b8d7d)" style="fill: #0000ff; stroke: #0000ff; stroke-linejoin: miter"/>
   </g>
   <g id="patch_30">
    <path d="M 552 100.8 
L 588 100.8 
L 588 64.8 
L 552 64.8 
z
" clip-path="url(#p143d0b8d7d)" style="fill: #0000ff; stroke: #0000ff; stroke-linejoin: miter"/>
   </g>
   <g id="patch_31">
    <path d="M 84 64.8 
L 120 64.8 
L 120 28.8 
L 84 28.8 
z
" clip-path="url(#p143d0b8d7d)" style="stroke: #000000; stroke-linejoin: miter"/>
   </g>
   <g id="patch_32">
    <path d="M 120 64.8 
L 156 64.8 
L 156 28.8 
L 120 28.8 
z
" clip-path="url(#p143d0b8d7d)" style="stroke: #000000; stroke-linejoin: miter"/>
   </g>
   <g id="patch_33">
    <path d="M 156 64.8 
L 192 64.8 
L 192 28.8 
L 156 28.8 
z
" clip-path="url(#p143d0b8d7d)" style="stroke: #000000; stroke-linejoin: miter"/>
   </g>
   <g id="patch_34">
    <path d="M 192 64.8 
L 228 64.8 
L 228 28.8 
L 192 28.8 
z
" clip-path="url(#p143d0b8d7d)" style="stroke: #000000; stroke-linejoin: miter"/>
   </g>
   <g id="patch_35">
    <path d="M 228 64.8 
L 264 64.8 
L 264 28.8 
L 228 28.8 
z
" clip-path="url(#p143d0b8d7d)" style="stroke: #000000; stroke-linejoin: miter"/>
   </g>
   <g id="patch_36">
    <path d="M 264 64.8 
L 300 64.8 
L 300 28.8 
L 264 28.8 
z
" clip-path="url(#p143d0b8d7d)" style="stroke: #000000; stroke-linejoin: miter"/>
   </g>
   <g id="patch_37">
    <path d="M 300 64.8 
L 336 64.8 
L 336 28.8 
L 300 28.8 
z
" clip-path="url(#p143d0b8d7d)" style="stroke: #000000; stroke-linejoin: miter"/>
   </g>
   <g id="patch_38">
    <path d="M 336 64.8 
L 372 64.8 
L 372 28.8 
L 336 28.8 
z
" clip-path="url(#p143d0b8d7d)" style="stroke: #000000; stroke-linejoin: miter"/>
   </g>
   <g id="patch_39">
    <path d="M 372 64.8 
L 408 64.8 
L 408 28.8 
L 372 28.8 
z
" clip-path="url(#p143d0b8d7d)" style="fill: #ffffff; stroke: #ffffff; stroke-linejoin: miter"/>
   </g>
   <g id="patch_40">
    <path d="M 408 64.8 
L 444 64.8 
L 444 28.8 
L 408 28.8 
z
" clip-path="url(#p143d0b8d7d)" style="stroke: #000000; stroke-linejoin: miter"/>
   </g>
   <g id="patch_41">
    <path d="M 444 64.8 
L 480 64.8 
L 480 28.8 
L 444 28.8 
z
" clip-path="url(#p143d0b8d7d)" style="fill: #ffffff; stroke: #ffffff; stroke-linejoin: miter"/>
   </g>
   <g id="patch_42">
    <path d="M 480 64.8 
L 516 64.8 
L 516 28.8 
L 480 28.8 
z
" clip-path="url(#p143d0b8d7d)" style="stroke: #000000; stroke-linejoin: miter"/>
   </g>
   <g id="patch_43">
    <path d="M 516 64.8 
L 552 64.8 
L 552 28.8 
L 516 28.8 
z
" clip-path="url(#p143d0b8d7d)" style="stroke: #000000; stroke-linejoin: miter"/>
   </g>
   <g id="patch_44">
    <path d="M 552 64.8 
L 588 64.8 
L 588 28.8 
L 552 28.8 
z
" clip-path="url(#p143d0b8d7d)" style="stroke: #000000; stroke-linejoin: miter"/>
   </g>
   <g id="PathCollection_1">
    <defs>
     <path id="m48a3cf291a" d="M 11.18034 0 
L -5.59017 -9.682458 
L -5.59017 9.682458 
z
" style="stroke: #00ffff"/>
    </defs>
    <g clip-path="url(#p143d0b8d7d)">
     <use xlink:href="#m48a3cf291a" x="570" y="82.8" style="fill: #00ffff; stroke: #00ffff"/>
    </g>
   </g>
   <g id="matplotlib.axis_1"/>
   <g id="line2d_1">
    <path d="M 84 136.8 
L 84 28.8 
" clip-path="url(#p143d0b8d7d)" style="fill: none; stroke: #808080; stroke-linecap: square"/>
   </g>
   <g id="line2d_2">
    <path d="M 120 136.8 
L 120 28.8 
" clip-path="url(#p143d0b8d7d)" style="fill: none; stroke: #808080; stroke-linecap: square"/>
   </g>
   <g id="line2d_3">
    <path d="M 156 136.8 
L 156 28.8 
" clip-path="url(#p143d0b8d7d)" style="fill: none; stroke: #808080; stroke-linecap: square"/>
   </g>
   <g id="line2d_4">
    <path d="M 192 136.8 
L 192 28.8 
" clip-path="url(#p143d0b8d7d)" style="fill: none; stroke: #808080; stroke-linecap: square"/>
   </g>
   <g id="line2d_5">
    <path d="M 228 136.8 
L 228 28.8 
" clip-path="url(#p143d0b8d7d)" style="fill: none; stroke: #808080; stroke-linecap: square"/>
   </g>
   <g id="line2d_6">
    <path d="M 264 136.8 
L 264 28.8 
" clip-path="url(#p143d0b8d7d)" style="fill: none; stroke: #808080; stroke-linecap: square"/>
   </g>
   <g id="line2d_7">
    <path d="M 300 136.8 
L 300 28.8 
" clip-path="url(#p143d0b8d7d)" style="fill: none; stroke: #808080; stroke-linecap: square"/>
   </g>
   <g id="line2d_8">
    <path d="M 336 136.8 
L 336 28.8 
" clip-path="url(#p143d0b8d7d)" style="fill: none; stroke: #808080; stroke-linecap: square"/>
   </g>
   <g id="line2d_9">
    <path d="M 372 136.8 
L 372 28.8 
" clip-path="url(#p143d0b8d7d)" style="fill: none; stroke: #808080; stroke-linecap: square"/>
   </g>
   <g id="line2d_10">
    <path d="M 408 136.8 
L 408 28.8 
" clip-path="url(#p143d0b8d7d)" style="fill: none; stroke: #808080; stroke-linecap: square"/>
   </g>
   <g id="line2d_11">
    <path d="M 444 136.8 
L 444 28.8 
" clip-path="url(#p143d0b8d7d)" style="fill: none; stroke: #808080; stroke-linecap: square"/>
   </g>
   <g id="line2d_12">
    <path d="M 480 136.8 
L 480 28.8 
" clip-path="url(#p143d0b8d7d)" style="fill: none; stroke: #808080; stroke-linecap: square"/>
   </g>
   <g id="line2d_13">
    <path d="M 516 136.8 
L 516 28.8 
" clip-path="url(#p143d0b8d7d)" style="fill: none; stroke: #808080; stroke-linecap: square"/>
   </g>
   <g id="line2d_14">
    <path d="M 552 136.8 
L 552 28.8 
" clip-path="url(#p143d0b8d7d)" style="fill: none; stroke: #808080; stroke-linecap: square"/>
   </g>
   <g id="line2d_15">
    <path d="M 84 136.8 
L 588 136.8 
" clip-path="url(#p143d0b8d7d)" style="fill: none; stroke: #808080; stroke-linecap: square"/>
   </g>
   <g id="line2d_16">
    <path d="M 84 100.8 
L 588 100.8 
" clip-path="url(#p143d0b8d7d)" style="fill: none; stroke: #808080; stroke-linecap: square"/>
   </g>
   <g id="line2d_17">
    <path d="M 84 64.8 
L 588 64.8 
" clip-path="url(#p143d0b8d7d)" style="fill: none; stroke: #808080; stroke-linecap: square"/>
   </g>
   <g id="patch_45">
    <path d="M 84 136.8 
L 84 28.8 
" style="fill: none; stroke: #000000; stroke-width: 0.8; stroke-linejoin: miter; stroke-linecap: square"/>
   </g>
   <g id="patch_46">
    <path d="M 588 136.8 
L 588 28.8 
" style="fill: none; stroke: #000000; stroke-width: 0.8; stroke-linejoin: miter; stroke-linecap: square"/>
   </g>
   <g id="patch_47">
    <path d="M 84 136.8 
L 588 136.8 
" style="fill: none; stroke: #000000; stroke-width: 0.8; stroke-linejoin: miter; stroke-linecap: square"/>
   </g>
   <g id="patch_48">
    <path d="M 84 28.8 
L 588 28.8 
" style="fill: none; stroke: #000000; stroke-width: 0.8; stroke-linejoin: miter; stroke-linecap: square"/>
   </g>
   <g id="text_1">
    <!-- Holes -->
    <g transform="translate(319.332187 22.8)scale(0.12 -0.12)">
     <defs>
      <path id="DejaVuSans-48" d="M 628 4666 
L 1259 4666 
L 1259 2753 
L 3553 2753 
L 3553 4666 
L 4184 4666 
L 4184 0 
L 3553 0 
L 3553 2222 
L 1259 2222 
L 1259 0 
L 628 0 
L 628 4666 
z
" transform="scale(0.015625)"/>
      <path id="DejaVuSans-6f" d="M 1959 3097 
Q 1497 3097 1228 2736 
Q 959 2375 959 1747 
Q 959 1119 1226 758 
Q 1494 397 1959 397 
Q 2419 397 2687 759 
Q 2956 1122 2956 1747 
Q 2956 2369 2687 2733 
Q 2419 3097 1959 3097 
z
M 1959 3584 
Q 2709 3584 3137 3096 
Q 3566 2609 3566 1747 
Q 3566 888 3137 398 
Q 2709 -91 1959 -91 
Q 1206 -91 779 398 
Q 353 888 353 1747 
Q 353 2609 779 3096 
Q 1206 3584 1959 3584 
z
" transform="scale(0.015625)"/>
      <path id="DejaVuSans-6c" d="M 603 4863 
L 1178 4863 
L 1178 0 
L 603 0 
L 603 4863 
z
" transform="scale(0.015625)"/>
      <path id="DejaVuSans-65" d="M 3597 1894 
L 3597 1613 
L 953 1613 
Q 991 1019 1311 708 
Q 1631 397 2203 397 
Q 2534 397 2845 478 
Q 3156 559 3463 722 
L 3463 178 
Q 3153 47 2828 -22 
Q 2503 -91 2169 -91 
Q 1331 -91 842 396 
Q 353 884 353 1716 
Q 353 2575 817 3079 
Q 1281 3584 2069 3584 
Q 2775 3584 3186 3129 
Q 3597 2675 3597 1894 
z
M 3022 2063 
Q 3016 2534 2758 2815 
Q 2500 3097 2075 3097 
Q 1594 3097 1305 2825 
Q 1016 2553 972 2059 
L 3022 2063 
z
" transform="scale(0.015625)"/>
      <path id="DejaVuSans-73" d="M 2834 3397 
L 2834 2853 
Q 2591 2978 2328 3040 
Q 2066 3103 1784 3103 
Q 1356 3103 1142 2972 
Q 928 2841 928 2578 
Q 928 2378 1081 2264 
Q 1234 2150 1697 2047 
L 1894 2003 
Q 2506 1872 2764 1633 
Q 3022 1394 3022 966 
Q 3022 478 2636 193 
Q 2250 -91 1575 -91 
Q 1294 -91 989 -36 
Q 684 19 347 128 
L 347 722 
Q 666 556 975 473 
Q 1284 391 1588 391 
Q 1994 391 2212 530 
Q 2431 669 2431 922 
Q 2431 1156 2273 1281 
Q 2116 1406 1581 1522 
L 1381 1569 
Q 847 1681 609 1914 
Q 372 2147 372 2553 
Q 372 3047 722 3315 
Q 1072 3584 1716 3584 
Q 2034 3584 2315 3537 
Q 2597 3491 2834 3397 
z
" transform="scale(0.015625)"/>
     </defs>
     <use xlink:href="#DejaVuSans-48"/>
     <use xlink:href="#DejaVuSans-6f" x="75.195312"/>
     <use xlink:href="#DejaVuSans-6c" x="136.376953"/>
     <use xlink:href="#DejaVuSans-65" x="164.160156"/>
     <use xlink:href="#DejaVuSans-73" x="225.683594"/>
    </g>
   </g>
  </g>
 </g>
 <defs>
  <clipPath id="p143d0b8d7d">
   <rect x="84" y="28.8" width="504" height="108"/>
  </clipPath>
 </defs>
</svg>
