<?xml version="1.0" encoding="utf-8" standalone="no"?>
<!DOCTYPE svg PUBLIC "-//W3C//DTD SVG 1.1//EN"
  "http://www.w3.org/Graphics/SVG/1.1/DTD/svg11.dtd">
<svg xmlns:xlink="http://www.w3.org/1999/xlink" width="396pt" height="396pt" viewBox="0 0 396 396" xmlns="http://www.w3.org/2000/svg" version="1.1">
 <metadata>
  <rdf:RDF xmlns:dc="http://purl.org/dc/elements/1.1/" xmlns:cc="http://creativecommons.org/ns#" xmlns:rdf="http://www.w3.org/1999/02/22-rdf-syntax-ns#">
   <cc:Work>
    <dc:type rdf:resource="http://purl.org/dc/dcmitype/StillImage"/>
    <dc:date>2023-09-22T11:27:46.783753</dc:date>
    <dc:format>image/svg+xml</dc:format>
    <dc:creator>
     <cc:Agent>
      <dc:title>Matplotlib v3.5.0, https://matplotlib.org/</dc:title>
     </cc:Agent>
    </dc:creator>
   </cc:Work>
  </rdf:RDF>
 </metadata>
 <defs>
  <style type="text/css">*{stroke-linejoin: round; stroke-linecap: butt}</style>
 </defs>
 <g id="figure_1">
  <g id="patch_1">
   <path d="M 0 396 
L 396 396 
L 396 0 
L 0 0 
L 0 396 
z
" style="fill: none"/>
  </g>
  <g id="axes_1">
   <g id="patch_2">
    <path d="M 49.5 376.2 
L 346.5 376.2 
L 346.5 79.2 
L 49.5 79.2 
z
" style="fill: #ffffff"/>
   </g>
   <g id="patch_3">
    <path d="M 49.5 376.2 
L 108.9 376.2 
L 108.9 316.8 
L 49.5 316.8 
z
" clip-path="url(#pf4425f9099)" style="fill: #0000ff; stroke: #0000ff; stroke-linejoin: miter"/>
   </g>
   <g id="patch_4">
    <path d="M 108.9 376.2 
L 168.3 376.2 
L 168.3 316.8 
L 108.9 316.8 
z
" clip-path="url(#pf4425f9099)" style="fill: #ff0000; stroke: #ff0000; stroke-linejoin: miter"/>
   </g>
   <g id="patch_5">
    <path d="M 168.3 376.2 
L 227.7 376.2 
L 227.7 316.8 
L 168.3 316.8 
z
" clip-path="url(#pf4425f9099)" style="fill: #ffffff; stroke: #ffffff; stroke-linejoin: miter"/>
   </g>
   <g id="patch_6">
    <path d="M 227.7 376.2 
L 287.1 376.2 
L 287.1 316.8 
L 227.7 316.8 
z
" clip-path="url(#pf4425f9099)" style="fill: #ffffff; stroke: #ffffff; stroke-linejoin: miter"/>
   </g>
   <g id="patch_7">
    <path d="M 287.1 376.2 
L 346.5 376.2 
L 346.5 316.8 
L 287.1 316.8 
z
" clip-path="url(#pf4425f9099)" style="fill: #ffffff; stroke: #ffffff; stroke-linejoin: miter"/>
   </g>
   <g id="patch_8">
    <path d="M 49.5 316.8 
L 108.9 316.8 
L 108.9 257.4 
L 49.5 257.4 
z
" clip-path="url(#pf4425f9099)" style="fill: #ffffff; stroke: #ffffff; stroke-linejoin: miter"/>
   </g>
   <g id="patch_9">
    <path d="M 108.9 316.8 
L 168.3 316.8 
L 168.3 257.4 
L 108.9 257.4 
z
" clip-path="url(#pf4425f9099)" style="fill: #0000ff; stroke: #0000ff; stroke-linejoin: miter"/>
   </g>
   <g id="patch_10">
    <path d="M 168.3 316.8 
L 227.7 316.8 
L 227.7 257.4 
L 168.3 257.4 
z
" clip-path="url(#pf4425f9099)" style="fill: #ffffff; stroke: #ffffff; stroke-linejoin: miter"/>
   </g>
   <g id="patch_11">
    <path d="M 227.7 316.8 
L 287.1 316.8 
L 287.1 257.4 
L 227.7 257.4 
z
" clip-path="url(#pf4425f9099)" style="fill: #ffffff; stroke: #ffffff; stroke-linejoin: miter"/>
   </g>
   <g id="patch_12">
    <path d="M 287.1 316.8 
L 346.5 316.8 
L 346.5 257.4 
L 287.1 257.4 
z
" clip-path="url(#pf4425f9099)" style="fill: #ffffff; stroke: #ffffff; stroke-linejoin: miter"/>
   </g>
   <g id="patch_13">
    <path d="M 49.5 257.4 
L 108.9 257.4 
L 108.9 198 
L 49.5 198 
z
" clip-path="url(#pf4425f9099)" style="fill: #ffffff; stroke: #ffffff; stroke-linejoin: miter"/>
   </g>
   <g id="patch_14">
    <path d="M 108.9 257.4 
L 168.3 257.4 
L 168.3 198 
L 108.9 198 
z
" clip-path="url(#pf4425f9099)" style="fill: #008000; stroke: #008000; stroke-linejoin: miter"/>
   </g>
   <g id="patch_15">
    <path d="M 168.3 257.4 
L 227.7 257.4 
L 227.7 198 
L 168.3 198 
z
" clip-path="url(#pf4425f9099)" style="fill: #0000ff; stroke: #0000ff; stroke-linejoin: miter"/>
   </g>
   <g id="patch_16">
    <path d="M 227.7 257.4 
L 287.1 257.4 
L 287.1 198 
L 227.7 198 
z
" clip-path="url(#pf4425f9099)" style="fill: #ff0000; stroke: #ff0000; stroke-linejoin: miter"/>
   </g>
   <g id="patch_17">
    <path d="M 287.1 257.4 
L 346.5 257.4 
L 346.5 198 
L 287.1 198 
z
" clip-path="url(#pf4425f9099)" style="fill: #ffffff; stroke: #ffffff; stroke-linejoin: miter"/>
   </g>
   <g id="patch_18">
    <path d="M 49.5 198 
L 108.9 198 
L 108.9 138.6 
L 49.5 138.6 
z
" clip-path="url(#pf4425f9099)" style="fill: #ffffff; stroke: #ffffff; stroke-linejoin: miter"/>
   </g>
   <g id="patch_19">
    <path d="M 108.9 198 
L 168.3 198 
L 168.3 138.6 
L 108.9 138.6 
z
" clip-path="url(#pf4425f9099)" style="fill: #ffffff; stroke: #ffffff; stroke-linejoin: miter"/>
   </g>
   <g id="patch_20">
    <path d="M 168.3 198 
L 227.7 198 
L 227.7 138.6 
L 168.3 138.6 
z
" clip-path="url(#pf4425f9099)" style="fill: #ffffff; stroke: #ffffff; stroke-linejoin: miter"/>
   </g>
   <g id="patch_21">
    <path d="M 227.7 198 
L 287.1 198 
L 287.1 138.6 
L 227.7 138.6 
z
" clip-path="url(#pf4425f9099)" style="fill: #0000ff; stroke: #0000ff; stroke-linejoin: miter"/>
   </g>
   <g id="patch_22">
    <path d="M 287.1 198 
L 346.5 198 
L 346.5 138.6 
L 287.1 138.6 
z
" clip-path="url(#pf4425f9099)" style="fill: #ffffff; stroke: #ffffff; stroke-linejoin: miter"/>
   </g>
   <g id="patch_23">
    <path d="M 49.5 138.6 
L 108.9 138.6 
L 108.9 79.2 
L 49.5 79.2 
z
" clip-path="url(#pf4425f9099)" style="fill: #ffffff; stroke: #ffffff; stroke-linejoin: miter"/>
   </g>
   <g id="patch_24">
    <path d="M 108.9 138.6 
L 168.3 138.6 
L 168.3 79.2 
L 108.9 79.2 
z
" clip-path="url(#pf4425f9099)" style="fill: #ffffff; stroke: #ffffff; stroke-linejoin: miter"/>
   </g>
   <g id="patch_25">
    <path d="M 168.3 138.6 
L 227.7 138.6 
L 227.7 79.2 
L 168.3 79.2 
z
" clip-path="url(#pf4425f9099)" style="fill: #ffffff; stroke: #ffffff; stroke-linejoin: miter"/>
   </g>
   <g id="patch_26">
    <path d="M 227.7 138.6 
L 287.1 138.6 
L 287.1 79.2 
L 227.7 79.2 
z
" clip-path="url(#pf4425f9099)" style="fill: #008000; stroke: #008000; stroke-linejoin: miter"/>
   </g>
   <g id="patch_27">
    <path d="M 287.1 138.6 
L 346.5 138.6 
L 346.5 79.2 
L 287.1 79.2 
z
" clip-path="url(#pf4425f9099)" style="fill: #0000ff; stroke: #0000ff; stroke-linejoin: miter"/>
   </g>
   <g id="PathCollection_1">
    <defs>
     <path id="m827bbc2f1c" d="M 11.18034 0 
L -5.59017 -9.682458 
L -5.59017 9.682458 
z
" style="stroke: #00ffff"/>
    </defs>
    <g clip-path="url(#pf4425f9099)">
     <use xlink:href="#m827bbc2f1c" x="316.8" y="108.9" style="fill: #00ffff; stroke: #00ffff"/>
    </g>
   </g>
   <g id="matplotlib.axis_1"/>
   <g id="line2d_1">
    <path d="M 49.5 376.2 
L 49.5 79.2 
" clip-path="url(#pf4425f9099)" style="fill: none; stroke: #808080; stroke-linecap: square"/>
   </g>
   <g id="line2d_2">
    <path d="M 108.9 376.2 
L 108.9 79.2 
" clip-path="url(#pf4425f9099)" style="fill: none; stroke: #808080; stroke-linecap: square"/>
   </g>
   <g id="line2d_3">
    <path d="M 168.3 376.2 
L 168.3 79.2 
" clip-path="url(#pf4425f9099)" style="fill: none; stroke: #808080; stroke-linecap: square"/>
   </g>
   <g id="line2d_4">
    <path d="M 227.7 376.2 
L 227.7 79.2 
" clip-path="url(#pf4425f9099)" style="fill: none; stroke: #808080; stroke-linecap: square"/>
   </g>
   <g id="line2d_5">
    <path d="M 287.1 376.2 
L 287.1 79.2 
" clip-path="url(#pf4425f9099)" style="fill: none; stroke: #808080; stroke-linecap: square"/>
   </g>
   <g id="line2d_6">
    <path d="M 49.5 376.2 
L 346.5 376.2 
" clip-path="url(#pf4425f9099)" style="fill: none; stroke: #808080; stroke-linecap: square"/>
   </g>
   <g id="line2d_7">
    <path d="M 49.5 316.8 
L 346.5 316.8 
" clip-path="url(#pf4425f9099)" style="fill: none; stroke: #808080; stroke-linecap: square"/>
   </g>
   <g id="line2d_8">
    <path d="M 49.5 257.4 
L 346.5 257.4 
" clip-path="url(#pf4425f9099)" style="fill: none; stroke: #808080; stroke-linecap: square"/>
   </g>
   <g id="line2d_9">
    <path d="M 49.5 198 
L 346.5 198 
" clip-path="url(#pf4425f9099)" style="fill: none; stroke: #808080; stroke-linecap: square"/>
   </g>
   <g id="line2d_10">
    <path d="M 49.5 138.6 
L 346.5 138.6 
" clip-path="url(#pf4425f9099)" style="fill: none; stroke: #808080; stroke-linecap: square"/>
   </g>
   <g id="patch_28">
    <path d="M 49.5 376.2 
L 49.5 79.2 
" style="fill: none; stroke: #000000; stroke-width: 0.8; stroke-linejoin: miter; stroke-linecap: square"/>
   </g>
   <g id="patch_29">
    <path d="M 346.5 376.2 
L 346.5 79.2 
" style="fill: none; stroke: #000000; stroke-width: 0.8; stroke-linejoin: miter; stroke-linecap: square"/>
   </g>
   <g id="patch_30">
    <path d="M 49.5 376.2 
L 346.5 376.2 
" style="fill: none; stroke: #000000; stroke-width: 0.8; stroke-linejoin: miter; stroke-linecap: square"/>
   </g>
   <g id="patch_31">
    <path d="M 49.5 79.2 
L 346.5 79.2 
" style="fill: none; stroke: #000000; stroke-width: 0.8; stroke-linejoin: miter; stroke-linecap: square"/>
   </g>
   <g id="text_1">
    <!-- After -->
    <g transform="translate(183.595313 73.2)scale(0.12 -0.12)">
     <defs>
      <path id="DejaVuSans-41" d="M 2188 4044 
L 1331 1722 
L 3047 1722 
L 2188 4044 
z
M 1831 4666 
L 2547 4666 
L 4325 0 
L 3669 0 
L 3244 1197 
L 1141 1197 
L 716 0 
L 50 0 
L 1831 4666 
z
" transform="scale(0.015625)"/>
      <path id="DejaVuSans-66" d="M 2375 4863 
L 2375 4384 
L 1825 4384 
Q 1516 4384 1395 4259 
Q 1275 4134 1275 3809 
L 1275 3500 
L 2222 3500 
L 2222 3053 
L 1275 3053 
L 1275 0 
L 697 0 
L 697 3053 
L 147 3053 
L 147 3500 
L 697 3500 
L 697 3744 
Q 697 4328 969 4595 
Q 1241 4863 1831 4863 
L 2375 4863 
z
" transform="scale(0.015625)"/>
      <path id="DejaVuSans-74" d="M 1172 4494 
L 1172 3500 
L 2356 3500 
L 2356 3053 
L 1172 3053 
L 1172 1153 
Q 1172 725 1289 603 
Q 1406 481 1766 481 
L 2356 481 
L 2356 0 
L 1766 0 
Q 1100 0 847 248 
Q 594 497 594 1153 
L 594 3053 
L 172 3053 
L 172 3500 
L 594 3500 
L 594 4494 
L 1172 4494 
z
" transform="scale(0.015625)"/>
      <path id="DejaVuSans-65" d="M 3597 1894 
L 3597 1613 
L 953 1613 
Q 991 1019 1311 708 
Q 1631 397 2203 397 
Q 2534 397 2845 478 
Q 3156 559 3463 722 
L 3463 178 
Q 3153 47 2828 -22 
Q 2503 -91 2169 -91 
Q 1331 -91 842 396 
Q 353 884 353 1716 
Q 353 2575 817 3079 
Q 1281 3584 2069 3584 
Q 2775 3584 3186 3129 
Q 3597 2675 3597 1894 
z
M 3022 2063 
Q 3016 2534 2758 2815 
Q 2500 3097 2075 3097 
Q 1594 3097 1305 2825 
Q 1016 2553 972 2059 
L 3022 2063 
z
" transform="scale(0.015625)"/>
      <path id="DejaVuSans-72" d="M 2631 2963 
Q 2534 3019 2420 3045 
Q 2306 3072 2169 3072 
Q 1681 3072 1420 2755 
Q 1159 2438 1159 1844 
L 1159 0 
L 581 0 
L 581 3500 
L 1159 3500 
L 1159 2956 
Q 1341 3275 1631 3429 
Q 1922 3584 2338 3584 
Q 2397 3584 2469 3576 
Q 2541 3569 2628 3553 
L 2631 2963 
z
" transform="scale(0.015625)"/>
     </defs>
     <use xlink:href="#DejaVuSans-41"/>
     <use xlink:href="#DejaVuSans-66" x="64.783203"/>
     <use xlink:href="#DejaVuSans-74" x="98.238281"/>
     <use xlink:href="#DejaVuSans-65" x="137.447266"/>
     <use xlink:href="#DejaVuSans-72" x="198.970703"/>
    </g>
   </g>
  </g>
 </g>
 <defs>
  <clipPath id="pf4425f9099">
   <rect x="49.5" y="79.2" width="297" height="297"/>
  </clipPath>
 </defs>
</svg>
